solid backplate_sv_markers
  facet normal 0.000000e+0 0.000000e+0 1.000000e+0
    outer loop
      vertex 1.923568e+1 1.451158e+2 2.000000e-1
      vertex 1.678843e+2 1.451158e+2 2.000000e-1
      vertex 1.678843e+2 1.551158e+2 2.000000e-1
    endloop
  endfacet
  facet normal 0.000000e+0 0.000000e+0 -1.000000e+0
    outer loop
      vertex 1.923568e+1 1.451158e+2 0.000000e+0
      vertex 1.678843e+2 1.551158e+2 0.000000e+0
      vertex 1.678843e+2 1.451158e+2 0.000000e+0
    endloop
  endfacet
  facet normal 0.000000e+0 0.000000e+0 1.000000e+0
    outer loop
      vertex 1.678843e+2 1.551158e+2 2.000000e-1
      vertex 1.923568e+1 1.551158e+2 2.000000e-1
      vertex 1.923568e+1 1.451158e+2 2.000000e-1
    endloop
  endfacet
  facet normal 0.000000e+0 0.000000e+0 -1.000000e+0
    outer loop
      vertex 1.678843e+2 1.551158e+2 0.000000e+0
      vertex 1.923568e+1 1.451158e+2 0.000000e+0
      vertex 1.923568e+1 1.551158e+2 0.000000e+0
    endloop
  endfacet
  facet normal 0.000000e+0 1.000000e+0 0.000000e+0
    outer loop
      vertex 1.678843e+2 1.551158e+2 0.000000e+0
      vertex 1.923568e+1 1.551158e+2 0.000000e+0
      vertex 1.923568e+1 1.551158e+2 2.000000e-1
    endloop
  endfacet
  facet normal 0.000000e+0 1.000000e+0 0.000000e+0
    outer loop
      vertex 1.678843e+2 1.551158e+2 0.000000e+0
      vertex 1.923568e+1 1.551158e+2 2.000000e-1
      vertex 1.678843e+2 1.551158e+2 2.000000e-1
    endloop
  endfacet
  facet normal -1.000000e+0 0.000000e+0 0.000000e+0
    outer loop
      vertex 1.923568e+1 1.551158e+2 0.000000e+0
      vertex 1.923568e+1 1.451158e+2 0.000000e+0
      vertex 1.923568e+1 1.451158e+2 2.000000e-1
    endloop
  endfacet
  facet normal -1.000000e+0 0.000000e+0 0.000000e+0
    outer loop
      vertex 1.923568e+1 1.551158e+2 0.000000e+0
      vertex 1.923568e+1 1.451158e+2 2.000000e-1
      vertex 1.923568e+1 1.551158e+2 2.000000e-1
    endloop
  endfacet
  facet normal 0.000000e+0 -1.000000e+0 0.000000e+0
    outer loop
      vertex 1.923568e+1 1.451158e+2 0.000000e+0
      vertex 1.678843e+2 1.451158e+2 0.000000e+0
      vertex 1.678843e+2 1.451158e+2 2.000000e-1
    endloop
  endfacet
  facet normal 0.000000e+0 -1.000000e+0 0.000000e+0
    outer loop
      vertex 1.923568e+1 1.451158e+2 0.000000e+0
      vertex 1.678843e+2 1.451158e+2 2.000000e-1
      vertex 1.923568e+1 1.451158e+2 2.000000e-1
    endloop
  endfacet
  facet normal 1.000000e+0 0.000000e+0 0.000000e+0
    outer loop
      vertex 1.678843e+2 1.451158e+2 0.000000e+0
      vertex 1.678843e+2 1.551158e+2 0.000000e+0
      vertex 1.678843e+2 1.551158e+2 2.000000e-1
    endloop
  endfacet
  facet normal 1.000000e+0 0.000000e+0 0.000000e+0
    outer loop
      vertex 1.678843e+2 1.451158e+2 0.000000e+0
      vertex 1.678843e+2 1.551158e+2 2.000000e-1
      vertex 1.678843e+2 1.451158e+2 2.000000e-1
    endloop
  endfacet
  facet normal 0.000000e+0 0.000000e+0 1.000000e+0
    outer loop
      vertex 1.923568e+1 1.316023e+2 2.000000e-1
      vertex 1.678843e+2 1.316023e+2 2.000000e-1
      vertex 1.678843e+2 1.416023e+2 2.000000e-1
    endloop
  endfacet
  facet normal 0.000000e+0 0.000000e+0 -1.000000e+0
    outer loop
      vertex 1.923568e+1 1.316023e+2 0.000000e+0
      vertex 1.678843e+2 1.416023e+2 0.000000e+0
      vertex 1.678843e+2 1.316023e+2 0.000000e+0
    endloop
  endfacet
  facet normal 0.000000e+0 0.000000e+0 1.000000e+0
    outer loop
      vertex 1.678843e+2 1.416023e+2 2.000000e-1
      vertex 1.923568e+1 1.416023e+2 2.000000e-1
      vertex 1.923568e+1 1.316023e+2 2.000000e-1
    endloop
  endfacet
  facet normal 0.000000e+0 0.000000e+0 -1.000000e+0
    outer loop
      vertex 1.678843e+2 1.416023e+2 0.000000e+0
      vertex 1.923568e+1 1.316023e+2 0.000000e+0
      vertex 1.923568e+1 1.416023e+2 0.000000e+0
    endloop
  endfacet
  facet normal 0.000000e+0 1.000000e+0 0.000000e+0
    outer loop
      vertex 1.678843e+2 1.416023e+2 0.000000e+0
      vertex 1.923568e+1 1.416023e+2 0.000000e+0
      vertex 1.923568e+1 1.416023e+2 2.000000e-1
    endloop
  endfacet
  facet normal 0.000000e+0 1.000000e+0 0.000000e+0
    outer loop
      vertex 1.678843e+2 1.416023e+2 0.000000e+0
      vertex 1.923568e+1 1.416023e+2 2.000000e-1
      vertex 1.678843e+2 1.416023e+2 2.000000e-1
    endloop
  endfacet
  facet normal -1.000000e+0 0.000000e+0 0.000000e+0
    outer loop
      vertex 1.923568e+1 1.416023e+2 0.000000e+0
      vertex 1.923568e+1 1.316023e+2 0.000000e+0
      vertex 1.923568e+1 1.316023e+2 2.000000e-1
    endloop
  endfacet
  facet normal -1.000000e+0 0.000000e+0 0.000000e+0
    outer loop
      vertex 1.923568e+1 1.416023e+2 0.000000e+0
      vertex 1.923568e+1 1.316023e+2 2.000000e-1
      vertex 1.923568e+1 1.416023e+2 2.000000e-1
    endloop
  endfacet
  facet normal 0.000000e+0 -1.000000e+0 0.000000e+0
    outer loop
      vertex 1.923568e+1 1.316023e+2 0.000000e+0
      vertex 1.678843e+2 1.316023e+2 0.000000e+0
      vertex 1.678843e+2 1.316023e+2 2.000000e-1
    endloop
  endfacet
  facet normal 0.000000e+0 -1.000000e+0 0.000000e+0
    outer loop
      vertex 1.923568e+1 1.316023e+2 0.000000e+0
      vertex 1.678843e+2 1.316023e+2 2.000000e-1
      vertex 1.923568e+1 1.316023e+2 2.000000e-1
    endloop
  endfacet
  facet normal 1.000000e+0 0.000000e+0 0.000000e+0
    outer loop
      vertex 1.678843e+2 1.316023e+2 0.000000e+0
      vertex 1.678843e+2 1.416023e+2 0.000000e+0
      vertex 1.678843e+2 1.416023e+2 2.000000e-1
    endloop
  endfacet
  facet normal 1.000000e+0 0.000000e+0 0.000000e+0
    outer loop
      vertex 1.678843e+2 1.316023e+2 0.000000e+0
      vertex 1.678843e+2 1.416023e+2 2.000000e-1
      vertex 1.678843e+2 1.316023e+2 2.000000e-1
    endloop
  endfacet
  facet normal 0.000000e+0 0.000000e+0 1.000000e+0
    outer loop
      vertex 1.923568e+1 1.180888e+2 2.000000e-1
      vertex 1.678843e+2 1.180888e+2 2.000000e-1
      vertex 1.678843e+2 1.280888e+2 2.000000e-1
    endloop
  endfacet
  facet normal 0.000000e+0 0.000000e+0 -1.000000e+0
    outer loop
      vertex 1.923568e+1 1.180888e+2 0.000000e+0
      vertex 1.678843e+2 1.280888e+2 0.000000e+0
      vertex 1.678843e+2 1.180888e+2 0.000000e+0
    endloop
  endfacet
  facet normal 0.000000e+0 0.000000e+0 1.000000e+0
    outer loop
      vertex 1.678843e+2 1.280888e+2 2.000000e-1
      vertex 1.923568e+1 1.280888e+2 2.000000e-1
      vertex 1.923568e+1 1.180888e+2 2.000000e-1
    endloop
  endfacet
  facet normal 0.000000e+0 0.000000e+0 -1.000000e+0
    outer loop
      vertex 1.678843e+2 1.280888e+2 0.000000e+0
      vertex 1.923568e+1 1.180888e+2 0.000000e+0
      vertex 1.923568e+1 1.280888e+2 0.000000e+0
    endloop
  endfacet
  facet normal 0.000000e+0 1.000000e+0 0.000000e+0
    outer loop
      vertex 1.678843e+2 1.280888e+2 0.000000e+0
      vertex 1.923568e+1 1.280888e+2 0.000000e+0
      vertex 1.923568e+1 1.280888e+2 2.000000e-1
    endloop
  endfacet
  facet normal 0.000000e+0 1.000000e+0 0.000000e+0
    outer loop
      vertex 1.678843e+2 1.280888e+2 0.000000e+0
      vertex 1.923568e+1 1.280888e+2 2.000000e-1
      vertex 1.678843e+2 1.280888e+2 2.000000e-1
    endloop
  endfacet
  facet normal -1.000000e+0 0.000000e+0 0.000000e+0
    outer loop
      vertex 1.923568e+1 1.280888e+2 0.000000e+0
      vertex 1.923568e+1 1.180888e+2 0.000000e+0
      vertex 1.923568e+1 1.180888e+2 2.000000e-1
    endloop
  endfacet
  facet normal -1.000000e+0 0.000000e+0 0.000000e+0
    outer loop
      vertex 1.923568e+1 1.280888e+2 0.000000e+0
      vertex 1.923568e+1 1.180888e+2 2.000000e-1
      vertex 1.923568e+1 1.280888e+2 2.000000e-1
    endloop
  endfacet
  facet normal 0.000000e+0 -1.000000e+0 0.000000e+0
    outer loop
      vertex 1.923568e+1 1.180888e+2 0.000000e+0
      vertex 1.678843e+2 1.180888e+2 0.000000e+0
      vertex 1.678843e+2 1.180888e+2 2.000000e-1
    endloop
  endfacet
  facet normal 0.000000e+0 -1.000000e+0 0.000000e+0
    outer loop
      vertex 1.923568e+1 1.180888e+2 0.000000e+0
      vertex 1.678843e+2 1.180888e+2 2.000000e-1
      vertex 1.923568e+1 1.180888e+2 2.000000e-1
    endloop
  endfacet
  facet normal 1.000000e+0 0.000000e+0 0.000000e+0
    outer loop
      vertex 1.678843e+2 1.180888e+2 0.000000e+0
      vertex 1.678843e+2 1.280888e+2 0.000000e+0
      vertex 1.678843e+2 1.280888e+2 2.000000e-1
    endloop
  endfacet
  facet normal 1.000000e+0 0.000000e+0 0.000000e+0
    outer loop
      vertex 1.678843e+2 1.180888e+2 0.000000e+0
      vertex 1.678843e+2 1.280888e+2 2.000000e-1
      vertex 1.678843e+2 1.180888e+2 2.000000e-1
    endloop
  endfacet
  facet normal 0.000000e+0 0.000000e+0 1.000000e+0
    outer loop
      vertex 1.923568e+1 1.045753e+2 2.000000e-1
      vertex 1.678843e+2 1.045753e+2 2.000000e-1
      vertex 1.678843e+2 1.145753e+2 2.000000e-1
    endloop
  endfacet
  facet normal 0.000000e+0 0.000000e+0 -1.000000e+0
    outer loop
      vertex 1.923568e+1 1.045753e+2 0.000000e+0
      vertex 1.678843e+2 1.145753e+2 0.000000e+0
      vertex 1.678843e+2 1.045753e+2 0.000000e+0
    endloop
  endfacet
  facet normal 0.000000e+0 0.000000e+0 1.000000e+0
    outer loop
      vertex 1.678843e+2 1.145753e+2 2.000000e-1
      vertex 1.923568e+1 1.145753e+2 2.000000e-1
      vertex 1.923568e+1 1.045753e+2 2.000000e-1
    endloop
  endfacet
  facet normal 0.000000e+0 0.000000e+0 -1.000000e+0
    outer loop
      vertex 1.678843e+2 1.145753e+2 0.000000e+0
      vertex 1.923568e+1 1.045753e+2 0.000000e+0
      vertex 1.923568e+1 1.145753e+2 0.000000e+0
    endloop
  endfacet
  facet normal 0.000000e+0 1.000000e+0 0.000000e+0
    outer loop
      vertex 1.678843e+2 1.145753e+2 0.000000e+0
      vertex 1.923568e+1 1.145753e+2 0.000000e+0
      vertex 1.923568e+1 1.145753e+2 2.000000e-1
    endloop
  endfacet
  facet normal 0.000000e+0 1.000000e+0 0.000000e+0
    outer loop
      vertex 1.678843e+2 1.145753e+2 0.000000e+0
      vertex 1.923568e+1 1.145753e+2 2.000000e-1
      vertex 1.678843e+2 1.145753e+2 2.000000e-1
    endloop
  endfacet
  facet normal -1.000000e+0 0.000000e+0 0.000000e+0
    outer loop
      vertex 1.923568e+1 1.145753e+2 0.000000e+0
      vertex 1.923568e+1 1.045753e+2 0.000000e+0
      vertex 1.923568e+1 1.045753e+2 2.000000e-1
    endloop
  endfacet
  facet normal -1.000000e+0 0.000000e+0 0.000000e+0
    outer loop
      vertex 1.923568e+1 1.145753e+2 0.000000e+0
      vertex 1.923568e+1 1.045753e+2 2.000000e-1
      vertex 1.923568e+1 1.145753e+2 2.000000e-1
    endloop
  endfacet
  facet normal 0.000000e+0 -1.000000e+0 0.000000e+0
    outer loop
      vertex 1.923568e+1 1.045753e+2 0.000000e+0
      vertex 1.678843e+2 1.045753e+2 0.000000e+0
      vertex 1.678843e+2 1.045753e+2 2.000000e-1
    endloop
  endfacet
  facet normal 0.000000e+0 -1.000000e+0 0.000000e+0
    outer loop
      vertex 1.923568e+1 1.045753e+2 0.000000e+0
      vertex 1.678843e+2 1.045753e+2 2.000000e-1
      vertex 1.923568e+1 1.045753e+2 2.000000e-1
    endloop
  endfacet
  facet normal 1.000000e+0 0.000000e+0 0.000000e+0
    outer loop
      vertex 1.678843e+2 1.045753e+2 0.000000e+0
      vertex 1.678843e+2 1.145753e+2 0.000000e+0
      vertex 1.678843e+2 1.145753e+2 2.000000e-1
    endloop
  endfacet
  facet normal 1.000000e+0 0.000000e+0 0.000000e+0
    outer loop
      vertex 1.678843e+2 1.045753e+2 0.000000e+0
      vertex 1.678843e+2 1.145753e+2 2.000000e-1
      vertex 1.678843e+2 1.045753e+2 2.000000e-1
    endloop
  endfacet
  facet normal 0.000000e+0 0.000000e+0 1.000000e+0
    outer loop
      vertex 1.923568e+1 9.106176e+1 2.000000e-1
      vertex 1.678843e+2 9.106176e+1 2.000000e-1
      vertex 1.678843e+2 1.010618e+2 2.000000e-1
    endloop
  endfacet
  facet normal 0.000000e+0 0.000000e+0 -1.000000e+0
    outer loop
      vertex 1.923568e+1 9.106176e+1 0.000000e+0
      vertex 1.678843e+2 1.010618e+2 0.000000e+0
      vertex 1.678843e+2 9.106176e+1 0.000000e+0
    endloop
  endfacet
  facet normal 0.000000e+0 0.000000e+0 1.000000e+0
    outer loop
      vertex 1.678843e+2 1.010618e+2 2.000000e-1
      vertex 1.923568e+1 1.010618e+2 2.000000e-1
      vertex 1.923568e+1 9.106176e+1 2.000000e-1
    endloop
  endfacet
  facet normal 0.000000e+0 0.000000e+0 -1.000000e+0
    outer loop
      vertex 1.678843e+2 1.010618e+2 0.000000e+0
      vertex 1.923568e+1 9.106176e+1 0.000000e+0
      vertex 1.923568e+1 1.010618e+2 0.000000e+0
    endloop
  endfacet
  facet normal 0.000000e+0 1.000000e+0 0.000000e+0
    outer loop
      vertex 1.678843e+2 1.010618e+2 0.000000e+0
      vertex 1.923568e+1 1.010618e+2 0.000000e+0
      vertex 1.923568e+1 1.010618e+2 2.000000e-1
    endloop
  endfacet
  facet normal 0.000000e+0 1.000000e+0 0.000000e+0
    outer loop
      vertex 1.678843e+2 1.010618e+2 0.000000e+0
      vertex 1.923568e+1 1.010618e+2 2.000000e-1
      vertex 1.678843e+2 1.010618e+2 2.000000e-1
    endloop
  endfacet
  facet normal -1.000000e+0 0.000000e+0 0.000000e+0
    outer loop
      vertex 1.923568e+1 1.010618e+2 0.000000e+0
      vertex 1.923568e+1 9.106176e+1 0.000000e+0
      vertex 1.923568e+1 9.106176e+1 2.000000e-1
    endloop
  endfacet
  facet normal -1.000000e+0 0.000000e+0 0.000000e+0
    outer loop
      vertex 1.923568e+1 1.010618e+2 0.000000e+0
      vertex 1.923568e+1 9.106176e+1 2.000000e-1
      vertex 1.923568e+1 1.010618e+2 2.000000e-1
    endloop
  endfacet
  facet normal 0.000000e+0 -1.000000e+0 0.000000e+0
    outer loop
      vertex 1.923568e+1 9.106176e+1 0.000000e+0
      vertex 1.678843e+2 9.106176e+1 0.000000e+0
      vertex 1.678843e+2 9.106176e+1 2.000000e-1
    endloop
  endfacet
  facet normal 0.000000e+0 -1.000000e+0 0.000000e+0
    outer loop
      vertex 1.923568e+1 9.106176e+1 0.000000e+0
      vertex 1.678843e+2 9.106176e+1 2.000000e-1
      vertex 1.923568e+1 9.106176e+1 2.000000e-1
    endloop
  endfacet
  facet normal 1.000000e+0 0.000000e+0 0.000000e+0
    outer loop
      vertex 1.678843e+2 9.106176e+1 0.000000e+0
      vertex 1.678843e+2 1.010618e+2 0.000000e+0
      vertex 1.678843e+2 1.010618e+2 2.000000e-1
    endloop
  endfacet
  facet normal 1.000000e+0 0.000000e+0 0.000000e+0
    outer loop
      vertex 1.678843e+2 9.106176e+1 0.000000e+0
      vertex 1.678843e+2 1.010618e+2 2.000000e-1
      vertex 1.678843e+2 9.106176e+1 2.000000e-1
    endloop
  endfacet
  facet normal 0.000000e+0 0.000000e+0 1.000000e+0
    outer loop
      vertex 1.923568e+1 7.754824e+1 2.000000e-1
      vertex 1.678843e+2 7.754824e+1 2.000000e-1
      vertex 1.678843e+2 8.754824e+1 2.000000e-1
    endloop
  endfacet
  facet normal 0.000000e+0 0.000000e+0 -1.000000e+0
    outer loop
      vertex 1.923568e+1 7.754824e+1 0.000000e+0
      vertex 1.678843e+2 8.754824e+1 0.000000e+0
      vertex 1.678843e+2 7.754824e+1 0.000000e+0
    endloop
  endfacet
  facet normal 0.000000e+0 0.000000e+0 1.000000e+0
    outer loop
      vertex 1.678843e+2 8.754824e+1 2.000000e-1
      vertex 1.923568e+1 8.754824e+1 2.000000e-1
      vertex 1.923568e+1 7.754824e+1 2.000000e-1
    endloop
  endfacet
  facet normal 0.000000e+0 0.000000e+0 -1.000000e+0
    outer loop
      vertex 1.678843e+2 8.754824e+1 0.000000e+0
      vertex 1.923568e+1 7.754824e+1 0.000000e+0
      vertex 1.923568e+1 8.754824e+1 0.000000e+0
    endloop
  endfacet
  facet normal 0.000000e+0 1.000000e+0 0.000000e+0
    outer loop
      vertex 1.678843e+2 8.754824e+1 0.000000e+0
      vertex 1.923568e+1 8.754824e+1 0.000000e+0
      vertex 1.923568e+1 8.754824e+1 2.000000e-1
    endloop
  endfacet
  facet normal 0.000000e+0 1.000000e+0 0.000000e+0
    outer loop
      vertex 1.678843e+2 8.754824e+1 0.000000e+0
      vertex 1.923568e+1 8.754824e+1 2.000000e-1
      vertex 1.678843e+2 8.754824e+1 2.000000e-1
    endloop
  endfacet
  facet normal -1.000000e+0 0.000000e+0 0.000000e+0
    outer loop
      vertex 1.923568e+1 8.754824e+1 0.000000e+0
      vertex 1.923568e+1 7.754824e+1 0.000000e+0
      vertex 1.923568e+1 7.754824e+1 2.000000e-1
    endloop
  endfacet
  facet normal -1.000000e+0 0.000000e+0 0.000000e+0
    outer loop
      vertex 1.923568e+1 8.754824e+1 0.000000e+0
      vertex 1.923568e+1 7.754824e+1 2.000000e-1
      vertex 1.923568e+1 8.754824e+1 2.000000e-1
    endloop
  endfacet
  facet normal 0.000000e+0 -1.000000e+0 0.000000e+0
    outer loop
      vertex 1.923568e+1 7.754824e+1 0.000000e+0
      vertex 1.678843e+2 7.754824e+1 0.000000e+0
      vertex 1.678843e+2 7.754824e+1 2.000000e-1
    endloop
  endfacet
  facet normal 0.000000e+0 -1.000000e+0 0.000000e+0
    outer loop
      vertex 1.923568e+1 7.754824e+1 0.000000e+0
      vertex 1.678843e+2 7.754824e+1 2.000000e-1
      vertex 1.923568e+1 7.754824e+1 2.000000e-1
    endloop
  endfacet
  facet normal 1.000000e+0 0.000000e+0 0.000000e+0
    outer loop
      vertex 1.678843e+2 7.754824e+1 0.000000e+0
      vertex 1.678843e+2 8.754824e+1 0.000000e+0
      vertex 1.678843e+2 8.754824e+1 2.000000e-1
    endloop
  endfacet
  facet normal 1.000000e+0 0.000000e+0 0.000000e+0
    outer loop
      vertex 1.678843e+2 7.754824e+1 0.000000e+0
      vertex 1.678843e+2 8.754824e+1 2.000000e-1
      vertex 1.678843e+2 7.754824e+1 2.000000e-1
    endloop
  endfacet
  facet normal 0.000000e+0 0.000000e+0 1.000000e+0
    outer loop
      vertex 1.923568e+1 6.403473e+1 2.000000e-1
      vertex 1.678843e+2 6.403473e+1 2.000000e-1
      vertex 1.678843e+2 7.403473e+1 2.000000e-1
    endloop
  endfacet
  facet normal 0.000000e+0 0.000000e+0 -1.000000e+0
    outer loop
      vertex 1.923568e+1 6.403473e+1 0.000000e+0
      vertex 1.678843e+2 7.403473e+1 0.000000e+0
      vertex 1.678843e+2 6.403473e+1 0.000000e+0
    endloop
  endfacet
  facet normal 0.000000e+0 0.000000e+0 1.000000e+0
    outer loop
      vertex 1.678843e+2 7.403473e+1 2.000000e-1
      vertex 1.923568e+1 7.403473e+1 2.000000e-1
      vertex 1.923568e+1 6.403473e+1 2.000000e-1
    endloop
  endfacet
  facet normal 0.000000e+0 0.000000e+0 -1.000000e+0
    outer loop
      vertex 1.678843e+2 7.403473e+1 0.000000e+0
      vertex 1.923568e+1 6.403473e+1 0.000000e+0
      vertex 1.923568e+1 7.403473e+1 0.000000e+0
    endloop
  endfacet
  facet normal 0.000000e+0 1.000000e+0 0.000000e+0
    outer loop
      vertex 1.678843e+2 7.403473e+1 0.000000e+0
      vertex 1.923568e+1 7.403473e+1 0.000000e+0
      vertex 1.923568e+1 7.403473e+1 2.000000e-1
    endloop
  endfacet
  facet normal 0.000000e+0 1.000000e+0 0.000000e+0
    outer loop
      vertex 1.678843e+2 7.403473e+1 0.000000e+0
      vertex 1.923568e+1 7.403473e+1 2.000000e-1
      vertex 1.678843e+2 7.403473e+1 2.000000e-1
    endloop
  endfacet
  facet normal -1.000000e+0 0.000000e+0 0.000000e+0
    outer loop
      vertex 1.923568e+1 7.403473e+1 0.000000e+0
      vertex 1.923568e+1 6.403473e+1 0.000000e+0
      vertex 1.923568e+1 6.403473e+1 2.000000e-1
    endloop
  endfacet
  facet normal -1.000000e+0 0.000000e+0 0.000000e+0
    outer loop
      vertex 1.923568e+1 7.403473e+1 0.000000e+0
      vertex 1.923568e+1 6.403473e+1 2.000000e-1
      vertex 1.923568e+1 7.403473e+1 2.000000e-1
    endloop
  endfacet
  facet normal 0.000000e+0 -1.000000e+0 0.000000e+0
    outer loop
      vertex 1.923568e+1 6.403473e+1 0.000000e+0
      vertex 1.678843e+2 6.403473e+1 0.000000e+0
      vertex 1.678843e+2 6.403473e+1 2.000000e-1
    endloop
  endfacet
  facet normal 0.000000e+0 -1.000000e+0 0.000000e+0
    outer loop
      vertex 1.923568e+1 6.403473e+1 0.000000e+0
      vertex 1.678843e+2 6.403473e+1 2.000000e-1
      vertex 1.923568e+1 6.403473e+1 2.000000e-1
    endloop
  endfacet
  facet normal 1.000000e+0 0.000000e+0 0.000000e+0
    outer loop
      vertex 1.678843e+2 6.403473e+1 0.000000e+0
      vertex 1.678843e+2 7.403473e+1 0.000000e+0
      vertex 1.678843e+2 7.403473e+1 2.000000e-1
    endloop
  endfacet
  facet normal 1.000000e+0 0.000000e+0 0.000000e+0
    outer loop
      vertex 1.678843e+2 6.403473e+1 0.000000e+0
      vertex 1.678843e+2 7.403473e+1 2.000000e-1
      vertex 1.678843e+2 6.403473e+1 2.000000e-1
    endloop
  endfacet
  facet normal 0.000000e+0 0.000000e+0 1.000000e+0
    outer loop
      vertex 1.923568e+1 5.052122e+1 2.000000e-1
      vertex 1.678843e+2 5.052122e+1 2.000000e-1
      vertex 1.678843e+2 6.052122e+1 2.000000e-1
    endloop
  endfacet
  facet normal 0.000000e+0 0.000000e+0 -1.000000e+0
    outer loop
      vertex 1.923568e+1 5.052122e+1 0.000000e+0
      vertex 1.678843e+2 6.052122e+1 0.000000e+0
      vertex 1.678843e+2 5.052122e+1 0.000000e+0
    endloop
  endfacet
  facet normal 0.000000e+0 0.000000e+0 1.000000e+0
    outer loop
      vertex 1.678843e+2 6.052122e+1 2.000000e-1
      vertex 1.923568e+1 6.052122e+1 2.000000e-1
      vertex 1.923568e+1 5.052122e+1 2.000000e-1
    endloop
  endfacet
  facet normal 0.000000e+0 0.000000e+0 -1.000000e+0
    outer loop
      vertex 1.678843e+2 6.052122e+1 0.000000e+0
      vertex 1.923568e+1 5.052122e+1 0.000000e+0
      vertex 1.923568e+1 6.052122e+1 0.000000e+0
    endloop
  endfacet
  facet normal 0.000000e+0 1.000000e+0 0.000000e+0
    outer loop
      vertex 1.678843e+2 6.052122e+1 0.000000e+0
      vertex 1.923568e+1 6.052122e+1 0.000000e+0
      vertex 1.923568e+1 6.052122e+1 2.000000e-1
    endloop
  endfacet
  facet normal 0.000000e+0 1.000000e+0 0.000000e+0
    outer loop
      vertex 1.678843e+2 6.052122e+1 0.000000e+0
      vertex 1.923568e+1 6.052122e+1 2.000000e-1
      vertex 1.678843e+2 6.052122e+1 2.000000e-1
    endloop
  endfacet
  facet normal -1.000000e+0 0.000000e+0 0.000000e+0
    outer loop
      vertex 1.923568e+1 6.052122e+1 0.000000e+0
      vertex 1.923568e+1 5.052122e+1 0.000000e+0
      vertex 1.923568e+1 5.052122e+1 2.000000e-1
    endloop
  endfacet
  facet normal -1.000000e+0 0.000000e+0 0.000000e+0
    outer loop
      vertex 1.923568e+1 6.052122e+1 0.000000e+0
      vertex 1.923568e+1 5.052122e+1 2.000000e-1
      vertex 1.923568e+1 6.052122e+1 2.000000e-1
    endloop
  endfacet
  facet normal 0.000000e+0 -1.000000e+0 0.000000e+0
    outer loop
      vertex 1.923568e+1 5.052122e+1 0.000000e+0
      vertex 1.678843e+2 5.052122e+1 0.000000e+0
      vertex 1.678843e+2 5.052122e+1 2.000000e-1
    endloop
  endfacet
  facet normal 0.000000e+0 -1.000000e+0 0.000000e+0
    outer loop
      vertex 1.923568e+1 5.052122e+1 0.000000e+0
      vertex 1.678843e+2 5.052122e+1 2.000000e-1
      vertex 1.923568e+1 5.052122e+1 2.000000e-1
    endloop
  endfacet
  facet normal 1.000000e+0 0.000000e+0 0.000000e+0
    outer loop
      vertex 1.678843e+2 5.052122e+1 0.000000e+0
      vertex 1.678843e+2 6.052122e+1 0.000000e+0
      vertex 1.678843e+2 6.052122e+1 2.000000e-1
    endloop
  endfacet
  facet normal 1.000000e+0 0.000000e+0 0.000000e+0
    outer loop
      vertex 1.678843e+2 5.052122e+1 0.000000e+0
      vertex 1.678843e+2 6.052122e+1 2.000000e-1
      vertex 1.678843e+2 5.052122e+1 2.000000e-1
    endloop
  endfacet
  facet normal 0.000000e+0 0.000000e+0 1.000000e+0
    outer loop
      vertex 1.923568e+1 3.700770e+1 2.000000e-1
      vertex 1.678843e+2 3.700770e+1 2.000000e-1
      vertex 1.678843e+2 4.700770e+1 2.000000e-1
    endloop
  endfacet
  facet normal 0.000000e+0 0.000000e+0 -1.000000e+0
    outer loop
      vertex 1.923568e+1 3.700770e+1 0.000000e+0
      vertex 1.678843e+2 4.700770e+1 0.000000e+0
      vertex 1.678843e+2 3.700770e+1 0.000000e+0
    endloop
  endfacet
  facet normal 0.000000e+0 0.000000e+0 1.000000e+0
    outer loop
      vertex 1.678843e+2 4.700770e+1 2.000000e-1
      vertex 1.923568e+1 4.700770e+1 2.000000e-1
      vertex 1.923568e+1 3.700770e+1 2.000000e-1
    endloop
  endfacet
  facet normal 0.000000e+0 0.000000e+0 -1.000000e+0
    outer loop
      vertex 1.678843e+2 4.700770e+1 0.000000e+0
      vertex 1.923568e+1 3.700770e+1 0.000000e+0
      vertex 1.923568e+1 4.700770e+1 0.000000e+0
    endloop
  endfacet
  facet normal 0.000000e+0 1.000000e+0 0.000000e+0
    outer loop
      vertex 1.678843e+2 4.700770e+1 0.000000e+0
      vertex 1.923568e+1 4.700770e+1 0.000000e+0
      vertex 1.923568e+1 4.700770e+1 2.000000e-1
    endloop
  endfacet
  facet normal 0.000000e+0 1.000000e+0 0.000000e+0
    outer loop
      vertex 1.678843e+2 4.700770e+1 0.000000e+0
      vertex 1.923568e+1 4.700770e+1 2.000000e-1
      vertex 1.678843e+2 4.700770e+1 2.000000e-1
    endloop
  endfacet
  facet normal -1.000000e+0 0.000000e+0 0.000000e+0
    outer loop
      vertex 1.923568e+1 4.700770e+1 0.000000e+0
      vertex 1.923568e+1 3.700770e+1 0.000000e+0
      vertex 1.923568e+1 3.700770e+1 2.000000e-1
    endloop
  endfacet
  facet normal -1.000000e+0 0.000000e+0 0.000000e+0
    outer loop
      vertex 1.923568e+1 4.700770e+1 0.000000e+0
      vertex 1.923568e+1 3.700770e+1 2.000000e-1
      vertex 1.923568e+1 4.700770e+1 2.000000e-1
    endloop
  endfacet
  facet normal 0.000000e+0 -1.000000e+0 0.000000e+0
    outer loop
      vertex 1.923568e+1 3.700770e+1 0.000000e+0
      vertex 1.678843e+2 3.700770e+1 0.000000e+0
      vertex 1.678843e+2 3.700770e+1 2.000000e-1
    endloop
  endfacet
  facet normal 0.000000e+0 -1.000000e+0 0.000000e+0
    outer loop
      vertex 1.923568e+1 3.700770e+1 0.000000e+0
      vertex 1.678843e+2 3.700770e+1 2.000000e-1
      vertex 1.923568e+1 3.700770e+1 2.000000e-1
    endloop
  endfacet
  facet normal 1.000000e+0 0.000000e+0 0.000000e+0
    outer loop
      vertex 1.678843e+2 3.700770e+1 0.000000e+0
      vertex 1.678843e+2 4.700770e+1 0.000000e+0
      vertex 1.678843e+2 4.700770e+1 2.000000e-1
    endloop
  endfacet
  facet normal 1.000000e+0 0.000000e+0 0.000000e+0
    outer loop
      vertex 1.678843e+2 3.700770e+1 0.000000e+0
      vertex 1.678843e+2 4.700770e+1 2.000000e-1
      vertex 1.678843e+2 3.700770e+1 2.000000e-1
    endloop
  endfacet
  facet normal 0.000000e+0 0.000000e+0 1.000000e+0
    outer loop
      vertex 1.923568e+1 2.349419e+1 2.000000e-1
      vertex 1.678843e+2 2.349419e+1 2.000000e-1
      vertex 1.678843e+2 3.349419e+1 2.000000e-1
    endloop
  endfacet
  facet normal 0.000000e+0 0.000000e+0 -1.000000e+0
    outer loop
      vertex 1.923568e+1 2.349419e+1 0.000000e+0
      vertex 1.678843e+2 3.349419e+1 0.000000e+0
      vertex 1.678843e+2 2.349419e+1 0.000000e+0
    endloop
  endfacet
  facet normal 0.000000e+0 0.000000e+0 1.000000e+0
    outer loop
      vertex 1.678843e+2 3.349419e+1 2.000000e-1
      vertex 1.923568e+1 3.349419e+1 2.000000e-1
      vertex 1.923568e+1 2.349419e+1 2.000000e-1
    endloop
  endfacet
  facet normal 0.000000e+0 0.000000e+0 -1.000000e+0
    outer loop
      vertex 1.678843e+2 3.349419e+1 0.000000e+0
      vertex 1.923568e+1 2.349419e+1 0.000000e+0
      vertex 1.923568e+1 3.349419e+1 0.000000e+0
    endloop
  endfacet
  facet normal 0.000000e+0 1.000000e+0 0.000000e+0
    outer loop
      vertex 1.678843e+2 3.349419e+1 0.000000e+0
      vertex 1.923568e+1 3.349419e+1 0.000000e+0
      vertex 1.923568e+1 3.349419e+1 2.000000e-1
    endloop
  endfacet
  facet normal 0.000000e+0 1.000000e+0 0.000000e+0
    outer loop
      vertex 1.678843e+2 3.349419e+1 0.000000e+0
      vertex 1.923568e+1 3.349419e+1 2.000000e-1
      vertex 1.678843e+2 3.349419e+1 2.000000e-1
    endloop
  endfacet
  facet normal -1.000000e+0 0.000000e+0 0.000000e+0
    outer loop
      vertex 1.923568e+1 3.349419e+1 0.000000e+0
      vertex 1.923568e+1 2.349419e+1 0.000000e+0
      vertex 1.923568e+1 2.349419e+1 2.000000e-1
    endloop
  endfacet
  facet normal -1.000000e+0 0.000000e+0 0.000000e+0
    outer loop
      vertex 1.923568e+1 3.349419e+1 0.000000e+0
      vertex 1.923568e+1 2.349419e+1 2.000000e-1
      vertex 1.923568e+1 3.349419e+1 2.000000e-1
    endloop
  endfacet
  facet normal 0.000000e+0 -1.000000e+0 0.000000e+0
    outer loop
      vertex 1.923568e+1 2.349419e+1 0.000000e+0
      vertex 1.678843e+2 2.349419e+1 0.000000e+0
      vertex 1.678843e+2 2.349419e+1 2.000000e-1
    endloop
  endfacet
  facet normal 0.000000e+0 -1.000000e+0 0.000000e+0
    outer loop
      vertex 1.923568e+1 2.349419e+1 0.000000e+0
      vertex 1.678843e+2 2.349419e+1 2.000000e-1
      vertex 1.923568e+1 2.349419e+1 2.000000e-1
    endloop
  endfacet
  facet normal 1.000000e+0 0.000000e+0 0.000000e+0
    outer loop
      vertex 1.678843e+2 2.349419e+1 0.000000e+0
      vertex 1.678843e+2 3.349419e+1 0.000000e+0
      vertex 1.678843e+2 3.349419e+1 2.000000e-1
    endloop
  endfacet
  facet normal 1.000000e+0 0.000000e+0 0.000000e+0
    outer loop
      vertex 1.678843e+2 2.349419e+1 0.000000e+0
      vertex 1.678843e+2 3.349419e+1 2.000000e-1
      vertex 1.678843e+2 2.349419e+1 2.000000e-1
    endloop
  endfacet
endsolid backplate_sv_markers
