solid frontplate_0_0
  facet normal 0.000000e+0 0.000000e+0 -1.000000e+0
    outer loop
      vertex 0.000000e+0 4.000000e+0 0.000000e+0
      vertex 1.830000e+2 4.000000e+0 0.000000e+0
      vertex 1.830000e+2 0.000000e+0 0.000000e+0
    endloop
  endfacet
  facet normal 0.000000e+0 0.000000e+0 -1.000000e+0
    outer loop
      vertex 0.000000e+0 4.000000e+0 0.000000e+0
      vertex 1.830000e+2 0.000000e+0 0.000000e+0
      vertex 0.000000e+0 0.000000e+0 0.000000e+0
    endloop
  endfacet
  facet normal 0.000000e+0 0.000000e+0 1.000000e+0
    outer loop
      vertex 0.000000e+0 0.000000e+0 3.000000e+0
      vertex 1.830000e+2 0.000000e+0 3.000000e+0
      vertex 1.830000e+2 4.000000e+0 3.000000e+0
    endloop
  endfacet
  facet normal 0.000000e+0 0.000000e+0 1.000000e+0
    outer loop
      vertex 0.000000e+0 0.000000e+0 3.000000e+0
      vertex 1.830000e+2 4.000000e+0 3.000000e+0
      vertex 0.000000e+0 4.000000e+0 3.000000e+0
    endloop
  endfacet
  facet normal 0.000000e+0 -1.000000e+0 0.000000e+0
    outer loop
      vertex 0.000000e+0 0.000000e+0 0.000000e+0
      vertex 1.830000e+2 0.000000e+0 0.000000e+0
      vertex 1.830000e+2 0.000000e+0 3.000000e+0
    endloop
  endfacet
  facet normal 0.000000e+0 -1.000000e+0 0.000000e+0
    outer loop
      vertex 0.000000e+0 0.000000e+0 0.000000e+0
      vertex 1.830000e+2 0.000000e+0 3.000000e+0
      vertex 0.000000e+0 0.000000e+0 3.000000e+0
    endloop
  endfacet
  facet normal 0.000000e+0 1.000000e+0 0.000000e+0
    outer loop
      vertex 1.830000e+2 4.000000e+0 0.000000e+0
      vertex 0.000000e+0 4.000000e+0 0.000000e+0
      vertex 0.000000e+0 4.000000e+0 3.000000e+0
    endloop
  endfacet
  facet normal 0.000000e+0 1.000000e+0 0.000000e+0
    outer loop
      vertex 1.830000e+2 4.000000e+0 0.000000e+0
      vertex 0.000000e+0 4.000000e+0 3.000000e+0
      vertex 1.830000e+2 4.000000e+0 3.000000e+0
    endloop
  endfacet
  facet normal -1.000000e+0 0.000000e+0 0.000000e+0
    outer loop
      vertex 0.000000e+0 4.000000e+0 0.000000e+0
      vertex 0.000000e+0 0.000000e+0 0.000000e+0
      vertex 0.000000e+0 0.000000e+0 3.000000e+0
    endloop
  endfacet
  facet normal -1.000000e+0 0.000000e+0 0.000000e+0
    outer loop
      vertex 0.000000e+0 4.000000e+0 0.000000e+0
      vertex 0.000000e+0 0.000000e+0 3.000000e+0
      vertex 0.000000e+0 4.000000e+0 3.000000e+0
    endloop
  endfacet
  facet normal 1.000000e+0 0.000000e+0 0.000000e+0
    outer loop
      vertex 1.830000e+2 0.000000e+0 0.000000e+0
      vertex 1.830000e+2 4.000000e+0 0.000000e+0
      vertex 1.830000e+2 4.000000e+0 3.000000e+0
    endloop
  endfacet
  facet normal 1.000000e+0 0.000000e+0 0.000000e+0
    outer loop
      vertex 1.830000e+2 0.000000e+0 0.000000e+0
      vertex 1.830000e+2 4.000000e+0 3.000000e+0
      vertex 1.830000e+2 0.000000e+0 3.000000e+0
    endloop
  endfacet
  facet normal 0.000000e+0 0.000000e+0 -1.000000e+0
    outer loop
      vertex 0.000000e+0 8.600000e+1 0.000000e+0
      vertex 1.830000e+2 8.600000e+1 0.000000e+0
      vertex 1.830000e+2 7.800000e+1 0.000000e+0
    endloop
  endfacet
  facet normal 0.000000e+0 0.000000e+0 -1.000000e+0
    outer loop
      vertex 0.000000e+0 8.600000e+1 0.000000e+0
      vertex 1.830000e+2 7.800000e+1 0.000000e+0
      vertex 0.000000e+0 7.800000e+1 0.000000e+0
    endloop
  endfacet
  facet normal 0.000000e+0 0.000000e+0 1.000000e+0
    outer loop
      vertex 0.000000e+0 7.800000e+1 3.000000e+0
      vertex 1.830000e+2 7.800000e+1 3.000000e+0
      vertex 1.830000e+2 8.600000e+1 3.000000e+0
    endloop
  endfacet
  facet normal 0.000000e+0 0.000000e+0 1.000000e+0
    outer loop
      vertex 0.000000e+0 7.800000e+1 3.000000e+0
      vertex 1.830000e+2 8.600000e+1 3.000000e+0
      vertex 0.000000e+0 8.600000e+1 3.000000e+0
    endloop
  endfacet
  facet normal 0.000000e+0 -1.000000e+0 0.000000e+0
    outer loop
      vertex 0.000000e+0 7.800000e+1 0.000000e+0
      vertex 1.830000e+2 7.800000e+1 0.000000e+0
      vertex 1.830000e+2 7.800000e+1 3.000000e+0
    endloop
  endfacet
  facet normal 0.000000e+0 -1.000000e+0 0.000000e+0
    outer loop
      vertex 0.000000e+0 7.800000e+1 0.000000e+0
      vertex 1.830000e+2 7.800000e+1 3.000000e+0
      vertex 0.000000e+0 7.800000e+1 3.000000e+0
    endloop
  endfacet
  facet normal 0.000000e+0 1.000000e+0 0.000000e+0
    outer loop
      vertex 1.830000e+2 8.600000e+1 0.000000e+0
      vertex 0.000000e+0 8.600000e+1 0.000000e+0
      vertex 0.000000e+0 8.600000e+1 3.000000e+0
    endloop
  endfacet
  facet normal 0.000000e+0 1.000000e+0 0.000000e+0
    outer loop
      vertex 1.830000e+2 8.600000e+1 0.000000e+0
      vertex 0.000000e+0 8.600000e+1 3.000000e+0
      vertex 1.830000e+2 8.600000e+1 3.000000e+0
    endloop
  endfacet
  facet normal -1.000000e+0 0.000000e+0 0.000000e+0
    outer loop
      vertex 0.000000e+0 8.600000e+1 0.000000e+0
      vertex 0.000000e+0 7.800000e+1 0.000000e+0
      vertex 0.000000e+0 7.800000e+1 3.000000e+0
    endloop
  endfacet
  facet normal -1.000000e+0 0.000000e+0 0.000000e+0
    outer loop
      vertex 0.000000e+0 8.600000e+1 0.000000e+0
      vertex 0.000000e+0 7.800000e+1 3.000000e+0
      vertex 0.000000e+0 8.600000e+1 3.000000e+0
    endloop
  endfacet
  facet normal 1.000000e+0 0.000000e+0 0.000000e+0
    outer loop
      vertex 1.830000e+2 7.800000e+1 0.000000e+0
      vertex 1.830000e+2 8.600000e+1 0.000000e+0
      vertex 1.830000e+2 8.600000e+1 3.000000e+0
    endloop
  endfacet
  facet normal 1.000000e+0 0.000000e+0 0.000000e+0
    outer loop
      vertex 1.830000e+2 7.800000e+1 0.000000e+0
      vertex 1.830000e+2 8.600000e+1 3.000000e+0
      vertex 1.830000e+2 7.800000e+1 3.000000e+0
    endloop
  endfacet
  facet normal 0.000000e+0 0.000000e+0 -1.000000e+0
    outer loop
      vertex 0.000000e+0 1.310000e+2 0.000000e+0
      vertex 1.830000e+2 1.310000e+2 0.000000e+0
      vertex 1.830000e+2 1.230000e+2 0.000000e+0
    endloop
  endfacet
  facet normal 0.000000e+0 0.000000e+0 -1.000000e+0
    outer loop
      vertex 0.000000e+0 1.310000e+2 0.000000e+0
      vertex 1.830000e+2 1.230000e+2 0.000000e+0
      vertex 0.000000e+0 1.230000e+2 0.000000e+0
    endloop
  endfacet
  facet normal 0.000000e+0 0.000000e+0 1.000000e+0
    outer loop
      vertex 0.000000e+0 1.230000e+2 3.000000e+0
      vertex 1.830000e+2 1.230000e+2 3.000000e+0
      vertex 1.830000e+2 1.310000e+2 3.000000e+0
    endloop
  endfacet
  facet normal 0.000000e+0 0.000000e+0 1.000000e+0
    outer loop
      vertex 0.000000e+0 1.230000e+2 3.000000e+0
      vertex 1.830000e+2 1.310000e+2 3.000000e+0
      vertex 0.000000e+0 1.310000e+2 3.000000e+0
    endloop
  endfacet
  facet normal 0.000000e+0 -1.000000e+0 0.000000e+0
    outer loop
      vertex 0.000000e+0 1.230000e+2 0.000000e+0
      vertex 1.830000e+2 1.230000e+2 0.000000e+0
      vertex 1.830000e+2 1.230000e+2 3.000000e+0
    endloop
  endfacet
  facet normal 0.000000e+0 -1.000000e+0 0.000000e+0
    outer loop
      vertex 0.000000e+0 1.230000e+2 0.000000e+0
      vertex 1.830000e+2 1.230000e+2 3.000000e+0
      vertex 0.000000e+0 1.230000e+2 3.000000e+0
    endloop
  endfacet
  facet normal 0.000000e+0 1.000000e+0 0.000000e+0
    outer loop
      vertex 1.830000e+2 1.310000e+2 0.000000e+0
      vertex 0.000000e+0 1.310000e+2 0.000000e+0
      vertex 0.000000e+0 1.310000e+2 3.000000e+0
    endloop
  endfacet
  facet normal 0.000000e+0 1.000000e+0 0.000000e+0
    outer loop
      vertex 1.830000e+2 1.310000e+2 0.000000e+0
      vertex 0.000000e+0 1.310000e+2 3.000000e+0
      vertex 1.830000e+2 1.310000e+2 3.000000e+0
    endloop
  endfacet
  facet normal -1.000000e+0 0.000000e+0 0.000000e+0
    outer loop
      vertex 0.000000e+0 1.310000e+2 0.000000e+0
      vertex 0.000000e+0 1.230000e+2 0.000000e+0
      vertex 0.000000e+0 1.230000e+2 3.000000e+0
    endloop
  endfacet
  facet normal -1.000000e+0 0.000000e+0 0.000000e+0
    outer loop
      vertex 0.000000e+0 1.310000e+2 0.000000e+0
      vertex 0.000000e+0 1.230000e+2 3.000000e+0
      vertex 0.000000e+0 1.310000e+2 3.000000e+0
    endloop
  endfacet
  facet normal 1.000000e+0 0.000000e+0 0.000000e+0
    outer loop
      vertex 1.830000e+2 1.230000e+2 0.000000e+0
      vertex 1.830000e+2 1.310000e+2 0.000000e+0
      vertex 1.830000e+2 1.310000e+2 3.000000e+0
    endloop
  endfacet
  facet normal 1.000000e+0 0.000000e+0 0.000000e+0
    outer loop
      vertex 1.830000e+2 1.230000e+2 0.000000e+0
      vertex 1.830000e+2 1.310000e+2 3.000000e+0
      vertex 1.830000e+2 1.230000e+2 3.000000e+0
    endloop
  endfacet
  facet normal 0.000000e+0 0.000000e+0 -1.000000e+0
    outer loop
      vertex 0.000000e+0 1.760000e+2 0.000000e+0
      vertex 1.830000e+2 1.760000e+2 0.000000e+0
      vertex 1.830000e+2 1.680000e+2 0.000000e+0
    endloop
  endfacet
  facet normal 0.000000e+0 0.000000e+0 -1.000000e+0
    outer loop
      vertex 0.000000e+0 1.760000e+2 0.000000e+0
      vertex 1.830000e+2 1.680000e+2 0.000000e+0
      vertex 0.000000e+0 1.680000e+2 0.000000e+0
    endloop
  endfacet
  facet normal 0.000000e+0 0.000000e+0 1.000000e+0
    outer loop
      vertex 0.000000e+0 1.680000e+2 3.000000e+0
      vertex 1.830000e+2 1.680000e+2 3.000000e+0
      vertex 1.830000e+2 1.760000e+2 3.000000e+0
    endloop
  endfacet
  facet normal 0.000000e+0 0.000000e+0 1.000000e+0
    outer loop
      vertex 0.000000e+0 1.680000e+2 3.000000e+0
      vertex 1.830000e+2 1.760000e+2 3.000000e+0
      vertex 0.000000e+0 1.760000e+2 3.000000e+0
    endloop
  endfacet
  facet normal 0.000000e+0 -1.000000e+0 0.000000e+0
    outer loop
      vertex 0.000000e+0 1.680000e+2 0.000000e+0
      vertex 1.830000e+2 1.680000e+2 0.000000e+0
      vertex 1.830000e+2 1.680000e+2 3.000000e+0
    endloop
  endfacet
  facet normal 0.000000e+0 -1.000000e+0 0.000000e+0
    outer loop
      vertex 0.000000e+0 1.680000e+2 0.000000e+0
      vertex 1.830000e+2 1.680000e+2 3.000000e+0
      vertex 0.000000e+0 1.680000e+2 3.000000e+0
    endloop
  endfacet
  facet normal 0.000000e+0 1.000000e+0 0.000000e+0
    outer loop
      vertex 1.830000e+2 1.760000e+2 0.000000e+0
      vertex 0.000000e+0 1.760000e+2 0.000000e+0
      vertex 0.000000e+0 1.760000e+2 3.000000e+0
    endloop
  endfacet
  facet normal 0.000000e+0 1.000000e+0 0.000000e+0
    outer loop
      vertex 1.830000e+2 1.760000e+2 0.000000e+0
      vertex 0.000000e+0 1.760000e+2 3.000000e+0
      vertex 1.830000e+2 1.760000e+2 3.000000e+0
    endloop
  endfacet
  facet normal -1.000000e+0 0.000000e+0 0.000000e+0
    outer loop
      vertex 0.000000e+0 1.760000e+2 0.000000e+0
      vertex 0.000000e+0 1.680000e+2 0.000000e+0
      vertex 0.000000e+0 1.680000e+2 3.000000e+0
    endloop
  endfacet
  facet normal -1.000000e+0 0.000000e+0 0.000000e+0
    outer loop
      vertex 0.000000e+0 1.760000e+2 0.000000e+0
      vertex 0.000000e+0 1.680000e+2 3.000000e+0
      vertex 0.000000e+0 1.760000e+2 3.000000e+0
    endloop
  endfacet
  facet normal 1.000000e+0 0.000000e+0 0.000000e+0
    outer loop
      vertex 1.830000e+2 1.680000e+2 0.000000e+0
      vertex 1.830000e+2 1.760000e+2 0.000000e+0
      vertex 1.830000e+2 1.760000e+2 3.000000e+0
    endloop
  endfacet
  facet normal 1.000000e+0 0.000000e+0 0.000000e+0
    outer loop
      vertex 1.830000e+2 1.680000e+2 0.000000e+0
      vertex 1.830000e+2 1.760000e+2 3.000000e+0
      vertex 1.830000e+2 1.680000e+2 3.000000e+0
    endloop
  endfacet
  facet normal 0.000000e+0 0.000000e+0 -1.000000e+0
    outer loop
      vertex 0.000000e+0 4.100000e+1 0.000000e+0
      vertex 4.000000e+0 4.100000e+1 0.000000e+0
      vertex 4.000000e+0 4.000000e+0 0.000000e+0
    endloop
  endfacet
  facet normal 0.000000e+0 0.000000e+0 -1.000000e+0
    outer loop
      vertex 0.000000e+0 4.100000e+1 0.000000e+0
      vertex 4.000000e+0 4.000000e+0 0.000000e+0
      vertex 0.000000e+0 4.000000e+0 0.000000e+0
    endloop
  endfacet
  facet normal 0.000000e+0 0.000000e+0 1.000000e+0
    outer loop
      vertex 0.000000e+0 4.000000e+0 3.000000e+0
      vertex 4.000000e+0 4.000000e+0 3.000000e+0
      vertex 4.000000e+0 4.100000e+1 3.000000e+0
    endloop
  endfacet
  facet normal 0.000000e+0 0.000000e+0 1.000000e+0
    outer loop
      vertex 0.000000e+0 4.000000e+0 3.000000e+0
      vertex 4.000000e+0 4.100000e+1 3.000000e+0
      vertex 0.000000e+0 4.100000e+1 3.000000e+0
    endloop
  endfacet
  facet normal 0.000000e+0 -1.000000e+0 0.000000e+0
    outer loop
      vertex 0.000000e+0 4.000000e+0 0.000000e+0
      vertex 4.000000e+0 4.000000e+0 0.000000e+0
      vertex 4.000000e+0 4.000000e+0 3.000000e+0
    endloop
  endfacet
  facet normal 0.000000e+0 -1.000000e+0 0.000000e+0
    outer loop
      vertex 0.000000e+0 4.000000e+0 0.000000e+0
      vertex 4.000000e+0 4.000000e+0 3.000000e+0
      vertex 0.000000e+0 4.000000e+0 3.000000e+0
    endloop
  endfacet
  facet normal 0.000000e+0 1.000000e+0 0.000000e+0
    outer loop
      vertex 4.000000e+0 4.100000e+1 0.000000e+0
      vertex 0.000000e+0 4.100000e+1 0.000000e+0
      vertex 0.000000e+0 4.100000e+1 3.000000e+0
    endloop
  endfacet
  facet normal 0.000000e+0 1.000000e+0 0.000000e+0
    outer loop
      vertex 4.000000e+0 4.100000e+1 0.000000e+0
      vertex 0.000000e+0 4.100000e+1 3.000000e+0
      vertex 4.000000e+0 4.100000e+1 3.000000e+0
    endloop
  endfacet
  facet normal -1.000000e+0 0.000000e+0 0.000000e+0
    outer loop
      vertex 0.000000e+0 4.100000e+1 0.000000e+0
      vertex 0.000000e+0 4.000000e+0 0.000000e+0
      vertex 0.000000e+0 4.000000e+0 3.000000e+0
    endloop
  endfacet
  facet normal -1.000000e+0 0.000000e+0 0.000000e+0
    outer loop
      vertex 0.000000e+0 4.100000e+1 0.000000e+0
      vertex 0.000000e+0 4.000000e+0 3.000000e+0
      vertex 0.000000e+0 4.100000e+1 3.000000e+0
    endloop
  endfacet
  facet normal 1.000000e+0 0.000000e+0 0.000000e+0
    outer loop
      vertex 4.000000e+0 4.000000e+0 0.000000e+0
      vertex 4.000000e+0 4.100000e+1 0.000000e+0
      vertex 4.000000e+0 4.100000e+1 3.000000e+0
    endloop
  endfacet
  facet normal 1.000000e+0 0.000000e+0 0.000000e+0
    outer loop
      vertex 4.000000e+0 4.000000e+0 0.000000e+0
      vertex 4.000000e+0 4.100000e+1 3.000000e+0
      vertex 4.000000e+0 4.000000e+0 3.000000e+0
    endloop
  endfacet
  facet normal 0.000000e+0 0.000000e+0 -1.000000e+0
    outer loop
      vertex 7.800000e+1 4.100000e+1 0.000000e+0
      vertex 8.600000e+1 4.100000e+1 0.000000e+0
      vertex 8.600000e+1 4.000000e+0 0.000000e+0
    endloop
  endfacet
  facet normal 0.000000e+0 0.000000e+0 -1.000000e+0
    outer loop
      vertex 7.800000e+1 4.100000e+1 0.000000e+0
      vertex 8.600000e+1 4.000000e+0 0.000000e+0
      vertex 7.800000e+1 4.000000e+0 0.000000e+0
    endloop
  endfacet
  facet normal 0.000000e+0 0.000000e+0 1.000000e+0
    outer loop
      vertex 7.800000e+1 4.000000e+0 3.000000e+0
      vertex 8.600000e+1 4.000000e+0 3.000000e+0
      vertex 8.600000e+1 4.100000e+1 3.000000e+0
    endloop
  endfacet
  facet normal 0.000000e+0 0.000000e+0 1.000000e+0
    outer loop
      vertex 7.800000e+1 4.000000e+0 3.000000e+0
      vertex 8.600000e+1 4.100000e+1 3.000000e+0
      vertex 7.800000e+1 4.100000e+1 3.000000e+0
    endloop
  endfacet
  facet normal 0.000000e+0 -1.000000e+0 0.000000e+0
    outer loop
      vertex 7.800000e+1 4.000000e+0 0.000000e+0
      vertex 8.600000e+1 4.000000e+0 0.000000e+0
      vertex 8.600000e+1 4.000000e+0 3.000000e+0
    endloop
  endfacet
  facet normal 0.000000e+0 -1.000000e+0 0.000000e+0
    outer loop
      vertex 7.800000e+1 4.000000e+0 0.000000e+0
      vertex 8.600000e+1 4.000000e+0 3.000000e+0
      vertex 7.800000e+1 4.000000e+0 3.000000e+0
    endloop
  endfacet
  facet normal 0.000000e+0 1.000000e+0 0.000000e+0
    outer loop
      vertex 8.600000e+1 4.100000e+1 0.000000e+0
      vertex 7.800000e+1 4.100000e+1 0.000000e+0
      vertex 7.800000e+1 4.100000e+1 3.000000e+0
    endloop
  endfacet
  facet normal 0.000000e+0 1.000000e+0 0.000000e+0
    outer loop
      vertex 8.600000e+1 4.100000e+1 0.000000e+0
      vertex 7.800000e+1 4.100000e+1 3.000000e+0
      vertex 8.600000e+1 4.100000e+1 3.000000e+0
    endloop
  endfacet
  facet normal -1.000000e+0 0.000000e+0 0.000000e+0
    outer loop
      vertex 7.800000e+1 4.100000e+1 0.000000e+0
      vertex 7.800000e+1 4.000000e+0 0.000000e+0
      vertex 7.800000e+1 4.000000e+0 3.000000e+0
    endloop
  endfacet
  facet normal -1.000000e+0 0.000000e+0 0.000000e+0
    outer loop
      vertex 7.800000e+1 4.100000e+1 0.000000e+0
      vertex 7.800000e+1 4.000000e+0 3.000000e+0
      vertex 7.800000e+1 4.100000e+1 3.000000e+0
    endloop
  endfacet
  facet normal 1.000000e+0 0.000000e+0 0.000000e+0
    outer loop
      vertex 8.600000e+1 4.000000e+0 0.000000e+0
      vertex 8.600000e+1 4.100000e+1 0.000000e+0
      vertex 8.600000e+1 4.100000e+1 3.000000e+0
    endloop
  endfacet
  facet normal 1.000000e+0 0.000000e+0 0.000000e+0
    outer loop
      vertex 8.600000e+1 4.000000e+0 0.000000e+0
      vertex 8.600000e+1 4.100000e+1 3.000000e+0
      vertex 8.600000e+1 4.000000e+0 3.000000e+0
    endloop
  endfacet
  facet normal 0.000000e+0 0.000000e+0 -1.000000e+0
    outer loop
      vertex 1.230000e+2 4.100000e+1 0.000000e+0
      vertex 1.310000e+2 4.100000e+1 0.000000e+0
      vertex 1.310000e+2 4.000000e+0 0.000000e+0
    endloop
  endfacet
  facet normal 0.000000e+0 0.000000e+0 -1.000000e+0
    outer loop
      vertex 1.230000e+2 4.100000e+1 0.000000e+0
      vertex 1.310000e+2 4.000000e+0 0.000000e+0
      vertex 1.230000e+2 4.000000e+0 0.000000e+0
    endloop
  endfacet
  facet normal 0.000000e+0 0.000000e+0 1.000000e+0
    outer loop
      vertex 1.230000e+2 4.000000e+0 3.000000e+0
      vertex 1.310000e+2 4.000000e+0 3.000000e+0
      vertex 1.310000e+2 4.100000e+1 3.000000e+0
    endloop
  endfacet
  facet normal 0.000000e+0 0.000000e+0 1.000000e+0
    outer loop
      vertex 1.230000e+2 4.000000e+0 3.000000e+0
      vertex 1.310000e+2 4.100000e+1 3.000000e+0
      vertex 1.230000e+2 4.100000e+1 3.000000e+0
    endloop
  endfacet
  facet normal 0.000000e+0 -1.000000e+0 0.000000e+0
    outer loop
      vertex 1.230000e+2 4.000000e+0 0.000000e+0
      vertex 1.310000e+2 4.000000e+0 0.000000e+0
      vertex 1.310000e+2 4.000000e+0 3.000000e+0
    endloop
  endfacet
  facet normal 0.000000e+0 -1.000000e+0 0.000000e+0
    outer loop
      vertex 1.230000e+2 4.000000e+0 0.000000e+0
      vertex 1.310000e+2 4.000000e+0 3.000000e+0
      vertex 1.230000e+2 4.000000e+0 3.000000e+0
    endloop
  endfacet
  facet normal 0.000000e+0 1.000000e+0 0.000000e+0
    outer loop
      vertex 1.310000e+2 4.100000e+1 0.000000e+0
      vertex 1.230000e+2 4.100000e+1 0.000000e+0
      vertex 1.230000e+2 4.100000e+1 3.000000e+0
    endloop
  endfacet
  facet normal 0.000000e+0 1.000000e+0 0.000000e+0
    outer loop
      vertex 1.310000e+2 4.100000e+1 0.000000e+0
      vertex 1.230000e+2 4.100000e+1 3.000000e+0
      vertex 1.310000e+2 4.100000e+1 3.000000e+0
    endloop
  endfacet
  facet normal -1.000000e+0 0.000000e+0 0.000000e+0
    outer loop
      vertex 1.230000e+2 4.100000e+1 0.000000e+0
      vertex 1.230000e+2 4.000000e+0 0.000000e+0
      vertex 1.230000e+2 4.000000e+0 3.000000e+0
    endloop
  endfacet
  facet normal -1.000000e+0 0.000000e+0 0.000000e+0
    outer loop
      vertex 1.230000e+2 4.100000e+1 0.000000e+0
      vertex 1.230000e+2 4.000000e+0 3.000000e+0
      vertex 1.230000e+2 4.100000e+1 3.000000e+0
    endloop
  endfacet
  facet normal 1.000000e+0 0.000000e+0 0.000000e+0
    outer loop
      vertex 1.310000e+2 4.000000e+0 0.000000e+0
      vertex 1.310000e+2 4.100000e+1 0.000000e+0
      vertex 1.310000e+2 4.100000e+1 3.000000e+0
    endloop
  endfacet
  facet normal 1.000000e+0 0.000000e+0 0.000000e+0
    outer loop
      vertex 1.310000e+2 4.000000e+0 0.000000e+0
      vertex 1.310000e+2 4.100000e+1 3.000000e+0
      vertex 1.310000e+2 4.000000e+0 3.000000e+0
    endloop
  endfacet
  facet normal 0.000000e+0 0.000000e+0 -1.000000e+0
    outer loop
      vertex 1.680000e+2 4.100000e+1 0.000000e+0
      vertex 1.760000e+2 4.100000e+1 0.000000e+0
      vertex 1.760000e+2 4.000000e+0 0.000000e+0
    endloop
  endfacet
  facet normal 0.000000e+0 0.000000e+0 -1.000000e+0
    outer loop
      vertex 1.680000e+2 4.100000e+1 0.000000e+0
      vertex 1.760000e+2 4.000000e+0 0.000000e+0
      vertex 1.680000e+2 4.000000e+0 0.000000e+0
    endloop
  endfacet
  facet normal 0.000000e+0 0.000000e+0 1.000000e+0
    outer loop
      vertex 1.680000e+2 4.000000e+0 3.000000e+0
      vertex 1.760000e+2 4.000000e+0 3.000000e+0
      vertex 1.760000e+2 4.100000e+1 3.000000e+0
    endloop
  endfacet
  facet normal 0.000000e+0 0.000000e+0 1.000000e+0
    outer loop
      vertex 1.680000e+2 4.000000e+0 3.000000e+0
      vertex 1.760000e+2 4.100000e+1 3.000000e+0
      vertex 1.680000e+2 4.100000e+1 3.000000e+0
    endloop
  endfacet
  facet normal 0.000000e+0 -1.000000e+0 0.000000e+0
    outer loop
      vertex 1.680000e+2 4.000000e+0 0.000000e+0
      vertex 1.760000e+2 4.000000e+0 0.000000e+0
      vertex 1.760000e+2 4.000000e+0 3.000000e+0
    endloop
  endfacet
  facet normal 0.000000e+0 -1.000000e+0 0.000000e+0
    outer loop
      vertex 1.680000e+2 4.000000e+0 0.000000e+0
      vertex 1.760000e+2 4.000000e+0 3.000000e+0
      vertex 1.680000e+2 4.000000e+0 3.000000e+0
    endloop
  endfacet
  facet normal 0.000000e+0 1.000000e+0 0.000000e+0
    outer loop
      vertex 1.760000e+2 4.100000e+1 0.000000e+0
      vertex 1.680000e+2 4.100000e+1 0.000000e+0
      vertex 1.680000e+2 4.100000e+1 3.000000e+0
    endloop
  endfacet
  facet normal 0.000000e+0 1.000000e+0 0.000000e+0
    outer loop
      vertex 1.760000e+2 4.100000e+1 0.000000e+0
      vertex 1.680000e+2 4.100000e+1 3.000000e+0
      vertex 1.760000e+2 4.100000e+1 3.000000e+0
    endloop
  endfacet
  facet normal -1.000000e+0 0.000000e+0 0.000000e+0
    outer loop
      vertex 1.680000e+2 4.100000e+1 0.000000e+0
      vertex 1.680000e+2 4.000000e+0 0.000000e+0
      vertex 1.680000e+2 4.000000e+0 3.000000e+0
    endloop
  endfacet
  facet normal -1.000000e+0 0.000000e+0 0.000000e+0
    outer loop
      vertex 1.680000e+2 4.100000e+1 0.000000e+0
      vertex 1.680000e+2 4.000000e+0 3.000000e+0
      vertex 1.680000e+2 4.100000e+1 3.000000e+0
    endloop
  endfacet
  facet normal 1.000000e+0 0.000000e+0 0.000000e+0
    outer loop
      vertex 1.760000e+2 4.000000e+0 0.000000e+0
      vertex 1.760000e+2 4.100000e+1 0.000000e+0
      vertex 1.760000e+2 4.100000e+1 3.000000e+0
    endloop
  endfacet
  facet normal 1.000000e+0 0.000000e+0 0.000000e+0
    outer loop
      vertex 1.760000e+2 4.000000e+0 0.000000e+0
      vertex 1.760000e+2 4.100000e+1 3.000000e+0
      vertex 1.760000e+2 4.000000e+0 3.000000e+0
    endloop
  endfacet
  facet normal 0.000000e+0 0.000000e+0 -1.000000e+0
    outer loop
      vertex 0.000000e+0 8.600000e+1 0.000000e+0
      vertex 4.000000e+0 8.600000e+1 0.000000e+0
      vertex 4.000000e+0 4.900000e+1 0.000000e+0
    endloop
  endfacet
  facet normal 0.000000e+0 0.000000e+0 -1.000000e+0
    outer loop
      vertex 0.000000e+0 8.600000e+1 0.000000e+0
      vertex 4.000000e+0 4.900000e+1 0.000000e+0
      vertex 0.000000e+0 4.900000e+1 0.000000e+0
    endloop
  endfacet
  facet normal 0.000000e+0 0.000000e+0 1.000000e+0
    outer loop
      vertex 0.000000e+0 4.900000e+1 3.000000e+0
      vertex 4.000000e+0 4.900000e+1 3.000000e+0
      vertex 4.000000e+0 8.600000e+1 3.000000e+0
    endloop
  endfacet
  facet normal 0.000000e+0 0.000000e+0 1.000000e+0
    outer loop
      vertex 0.000000e+0 4.900000e+1 3.000000e+0
      vertex 4.000000e+0 8.600000e+1 3.000000e+0
      vertex 0.000000e+0 8.600000e+1 3.000000e+0
    endloop
  endfacet
  facet normal 0.000000e+0 -1.000000e+0 0.000000e+0
    outer loop
      vertex 0.000000e+0 4.900000e+1 0.000000e+0
      vertex 4.000000e+0 4.900000e+1 0.000000e+0
      vertex 4.000000e+0 4.900000e+1 3.000000e+0
    endloop
  endfacet
  facet normal 0.000000e+0 -1.000000e+0 0.000000e+0
    outer loop
      vertex 0.000000e+0 4.900000e+1 0.000000e+0
      vertex 4.000000e+0 4.900000e+1 3.000000e+0
      vertex 0.000000e+0 4.900000e+1 3.000000e+0
    endloop
  endfacet
  facet normal 0.000000e+0 1.000000e+0 0.000000e+0
    outer loop
      vertex 4.000000e+0 8.600000e+1 0.000000e+0
      vertex 0.000000e+0 8.600000e+1 0.000000e+0
      vertex 0.000000e+0 8.600000e+1 3.000000e+0
    endloop
  endfacet
  facet normal 0.000000e+0 1.000000e+0 0.000000e+0
    outer loop
      vertex 4.000000e+0 8.600000e+1 0.000000e+0
      vertex 0.000000e+0 8.600000e+1 3.000000e+0
      vertex 4.000000e+0 8.600000e+1 3.000000e+0
    endloop
  endfacet
  facet normal -1.000000e+0 0.000000e+0 0.000000e+0
    outer loop
      vertex 0.000000e+0 8.600000e+1 0.000000e+0
      vertex 0.000000e+0 4.900000e+1 0.000000e+0
      vertex 0.000000e+0 4.900000e+1 3.000000e+0
    endloop
  endfacet
  facet normal -1.000000e+0 0.000000e+0 0.000000e+0
    outer loop
      vertex 0.000000e+0 8.600000e+1 0.000000e+0
      vertex 0.000000e+0 4.900000e+1 3.000000e+0
      vertex 0.000000e+0 8.600000e+1 3.000000e+0
    endloop
  endfacet
  facet normal 1.000000e+0 0.000000e+0 0.000000e+0
    outer loop
      vertex 4.000000e+0 4.900000e+1 0.000000e+0
      vertex 4.000000e+0 8.600000e+1 0.000000e+0
      vertex 4.000000e+0 8.600000e+1 3.000000e+0
    endloop
  endfacet
  facet normal 1.000000e+0 0.000000e+0 0.000000e+0
    outer loop
      vertex 4.000000e+0 4.900000e+1 0.000000e+0
      vertex 4.000000e+0 8.600000e+1 3.000000e+0
      vertex 4.000000e+0 4.900000e+1 3.000000e+0
    endloop
  endfacet
  facet normal 0.000000e+0 0.000000e+0 -1.000000e+0
    outer loop
      vertex 7.800000e+1 8.600000e+1 0.000000e+0
      vertex 8.600000e+1 8.600000e+1 0.000000e+0
      vertex 8.600000e+1 4.900000e+1 0.000000e+0
    endloop
  endfacet
  facet normal 0.000000e+0 0.000000e+0 -1.000000e+0
    outer loop
      vertex 7.800000e+1 8.600000e+1 0.000000e+0
      vertex 8.600000e+1 4.900000e+1 0.000000e+0
      vertex 7.800000e+1 4.900000e+1 0.000000e+0
    endloop
  endfacet
  facet normal 0.000000e+0 0.000000e+0 1.000000e+0
    outer loop
      vertex 7.800000e+1 4.900000e+1 3.000000e+0
      vertex 8.600000e+1 4.900000e+1 3.000000e+0
      vertex 8.600000e+1 8.600000e+1 3.000000e+0
    endloop
  endfacet
  facet normal 0.000000e+0 0.000000e+0 1.000000e+0
    outer loop
      vertex 7.800000e+1 4.900000e+1 3.000000e+0
      vertex 8.600000e+1 8.600000e+1 3.000000e+0
      vertex 7.800000e+1 8.600000e+1 3.000000e+0
    endloop
  endfacet
  facet normal 0.000000e+0 -1.000000e+0 0.000000e+0
    outer loop
      vertex 7.800000e+1 4.900000e+1 0.000000e+0
      vertex 8.600000e+1 4.900000e+1 0.000000e+0
      vertex 8.600000e+1 4.900000e+1 3.000000e+0
    endloop
  endfacet
  facet normal 0.000000e+0 -1.000000e+0 0.000000e+0
    outer loop
      vertex 7.800000e+1 4.900000e+1 0.000000e+0
      vertex 8.600000e+1 4.900000e+1 3.000000e+0
      vertex 7.800000e+1 4.900000e+1 3.000000e+0
    endloop
  endfacet
  facet normal 0.000000e+0 1.000000e+0 0.000000e+0
    outer loop
      vertex 8.600000e+1 8.600000e+1 0.000000e+0
      vertex 7.800000e+1 8.600000e+1 0.000000e+0
      vertex 7.800000e+1 8.600000e+1 3.000000e+0
    endloop
  endfacet
  facet normal 0.000000e+0 1.000000e+0 0.000000e+0
    outer loop
      vertex 8.600000e+1 8.600000e+1 0.000000e+0
      vertex 7.800000e+1 8.600000e+1 3.000000e+0
      vertex 8.600000e+1 8.600000e+1 3.000000e+0
    endloop
  endfacet
  facet normal -1.000000e+0 0.000000e+0 0.000000e+0
    outer loop
      vertex 7.800000e+1 8.600000e+1 0.000000e+0
      vertex 7.800000e+1 4.900000e+1 0.000000e+0
      vertex 7.800000e+1 4.900000e+1 3.000000e+0
    endloop
  endfacet
  facet normal -1.000000e+0 0.000000e+0 0.000000e+0
    outer loop
      vertex 7.800000e+1 8.600000e+1 0.000000e+0
      vertex 7.800000e+1 4.900000e+1 3.000000e+0
      vertex 7.800000e+1 8.600000e+1 3.000000e+0
    endloop
  endfacet
  facet normal 1.000000e+0 0.000000e+0 0.000000e+0
    outer loop
      vertex 8.600000e+1 4.900000e+1 0.000000e+0
      vertex 8.600000e+1 8.600000e+1 0.000000e+0
      vertex 8.600000e+1 8.600000e+1 3.000000e+0
    endloop
  endfacet
  facet normal 1.000000e+0 0.000000e+0 0.000000e+0
    outer loop
      vertex 8.600000e+1 4.900000e+1 0.000000e+0
      vertex 8.600000e+1 8.600000e+1 3.000000e+0
      vertex 8.600000e+1 4.900000e+1 3.000000e+0
    endloop
  endfacet
  facet normal 0.000000e+0 0.000000e+0 -1.000000e+0
    outer loop
      vertex 1.230000e+2 8.600000e+1 0.000000e+0
      vertex 1.310000e+2 8.600000e+1 0.000000e+0
      vertex 1.310000e+2 4.900000e+1 0.000000e+0
    endloop
  endfacet
  facet normal 0.000000e+0 0.000000e+0 -1.000000e+0
    outer loop
      vertex 1.230000e+2 8.600000e+1 0.000000e+0
      vertex 1.310000e+2 4.900000e+1 0.000000e+0
      vertex 1.230000e+2 4.900000e+1 0.000000e+0
    endloop
  endfacet
  facet normal 0.000000e+0 0.000000e+0 1.000000e+0
    outer loop
      vertex 1.230000e+2 4.900000e+1 3.000000e+0
      vertex 1.310000e+2 4.900000e+1 3.000000e+0
      vertex 1.310000e+2 8.600000e+1 3.000000e+0
    endloop
  endfacet
  facet normal 0.000000e+0 0.000000e+0 1.000000e+0
    outer loop
      vertex 1.230000e+2 4.900000e+1 3.000000e+0
      vertex 1.310000e+2 8.600000e+1 3.000000e+0
      vertex 1.230000e+2 8.600000e+1 3.000000e+0
    endloop
  endfacet
  facet normal 0.000000e+0 -1.000000e+0 0.000000e+0
    outer loop
      vertex 1.230000e+2 4.900000e+1 0.000000e+0
      vertex 1.310000e+2 4.900000e+1 0.000000e+0
      vertex 1.310000e+2 4.900000e+1 3.000000e+0
    endloop
  endfacet
  facet normal 0.000000e+0 -1.000000e+0 0.000000e+0
    outer loop
      vertex 1.230000e+2 4.900000e+1 0.000000e+0
      vertex 1.310000e+2 4.900000e+1 3.000000e+0
      vertex 1.230000e+2 4.900000e+1 3.000000e+0
    endloop
  endfacet
  facet normal 0.000000e+0 1.000000e+0 0.000000e+0
    outer loop
      vertex 1.310000e+2 8.600000e+1 0.000000e+0
      vertex 1.230000e+2 8.600000e+1 0.000000e+0
      vertex 1.230000e+2 8.600000e+1 3.000000e+0
    endloop
  endfacet
  facet normal 0.000000e+0 1.000000e+0 0.000000e+0
    outer loop
      vertex 1.310000e+2 8.600000e+1 0.000000e+0
      vertex 1.230000e+2 8.600000e+1 3.000000e+0
      vertex 1.310000e+2 8.600000e+1 3.000000e+0
    endloop
  endfacet
  facet normal -1.000000e+0 0.000000e+0 0.000000e+0
    outer loop
      vertex 1.230000e+2 8.600000e+1 0.000000e+0
      vertex 1.230000e+2 4.900000e+1 0.000000e+0
      vertex 1.230000e+2 4.900000e+1 3.000000e+0
    endloop
  endfacet
  facet normal -1.000000e+0 0.000000e+0 0.000000e+0
    outer loop
      vertex 1.230000e+2 8.600000e+1 0.000000e+0
      vertex 1.230000e+2 4.900000e+1 3.000000e+0
      vertex 1.230000e+2 8.600000e+1 3.000000e+0
    endloop
  endfacet
  facet normal 1.000000e+0 0.000000e+0 0.000000e+0
    outer loop
      vertex 1.310000e+2 4.900000e+1 0.000000e+0
      vertex 1.310000e+2 8.600000e+1 0.000000e+0
      vertex 1.310000e+2 8.600000e+1 3.000000e+0
    endloop
  endfacet
  facet normal 1.000000e+0 0.000000e+0 0.000000e+0
    outer loop
      vertex 1.310000e+2 4.900000e+1 0.000000e+0
      vertex 1.310000e+2 8.600000e+1 3.000000e+0
      vertex 1.310000e+2 4.900000e+1 3.000000e+0
    endloop
  endfacet
  facet normal 0.000000e+0 0.000000e+0 -1.000000e+0
    outer loop
      vertex 1.680000e+2 8.600000e+1 0.000000e+0
      vertex 1.760000e+2 8.600000e+1 0.000000e+0
      vertex 1.760000e+2 4.900000e+1 0.000000e+0
    endloop
  endfacet
  facet normal 0.000000e+0 0.000000e+0 -1.000000e+0
    outer loop
      vertex 1.680000e+2 8.600000e+1 0.000000e+0
      vertex 1.760000e+2 4.900000e+1 0.000000e+0
      vertex 1.680000e+2 4.900000e+1 0.000000e+0
    endloop
  endfacet
  facet normal 0.000000e+0 0.000000e+0 1.000000e+0
    outer loop
      vertex 1.680000e+2 4.900000e+1 3.000000e+0
      vertex 1.760000e+2 4.900000e+1 3.000000e+0
      vertex 1.760000e+2 8.600000e+1 3.000000e+0
    endloop
  endfacet
  facet normal 0.000000e+0 0.000000e+0 1.000000e+0
    outer loop
      vertex 1.680000e+2 4.900000e+1 3.000000e+0
      vertex 1.760000e+2 8.600000e+1 3.000000e+0
      vertex 1.680000e+2 8.600000e+1 3.000000e+0
    endloop
  endfacet
  facet normal 0.000000e+0 -1.000000e+0 0.000000e+0
    outer loop
      vertex 1.680000e+2 4.900000e+1 0.000000e+0
      vertex 1.760000e+2 4.900000e+1 0.000000e+0
      vertex 1.760000e+2 4.900000e+1 3.000000e+0
    endloop
  endfacet
  facet normal 0.000000e+0 -1.000000e+0 0.000000e+0
    outer loop
      vertex 1.680000e+2 4.900000e+1 0.000000e+0
      vertex 1.760000e+2 4.900000e+1 3.000000e+0
      vertex 1.680000e+2 4.900000e+1 3.000000e+0
    endloop
  endfacet
  facet normal 0.000000e+0 1.000000e+0 0.000000e+0
    outer loop
      vertex 1.760000e+2 8.600000e+1 0.000000e+0
      vertex 1.680000e+2 8.600000e+1 0.000000e+0
      vertex 1.680000e+2 8.600000e+1 3.000000e+0
    endloop
  endfacet
  facet normal 0.000000e+0 1.000000e+0 0.000000e+0
    outer loop
      vertex 1.760000e+2 8.600000e+1 0.000000e+0
      vertex 1.680000e+2 8.600000e+1 3.000000e+0
      vertex 1.760000e+2 8.600000e+1 3.000000e+0
    endloop
  endfacet
  facet normal -1.000000e+0 0.000000e+0 0.000000e+0
    outer loop
      vertex 1.680000e+2 8.600000e+1 0.000000e+0
      vertex 1.680000e+2 4.900000e+1 0.000000e+0
      vertex 1.680000e+2 4.900000e+1 3.000000e+0
    endloop
  endfacet
  facet normal -1.000000e+0 0.000000e+0 0.000000e+0
    outer loop
      vertex 1.680000e+2 8.600000e+1 0.000000e+0
      vertex 1.680000e+2 4.900000e+1 3.000000e+0
      vertex 1.680000e+2 8.600000e+1 3.000000e+0
    endloop
  endfacet
  facet normal 1.000000e+0 0.000000e+0 0.000000e+0
    outer loop
      vertex 1.760000e+2 4.900000e+1 0.000000e+0
      vertex 1.760000e+2 8.600000e+1 0.000000e+0
      vertex 1.760000e+2 8.600000e+1 3.000000e+0
    endloop
  endfacet
  facet normal 1.000000e+0 0.000000e+0 0.000000e+0
    outer loop
      vertex 1.760000e+2 4.900000e+1 0.000000e+0
      vertex 1.760000e+2 8.600000e+1 3.000000e+0
      vertex 1.760000e+2 4.900000e+1 3.000000e+0
    endloop
  endfacet
  facet normal 0.000000e+0 0.000000e+0 -1.000000e+0
    outer loop
      vertex 0.000000e+0 1.310000e+2 0.000000e+0
      vertex 4.000000e+0 1.310000e+2 0.000000e+0
      vertex 4.000000e+0 9.400000e+1 0.000000e+0
    endloop
  endfacet
  facet normal 0.000000e+0 0.000000e+0 -1.000000e+0
    outer loop
      vertex 0.000000e+0 1.310000e+2 0.000000e+0
      vertex 4.000000e+0 9.400000e+1 0.000000e+0
      vertex 0.000000e+0 9.400000e+1 0.000000e+0
    endloop
  endfacet
  facet normal 0.000000e+0 0.000000e+0 1.000000e+0
    outer loop
      vertex 0.000000e+0 9.400000e+1 3.000000e+0
      vertex 4.000000e+0 9.400000e+1 3.000000e+0
      vertex 4.000000e+0 1.310000e+2 3.000000e+0
    endloop
  endfacet
  facet normal 0.000000e+0 0.000000e+0 1.000000e+0
    outer loop
      vertex 0.000000e+0 9.400000e+1 3.000000e+0
      vertex 4.000000e+0 1.310000e+2 3.000000e+0
      vertex 0.000000e+0 1.310000e+2 3.000000e+0
    endloop
  endfacet
  facet normal 0.000000e+0 -1.000000e+0 0.000000e+0
    outer loop
      vertex 0.000000e+0 9.400000e+1 0.000000e+0
      vertex 4.000000e+0 9.400000e+1 0.000000e+0
      vertex 4.000000e+0 9.400000e+1 3.000000e+0
    endloop
  endfacet
  facet normal 0.000000e+0 -1.000000e+0 0.000000e+0
    outer loop
      vertex 0.000000e+0 9.400000e+1 0.000000e+0
      vertex 4.000000e+0 9.400000e+1 3.000000e+0
      vertex 0.000000e+0 9.400000e+1 3.000000e+0
    endloop
  endfacet
  facet normal 0.000000e+0 1.000000e+0 0.000000e+0
    outer loop
      vertex 4.000000e+0 1.310000e+2 0.000000e+0
      vertex 0.000000e+0 1.310000e+2 0.000000e+0
      vertex 0.000000e+0 1.310000e+2 3.000000e+0
    endloop
  endfacet
  facet normal 0.000000e+0 1.000000e+0 0.000000e+0
    outer loop
      vertex 4.000000e+0 1.310000e+2 0.000000e+0
      vertex 0.000000e+0 1.310000e+2 3.000000e+0
      vertex 4.000000e+0 1.310000e+2 3.000000e+0
    endloop
  endfacet
  facet normal -1.000000e+0 0.000000e+0 0.000000e+0
    outer loop
      vertex 0.000000e+0 1.310000e+2 0.000000e+0
      vertex 0.000000e+0 9.400000e+1 0.000000e+0
      vertex 0.000000e+0 9.400000e+1 3.000000e+0
    endloop
  endfacet
  facet normal -1.000000e+0 0.000000e+0 0.000000e+0
    outer loop
      vertex 0.000000e+0 1.310000e+2 0.000000e+0
      vertex 0.000000e+0 9.400000e+1 3.000000e+0
      vertex 0.000000e+0 1.310000e+2 3.000000e+0
    endloop
  endfacet
  facet normal 1.000000e+0 0.000000e+0 0.000000e+0
    outer loop
      vertex 4.000000e+0 9.400000e+1 0.000000e+0
      vertex 4.000000e+0 1.310000e+2 0.000000e+0
      vertex 4.000000e+0 1.310000e+2 3.000000e+0
    endloop
  endfacet
  facet normal 1.000000e+0 0.000000e+0 0.000000e+0
    outer loop
      vertex 4.000000e+0 9.400000e+1 0.000000e+0
      vertex 4.000000e+0 1.310000e+2 3.000000e+0
      vertex 4.000000e+0 9.400000e+1 3.000000e+0
    endloop
  endfacet
  facet normal 0.000000e+0 0.000000e+0 -1.000000e+0
    outer loop
      vertex 7.800000e+1 1.310000e+2 0.000000e+0
      vertex 8.600000e+1 1.310000e+2 0.000000e+0
      vertex 8.600000e+1 9.400000e+1 0.000000e+0
    endloop
  endfacet
  facet normal 0.000000e+0 0.000000e+0 -1.000000e+0
    outer loop
      vertex 7.800000e+1 1.310000e+2 0.000000e+0
      vertex 8.600000e+1 9.400000e+1 0.000000e+0
      vertex 7.800000e+1 9.400000e+1 0.000000e+0
    endloop
  endfacet
  facet normal 0.000000e+0 0.000000e+0 1.000000e+0
    outer loop
      vertex 7.800000e+1 9.400000e+1 3.000000e+0
      vertex 8.600000e+1 9.400000e+1 3.000000e+0
      vertex 8.600000e+1 1.310000e+2 3.000000e+0
    endloop
  endfacet
  facet normal 0.000000e+0 0.000000e+0 1.000000e+0
    outer loop
      vertex 7.800000e+1 9.400000e+1 3.000000e+0
      vertex 8.600000e+1 1.310000e+2 3.000000e+0
      vertex 7.800000e+1 1.310000e+2 3.000000e+0
    endloop
  endfacet
  facet normal 0.000000e+0 -1.000000e+0 0.000000e+0
    outer loop
      vertex 7.800000e+1 9.400000e+1 0.000000e+0
      vertex 8.600000e+1 9.400000e+1 0.000000e+0
      vertex 8.600000e+1 9.400000e+1 3.000000e+0
    endloop
  endfacet
  facet normal 0.000000e+0 -1.000000e+0 0.000000e+0
    outer loop
      vertex 7.800000e+1 9.400000e+1 0.000000e+0
      vertex 8.600000e+1 9.400000e+1 3.000000e+0
      vertex 7.800000e+1 9.400000e+1 3.000000e+0
    endloop
  endfacet
  facet normal 0.000000e+0 1.000000e+0 0.000000e+0
    outer loop
      vertex 8.600000e+1 1.310000e+2 0.000000e+0
      vertex 7.800000e+1 1.310000e+2 0.000000e+0
      vertex 7.800000e+1 1.310000e+2 3.000000e+0
    endloop
  endfacet
  facet normal 0.000000e+0 1.000000e+0 0.000000e+0
    outer loop
      vertex 8.600000e+1 1.310000e+2 0.000000e+0
      vertex 7.800000e+1 1.310000e+2 3.000000e+0
      vertex 8.600000e+1 1.310000e+2 3.000000e+0
    endloop
  endfacet
  facet normal -1.000000e+0 0.000000e+0 0.000000e+0
    outer loop
      vertex 7.800000e+1 1.310000e+2 0.000000e+0
      vertex 7.800000e+1 9.400000e+1 0.000000e+0
      vertex 7.800000e+1 9.400000e+1 3.000000e+0
    endloop
  endfacet
  facet normal -1.000000e+0 0.000000e+0 0.000000e+0
    outer loop
      vertex 7.800000e+1 1.310000e+2 0.000000e+0
      vertex 7.800000e+1 9.400000e+1 3.000000e+0
      vertex 7.800000e+1 1.310000e+2 3.000000e+0
    endloop
  endfacet
  facet normal 1.000000e+0 0.000000e+0 0.000000e+0
    outer loop
      vertex 8.600000e+1 9.400000e+1 0.000000e+0
      vertex 8.600000e+1 1.310000e+2 0.000000e+0
      vertex 8.600000e+1 1.310000e+2 3.000000e+0
    endloop
  endfacet
  facet normal 1.000000e+0 0.000000e+0 0.000000e+0
    outer loop
      vertex 8.600000e+1 9.400000e+1 0.000000e+0
      vertex 8.600000e+1 1.310000e+2 3.000000e+0
      vertex 8.600000e+1 9.400000e+1 3.000000e+0
    endloop
  endfacet
  facet normal 0.000000e+0 0.000000e+0 -1.000000e+0
    outer loop
      vertex 1.230000e+2 1.310000e+2 0.000000e+0
      vertex 1.310000e+2 1.310000e+2 0.000000e+0
      vertex 1.310000e+2 9.400000e+1 0.000000e+0
    endloop
  endfacet
  facet normal 0.000000e+0 0.000000e+0 -1.000000e+0
    outer loop
      vertex 1.230000e+2 1.310000e+2 0.000000e+0
      vertex 1.310000e+2 9.400000e+1 0.000000e+0
      vertex 1.230000e+2 9.400000e+1 0.000000e+0
    endloop
  endfacet
  facet normal 0.000000e+0 0.000000e+0 1.000000e+0
    outer loop
      vertex 1.230000e+2 9.400000e+1 3.000000e+0
      vertex 1.310000e+2 9.400000e+1 3.000000e+0
      vertex 1.310000e+2 1.310000e+2 3.000000e+0
    endloop
  endfacet
  facet normal 0.000000e+0 0.000000e+0 1.000000e+0
    outer loop
      vertex 1.230000e+2 9.400000e+1 3.000000e+0
      vertex 1.310000e+2 1.310000e+2 3.000000e+0
      vertex 1.230000e+2 1.310000e+2 3.000000e+0
    endloop
  endfacet
  facet normal 0.000000e+0 -1.000000e+0 0.000000e+0
    outer loop
      vertex 1.230000e+2 9.400000e+1 0.000000e+0
      vertex 1.310000e+2 9.400000e+1 0.000000e+0
      vertex 1.310000e+2 9.400000e+1 3.000000e+0
    endloop
  endfacet
  facet normal 0.000000e+0 -1.000000e+0 0.000000e+0
    outer loop
      vertex 1.230000e+2 9.400000e+1 0.000000e+0
      vertex 1.310000e+2 9.400000e+1 3.000000e+0
      vertex 1.230000e+2 9.400000e+1 3.000000e+0
    endloop
  endfacet
  facet normal 0.000000e+0 1.000000e+0 0.000000e+0
    outer loop
      vertex 1.310000e+2 1.310000e+2 0.000000e+0
      vertex 1.230000e+2 1.310000e+2 0.000000e+0
      vertex 1.230000e+2 1.310000e+2 3.000000e+0
    endloop
  endfacet
  facet normal 0.000000e+0 1.000000e+0 0.000000e+0
    outer loop
      vertex 1.310000e+2 1.310000e+2 0.000000e+0
      vertex 1.230000e+2 1.310000e+2 3.000000e+0
      vertex 1.310000e+2 1.310000e+2 3.000000e+0
    endloop
  endfacet
  facet normal -1.000000e+0 0.000000e+0 0.000000e+0
    outer loop
      vertex 1.230000e+2 1.310000e+2 0.000000e+0
      vertex 1.230000e+2 9.400000e+1 0.000000e+0
      vertex 1.230000e+2 9.400000e+1 3.000000e+0
    endloop
  endfacet
  facet normal -1.000000e+0 0.000000e+0 0.000000e+0
    outer loop
      vertex 1.230000e+2 1.310000e+2 0.000000e+0
      vertex 1.230000e+2 9.400000e+1 3.000000e+0
      vertex 1.230000e+2 1.310000e+2 3.000000e+0
    endloop
  endfacet
  facet normal 1.000000e+0 0.000000e+0 0.000000e+0
    outer loop
      vertex 1.310000e+2 9.400000e+1 0.000000e+0
      vertex 1.310000e+2 1.310000e+2 0.000000e+0
      vertex 1.310000e+2 1.310000e+2 3.000000e+0
    endloop
  endfacet
  facet normal 1.000000e+0 0.000000e+0 0.000000e+0
    outer loop
      vertex 1.310000e+2 9.400000e+1 0.000000e+0
      vertex 1.310000e+2 1.310000e+2 3.000000e+0
      vertex 1.310000e+2 9.400000e+1 3.000000e+0
    endloop
  endfacet
  facet normal 0.000000e+0 0.000000e+0 -1.000000e+0
    outer loop
      vertex 1.680000e+2 1.310000e+2 0.000000e+0
      vertex 1.760000e+2 1.310000e+2 0.000000e+0
      vertex 1.760000e+2 9.400000e+1 0.000000e+0
    endloop
  endfacet
  facet normal 0.000000e+0 0.000000e+0 -1.000000e+0
    outer loop
      vertex 1.680000e+2 1.310000e+2 0.000000e+0
      vertex 1.760000e+2 9.400000e+1 0.000000e+0
      vertex 1.680000e+2 9.400000e+1 0.000000e+0
    endloop
  endfacet
  facet normal 0.000000e+0 0.000000e+0 1.000000e+0
    outer loop
      vertex 1.680000e+2 9.400000e+1 3.000000e+0
      vertex 1.760000e+2 9.400000e+1 3.000000e+0
      vertex 1.760000e+2 1.310000e+2 3.000000e+0
    endloop
  endfacet
  facet normal 0.000000e+0 0.000000e+0 1.000000e+0
    outer loop
      vertex 1.680000e+2 9.400000e+1 3.000000e+0
      vertex 1.760000e+2 1.310000e+2 3.000000e+0
      vertex 1.680000e+2 1.310000e+2 3.000000e+0
    endloop
  endfacet
  facet normal 0.000000e+0 -1.000000e+0 0.000000e+0
    outer loop
      vertex 1.680000e+2 9.400000e+1 0.000000e+0
      vertex 1.760000e+2 9.400000e+1 0.000000e+0
      vertex 1.760000e+2 9.400000e+1 3.000000e+0
    endloop
  endfacet
  facet normal 0.000000e+0 -1.000000e+0 0.000000e+0
    outer loop
      vertex 1.680000e+2 9.400000e+1 0.000000e+0
      vertex 1.760000e+2 9.400000e+1 3.000000e+0
      vertex 1.680000e+2 9.400000e+1 3.000000e+0
    endloop
  endfacet
  facet normal 0.000000e+0 1.000000e+0 0.000000e+0
    outer loop
      vertex 1.760000e+2 1.310000e+2 0.000000e+0
      vertex 1.680000e+2 1.310000e+2 0.000000e+0
      vertex 1.680000e+2 1.310000e+2 3.000000e+0
    endloop
  endfacet
  facet normal 0.000000e+0 1.000000e+0 0.000000e+0
    outer loop
      vertex 1.760000e+2 1.310000e+2 0.000000e+0
      vertex 1.680000e+2 1.310000e+2 3.000000e+0
      vertex 1.760000e+2 1.310000e+2 3.000000e+0
    endloop
  endfacet
  facet normal -1.000000e+0 0.000000e+0 0.000000e+0
    outer loop
      vertex 1.680000e+2 1.310000e+2 0.000000e+0
      vertex 1.680000e+2 9.400000e+1 0.000000e+0
      vertex 1.680000e+2 9.400000e+1 3.000000e+0
    endloop
  endfacet
  facet normal -1.000000e+0 0.000000e+0 0.000000e+0
    outer loop
      vertex 1.680000e+2 1.310000e+2 0.000000e+0
      vertex 1.680000e+2 9.400000e+1 3.000000e+0
      vertex 1.680000e+2 1.310000e+2 3.000000e+0
    endloop
  endfacet
  facet normal 1.000000e+0 0.000000e+0 0.000000e+0
    outer loop
      vertex 1.760000e+2 9.400000e+1 0.000000e+0
      vertex 1.760000e+2 1.310000e+2 0.000000e+0
      vertex 1.760000e+2 1.310000e+2 3.000000e+0
    endloop
  endfacet
  facet normal 1.000000e+0 0.000000e+0 0.000000e+0
    outer loop
      vertex 1.760000e+2 9.400000e+1 0.000000e+0
      vertex 1.760000e+2 1.310000e+2 3.000000e+0
      vertex 1.760000e+2 9.400000e+1 3.000000e+0
    endloop
  endfacet
  facet normal 0.000000e+0 0.000000e+0 -1.000000e+0
    outer loop
      vertex 0.000000e+0 1.760000e+2 0.000000e+0
      vertex 4.000000e+0 1.760000e+2 0.000000e+0
      vertex 4.000000e+0 1.390000e+2 0.000000e+0
    endloop
  endfacet
  facet normal 0.000000e+0 0.000000e+0 -1.000000e+0
    outer loop
      vertex 0.000000e+0 1.760000e+2 0.000000e+0
      vertex 4.000000e+0 1.390000e+2 0.000000e+0
      vertex 0.000000e+0 1.390000e+2 0.000000e+0
    endloop
  endfacet
  facet normal 0.000000e+0 0.000000e+0 1.000000e+0
    outer loop
      vertex 0.000000e+0 1.390000e+2 3.000000e+0
      vertex 4.000000e+0 1.390000e+2 3.000000e+0
      vertex 4.000000e+0 1.760000e+2 3.000000e+0
    endloop
  endfacet
  facet normal 0.000000e+0 0.000000e+0 1.000000e+0
    outer loop
      vertex 0.000000e+0 1.390000e+2 3.000000e+0
      vertex 4.000000e+0 1.760000e+2 3.000000e+0
      vertex 0.000000e+0 1.760000e+2 3.000000e+0
    endloop
  endfacet
  facet normal 0.000000e+0 -1.000000e+0 0.000000e+0
    outer loop
      vertex 0.000000e+0 1.390000e+2 0.000000e+0
      vertex 4.000000e+0 1.390000e+2 0.000000e+0
      vertex 4.000000e+0 1.390000e+2 3.000000e+0
    endloop
  endfacet
  facet normal 0.000000e+0 -1.000000e+0 0.000000e+0
    outer loop
      vertex 0.000000e+0 1.390000e+2 0.000000e+0
      vertex 4.000000e+0 1.390000e+2 3.000000e+0
      vertex 0.000000e+0 1.390000e+2 3.000000e+0
    endloop
  endfacet
  facet normal 0.000000e+0 1.000000e+0 0.000000e+0
    outer loop
      vertex 4.000000e+0 1.760000e+2 0.000000e+0
      vertex 0.000000e+0 1.760000e+2 0.000000e+0
      vertex 0.000000e+0 1.760000e+2 3.000000e+0
    endloop
  endfacet
  facet normal 0.000000e+0 1.000000e+0 0.000000e+0
    outer loop
      vertex 4.000000e+0 1.760000e+2 0.000000e+0
      vertex 0.000000e+0 1.760000e+2 3.000000e+0
      vertex 4.000000e+0 1.760000e+2 3.000000e+0
    endloop
  endfacet
  facet normal -1.000000e+0 0.000000e+0 0.000000e+0
    outer loop
      vertex 0.000000e+0 1.760000e+2 0.000000e+0
      vertex 0.000000e+0 1.390000e+2 0.000000e+0
      vertex 0.000000e+0 1.390000e+2 3.000000e+0
    endloop
  endfacet
  facet normal -1.000000e+0 0.000000e+0 0.000000e+0
    outer loop
      vertex 0.000000e+0 1.760000e+2 0.000000e+0
      vertex 0.000000e+0 1.390000e+2 3.000000e+0
      vertex 0.000000e+0 1.760000e+2 3.000000e+0
    endloop
  endfacet
  facet normal 1.000000e+0 0.000000e+0 0.000000e+0
    outer loop
      vertex 4.000000e+0 1.390000e+2 0.000000e+0
      vertex 4.000000e+0 1.760000e+2 0.000000e+0
      vertex 4.000000e+0 1.760000e+2 3.000000e+0
    endloop
  endfacet
  facet normal 1.000000e+0 0.000000e+0 0.000000e+0
    outer loop
      vertex 4.000000e+0 1.390000e+2 0.000000e+0
      vertex 4.000000e+0 1.760000e+2 3.000000e+0
      vertex 4.000000e+0 1.390000e+2 3.000000e+0
    endloop
  endfacet
  facet normal 0.000000e+0 0.000000e+0 -1.000000e+0
    outer loop
      vertex 7.800000e+1 1.760000e+2 0.000000e+0
      vertex 8.600000e+1 1.760000e+2 0.000000e+0
      vertex 8.600000e+1 1.390000e+2 0.000000e+0
    endloop
  endfacet
  facet normal 0.000000e+0 0.000000e+0 -1.000000e+0
    outer loop
      vertex 7.800000e+1 1.760000e+2 0.000000e+0
      vertex 8.600000e+1 1.390000e+2 0.000000e+0
      vertex 7.800000e+1 1.390000e+2 0.000000e+0
    endloop
  endfacet
  facet normal 0.000000e+0 0.000000e+0 1.000000e+0
    outer loop
      vertex 7.800000e+1 1.390000e+2 3.000000e+0
      vertex 8.600000e+1 1.390000e+2 3.000000e+0
      vertex 8.600000e+1 1.760000e+2 3.000000e+0
    endloop
  endfacet
  facet normal 0.000000e+0 0.000000e+0 1.000000e+0
    outer loop
      vertex 7.800000e+1 1.390000e+2 3.000000e+0
      vertex 8.600000e+1 1.760000e+2 3.000000e+0
      vertex 7.800000e+1 1.760000e+2 3.000000e+0
    endloop
  endfacet
  facet normal 0.000000e+0 -1.000000e+0 0.000000e+0
    outer loop
      vertex 7.800000e+1 1.390000e+2 0.000000e+0
      vertex 8.600000e+1 1.390000e+2 0.000000e+0
      vertex 8.600000e+1 1.390000e+2 3.000000e+0
    endloop
  endfacet
  facet normal 0.000000e+0 -1.000000e+0 0.000000e+0
    outer loop
      vertex 7.800000e+1 1.390000e+2 0.000000e+0
      vertex 8.600000e+1 1.390000e+2 3.000000e+0
      vertex 7.800000e+1 1.390000e+2 3.000000e+0
    endloop
  endfacet
  facet normal 0.000000e+0 1.000000e+0 0.000000e+0
    outer loop
      vertex 8.600000e+1 1.760000e+2 0.000000e+0
      vertex 7.800000e+1 1.760000e+2 0.000000e+0
      vertex 7.800000e+1 1.760000e+2 3.000000e+0
    endloop
  endfacet
  facet normal 0.000000e+0 1.000000e+0 0.000000e+0
    outer loop
      vertex 8.600000e+1 1.760000e+2 0.000000e+0
      vertex 7.800000e+1 1.760000e+2 3.000000e+0
      vertex 8.600000e+1 1.760000e+2 3.000000e+0
    endloop
  endfacet
  facet normal -1.000000e+0 0.000000e+0 0.000000e+0
    outer loop
      vertex 7.800000e+1 1.760000e+2 0.000000e+0
      vertex 7.800000e+1 1.390000e+2 0.000000e+0
      vertex 7.800000e+1 1.390000e+2 3.000000e+0
    endloop
  endfacet
  facet normal -1.000000e+0 0.000000e+0 0.000000e+0
    outer loop
      vertex 7.800000e+1 1.760000e+2 0.000000e+0
      vertex 7.800000e+1 1.390000e+2 3.000000e+0
      vertex 7.800000e+1 1.760000e+2 3.000000e+0
    endloop
  endfacet
  facet normal 1.000000e+0 0.000000e+0 0.000000e+0
    outer loop
      vertex 8.600000e+1 1.390000e+2 0.000000e+0
      vertex 8.600000e+1 1.760000e+2 0.000000e+0
      vertex 8.600000e+1 1.760000e+2 3.000000e+0
    endloop
  endfacet
  facet normal 1.000000e+0 0.000000e+0 0.000000e+0
    outer loop
      vertex 8.600000e+1 1.390000e+2 0.000000e+0
      vertex 8.600000e+1 1.760000e+2 3.000000e+0
      vertex 8.600000e+1 1.390000e+2 3.000000e+0
    endloop
  endfacet
  facet normal 0.000000e+0 0.000000e+0 -1.000000e+0
    outer loop
      vertex 1.230000e+2 1.760000e+2 0.000000e+0
      vertex 1.310000e+2 1.760000e+2 0.000000e+0
      vertex 1.310000e+2 1.390000e+2 0.000000e+0
    endloop
  endfacet
  facet normal 0.000000e+0 0.000000e+0 -1.000000e+0
    outer loop
      vertex 1.230000e+2 1.760000e+2 0.000000e+0
      vertex 1.310000e+2 1.390000e+2 0.000000e+0
      vertex 1.230000e+2 1.390000e+2 0.000000e+0
    endloop
  endfacet
  facet normal 0.000000e+0 0.000000e+0 1.000000e+0
    outer loop
      vertex 1.230000e+2 1.390000e+2 3.000000e+0
      vertex 1.310000e+2 1.390000e+2 3.000000e+0
      vertex 1.310000e+2 1.760000e+2 3.000000e+0
    endloop
  endfacet
  facet normal 0.000000e+0 0.000000e+0 1.000000e+0
    outer loop
      vertex 1.230000e+2 1.390000e+2 3.000000e+0
      vertex 1.310000e+2 1.760000e+2 3.000000e+0
      vertex 1.230000e+2 1.760000e+2 3.000000e+0
    endloop
  endfacet
  facet normal 0.000000e+0 -1.000000e+0 0.000000e+0
    outer loop
      vertex 1.230000e+2 1.390000e+2 0.000000e+0
      vertex 1.310000e+2 1.390000e+2 0.000000e+0
      vertex 1.310000e+2 1.390000e+2 3.000000e+0
    endloop
  endfacet
  facet normal 0.000000e+0 -1.000000e+0 0.000000e+0
    outer loop
      vertex 1.230000e+2 1.390000e+2 0.000000e+0
      vertex 1.310000e+2 1.390000e+2 3.000000e+0
      vertex 1.230000e+2 1.390000e+2 3.000000e+0
    endloop
  endfacet
  facet normal 0.000000e+0 1.000000e+0 0.000000e+0
    outer loop
      vertex 1.310000e+2 1.760000e+2 0.000000e+0
      vertex 1.230000e+2 1.760000e+2 0.000000e+0
      vertex 1.230000e+2 1.760000e+2 3.000000e+0
    endloop
  endfacet
  facet normal 0.000000e+0 1.000000e+0 0.000000e+0
    outer loop
      vertex 1.310000e+2 1.760000e+2 0.000000e+0
      vertex 1.230000e+2 1.760000e+2 3.000000e+0
      vertex 1.310000e+2 1.760000e+2 3.000000e+0
    endloop
  endfacet
  facet normal -1.000000e+0 0.000000e+0 0.000000e+0
    outer loop
      vertex 1.230000e+2 1.760000e+2 0.000000e+0
      vertex 1.230000e+2 1.390000e+2 0.000000e+0
      vertex 1.230000e+2 1.390000e+2 3.000000e+0
    endloop
  endfacet
  facet normal -1.000000e+0 0.000000e+0 0.000000e+0
    outer loop
      vertex 1.230000e+2 1.760000e+2 0.000000e+0
      vertex 1.230000e+2 1.390000e+2 3.000000e+0
      vertex 1.230000e+2 1.760000e+2 3.000000e+0
    endloop
  endfacet
  facet normal 1.000000e+0 0.000000e+0 0.000000e+0
    outer loop
      vertex 1.310000e+2 1.390000e+2 0.000000e+0
      vertex 1.310000e+2 1.760000e+2 0.000000e+0
      vertex 1.310000e+2 1.760000e+2 3.000000e+0
    endloop
  endfacet
  facet normal 1.000000e+0 0.000000e+0 0.000000e+0
    outer loop
      vertex 1.310000e+2 1.390000e+2 0.000000e+0
      vertex 1.310000e+2 1.760000e+2 3.000000e+0
      vertex 1.310000e+2 1.390000e+2 3.000000e+0
    endloop
  endfacet
  facet normal 0.000000e+0 0.000000e+0 -1.000000e+0
    outer loop
      vertex 1.680000e+2 1.760000e+2 0.000000e+0
      vertex 1.760000e+2 1.760000e+2 0.000000e+0
      vertex 1.760000e+2 1.390000e+2 0.000000e+0
    endloop
  endfacet
  facet normal 0.000000e+0 0.000000e+0 -1.000000e+0
    outer loop
      vertex 1.680000e+2 1.760000e+2 0.000000e+0
      vertex 1.760000e+2 1.390000e+2 0.000000e+0
      vertex 1.680000e+2 1.390000e+2 0.000000e+0
    endloop
  endfacet
  facet normal 0.000000e+0 0.000000e+0 1.000000e+0
    outer loop
      vertex 1.680000e+2 1.390000e+2 3.000000e+0
      vertex 1.760000e+2 1.390000e+2 3.000000e+0
      vertex 1.760000e+2 1.760000e+2 3.000000e+0
    endloop
  endfacet
  facet normal 0.000000e+0 0.000000e+0 1.000000e+0
    outer loop
      vertex 1.680000e+2 1.390000e+2 3.000000e+0
      vertex 1.760000e+2 1.760000e+2 3.000000e+0
      vertex 1.680000e+2 1.760000e+2 3.000000e+0
    endloop
  endfacet
  facet normal 0.000000e+0 -1.000000e+0 0.000000e+0
    outer loop
      vertex 1.680000e+2 1.390000e+2 0.000000e+0
      vertex 1.760000e+2 1.390000e+2 0.000000e+0
      vertex 1.760000e+2 1.390000e+2 3.000000e+0
    endloop
  endfacet
  facet normal 0.000000e+0 -1.000000e+0 0.000000e+0
    outer loop
      vertex 1.680000e+2 1.390000e+2 0.000000e+0
      vertex 1.760000e+2 1.390000e+2 3.000000e+0
      vertex 1.680000e+2 1.390000e+2 3.000000e+0
    endloop
  endfacet
  facet normal 0.000000e+0 1.000000e+0 0.000000e+0
    outer loop
      vertex 1.760000e+2 1.760000e+2 0.000000e+0
      vertex 1.680000e+2 1.760000e+2 0.000000e+0
      vertex 1.680000e+2 1.760000e+2 3.000000e+0
    endloop
  endfacet
  facet normal 0.000000e+0 1.000000e+0 0.000000e+0
    outer loop
      vertex 1.760000e+2 1.760000e+2 0.000000e+0
      vertex 1.680000e+2 1.760000e+2 3.000000e+0
      vertex 1.760000e+2 1.760000e+2 3.000000e+0
    endloop
  endfacet
  facet normal -1.000000e+0 0.000000e+0 0.000000e+0
    outer loop
      vertex 1.680000e+2 1.760000e+2 0.000000e+0
      vertex 1.680000e+2 1.390000e+2 0.000000e+0
      vertex 1.680000e+2 1.390000e+2 3.000000e+0
    endloop
  endfacet
  facet normal -1.000000e+0 0.000000e+0 0.000000e+0
    outer loop
      vertex 1.680000e+2 1.760000e+2 0.000000e+0
      vertex 1.680000e+2 1.390000e+2 3.000000e+0
      vertex 1.680000e+2 1.760000e+2 3.000000e+0
    endloop
  endfacet
  facet normal 1.000000e+0 0.000000e+0 0.000000e+0
    outer loop
      vertex 1.760000e+2 1.390000e+2 0.000000e+0
      vertex 1.760000e+2 1.760000e+2 0.000000e+0
      vertex 1.760000e+2 1.760000e+2 3.000000e+0
    endloop
  endfacet
  facet normal 1.000000e+0 0.000000e+0 0.000000e+0
    outer loop
      vertex 1.760000e+2 1.390000e+2 0.000000e+0
      vertex 1.760000e+2 1.760000e+2 3.000000e+0
      vertex 1.760000e+2 1.390000e+2 3.000000e+0
    endloop
  endfacet
  facet normal 0.000000e+0 0.000000e+0 -1.000000e+0
    outer loop
      vertex -1.500000e+1 1.830000e+2 0.000000e+0
      vertex 0.000000e+0 1.830000e+2 0.000000e+0
      vertex 0.000000e+0 -1.500000e+1 0.000000e+0
    endloop
  endfacet
  facet normal 0.000000e+0 0.000000e+0 -1.000000e+0
    outer loop
      vertex -1.500000e+1 1.830000e+2 0.000000e+0
      vertex 0.000000e+0 -1.500000e+1 0.000000e+0
      vertex -1.500000e+1 -1.500000e+1 0.000000e+0
    endloop
  endfacet
  facet normal 0.000000e+0 0.000000e+0 1.000000e+0
    outer loop
      vertex -1.500000e+1 -1.500000e+1 3.000000e+0
      vertex 0.000000e+0 -1.500000e+1 3.000000e+0
      vertex 0.000000e+0 1.830000e+2 3.000000e+0
    endloop
  endfacet
  facet normal 0.000000e+0 0.000000e+0 1.000000e+0
    outer loop
      vertex -1.500000e+1 -1.500000e+1 3.000000e+0
      vertex 0.000000e+0 1.830000e+2 3.000000e+0
      vertex -1.500000e+1 1.830000e+2 3.000000e+0
    endloop
  endfacet
  facet normal 0.000000e+0 -1.000000e+0 0.000000e+0
    outer loop
      vertex -1.500000e+1 -1.500000e+1 0.000000e+0
      vertex 0.000000e+0 -1.500000e+1 0.000000e+0
      vertex 0.000000e+0 -1.500000e+1 3.000000e+0
    endloop
  endfacet
  facet normal 0.000000e+0 -1.000000e+0 0.000000e+0
    outer loop
      vertex -1.500000e+1 -1.500000e+1 0.000000e+0
      vertex 0.000000e+0 -1.500000e+1 3.000000e+0
      vertex -1.500000e+1 -1.500000e+1 3.000000e+0
    endloop
  endfacet
  facet normal 0.000000e+0 1.000000e+0 0.000000e+0
    outer loop
      vertex 0.000000e+0 1.830000e+2 0.000000e+0
      vertex -1.500000e+1 1.830000e+2 0.000000e+0
      vertex -1.500000e+1 1.830000e+2 3.000000e+0
    endloop
  endfacet
  facet normal 0.000000e+0 1.000000e+0 0.000000e+0
    outer loop
      vertex 0.000000e+0 1.830000e+2 0.000000e+0
      vertex -1.500000e+1 1.830000e+2 3.000000e+0
      vertex 0.000000e+0 1.830000e+2 3.000000e+0
    endloop
  endfacet
  facet normal -1.000000e+0 0.000000e+0 0.000000e+0
    outer loop
      vertex -1.500000e+1 1.830000e+2 0.000000e+0
      vertex -1.500000e+1 -1.500000e+1 0.000000e+0
      vertex -1.500000e+1 -1.500000e+1 3.000000e+0
    endloop
  endfacet
  facet normal -1.000000e+0 0.000000e+0 0.000000e+0
    outer loop
      vertex -1.500000e+1 1.830000e+2 0.000000e+0
      vertex -1.500000e+1 -1.500000e+1 3.000000e+0
      vertex -1.500000e+1 1.830000e+2 3.000000e+0
    endloop
  endfacet
  facet normal 1.000000e+0 0.000000e+0 0.000000e+0
    outer loop
      vertex 0.000000e+0 -1.500000e+1 0.000000e+0
      vertex 0.000000e+0 1.830000e+2 0.000000e+0
      vertex 0.000000e+0 1.830000e+2 3.000000e+0
    endloop
  endfacet
  facet normal 1.000000e+0 0.000000e+0 0.000000e+0
    outer loop
      vertex 0.000000e+0 -1.500000e+1 0.000000e+0
      vertex 0.000000e+0 1.830000e+2 3.000000e+0
      vertex 0.000000e+0 -1.500000e+1 3.000000e+0
    endloop
  endfacet
  facet normal 0.000000e+0 0.000000e+0 -1.000000e+0
    outer loop
      vertex 0.000000e+0 0.000000e+0 0.000000e+0
      vertex 1.830000e+2 0.000000e+0 0.000000e+0
      vertex 1.830000e+2 -1.500000e+1 0.000000e+0
    endloop
  endfacet
  facet normal 0.000000e+0 0.000000e+0 -1.000000e+0
    outer loop
      vertex 0.000000e+0 0.000000e+0 0.000000e+0
      vertex 1.830000e+2 -1.500000e+1 0.000000e+0
      vertex 0.000000e+0 -1.500000e+1 0.000000e+0
    endloop
  endfacet
  facet normal 0.000000e+0 0.000000e+0 1.000000e+0
    outer loop
      vertex 0.000000e+0 -1.500000e+1 3.000000e+0
      vertex 1.830000e+2 -1.500000e+1 3.000000e+0
      vertex 1.830000e+2 0.000000e+0 3.000000e+0
    endloop
  endfacet
  facet normal 0.000000e+0 0.000000e+0 1.000000e+0
    outer loop
      vertex 0.000000e+0 -1.500000e+1 3.000000e+0
      vertex 1.830000e+2 0.000000e+0 3.000000e+0
      vertex 0.000000e+0 0.000000e+0 3.000000e+0
    endloop
  endfacet
  facet normal 0.000000e+0 -1.000000e+0 0.000000e+0
    outer loop
      vertex 0.000000e+0 -1.500000e+1 0.000000e+0
      vertex 1.830000e+2 -1.500000e+1 0.000000e+0
      vertex 1.830000e+2 -1.500000e+1 3.000000e+0
    endloop
  endfacet
  facet normal 0.000000e+0 -1.000000e+0 0.000000e+0
    outer loop
      vertex 0.000000e+0 -1.500000e+1 0.000000e+0
      vertex 1.830000e+2 -1.500000e+1 3.000000e+0
      vertex 0.000000e+0 -1.500000e+1 3.000000e+0
    endloop
  endfacet
  facet normal 0.000000e+0 1.000000e+0 0.000000e+0
    outer loop
      vertex 1.830000e+2 0.000000e+0 0.000000e+0
      vertex 0.000000e+0 0.000000e+0 0.000000e+0
      vertex 0.000000e+0 0.000000e+0 3.000000e+0
    endloop
  endfacet
  facet normal 0.000000e+0 1.000000e+0 0.000000e+0
    outer loop
      vertex 1.830000e+2 0.000000e+0 0.000000e+0
      vertex 0.000000e+0 0.000000e+0 3.000000e+0
      vertex 1.830000e+2 0.000000e+0 3.000000e+0
    endloop
  endfacet
  facet normal -1.000000e+0 0.000000e+0 0.000000e+0
    outer loop
      vertex 0.000000e+0 0.000000e+0 0.000000e+0
      vertex 0.000000e+0 -1.500000e+1 0.000000e+0
      vertex 0.000000e+0 -1.500000e+1 3.000000e+0
    endloop
  endfacet
  facet normal -1.000000e+0 0.000000e+0 0.000000e+0
    outer loop
      vertex 0.000000e+0 0.000000e+0 0.000000e+0
      vertex 0.000000e+0 -1.500000e+1 3.000000e+0
      vertex 0.000000e+0 0.000000e+0 3.000000e+0
    endloop
  endfacet
  facet normal 1.000000e+0 0.000000e+0 0.000000e+0
    outer loop
      vertex 1.830000e+2 -1.500000e+1 0.000000e+0
      vertex 1.830000e+2 0.000000e+0 0.000000e+0
      vertex 1.830000e+2 0.000000e+0 3.000000e+0
    endloop
  endfacet
  facet normal 1.000000e+0 0.000000e+0 0.000000e+0
    outer loop
      vertex 1.830000e+2 -1.500000e+1 0.000000e+0
      vertex 1.830000e+2 0.000000e+0 3.000000e+0
      vertex 1.830000e+2 -1.500000e+1 3.000000e+0
    endloop
  endfacet
endsolid frontplate_0_0
