<?xml version="1.0" encoding="UTF-8"?>
<svg xmlns="http://www.w3.org/2000/svg"
     width="405mm" height="605mm"
     viewBox="0 0 405 605">
  <!-- SEPARATOR GRID (Egg-crate / baffle)
       Material: 3mm MDF or acrylic
       Assembly: Slide horizontal and vertical strips together at the slots
       Horizontal strips: slots cut from TOP edge
       Vertical strips: slots cut from BOTTOM edge
  -->

  <g id="separator-cuts" inkscape:label="Cut" xmlns:inkscape="http://www.inkscape.org/namespaces/inkscape">
  <rect x="10" y="10" width="385" height="20" stroke="#FF0000" stroke-width="0.025" fill="none" />
  <rect x="43.45" y="10" width="3.1" height="10" stroke="#FF0000" stroke-width="0.025" fill="none" />
  <rect x="78.45" y="10" width="3.1" height="10" stroke="#FF0000" stroke-width="0.025" fill="none" />
  <rect x="113.45" y="10" width="3.1" height="10" stroke="#FF0000" stroke-width="0.025" fill="none" />
  <rect x="148.45" y="10" width="3.1" height="10" stroke="#FF0000" stroke-width="0.025" fill="none" />
  <rect x="183.45" y="10" width="3.1" height="10" stroke="#FF0000" stroke-width="0.025" fill="none" />
  <rect x="218.45" y="10" width="3.1" height="10" stroke="#FF0000" stroke-width="0.025" fill="none" />
  <rect x="253.45" y="10" width="3.1" height="10" stroke="#FF0000" stroke-width="0.025" fill="none" />
  <rect x="288.45" y="10" width="3.1" height="10" stroke="#FF0000" stroke-width="0.025" fill="none" />
  <rect x="323.45" y="10" width="3.1" height="10" stroke="#FF0000" stroke-width="0.025" fill="none" />
  <rect x="358.45" y="10" width="3.1" height="10" stroke="#FF0000" stroke-width="0.025" fill="none" />
  <rect x="10" y="35" width="385" height="20" stroke="#FF0000" stroke-width="0.025" fill="none" />
  <rect x="43.45" y="35" width="3.1" height="10" stroke="#FF0000" stroke-width="0.025" fill="none" />
  <rect x="78.45" y="35" width="3.1" height="10" stroke="#FF0000" stroke-width="0.025" fill="none" />
  <rect x="113.45" y="35" width="3.1" height="10" stroke="#FF0000" stroke-width="0.025" fill="none" />
  <rect x="148.45" y="35" width="3.1" height="10" stroke="#FF0000" stroke-width="0.025" fill="none" />
  <rect x="183.45" y="35" width="3.1" height="10" stroke="#FF0000" stroke-width="0.025" fill="none" />
  <rect x="218.45" y="35" width="3.1" height="10" stroke="#FF0000" stroke-width="0.025" fill="none" />
  <rect x="253.45" y="35" width="3.1" height="10" stroke="#FF0000" stroke-width="0.025" fill="none" />
  <rect x="288.45" y="35" width="3.1" height="10" stroke="#FF0000" stroke-width="0.025" fill="none" />
  <rect x="323.45" y="35" width="3.1" height="10" stroke="#FF0000" stroke-width="0.025" fill="none" />
  <rect x="358.45" y="35" width="3.1" height="10" stroke="#FF0000" stroke-width="0.025" fill="none" />
  <rect x="10" y="60" width="385" height="20" stroke="#FF0000" stroke-width="0.025" fill="none" />
  <rect x="43.45" y="60" width="3.1" height="10" stroke="#FF0000" stroke-width="0.025" fill="none" />
  <rect x="78.45" y="60" width="3.1" height="10" stroke="#FF0000" stroke-width="0.025" fill="none" />
  <rect x="113.45" y="60" width="3.1" height="10" stroke="#FF0000" stroke-width="0.025" fill="none" />
  <rect x="148.45" y="60" width="3.1" height="10" stroke="#FF0000" stroke-width="0.025" fill="none" />
  <rect x="183.45" y="60" width="3.1" height="10" stroke="#FF0000" stroke-width="0.025" fill="none" />
  <rect x="218.45" y="60" width="3.1" height="10" stroke="#FF0000" stroke-width="0.025" fill="none" />
  <rect x="253.45" y="60" width="3.1" height="10" stroke="#FF0000" stroke-width="0.025" fill="none" />
  <rect x="288.45" y="60" width="3.1" height="10" stroke="#FF0000" stroke-width="0.025" fill="none" />
  <rect x="323.45" y="60" width="3.1" height="10" stroke="#FF0000" stroke-width="0.025" fill="none" />
  <rect x="358.45" y="60" width="3.1" height="10" stroke="#FF0000" stroke-width="0.025" fill="none" />
  <rect x="10" y="85" width="385" height="20" stroke="#FF0000" stroke-width="0.025" fill="none" />
  <rect x="43.45" y="85" width="3.1" height="10" stroke="#FF0000" stroke-width="0.025" fill="none" />
  <rect x="78.45" y="85" width="3.1" height="10" stroke="#FF0000" stroke-width="0.025" fill="none" />
  <rect x="113.45" y="85" width="3.1" height="10" stroke="#FF0000" stroke-width="0.025" fill="none" />
  <rect x="148.45" y="85" width="3.1" height="10" stroke="#FF0000" stroke-width="0.025" fill="none" />
  <rect x="183.45" y="85" width="3.1" height="10" stroke="#FF0000" stroke-width="0.025" fill="none" />
  <rect x="218.45" y="85" width="3.1" height="10" stroke="#FF0000" stroke-width="0.025" fill="none" />
  <rect x="253.45" y="85" width="3.1" height="10" stroke="#FF0000" stroke-width="0.025" fill="none" />
  <rect x="288.45" y="85" width="3.1" height="10" stroke="#FF0000" stroke-width="0.025" fill="none" />
  <rect x="323.45" y="85" width="3.1" height="10" stroke="#FF0000" stroke-width="0.025" fill="none" />
  <rect x="358.45" y="85" width="3.1" height="10" stroke="#FF0000" stroke-width="0.025" fill="none" />
  <rect x="10" y="110" width="385" height="20" stroke="#FF0000" stroke-width="0.025" fill="none" />
  <rect x="43.45" y="110" width="3.1" height="10" stroke="#FF0000" stroke-width="0.025" fill="none" />
  <rect x="78.45" y="110" width="3.1" height="10" stroke="#FF0000" stroke-width="0.025" fill="none" />
  <rect x="113.45" y="110" width="3.1" height="10" stroke="#FF0000" stroke-width="0.025" fill="none" />
  <rect x="148.45" y="110" width="3.1" height="10" stroke="#FF0000" stroke-width="0.025" fill="none" />
  <rect x="183.45" y="110" width="3.1" height="10" stroke="#FF0000" stroke-width="0.025" fill="none" />
  <rect x="218.45" y="110" width="3.1" height="10" stroke="#FF0000" stroke-width="0.025" fill="none" />
  <rect x="253.45" y="110" width="3.1" height="10" stroke="#FF0000" stroke-width="0.025" fill="none" />
  <rect x="288.45" y="110" width="3.1" height="10" stroke="#FF0000" stroke-width="0.025" fill="none" />
  <rect x="323.45" y="110" width="3.1" height="10" stroke="#FF0000" stroke-width="0.025" fill="none" />
  <rect x="358.45" y="110" width="3.1" height="10" stroke="#FF0000" stroke-width="0.025" fill="none" />
  <rect x="10" y="135" width="385" height="20" stroke="#FF0000" stroke-width="0.025" fill="none" />
  <rect x="43.45" y="135" width="3.1" height="10" stroke="#FF0000" stroke-width="0.025" fill="none" />
  <rect x="78.45" y="135" width="3.1" height="10" stroke="#FF0000" stroke-width="0.025" fill="none" />
  <rect x="113.45" y="135" width="3.1" height="10" stroke="#FF0000" stroke-width="0.025" fill="none" />
  <rect x="148.45" y="135" width="3.1" height="10" stroke="#FF0000" stroke-width="0.025" fill="none" />
  <rect x="183.45" y="135" width="3.1" height="10" stroke="#FF0000" stroke-width="0.025" fill="none" />
  <rect x="218.45" y="135" width="3.1" height="10" stroke="#FF0000" stroke-width="0.025" fill="none" />
  <rect x="253.45" y="135" width="3.1" height="10" stroke="#FF0000" stroke-width="0.025" fill="none" />
  <rect x="288.45" y="135" width="3.1" height="10" stroke="#FF0000" stroke-width="0.025" fill="none" />
  <rect x="323.45" y="135" width="3.1" height="10" stroke="#FF0000" stroke-width="0.025" fill="none" />
  <rect x="358.45" y="135" width="3.1" height="10" stroke="#FF0000" stroke-width="0.025" fill="none" />
  <rect x="10" y="160" width="385" height="20" stroke="#FF0000" stroke-width="0.025" fill="none" />
  <rect x="43.45" y="160" width="3.1" height="10" stroke="#FF0000" stroke-width="0.025" fill="none" />
  <rect x="78.45" y="160" width="3.1" height="10" stroke="#FF0000" stroke-width="0.025" fill="none" />
  <rect x="113.45" y="160" width="3.1" height="10" stroke="#FF0000" stroke-width="0.025" fill="none" />
  <rect x="148.45" y="160" width="3.1" height="10" stroke="#FF0000" stroke-width="0.025" fill="none" />
  <rect x="183.45" y="160" width="3.1" height="10" stroke="#FF0000" stroke-width="0.025" fill="none" />
  <rect x="218.45" y="160" width="3.1" height="10" stroke="#FF0000" stroke-width="0.025" fill="none" />
  <rect x="253.45" y="160" width="3.1" height="10" stroke="#FF0000" stroke-width="0.025" fill="none" />
  <rect x="288.45" y="160" width="3.1" height="10" stroke="#FF0000" stroke-width="0.025" fill="none" />
  <rect x="323.45" y="160" width="3.1" height="10" stroke="#FF0000" stroke-width="0.025" fill="none" />
  <rect x="358.45" y="160" width="3.1" height="10" stroke="#FF0000" stroke-width="0.025" fill="none" />
  <rect x="10" y="185" width="385" height="20" stroke="#FF0000" stroke-width="0.025" fill="none" />
  <rect x="43.45" y="185" width="3.1" height="10" stroke="#FF0000" stroke-width="0.025" fill="none" />
  <rect x="78.45" y="185" width="3.1" height="10" stroke="#FF0000" stroke-width="0.025" fill="none" />
  <rect x="113.45" y="185" width="3.1" height="10" stroke="#FF0000" stroke-width="0.025" fill="none" />
  <rect x="148.45" y="185" width="3.1" height="10" stroke="#FF0000" stroke-width="0.025" fill="none" />
  <rect x="183.45" y="185" width="3.1" height="10" stroke="#FF0000" stroke-width="0.025" fill="none" />
  <rect x="218.45" y="185" width="3.1" height="10" stroke="#FF0000" stroke-width="0.025" fill="none" />
  <rect x="253.45" y="185" width="3.1" height="10" stroke="#FF0000" stroke-width="0.025" fill="none" />
  <rect x="288.45" y="185" width="3.1" height="10" stroke="#FF0000" stroke-width="0.025" fill="none" />
  <rect x="323.45" y="185" width="3.1" height="10" stroke="#FF0000" stroke-width="0.025" fill="none" />
  <rect x="358.45" y="185" width="3.1" height="10" stroke="#FF0000" stroke-width="0.025" fill="none" />
  <rect x="10" y="210" width="385" height="20" stroke="#FF0000" stroke-width="0.025" fill="none" />
  <rect x="43.45" y="210" width="3.1" height="10" stroke="#FF0000" stroke-width="0.025" fill="none" />
  <rect x="78.45" y="210" width="3.1" height="10" stroke="#FF0000" stroke-width="0.025" fill="none" />
  <rect x="113.45" y="210" width="3.1" height="10" stroke="#FF0000" stroke-width="0.025" fill="none" />
  <rect x="148.45" y="210" width="3.1" height="10" stroke="#FF0000" stroke-width="0.025" fill="none" />
  <rect x="183.45" y="210" width="3.1" height="10" stroke="#FF0000" stroke-width="0.025" fill="none" />
  <rect x="218.45" y="210" width="3.1" height="10" stroke="#FF0000" stroke-width="0.025" fill="none" />
  <rect x="253.45" y="210" width="3.1" height="10" stroke="#FF0000" stroke-width="0.025" fill="none" />
  <rect x="288.45" y="210" width="3.1" height="10" stroke="#FF0000" stroke-width="0.025" fill="none" />
  <rect x="323.45" y="210" width="3.1" height="10" stroke="#FF0000" stroke-width="0.025" fill="none" />
  <rect x="358.45" y="210" width="3.1" height="10" stroke="#FF0000" stroke-width="0.025" fill="none" />
  <rect x="10" y="235" width="385" height="20" stroke="#FF0000" stroke-width="0.025" fill="none" />
  <rect x="43.45" y="235" width="3.1" height="10" stroke="#FF0000" stroke-width="0.025" fill="none" />
  <rect x="78.45" y="235" width="3.1" height="10" stroke="#FF0000" stroke-width="0.025" fill="none" />
  <rect x="113.45" y="235" width="3.1" height="10" stroke="#FF0000" stroke-width="0.025" fill="none" />
  <rect x="148.45" y="235" width="3.1" height="10" stroke="#FF0000" stroke-width="0.025" fill="none" />
  <rect x="183.45" y="235" width="3.1" height="10" stroke="#FF0000" stroke-width="0.025" fill="none" />
  <rect x="218.45" y="235" width="3.1" height="10" stroke="#FF0000" stroke-width="0.025" fill="none" />
  <rect x="253.45" y="235" width="3.1" height="10" stroke="#FF0000" stroke-width="0.025" fill="none" />
  <rect x="288.45" y="235" width="3.1" height="10" stroke="#FF0000" stroke-width="0.025" fill="none" />
  <rect x="323.45" y="235" width="3.1" height="10" stroke="#FF0000" stroke-width="0.025" fill="none" />
  <rect x="358.45" y="235" width="3.1" height="10" stroke="#FF0000" stroke-width="0.025" fill="none" />
  <rect x="10" y="260" width="385" height="20" stroke="#FF0000" stroke-width="0.025" fill="none" />
  <rect x="43.45" y="260" width="3.1" height="10" stroke="#FF0000" stroke-width="0.025" fill="none" />
  <rect x="78.45" y="260" width="3.1" height="10" stroke="#FF0000" stroke-width="0.025" fill="none" />
  <rect x="113.45" y="260" width="3.1" height="10" stroke="#FF0000" stroke-width="0.025" fill="none" />
  <rect x="148.45" y="260" width="3.1" height="10" stroke="#FF0000" stroke-width="0.025" fill="none" />
  <rect x="183.45" y="260" width="3.1" height="10" stroke="#FF0000" stroke-width="0.025" fill="none" />
  <rect x="218.45" y="260" width="3.1" height="10" stroke="#FF0000" stroke-width="0.025" fill="none" />
  <rect x="253.45" y="260" width="3.1" height="10" stroke="#FF0000" stroke-width="0.025" fill="none" />
  <rect x="288.45" y="260" width="3.1" height="10" stroke="#FF0000" stroke-width="0.025" fill="none" />
  <rect x="323.45" y="260" width="3.1" height="10" stroke="#FF0000" stroke-width="0.025" fill="none" />
  <rect x="358.45" y="260" width="3.1" height="10" stroke="#FF0000" stroke-width="0.025" fill="none" />
  <rect x="10" y="295" width="350" height="20" stroke="#FF0000" stroke-width="0.025" fill="none" />
  <rect x="43.45" y="305" width="3.1" height="10" stroke="#FF0000" stroke-width="0.025" fill="none" />
  <rect x="78.45" y="305" width="3.1" height="10" stroke="#FF0000" stroke-width="0.025" fill="none" />
  <rect x="113.45" y="305" width="3.1" height="10" stroke="#FF0000" stroke-width="0.025" fill="none" />
  <rect x="148.45" y="305" width="3.1" height="10" stroke="#FF0000" stroke-width="0.025" fill="none" />
  <rect x="183.45" y="305" width="3.1" height="10" stroke="#FF0000" stroke-width="0.025" fill="none" />
  <rect x="218.45" y="305" width="3.1" height="10" stroke="#FF0000" stroke-width="0.025" fill="none" />
  <rect x="253.45" y="305" width="3.1" height="10" stroke="#FF0000" stroke-width="0.025" fill="none" />
  <rect x="288.45" y="305" width="3.1" height="10" stroke="#FF0000" stroke-width="0.025" fill="none" />
  <rect x="323.45" y="305" width="3.1" height="10" stroke="#FF0000" stroke-width="0.025" fill="none" />
  <rect x="10" y="320" width="350" height="20" stroke="#FF0000" stroke-width="0.025" fill="none" />
  <rect x="43.45" y="330" width="3.1" height="10" stroke="#FF0000" stroke-width="0.025" fill="none" />
  <rect x="78.45" y="330" width="3.1" height="10" stroke="#FF0000" stroke-width="0.025" fill="none" />
  <rect x="113.45" y="330" width="3.1" height="10" stroke="#FF0000" stroke-width="0.025" fill="none" />
  <rect x="148.45" y="330" width="3.1" height="10" stroke="#FF0000" stroke-width="0.025" fill="none" />
  <rect x="183.45" y="330" width="3.1" height="10" stroke="#FF0000" stroke-width="0.025" fill="none" />
  <rect x="218.45" y="330" width="3.1" height="10" stroke="#FF0000" stroke-width="0.025" fill="none" />
  <rect x="253.45" y="330" width="3.1" height="10" stroke="#FF0000" stroke-width="0.025" fill="none" />
  <rect x="288.45" y="330" width="3.1" height="10" stroke="#FF0000" stroke-width="0.025" fill="none" />
  <rect x="323.45" y="330" width="3.1" height="10" stroke="#FF0000" stroke-width="0.025" fill="none" />
  <rect x="10" y="345" width="350" height="20" stroke="#FF0000" stroke-width="0.025" fill="none" />
  <rect x="43.45" y="355" width="3.1" height="10" stroke="#FF0000" stroke-width="0.025" fill="none" />
  <rect x="78.45" y="355" width="3.1" height="10" stroke="#FF0000" stroke-width="0.025" fill="none" />
  <rect x="113.45" y="355" width="3.1" height="10" stroke="#FF0000" stroke-width="0.025" fill="none" />
  <rect x="148.45" y="355" width="3.1" height="10" stroke="#FF0000" stroke-width="0.025" fill="none" />
  <rect x="183.45" y="355" width="3.1" height="10" stroke="#FF0000" stroke-width="0.025" fill="none" />
  <rect x="218.45" y="355" width="3.1" height="10" stroke="#FF0000" stroke-width="0.025" fill="none" />
  <rect x="253.45" y="355" width="3.1" height="10" stroke="#FF0000" stroke-width="0.025" fill="none" />
  <rect x="288.45" y="355" width="3.1" height="10" stroke="#FF0000" stroke-width="0.025" fill="none" />
  <rect x="323.45" y="355" width="3.1" height="10" stroke="#FF0000" stroke-width="0.025" fill="none" />
  <rect x="10" y="370" width="350" height="20" stroke="#FF0000" stroke-width="0.025" fill="none" />
  <rect x="43.45" y="380" width="3.1" height="10" stroke="#FF0000" stroke-width="0.025" fill="none" />
  <rect x="78.45" y="380" width="3.1" height="10" stroke="#FF0000" stroke-width="0.025" fill="none" />
  <rect x="113.45" y="380" width="3.1" height="10" stroke="#FF0000" stroke-width="0.025" fill="none" />
  <rect x="148.45" y="380" width="3.1" height="10" stroke="#FF0000" stroke-width="0.025" fill="none" />
  <rect x="183.45" y="380" width="3.1" height="10" stroke="#FF0000" stroke-width="0.025" fill="none" />
  <rect x="218.45" y="380" width="3.1" height="10" stroke="#FF0000" stroke-width="0.025" fill="none" />
  <rect x="253.45" y="380" width="3.1" height="10" stroke="#FF0000" stroke-width="0.025" fill="none" />
  <rect x="288.45" y="380" width="3.1" height="10" stroke="#FF0000" stroke-width="0.025" fill="none" />
  <rect x="323.45" y="380" width="3.1" height="10" stroke="#FF0000" stroke-width="0.025" fill="none" />
  <rect x="10" y="395" width="350" height="20" stroke="#FF0000" stroke-width="0.025" fill="none" />
  <rect x="43.45" y="405" width="3.1" height="10" stroke="#FF0000" stroke-width="0.025" fill="none" />
  <rect x="78.45" y="405" width="3.1" height="10" stroke="#FF0000" stroke-width="0.025" fill="none" />
  <rect x="113.45" y="405" width="3.1" height="10" stroke="#FF0000" stroke-width="0.025" fill="none" />
  <rect x="148.45" y="405" width="3.1" height="10" stroke="#FF0000" stroke-width="0.025" fill="none" />
  <rect x="183.45" y="405" width="3.1" height="10" stroke="#FF0000" stroke-width="0.025" fill="none" />
  <rect x="218.45" y="405" width="3.1" height="10" stroke="#FF0000" stroke-width="0.025" fill="none" />
  <rect x="253.45" y="405" width="3.1" height="10" stroke="#FF0000" stroke-width="0.025" fill="none" />
  <rect x="288.45" y="405" width="3.1" height="10" stroke="#FF0000" stroke-width="0.025" fill="none" />
  <rect x="323.45" y="405" width="3.1" height="10" stroke="#FF0000" stroke-width="0.025" fill="none" />
  <rect x="10" y="420" width="350" height="20" stroke="#FF0000" stroke-width="0.025" fill="none" />
  <rect x="43.45" y="430" width="3.1" height="10" stroke="#FF0000" stroke-width="0.025" fill="none" />
  <rect x="78.45" y="430" width="3.1" height="10" stroke="#FF0000" stroke-width="0.025" fill="none" />
  <rect x="113.45" y="430" width="3.1" height="10" stroke="#FF0000" stroke-width="0.025" fill="none" />
  <rect x="148.45" y="430" width="3.1" height="10" stroke="#FF0000" stroke-width="0.025" fill="none" />
  <rect x="183.45" y="430" width="3.1" height="10" stroke="#FF0000" stroke-width="0.025" fill="none" />
  <rect x="218.45" y="430" width="3.1" height="10" stroke="#FF0000" stroke-width="0.025" fill="none" />
  <rect x="253.45" y="430" width="3.1" height="10" stroke="#FF0000" stroke-width="0.025" fill="none" />
  <rect x="288.45" y="430" width="3.1" height="10" stroke="#FF0000" stroke-width="0.025" fill="none" />
  <rect x="323.45" y="430" width="3.1" height="10" stroke="#FF0000" stroke-width="0.025" fill="none" />
  <rect x="10" y="445" width="350" height="20" stroke="#FF0000" stroke-width="0.025" fill="none" />
  <rect x="43.45" y="455" width="3.1" height="10" stroke="#FF0000" stroke-width="0.025" fill="none" />
  <rect x="78.45" y="455" width="3.1" height="10" stroke="#FF0000" stroke-width="0.025" fill="none" />
  <rect x="113.45" y="455" width="3.1" height="10" stroke="#FF0000" stroke-width="0.025" fill="none" />
  <rect x="148.45" y="455" width="3.1" height="10" stroke="#FF0000" stroke-width="0.025" fill="none" />
  <rect x="183.45" y="455" width="3.1" height="10" stroke="#FF0000" stroke-width="0.025" fill="none" />
  <rect x="218.45" y="455" width="3.1" height="10" stroke="#FF0000" stroke-width="0.025" fill="none" />
  <rect x="253.45" y="455" width="3.1" height="10" stroke="#FF0000" stroke-width="0.025" fill="none" />
  <rect x="288.45" y="455" width="3.1" height="10" stroke="#FF0000" stroke-width="0.025" fill="none" />
  <rect x="323.45" y="455" width="3.1" height="10" stroke="#FF0000" stroke-width="0.025" fill="none" />
  <rect x="10" y="470" width="350" height="20" stroke="#FF0000" stroke-width="0.025" fill="none" />
  <rect x="43.45" y="480" width="3.1" height="10" stroke="#FF0000" stroke-width="0.025" fill="none" />
  <rect x="78.45" y="480" width="3.1" height="10" stroke="#FF0000" stroke-width="0.025" fill="none" />
  <rect x="113.45" y="480" width="3.1" height="10" stroke="#FF0000" stroke-width="0.025" fill="none" />
  <rect x="148.45" y="480" width="3.1" height="10" stroke="#FF0000" stroke-width="0.025" fill="none" />
  <rect x="183.45" y="480" width="3.1" height="10" stroke="#FF0000" stroke-width="0.025" fill="none" />
  <rect x="218.45" y="480" width="3.1" height="10" stroke="#FF0000" stroke-width="0.025" fill="none" />
  <rect x="253.45" y="480" width="3.1" height="10" stroke="#FF0000" stroke-width="0.025" fill="none" />
  <rect x="288.45" y="480" width="3.1" height="10" stroke="#FF0000" stroke-width="0.025" fill="none" />
  <rect x="323.45" y="480" width="3.1" height="10" stroke="#FF0000" stroke-width="0.025" fill="none" />
  <rect x="10" y="495" width="350" height="20" stroke="#FF0000" stroke-width="0.025" fill="none" />
  <rect x="43.45" y="505" width="3.1" height="10" stroke="#FF0000" stroke-width="0.025" fill="none" />
  <rect x="78.45" y="505" width="3.1" height="10" stroke="#FF0000" stroke-width="0.025" fill="none" />
  <rect x="113.45" y="505" width="3.1" height="10" stroke="#FF0000" stroke-width="0.025" fill="none" />
  <rect x="148.45" y="505" width="3.1" height="10" stroke="#FF0000" stroke-width="0.025" fill="none" />
  <rect x="183.45" y="505" width="3.1" height="10" stroke="#FF0000" stroke-width="0.025" fill="none" />
  <rect x="218.45" y="505" width="3.1" height="10" stroke="#FF0000" stroke-width="0.025" fill="none" />
  <rect x="253.45" y="505" width="3.1" height="10" stroke="#FF0000" stroke-width="0.025" fill="none" />
  <rect x="288.45" y="505" width="3.1" height="10" stroke="#FF0000" stroke-width="0.025" fill="none" />
  <rect x="323.45" y="505" width="3.1" height="10" stroke="#FF0000" stroke-width="0.025" fill="none" />
  <rect x="10" y="520" width="350" height="20" stroke="#FF0000" stroke-width="0.025" fill="none" />
  <rect x="43.45" y="530" width="3.1" height="10" stroke="#FF0000" stroke-width="0.025" fill="none" />
  <rect x="78.45" y="530" width="3.1" height="10" stroke="#FF0000" stroke-width="0.025" fill="none" />
  <rect x="113.45" y="530" width="3.1" height="10" stroke="#FF0000" stroke-width="0.025" fill="none" />
  <rect x="148.45" y="530" width="3.1" height="10" stroke="#FF0000" stroke-width="0.025" fill="none" />
  <rect x="183.45" y="530" width="3.1" height="10" stroke="#FF0000" stroke-width="0.025" fill="none" />
  <rect x="218.45" y="530" width="3.1" height="10" stroke="#FF0000" stroke-width="0.025" fill="none" />
  <rect x="253.45" y="530" width="3.1" height="10" stroke="#FF0000" stroke-width="0.025" fill="none" />
  <rect x="288.45" y="530" width="3.1" height="10" stroke="#FF0000" stroke-width="0.025" fill="none" />
  <rect x="323.45" y="530" width="3.1" height="10" stroke="#FF0000" stroke-width="0.025" fill="none" />
  <rect x="10" y="545" width="350" height="20" stroke="#FF0000" stroke-width="0.025" fill="none" />
  <rect x="43.45" y="555" width="3.1" height="10" stroke="#FF0000" stroke-width="0.025" fill="none" />
  <rect x="78.45" y="555" width="3.1" height="10" stroke="#FF0000" stroke-width="0.025" fill="none" />
  <rect x="113.45" y="555" width="3.1" height="10" stroke="#FF0000" stroke-width="0.025" fill="none" />
  <rect x="148.45" y="555" width="3.1" height="10" stroke="#FF0000" stroke-width="0.025" fill="none" />
  <rect x="183.45" y="555" width="3.1" height="10" stroke="#FF0000" stroke-width="0.025" fill="none" />
  <rect x="218.45" y="555" width="3.1" height="10" stroke="#FF0000" stroke-width="0.025" fill="none" />
  <rect x="253.45" y="555" width="3.1" height="10" stroke="#FF0000" stroke-width="0.025" fill="none" />
  <rect x="288.45" y="555" width="3.1" height="10" stroke="#FF0000" stroke-width="0.025" fill="none" />
  <rect x="323.45" y="555" width="3.1" height="10" stroke="#FF0000" stroke-width="0.025" fill="none" />
  <rect x="10" y="570" width="350" height="20" stroke="#FF0000" stroke-width="0.025" fill="none" />
  <rect x="43.45" y="580" width="3.1" height="10" stroke="#FF0000" stroke-width="0.025" fill="none" />
  <rect x="78.45" y="580" width="3.1" height="10" stroke="#FF0000" stroke-width="0.025" fill="none" />
  <rect x="113.45" y="580" width="3.1" height="10" stroke="#FF0000" stroke-width="0.025" fill="none" />
  <rect x="148.45" y="580" width="3.1" height="10" stroke="#FF0000" stroke-width="0.025" fill="none" />
  <rect x="183.45" y="580" width="3.1" height="10" stroke="#FF0000" stroke-width="0.025" fill="none" />
  <rect x="218.45" y="580" width="3.1" height="10" stroke="#FF0000" stroke-width="0.025" fill="none" />
  <rect x="253.45" y="580" width="3.1" height="10" stroke="#FF0000" stroke-width="0.025" fill="none" />
  <rect x="288.45" y="580" width="3.1" height="10" stroke="#FF0000" stroke-width="0.025" fill="none" />
  <rect x="323.45" y="580" width="3.1" height="10" stroke="#FF0000" stroke-width="0.025" fill="none" />
  </g>
</svg>
