0
SECTION
2
HEADER
0
ENDSEC
0
SECTION
2
TABLES
0
TABLE
2
LAYER
70
2
0
LAYER
2
CUT
70
0
62
1
6
CONTINUOUS
0
LAYER
2
ENGRAVE
70
0
62
5
6
CONTINUOUS
0
ENDTAB
0
ENDSEC
0
SECTION
2
ENTITIES
0
LINE
8
CUT
10
0
20
0
30
0
11
525
21
0
31
0
0
LINE
8
CUT
10
525
20
0
30
0
11
525
21
480
31
0
0
LINE
8
CUT
10
525
20
480
30
0
11
0
21
480
31
0
0
LINE
8
CUT
10
0
20
480
30
0
11
0
21
0
31
0
0
LINE
8
CUT
10
19
20
19
30
0
11
56
21
19
31
0
0
LINE
8
CUT
10
56
20
19
30
0
11
56
21
56
31
0
0
LINE
8
CUT
10
56
20
56
30
0
11
19
21
56
31
0
0
LINE
8
CUT
10
19
20
56
30
0
11
19
21
19
31
0
0
LINE
8
CUT
10
64
20
19
30
0
11
101
21
19
31
0
0
LINE
8
CUT
10
101
20
19
30
0
11
101
21
56
31
0
0
LINE
8
CUT
10
101
20
56
30
0
11
64
21
56
31
0
0
LINE
8
CUT
10
64
20
56
30
0
11
64
21
19
31
0
0
LINE
8
CUT
10
109
20
19
30
0
11
146
21
19
31
0
0
LINE
8
CUT
10
146
20
19
30
0
11
146
21
56
31
0
0
LINE
8
CUT
10
146
20
56
30
0
11
109
21
56
31
0
0
LINE
8
CUT
10
109
20
56
30
0
11
109
21
19
31
0
0
LINE
8
CUT
10
154
20
19
30
0
11
191
21
19
31
0
0
LINE
8
CUT
10
191
20
19
30
0
11
191
21
56
31
0
0
LINE
8
CUT
10
191
20
56
30
0
11
154
21
56
31
0
0
LINE
8
CUT
10
154
20
56
30
0
11
154
21
19
31
0
0
LINE
8
CUT
10
199
20
19
30
0
11
236
21
19
31
0
0
LINE
8
CUT
10
236
20
19
30
0
11
236
21
56
31
0
0
LINE
8
CUT
10
236
20
56
30
0
11
199
21
56
31
0
0
LINE
8
CUT
10
199
20
56
30
0
11
199
21
19
31
0
0
LINE
8
CUT
10
244
20
19
30
0
11
281
21
19
31
0
0
LINE
8
CUT
10
281
20
19
30
0
11
281
21
56
31
0
0
LINE
8
CUT
10
281
20
56
30
0
11
244
21
56
31
0
0
LINE
8
CUT
10
244
20
56
30
0
11
244
21
19
31
0
0
LINE
8
CUT
10
289
20
19
30
0
11
326
21
19
31
0
0
LINE
8
CUT
10
326
20
19
30
0
11
326
21
56
31
0
0
LINE
8
CUT
10
326
20
56
30
0
11
289
21
56
31
0
0
LINE
8
CUT
10
289
20
56
30
0
11
289
21
19
31
0
0
LINE
8
CUT
10
334
20
19
30
0
11
371
21
19
31
0
0
LINE
8
CUT
10
371
20
19
30
0
11
371
21
56
31
0
0
LINE
8
CUT
10
371
20
56
30
0
11
334
21
56
31
0
0
LINE
8
CUT
10
334
20
56
30
0
11
334
21
19
31
0
0
LINE
8
CUT
10
379
20
19
30
0
11
416
21
19
31
0
0
LINE
8
CUT
10
416
20
19
30
0
11
416
21
56
31
0
0
LINE
8
CUT
10
416
20
56
30
0
11
379
21
56
31
0
0
LINE
8
CUT
10
379
20
56
30
0
11
379
21
19
31
0
0
LINE
8
CUT
10
424
20
19
30
0
11
461
21
19
31
0
0
LINE
8
CUT
10
461
20
19
30
0
11
461
21
56
31
0
0
LINE
8
CUT
10
461
20
56
30
0
11
424
21
56
31
0
0
LINE
8
CUT
10
424
20
56
30
0
11
424
21
19
31
0
0
LINE
8
CUT
10
469
20
19
30
0
11
506
21
19
31
0
0
LINE
8
CUT
10
506
20
19
30
0
11
506
21
56
31
0
0
LINE
8
CUT
10
506
20
56
30
0
11
469
21
56
31
0
0
LINE
8
CUT
10
469
20
56
30
0
11
469
21
19
31
0
0
LINE
8
CUT
10
19
20
64
30
0
11
56
21
64
31
0
0
LINE
8
CUT
10
56
20
64
30
0
11
56
21
101
31
0
0
LINE
8
CUT
10
56
20
101
30
0
11
19
21
101
31
0
0
LINE
8
CUT
10
19
20
101
30
0
11
19
21
64
31
0
0
LINE
8
CUT
10
64
20
64
30
0
11
101
21
64
31
0
0
LINE
8
CUT
10
101
20
64
30
0
11
101
21
101
31
0
0
LINE
8
CUT
10
101
20
101
30
0
11
64
21
101
31
0
0
LINE
8
CUT
10
64
20
101
30
0
11
64
21
64
31
0
0
LINE
8
CUT
10
109
20
64
30
0
11
146
21
64
31
0
0
LINE
8
CUT
10
146
20
64
30
0
11
146
21
101
31
0
0
LINE
8
CUT
10
146
20
101
30
0
11
109
21
101
31
0
0
LINE
8
CUT
10
109
20
101
30
0
11
109
21
64
31
0
0
LINE
8
CUT
10
154
20
64
30
0
11
191
21
64
31
0
0
LINE
8
CUT
10
191
20
64
30
0
11
191
21
101
31
0
0
LINE
8
CUT
10
191
20
101
30
0
11
154
21
101
31
0
0
LINE
8
CUT
10
154
20
101
30
0
11
154
21
64
31
0
0
LINE
8
CUT
10
199
20
64
30
0
11
236
21
64
31
0
0
LINE
8
CUT
10
236
20
64
30
0
11
236
21
101
31
0
0
LINE
8
CUT
10
236
20
101
30
0
11
199
21
101
31
0
0
LINE
8
CUT
10
199
20
101
30
0
11
199
21
64
31
0
0
LINE
8
CUT
10
244
20
64
30
0
11
281
21
64
31
0
0
LINE
8
CUT
10
281
20
64
30
0
11
281
21
101
31
0
0
LINE
8
CUT
10
281
20
101
30
0
11
244
21
101
31
0
0
LINE
8
CUT
10
244
20
101
30
0
11
244
21
64
31
0
0
LINE
8
CUT
10
289
20
64
30
0
11
326
21
64
31
0
0
LINE
8
CUT
10
326
20
64
30
0
11
326
21
101
31
0
0
LINE
8
CUT
10
326
20
101
30
0
11
289
21
101
31
0
0
LINE
8
CUT
10
289
20
101
30
0
11
289
21
64
31
0
0
LINE
8
CUT
10
334
20
64
30
0
11
371
21
64
31
0
0
LINE
8
CUT
10
371
20
64
30
0
11
371
21
101
31
0
0
LINE
8
CUT
10
371
20
101
30
0
11
334
21
101
31
0
0
LINE
8
CUT
10
334
20
101
30
0
11
334
21
64
31
0
0
LINE
8
CUT
10
379
20
64
30
0
11
416
21
64
31
0
0
LINE
8
CUT
10
416
20
64
30
0
11
416
21
101
31
0
0
LINE
8
CUT
10
416
20
101
30
0
11
379
21
101
31
0
0
LINE
8
CUT
10
379
20
101
30
0
11
379
21
64
31
0
0
LINE
8
CUT
10
424
20
64
30
0
11
461
21
64
31
0
0
LINE
8
CUT
10
461
20
64
30
0
11
461
21
101
31
0
0
LINE
8
CUT
10
461
20
101
30
0
11
424
21
101
31
0
0
LINE
8
CUT
10
424
20
101
30
0
11
424
21
64
31
0
0
LINE
8
CUT
10
469
20
64
30
0
11
506
21
64
31
0
0
LINE
8
CUT
10
506
20
64
30
0
11
506
21
101
31
0
0
LINE
8
CUT
10
506
20
101
30
0
11
469
21
101
31
0
0
LINE
8
CUT
10
469
20
101
30
0
11
469
21
64
31
0
0
LINE
8
CUT
10
19
20
109
30
0
11
56
21
109
31
0
0
LINE
8
CUT
10
56
20
109
30
0
11
56
21
146
31
0
0
LINE
8
CUT
10
56
20
146
30
0
11
19
21
146
31
0
0
LINE
8
CUT
10
19
20
146
30
0
11
19
21
109
31
0
0
LINE
8
CUT
10
64
20
109
30
0
11
101
21
109
31
0
0
LINE
8
CUT
10
101
20
109
30
0
11
101
21
146
31
0
0
LINE
8
CUT
10
101
20
146
30
0
11
64
21
146
31
0
0
LINE
8
CUT
10
64
20
146
30
0
11
64
21
109
31
0
0
LINE
8
CUT
10
109
20
109
30
0
11
146
21
109
31
0
0
LINE
8
CUT
10
146
20
109
30
0
11
146
21
146
31
0
0
LINE
8
CUT
10
146
20
146
30
0
11
109
21
146
31
0
0
LINE
8
CUT
10
109
20
146
30
0
11
109
21
109
31
0
0
LINE
8
CUT
10
154
20
109
30
0
11
191
21
109
31
0
0
LINE
8
CUT
10
191
20
109
30
0
11
191
21
146
31
0
0
LINE
8
CUT
10
191
20
146
30
0
11
154
21
146
31
0
0
LINE
8
CUT
10
154
20
146
30
0
11
154
21
109
31
0
0
LINE
8
CUT
10
199
20
109
30
0
11
236
21
109
31
0
0
LINE
8
CUT
10
236
20
109
30
0
11
236
21
146
31
0
0
LINE
8
CUT
10
236
20
146
30
0
11
199
21
146
31
0
0
LINE
8
CUT
10
199
20
146
30
0
11
199
21
109
31
0
0
LINE
8
CUT
10
244
20
109
30
0
11
281
21
109
31
0
0
LINE
8
CUT
10
281
20
109
30
0
11
281
21
146
31
0
0
LINE
8
CUT
10
281
20
146
30
0
11
244
21
146
31
0
0
LINE
8
CUT
10
244
20
146
30
0
11
244
21
109
31
0
0
LINE
8
CUT
10
289
20
109
30
0
11
326
21
109
31
0
0
LINE
8
CUT
10
326
20
109
30
0
11
326
21
146
31
0
0
LINE
8
CUT
10
326
20
146
30
0
11
289
21
146
31
0
0
LINE
8
CUT
10
289
20
146
30
0
11
289
21
109
31
0
0
LINE
8
CUT
10
334
20
109
30
0
11
371
21
109
31
0
0
LINE
8
CUT
10
371
20
109
30
0
11
371
21
146
31
0
0
LINE
8
CUT
10
371
20
146
30
0
11
334
21
146
31
0
0
LINE
8
CUT
10
334
20
146
30
0
11
334
21
109
31
0
0
LINE
8
CUT
10
379
20
109
30
0
11
416
21
109
31
0
0
LINE
8
CUT
10
416
20
109
30
0
11
416
21
146
31
0
0
LINE
8
CUT
10
416
20
146
30
0
11
379
21
146
31
0
0
LINE
8
CUT
10
379
20
146
30
0
11
379
21
109
31
0
0
LINE
8
CUT
10
424
20
109
30
0
11
461
21
109
31
0
0
LINE
8
CUT
10
461
20
109
30
0
11
461
21
146
31
0
0
LINE
8
CUT
10
461
20
146
30
0
11
424
21
146
31
0
0
LINE
8
CUT
10
424
20
146
30
0
11
424
21
109
31
0
0
LINE
8
CUT
10
469
20
109
30
0
11
506
21
109
31
0
0
LINE
8
CUT
10
506
20
109
30
0
11
506
21
146
31
0
0
LINE
8
CUT
10
506
20
146
30
0
11
469
21
146
31
0
0
LINE
8
CUT
10
469
20
146
30
0
11
469
21
109
31
0
0
LINE
8
CUT
10
19
20
154
30
0
11
56
21
154
31
0
0
LINE
8
CUT
10
56
20
154
30
0
11
56
21
191
31
0
0
LINE
8
CUT
10
56
20
191
30
0
11
19
21
191
31
0
0
LINE
8
CUT
10
19
20
191
30
0
11
19
21
154
31
0
0
LINE
8
CUT
10
64
20
154
30
0
11
101
21
154
31
0
0
LINE
8
CUT
10
101
20
154
30
0
11
101
21
191
31
0
0
LINE
8
CUT
10
101
20
191
30
0
11
64
21
191
31
0
0
LINE
8
CUT
10
64
20
191
30
0
11
64
21
154
31
0
0
LINE
8
CUT
10
109
20
154
30
0
11
146
21
154
31
0
0
LINE
8
CUT
10
146
20
154
30
0
11
146
21
191
31
0
0
LINE
8
CUT
10
146
20
191
30
0
11
109
21
191
31
0
0
LINE
8
CUT
10
109
20
191
30
0
11
109
21
154
31
0
0
LINE
8
CUT
10
154
20
154
30
0
11
191
21
154
31
0
0
LINE
8
CUT
10
191
20
154
30
0
11
191
21
191
31
0
0
LINE
8
CUT
10
191
20
191
30
0
11
154
21
191
31
0
0
LINE
8
CUT
10
154
20
191
30
0
11
154
21
154
31
0
0
LINE
8
CUT
10
199
20
154
30
0
11
236
21
154
31
0
0
LINE
8
CUT
10
236
20
154
30
0
11
236
21
191
31
0
0
LINE
8
CUT
10
236
20
191
30
0
11
199
21
191
31
0
0
LINE
8
CUT
10
199
20
191
30
0
11
199
21
154
31
0
0
LINE
8
CUT
10
244
20
154
30
0
11
281
21
154
31
0
0
LINE
8
CUT
10
281
20
154
30
0
11
281
21
191
31
0
0
LINE
8
CUT
10
281
20
191
30
0
11
244
21
191
31
0
0
LINE
8
CUT
10
244
20
191
30
0
11
244
21
154
31
0
0
LINE
8
CUT
10
289
20
154
30
0
11
326
21
154
31
0
0
LINE
8
CUT
10
326
20
154
30
0
11
326
21
191
31
0
0
LINE
8
CUT
10
326
20
191
30
0
11
289
21
191
31
0
0
LINE
8
CUT
10
289
20
191
30
0
11
289
21
154
31
0
0
LINE
8
CUT
10
334
20
154
30
0
11
371
21
154
31
0
0
LINE
8
CUT
10
371
20
154
30
0
11
371
21
191
31
0
0
LINE
8
CUT
10
371
20
191
30
0
11
334
21
191
31
0
0
LINE
8
CUT
10
334
20
191
30
0
11
334
21
154
31
0
0
LINE
8
CUT
10
379
20
154
30
0
11
416
21
154
31
0
0
LINE
8
CUT
10
416
20
154
30
0
11
416
21
191
31
0
0
LINE
8
CUT
10
416
20
191
30
0
11
379
21
191
31
0
0
LINE
8
CUT
10
379
20
191
30
0
11
379
21
154
31
0
0
LINE
8
CUT
10
424
20
154
30
0
11
461
21
154
31
0
0
LINE
8
CUT
10
461
20
154
30
0
11
461
21
191
31
0
0
LINE
8
CUT
10
461
20
191
30
0
11
424
21
191
31
0
0
LINE
8
CUT
10
424
20
191
30
0
11
424
21
154
31
0
0
LINE
8
CUT
10
469
20
154
30
0
11
506
21
154
31
0
0
LINE
8
CUT
10
506
20
154
30
0
11
506
21
191
31
0
0
LINE
8
CUT
10
506
20
191
30
0
11
469
21
191
31
0
0
LINE
8
CUT
10
469
20
191
30
0
11
469
21
154
31
0
0
LINE
8
CUT
10
19
20
199
30
0
11
56
21
199
31
0
0
LINE
8
CUT
10
56
20
199
30
0
11
56
21
236
31
0
0
LINE
8
CUT
10
56
20
236
30
0
11
19
21
236
31
0
0
LINE
8
CUT
10
19
20
236
30
0
11
19
21
199
31
0
0
LINE
8
CUT
10
64
20
199
30
0
11
101
21
199
31
0
0
LINE
8
CUT
10
101
20
199
30
0
11
101
21
236
31
0
0
LINE
8
CUT
10
101
20
236
30
0
11
64
21
236
31
0
0
LINE
8
CUT
10
64
20
236
30
0
11
64
21
199
31
0
0
LINE
8
CUT
10
109
20
199
30
0
11
146
21
199
31
0
0
LINE
8
CUT
10
146
20
199
30
0
11
146
21
236
31
0
0
LINE
8
CUT
10
146
20
236
30
0
11
109
21
236
31
0
0
LINE
8
CUT
10
109
20
236
30
0
11
109
21
199
31
0
0
LINE
8
CUT
10
154
20
199
30
0
11
191
21
199
31
0
0
LINE
8
CUT
10
191
20
199
30
0
11
191
21
236
31
0
0
LINE
8
CUT
10
191
20
236
30
0
11
154
21
236
31
0
0
LINE
8
CUT
10
154
20
236
30
0
11
154
21
199
31
0
0
LINE
8
CUT
10
199
20
199
30
0
11
236
21
199
31
0
0
LINE
8
CUT
10
236
20
199
30
0
11
236
21
236
31
0
0
LINE
8
CUT
10
236
20
236
30
0
11
199
21
236
31
0
0
LINE
8
CUT
10
199
20
236
30
0
11
199
21
199
31
0
0
LINE
8
CUT
10
244
20
199
30
0
11
281
21
199
31
0
0
LINE
8
CUT
10
281
20
199
30
0
11
281
21
236
31
0
0
LINE
8
CUT
10
281
20
236
30
0
11
244
21
236
31
0
0
LINE
8
CUT
10
244
20
236
30
0
11
244
21
199
31
0
0
LINE
8
CUT
10
289
20
199
30
0
11
326
21
199
31
0
0
LINE
8
CUT
10
326
20
199
30
0
11
326
21
236
31
0
0
LINE
8
CUT
10
326
20
236
30
0
11
289
21
236
31
0
0
LINE
8
CUT
10
289
20
236
30
0
11
289
21
199
31
0
0
LINE
8
CUT
10
334
20
199
30
0
11
371
21
199
31
0
0
LINE
8
CUT
10
371
20
199
30
0
11
371
21
236
31
0
0
LINE
8
CUT
10
371
20
236
30
0
11
334
21
236
31
0
0
LINE
8
CUT
10
334
20
236
30
0
11
334
21
199
31
0
0
LINE
8
CUT
10
379
20
199
30
0
11
416
21
199
31
0
0
LINE
8
CUT
10
416
20
199
30
0
11
416
21
236
31
0
0
LINE
8
CUT
10
416
20
236
30
0
11
379
21
236
31
0
0
LINE
8
CUT
10
379
20
236
30
0
11
379
21
199
31
0
0
LINE
8
CUT
10
424
20
199
30
0
11
461
21
199
31
0
0
LINE
8
CUT
10
461
20
199
30
0
11
461
21
236
31
0
0
LINE
8
CUT
10
461
20
236
30
0
11
424
21
236
31
0
0
LINE
8
CUT
10
424
20
236
30
0
11
424
21
199
31
0
0
LINE
8
CUT
10
469
20
199
30
0
11
506
21
199
31
0
0
LINE
8
CUT
10
506
20
199
30
0
11
506
21
236
31
0
0
LINE
8
CUT
10
506
20
236
30
0
11
469
21
236
31
0
0
LINE
8
CUT
10
469
20
236
30
0
11
469
21
199
31
0
0
LINE
8
CUT
10
19
20
244
30
0
11
56
21
244
31
0
0
LINE
8
CUT
10
56
20
244
30
0
11
56
21
281
31
0
0
LINE
8
CUT
10
56
20
281
30
0
11
19
21
281
31
0
0
LINE
8
CUT
10
19
20
281
30
0
11
19
21
244
31
0
0
LINE
8
CUT
10
64
20
244
30
0
11
101
21
244
31
0
0
LINE
8
CUT
10
101
20
244
30
0
11
101
21
281
31
0
0
LINE
8
CUT
10
101
20
281
30
0
11
64
21
281
31
0
0
LINE
8
CUT
10
64
20
281
30
0
11
64
21
244
31
0
0
LINE
8
CUT
10
109
20
244
30
0
11
146
21
244
31
0
0
LINE
8
CUT
10
146
20
244
30
0
11
146
21
281
31
0
0
LINE
8
CUT
10
146
20
281
30
0
11
109
21
281
31
0
0
LINE
8
CUT
10
109
20
281
30
0
11
109
21
244
31
0
0
LINE
8
CUT
10
154
20
244
30
0
11
191
21
244
31
0
0
LINE
8
CUT
10
191
20
244
30
0
11
191
21
281
31
0
0
LINE
8
CUT
10
191
20
281
30
0
11
154
21
281
31
0
0
LINE
8
CUT
10
154
20
281
30
0
11
154
21
244
31
0
0
LINE
8
CUT
10
199
20
244
30
0
11
236
21
244
31
0
0
LINE
8
CUT
10
236
20
244
30
0
11
236
21
281
31
0
0
LINE
8
CUT
10
236
20
281
30
0
11
199
21
281
31
0
0
LINE
8
CUT
10
199
20
281
30
0
11
199
21
244
31
0
0
LINE
8
CUT
10
244
20
244
30
0
11
281
21
244
31
0
0
LINE
8
CUT
10
281
20
244
30
0
11
281
21
281
31
0
0
LINE
8
CUT
10
281
20
281
30
0
11
244
21
281
31
0
0
LINE
8
CUT
10
244
20
281
30
0
11
244
21
244
31
0
0
LINE
8
CUT
10
289
20
244
30
0
11
326
21
244
31
0
0
LINE
8
CUT
10
326
20
244
30
0
11
326
21
281
31
0
0
LINE
8
CUT
10
326
20
281
30
0
11
289
21
281
31
0
0
LINE
8
CUT
10
289
20
281
30
0
11
289
21
244
31
0
0
LINE
8
CUT
10
334
20
244
30
0
11
371
21
244
31
0
0
LINE
8
CUT
10
371
20
244
30
0
11
371
21
281
31
0
0
LINE
8
CUT
10
371
20
281
30
0
11
334
21
281
31
0
0
LINE
8
CUT
10
334
20
281
30
0
11
334
21
244
31
0
0
LINE
8
CUT
10
379
20
244
30
0
11
416
21
244
31
0
0
LINE
8
CUT
10
416
20
244
30
0
11
416
21
281
31
0
0
LINE
8
CUT
10
416
20
281
30
0
11
379
21
281
31
0
0
LINE
8
CUT
10
379
20
281
30
0
11
379
21
244
31
0
0
LINE
8
CUT
10
424
20
244
30
0
11
461
21
244
31
0
0
LINE
8
CUT
10
461
20
244
30
0
11
461
21
281
31
0
0
LINE
8
CUT
10
461
20
281
30
0
11
424
21
281
31
0
0
LINE
8
CUT
10
424
20
281
30
0
11
424
21
244
31
0
0
LINE
8
CUT
10
469
20
244
30
0
11
506
21
244
31
0
0
LINE
8
CUT
10
506
20
244
30
0
11
506
21
281
31
0
0
LINE
8
CUT
10
506
20
281
30
0
11
469
21
281
31
0
0
LINE
8
CUT
10
469
20
281
30
0
11
469
21
244
31
0
0
LINE
8
CUT
10
19
20
289
30
0
11
56
21
289
31
0
0
LINE
8
CUT
10
56
20
289
30
0
11
56
21
326
31
0
0
LINE
8
CUT
10
56
20
326
30
0
11
19
21
326
31
0
0
LINE
8
CUT
10
19
20
326
30
0
11
19
21
289
31
0
0
LINE
8
CUT
10
64
20
289
30
0
11
101
21
289
31
0
0
LINE
8
CUT
10
101
20
289
30
0
11
101
21
326
31
0
0
LINE
8
CUT
10
101
20
326
30
0
11
64
21
326
31
0
0
LINE
8
CUT
10
64
20
326
30
0
11
64
21
289
31
0
0
LINE
8
CUT
10
109
20
289
30
0
11
146
21
289
31
0
0
LINE
8
CUT
10
146
20
289
30
0
11
146
21
326
31
0
0
LINE
8
CUT
10
146
20
326
30
0
11
109
21
326
31
0
0
LINE
8
CUT
10
109
20
326
30
0
11
109
21
289
31
0
0
LINE
8
CUT
10
154
20
289
30
0
11
191
21
289
31
0
0
LINE
8
CUT
10
191
20
289
30
0
11
191
21
326
31
0
0
LINE
8
CUT
10
191
20
326
30
0
11
154
21
326
31
0
0
LINE
8
CUT
10
154
20
326
30
0
11
154
21
289
31
0
0
LINE
8
CUT
10
199
20
289
30
0
11
236
21
289
31
0
0
LINE
8
CUT
10
236
20
289
30
0
11
236
21
326
31
0
0
LINE
8
CUT
10
236
20
326
30
0
11
199
21
326
31
0
0
LINE
8
CUT
10
199
20
326
30
0
11
199
21
289
31
0
0
LINE
8
CUT
10
244
20
289
30
0
11
281
21
289
31
0
0
LINE
8
CUT
10
281
20
289
30
0
11
281
21
326
31
0
0
LINE
8
CUT
10
281
20
326
30
0
11
244
21
326
31
0
0
LINE
8
CUT
10
244
20
326
30
0
11
244
21
289
31
0
0
LINE
8
CUT
10
289
20
289
30
0
11
326
21
289
31
0
0
LINE
8
CUT
10
326
20
289
30
0
11
326
21
326
31
0
0
LINE
8
CUT
10
326
20
326
30
0
11
289
21
326
31
0
0
LINE
8
CUT
10
289
20
326
30
0
11
289
21
289
31
0
0
LINE
8
CUT
10
334
20
289
30
0
11
371
21
289
31
0
0
LINE
8
CUT
10
371
20
289
30
0
11
371
21
326
31
0
0
LINE
8
CUT
10
371
20
326
30
0
11
334
21
326
31
0
0
LINE
8
CUT
10
334
20
326
30
0
11
334
21
289
31
0
0
LINE
8
CUT
10
379
20
289
30
0
11
416
21
289
31
0
0
LINE
8
CUT
10
416
20
289
30
0
11
416
21
326
31
0
0
LINE
8
CUT
10
416
20
326
30
0
11
379
21
326
31
0
0
LINE
8
CUT
10
379
20
326
30
0
11
379
21
289
31
0
0
LINE
8
CUT
10
424
20
289
30
0
11
461
21
289
31
0
0
LINE
8
CUT
10
461
20
289
30
0
11
461
21
326
31
0
0
LINE
8
CUT
10
461
20
326
30
0
11
424
21
326
31
0
0
LINE
8
CUT
10
424
20
326
30
0
11
424
21
289
31
0
0
LINE
8
CUT
10
469
20
289
30
0
11
506
21
289
31
0
0
LINE
8
CUT
10
506
20
289
30
0
11
506
21
326
31
0
0
LINE
8
CUT
10
506
20
326
30
0
11
469
21
326
31
0
0
LINE
8
CUT
10
469
20
326
30
0
11
469
21
289
31
0
0
LINE
8
CUT
10
19
20
334
30
0
11
56
21
334
31
0
0
LINE
8
CUT
10
56
20
334
30
0
11
56
21
371
31
0
0
LINE
8
CUT
10
56
20
371
30
0
11
19
21
371
31
0
0
LINE
8
CUT
10
19
20
371
30
0
11
19
21
334
31
0
0
LINE
8
CUT
10
64
20
334
30
0
11
101
21
334
31
0
0
LINE
8
CUT
10
101
20
334
30
0
11
101
21
371
31
0
0
LINE
8
CUT
10
101
20
371
30
0
11
64
21
371
31
0
0
LINE
8
CUT
10
64
20
371
30
0
11
64
21
334
31
0
0
LINE
8
CUT
10
109
20
334
30
0
11
146
21
334
31
0
0
LINE
8
CUT
10
146
20
334
30
0
11
146
21
371
31
0
0
LINE
8
CUT
10
146
20
371
30
0
11
109
21
371
31
0
0
LINE
8
CUT
10
109
20
371
30
0
11
109
21
334
31
0
0
LINE
8
CUT
10
154
20
334
30
0
11
191
21
334
31
0
0
LINE
8
CUT
10
191
20
334
30
0
11
191
21
371
31
0
0
LINE
8
CUT
10
191
20
371
30
0
11
154
21
371
31
0
0
LINE
8
CUT
10
154
20
371
30
0
11
154
21
334
31
0
0
LINE
8
CUT
10
199
20
334
30
0
11
236
21
334
31
0
0
LINE
8
CUT
10
236
20
334
30
0
11
236
21
371
31
0
0
LINE
8
CUT
10
236
20
371
30
0
11
199
21
371
31
0
0
LINE
8
CUT
10
199
20
371
30
0
11
199
21
334
31
0
0
LINE
8
CUT
10
244
20
334
30
0
11
281
21
334
31
0
0
LINE
8
CUT
10
281
20
334
30
0
11
281
21
371
31
0
0
LINE
8
CUT
10
281
20
371
30
0
11
244
21
371
31
0
0
LINE
8
CUT
10
244
20
371
30
0
11
244
21
334
31
0
0
LINE
8
CUT
10
289
20
334
30
0
11
326
21
334
31
0
0
LINE
8
CUT
10
326
20
334
30
0
11
326
21
371
31
0
0
LINE
8
CUT
10
326
20
371
30
0
11
289
21
371
31
0
0
LINE
8
CUT
10
289
20
371
30
0
11
289
21
334
31
0
0
LINE
8
CUT
10
334
20
334
30
0
11
371
21
334
31
0
0
LINE
8
CUT
10
371
20
334
30
0
11
371
21
371
31
0
0
LINE
8
CUT
10
371
20
371
30
0
11
334
21
371
31
0
0
LINE
8
CUT
10
334
20
371
30
0
11
334
21
334
31
0
0
LINE
8
CUT
10
379
20
334
30
0
11
416
21
334
31
0
0
LINE
8
CUT
10
416
20
334
30
0
11
416
21
371
31
0
0
LINE
8
CUT
10
416
20
371
30
0
11
379
21
371
31
0
0
LINE
8
CUT
10
379
20
371
30
0
11
379
21
334
31
0
0
LINE
8
CUT
10
424
20
334
30
0
11
461
21
334
31
0
0
LINE
8
CUT
10
461
20
334
30
0
11
461
21
371
31
0
0
LINE
8
CUT
10
461
20
371
30
0
11
424
21
371
31
0
0
LINE
8
CUT
10
424
20
371
30
0
11
424
21
334
31
0
0
LINE
8
CUT
10
469
20
334
30
0
11
506
21
334
31
0
0
LINE
8
CUT
10
506
20
334
30
0
11
506
21
371
31
0
0
LINE
8
CUT
10
506
20
371
30
0
11
469
21
371
31
0
0
LINE
8
CUT
10
469
20
371
30
0
11
469
21
334
31
0
0
LINE
8
CUT
10
19
20
379
30
0
11
56
21
379
31
0
0
LINE
8
CUT
10
56
20
379
30
0
11
56
21
416
31
0
0
LINE
8
CUT
10
56
20
416
30
0
11
19
21
416
31
0
0
LINE
8
CUT
10
19
20
416
30
0
11
19
21
379
31
0
0
LINE
8
CUT
10
64
20
379
30
0
11
101
21
379
31
0
0
LINE
8
CUT
10
101
20
379
30
0
11
101
21
416
31
0
0
LINE
8
CUT
10
101
20
416
30
0
11
64
21
416
31
0
0
LINE
8
CUT
10
64
20
416
30
0
11
64
21
379
31
0
0
LINE
8
CUT
10
109
20
379
30
0
11
146
21
379
31
0
0
LINE
8
CUT
10
146
20
379
30
0
11
146
21
416
31
0
0
LINE
8
CUT
10
146
20
416
30
0
11
109
21
416
31
0
0
LINE
8
CUT
10
109
20
416
30
0
11
109
21
379
31
0
0
LINE
8
CUT
10
154
20
379
30
0
11
191
21
379
31
0
0
LINE
8
CUT
10
191
20
379
30
0
11
191
21
416
31
0
0
LINE
8
CUT
10
191
20
416
30
0
11
154
21
416
31
0
0
LINE
8
CUT
10
154
20
416
30
0
11
154
21
379
31
0
0
LINE
8
CUT
10
199
20
379
30
0
11
236
21
379
31
0
0
LINE
8
CUT
10
236
20
379
30
0
11
236
21
416
31
0
0
LINE
8
CUT
10
236
20
416
30
0
11
199
21
416
31
0
0
LINE
8
CUT
10
199
20
416
30
0
11
199
21
379
31
0
0
LINE
8
CUT
10
244
20
379
30
0
11
281
21
379
31
0
0
LINE
8
CUT
10
281
20
379
30
0
11
281
21
416
31
0
0
LINE
8
CUT
10
281
20
416
30
0
11
244
21
416
31
0
0
LINE
8
CUT
10
244
20
416
30
0
11
244
21
379
31
0
0
LINE
8
CUT
10
289
20
379
30
0
11
326
21
379
31
0
0
LINE
8
CUT
10
326
20
379
30
0
11
326
21
416
31
0
0
LINE
8
CUT
10
326
20
416
30
0
11
289
21
416
31
0
0
LINE
8
CUT
10
289
20
416
30
0
11
289
21
379
31
0
0
LINE
8
CUT
10
334
20
379
30
0
11
371
21
379
31
0
0
LINE
8
CUT
10
371
20
379
30
0
11
371
21
416
31
0
0
LINE
8
CUT
10
371
20
416
30
0
11
334
21
416
31
0
0
LINE
8
CUT
10
334
20
416
30
0
11
334
21
379
31
0
0
LINE
8
CUT
10
379
20
379
30
0
11
416
21
379
31
0
0
LINE
8
CUT
10
416
20
379
30
0
11
416
21
416
31
0
0
LINE
8
CUT
10
416
20
416
30
0
11
379
21
416
31
0
0
LINE
8
CUT
10
379
20
416
30
0
11
379
21
379
31
0
0
LINE
8
CUT
10
424
20
379
30
0
11
461
21
379
31
0
0
LINE
8
CUT
10
461
20
379
30
0
11
461
21
416
31
0
0
LINE
8
CUT
10
461
20
416
30
0
11
424
21
416
31
0
0
LINE
8
CUT
10
424
20
416
30
0
11
424
21
379
31
0
0
LINE
8
CUT
10
469
20
379
30
0
11
506
21
379
31
0
0
LINE
8
CUT
10
506
20
379
30
0
11
506
21
416
31
0
0
LINE
8
CUT
10
506
20
416
30
0
11
469
21
416
31
0
0
LINE
8
CUT
10
469
20
416
30
0
11
469
21
379
31
0
0
LINE
8
CUT
10
19
20
424
30
0
11
56
21
424
31
0
0
LINE
8
CUT
10
56
20
424
30
0
11
56
21
461
31
0
0
LINE
8
CUT
10
56
20
461
30
0
11
19
21
461
31
0
0
LINE
8
CUT
10
19
20
461
30
0
11
19
21
424
31
0
0
LINE
8
CUT
10
64
20
424
30
0
11
101
21
424
31
0
0
LINE
8
CUT
10
101
20
424
30
0
11
101
21
461
31
0
0
LINE
8
CUT
10
101
20
461
30
0
11
64
21
461
31
0
0
LINE
8
CUT
10
64
20
461
30
0
11
64
21
424
31
0
0
LINE
8
CUT
10
109
20
424
30
0
11
146
21
424
31
0
0
LINE
8
CUT
10
146
20
424
30
0
11
146
21
461
31
0
0
LINE
8
CUT
10
146
20
461
30
0
11
109
21
461
31
0
0
LINE
8
CUT
10
109
20
461
30
0
11
109
21
424
31
0
0
LINE
8
CUT
10
154
20
424
30
0
11
191
21
424
31
0
0
LINE
8
CUT
10
191
20
424
30
0
11
191
21
461
31
0
0
LINE
8
CUT
10
191
20
461
30
0
11
154
21
461
31
0
0
LINE
8
CUT
10
154
20
461
30
0
11
154
21
424
31
0
0
LINE
8
CUT
10
199
20
424
30
0
11
236
21
424
31
0
0
LINE
8
CUT
10
236
20
424
30
0
11
236
21
461
31
0
0
LINE
8
CUT
10
236
20
461
30
0
11
199
21
461
31
0
0
LINE
8
CUT
10
199
20
461
30
0
11
199
21
424
31
0
0
LINE
8
CUT
10
244
20
424
30
0
11
281
21
424
31
0
0
LINE
8
CUT
10
281
20
424
30
0
11
281
21
461
31
0
0
LINE
8
CUT
10
281
20
461
30
0
11
244
21
461
31
0
0
LINE
8
CUT
10
244
20
461
30
0
11
244
21
424
31
0
0
LINE
8
CUT
10
289
20
424
30
0
11
326
21
424
31
0
0
LINE
8
CUT
10
326
20
424
30
0
11
326
21
461
31
0
0
LINE
8
CUT
10
326
20
461
30
0
11
289
21
461
31
0
0
LINE
8
CUT
10
289
20
461
30
0
11
289
21
424
31
0
0
LINE
8
CUT
10
334
20
424
30
0
11
371
21
424
31
0
0
LINE
8
CUT
10
371
20
424
30
0
11
371
21
461
31
0
0
LINE
8
CUT
10
371
20
461
30
0
11
334
21
461
31
0
0
LINE
8
CUT
10
334
20
461
30
0
11
334
21
424
31
0
0
LINE
8
CUT
10
379
20
424
30
0
11
416
21
424
31
0
0
LINE
8
CUT
10
416
20
424
30
0
11
416
21
461
31
0
0
LINE
8
CUT
10
416
20
461
30
0
11
379
21
461
31
0
0
LINE
8
CUT
10
379
20
461
30
0
11
379
21
424
31
0
0
LINE
8
CUT
10
424
20
424
30
0
11
461
21
424
31
0
0
LINE
8
CUT
10
461
20
424
30
0
11
461
21
461
31
0
0
LINE
8
CUT
10
461
20
461
30
0
11
424
21
461
31
0
0
LINE
8
CUT
10
424
20
461
30
0
11
424
21
424
31
0
0
LINE
8
CUT
10
469
20
424
30
0
11
506
21
424
31
0
0
LINE
8
CUT
10
506
20
424
30
0
11
506
21
461
31
0
0
LINE
8
CUT
10
506
20
461
30
0
11
469
21
461
31
0
0
LINE
8
CUT
10
469
20
461
30
0
11
469
21
424
31
0
0
CIRCLE
8
CUT
10
7.5
20
7.5
30
0
40
4
0
CIRCLE
8
CUT
10
517.5
20
7.5
30
0
40
4
0
CIRCLE
8
CUT
10
7.5
20
472.5
30
0
40
4
0
CIRCLE
8
CUT
10
517.5
20
472.5
30
0
40
4
0
CIRCLE
8
CUT
10
8
20
8
30
0
40
2
0
CIRCLE
8
CUT
10
517
20
8
30
0
40
2
0
CIRCLE
8
CUT
10
8
20
472
30
0
40
2
0
CIRCLE
8
CUT
10
517
20
472
30
0
40
2
0
ENDSEC
0
EOF
