<?xml version="1.0" encoding="UTF-8"?>
<svg xmlns="http://www.w3.org/2000/svg"
     width="214mm" height="196mm"
     viewBox="0 0 214 196">
  <g id="cut-lines" inkscape:label="Cut" xmlns:inkscape="http://www.inkscape.org/namespaces/inkscape">
  <rect x="0" y="0" width="214" height="196" rx="5" ry="5" stroke="#FF0000" stroke-width="0.025" fill="none" />
  <rect x="10" y="10" width="14" height="14" stroke="#FF0000" stroke-width="0.025" fill="none" />
  <rect x="28" y="10" width="14" height="14" stroke="#FF0000" stroke-width="0.025" fill="none" />
  <rect x="46" y="10" width="14" height="14" stroke="#FF0000" stroke-width="0.025" fill="none" />
  <rect x="64" y="10" width="14" height="14" stroke="#FF0000" stroke-width="0.025" fill="none" />
  <rect x="82" y="10" width="14" height="14" stroke="#FF0000" stroke-width="0.025" fill="none" />
  <rect x="100" y="10" width="14" height="14" stroke="#FF0000" stroke-width="0.025" fill="none" />
  <rect x="118" y="10" width="14" height="14" stroke="#FF0000" stroke-width="0.025" fill="none" />
  <rect x="136" y="10" width="14" height="14" stroke="#FF0000" stroke-width="0.025" fill="none" />
  <rect x="154" y="10" width="14" height="14" stroke="#FF0000" stroke-width="0.025" fill="none" />
  <rect x="172" y="10" width="14" height="14" stroke="#FF0000" stroke-width="0.025" fill="none" />
  <rect x="190" y="10" width="14" height="14" stroke="#FF0000" stroke-width="0.025" fill="none" />
  <rect x="10" y="28" width="14" height="14" stroke="#FF0000" stroke-width="0.025" fill="none" />
  <rect x="28" y="28" width="14" height="14" stroke="#FF0000" stroke-width="0.025" fill="none" />
  <rect x="46" y="28" width="14" height="14" stroke="#FF0000" stroke-width="0.025" fill="none" />
  <rect x="64" y="28" width="14" height="14" stroke="#FF0000" stroke-width="0.025" fill="none" />
  <rect x="82" y="28" width="14" height="14" stroke="#FF0000" stroke-width="0.025" fill="none" />
  <rect x="100" y="28" width="14" height="14" stroke="#FF0000" stroke-width="0.025" fill="none" />
  <rect x="118" y="28" width="14" height="14" stroke="#FF0000" stroke-width="0.025" fill="none" />
  <rect x="136" y="28" width="14" height="14" stroke="#FF0000" stroke-width="0.025" fill="none" />
  <rect x="154" y="28" width="14" height="14" stroke="#FF0000" stroke-width="0.025" fill="none" />
  <rect x="172" y="28" width="14" height="14" stroke="#FF0000" stroke-width="0.025" fill="none" />
  <rect x="190" y="28" width="14" height="14" stroke="#FF0000" stroke-width="0.025" fill="none" />
  <rect x="10" y="46" width="14" height="14" stroke="#FF0000" stroke-width="0.025" fill="none" />
  <rect x="28" y="46" width="14" height="14" stroke="#FF0000" stroke-width="0.025" fill="none" />
  <rect x="46" y="46" width="14" height="14" stroke="#FF0000" stroke-width="0.025" fill="none" />
  <rect x="64" y="46" width="14" height="14" stroke="#FF0000" stroke-width="0.025" fill="none" />
  <rect x="82" y="46" width="14" height="14" stroke="#FF0000" stroke-width="0.025" fill="none" />
  <rect x="100" y="46" width="14" height="14" stroke="#FF0000" stroke-width="0.025" fill="none" />
  <rect x="118" y="46" width="14" height="14" stroke="#FF0000" stroke-width="0.025" fill="none" />
  <rect x="136" y="46" width="14" height="14" stroke="#FF0000" stroke-width="0.025" fill="none" />
  <rect x="154" y="46" width="14" height="14" stroke="#FF0000" stroke-width="0.025" fill="none" />
  <rect x="172" y="46" width="14" height="14" stroke="#FF0000" stroke-width="0.025" fill="none" />
  <rect x="190" y="46" width="14" height="14" stroke="#FF0000" stroke-width="0.025" fill="none" />
  <rect x="10" y="64" width="14" height="14" stroke="#FF0000" stroke-width="0.025" fill="none" />
  <rect x="28" y="64" width="14" height="14" stroke="#FF0000" stroke-width="0.025" fill="none" />
  <rect x="46" y="64" width="14" height="14" stroke="#FF0000" stroke-width="0.025" fill="none" />
  <rect x="64" y="64" width="14" height="14" stroke="#FF0000" stroke-width="0.025" fill="none" />
  <rect x="82" y="64" width="14" height="14" stroke="#FF0000" stroke-width="0.025" fill="none" />
  <rect x="100" y="64" width="14" height="14" stroke="#FF0000" stroke-width="0.025" fill="none" />
  <rect x="118" y="64" width="14" height="14" stroke="#FF0000" stroke-width="0.025" fill="none" />
  <rect x="136" y="64" width="14" height="14" stroke="#FF0000" stroke-width="0.025" fill="none" />
  <rect x="154" y="64" width="14" height="14" stroke="#FF0000" stroke-width="0.025" fill="none" />
  <rect x="172" y="64" width="14" height="14" stroke="#FF0000" stroke-width="0.025" fill="none" />
  <rect x="190" y="64" width="14" height="14" stroke="#FF0000" stroke-width="0.025" fill="none" />
  <rect x="10" y="82" width="14" height="14" stroke="#FF0000" stroke-width="0.025" fill="none" />
  <rect x="28" y="82" width="14" height="14" stroke="#FF0000" stroke-width="0.025" fill="none" />
  <rect x="46" y="82" width="14" height="14" stroke="#FF0000" stroke-width="0.025" fill="none" />
  <rect x="64" y="82" width="14" height="14" stroke="#FF0000" stroke-width="0.025" fill="none" />
  <rect x="82" y="82" width="14" height="14" stroke="#FF0000" stroke-width="0.025" fill="none" />
  <rect x="100" y="82" width="14" height="14" stroke="#FF0000" stroke-width="0.025" fill="none" />
  <rect x="118" y="82" width="14" height="14" stroke="#FF0000" stroke-width="0.025" fill="none" />
  <rect x="136" y="82" width="14" height="14" stroke="#FF0000" stroke-width="0.025" fill="none" />
  <rect x="154" y="82" width="14" height="14" stroke="#FF0000" stroke-width="0.025" fill="none" />
  <rect x="172" y="82" width="14" height="14" stroke="#FF0000" stroke-width="0.025" fill="none" />
  <rect x="190" y="82" width="14" height="14" stroke="#FF0000" stroke-width="0.025" fill="none" />
  <rect x="10" y="100" width="14" height="14" stroke="#FF0000" stroke-width="0.025" fill="none" />
  <rect x="28" y="100" width="14" height="14" stroke="#FF0000" stroke-width="0.025" fill="none" />
  <rect x="46" y="100" width="14" height="14" stroke="#FF0000" stroke-width="0.025" fill="none" />
  <rect x="64" y="100" width="14" height="14" stroke="#FF0000" stroke-width="0.025" fill="none" />
  <rect x="82" y="100" width="14" height="14" stroke="#FF0000" stroke-width="0.025" fill="none" />
  <rect x="100" y="100" width="14" height="14" stroke="#FF0000" stroke-width="0.025" fill="none" />
  <rect x="118" y="100" width="14" height="14" stroke="#FF0000" stroke-width="0.025" fill="none" />
  <rect x="136" y="100" width="14" height="14" stroke="#FF0000" stroke-width="0.025" fill="none" />
  <rect x="154" y="100" width="14" height="14" stroke="#FF0000" stroke-width="0.025" fill="none" />
  <rect x="172" y="100" width="14" height="14" stroke="#FF0000" stroke-width="0.025" fill="none" />
  <rect x="190" y="100" width="14" height="14" stroke="#FF0000" stroke-width="0.025" fill="none" />
  <rect x="10" y="118" width="14" height="14" stroke="#FF0000" stroke-width="0.025" fill="none" />
  <rect x="28" y="118" width="14" height="14" stroke="#FF0000" stroke-width="0.025" fill="none" />
  <rect x="46" y="118" width="14" height="14" stroke="#FF0000" stroke-width="0.025" fill="none" />
  <rect x="64" y="118" width="14" height="14" stroke="#FF0000" stroke-width="0.025" fill="none" />
  <rect x="82" y="118" width="14" height="14" stroke="#FF0000" stroke-width="0.025" fill="none" />
  <rect x="100" y="118" width="14" height="14" stroke="#FF0000" stroke-width="0.025" fill="none" />
  <rect x="118" y="118" width="14" height="14" stroke="#FF0000" stroke-width="0.025" fill="none" />
  <rect x="136" y="118" width="14" height="14" stroke="#FF0000" stroke-width="0.025" fill="none" />
  <rect x="154" y="118" width="14" height="14" stroke="#FF0000" stroke-width="0.025" fill="none" />
  <rect x="172" y="118" width="14" height="14" stroke="#FF0000" stroke-width="0.025" fill="none" />
  <rect x="190" y="118" width="14" height="14" stroke="#FF0000" stroke-width="0.025" fill="none" />
  <rect x="10" y="136" width="14" height="14" stroke="#FF0000" stroke-width="0.025" fill="none" />
  <rect x="28" y="136" width="14" height="14" stroke="#FF0000" stroke-width="0.025" fill="none" />
  <rect x="46" y="136" width="14" height="14" stroke="#FF0000" stroke-width="0.025" fill="none" />
  <rect x="64" y="136" width="14" height="14" stroke="#FF0000" stroke-width="0.025" fill="none" />
  <rect x="82" y="136" width="14" height="14" stroke="#FF0000" stroke-width="0.025" fill="none" />
  <rect x="100" y="136" width="14" height="14" stroke="#FF0000" stroke-width="0.025" fill="none" />
  <rect x="118" y="136" width="14" height="14" stroke="#FF0000" stroke-width="0.025" fill="none" />
  <rect x="136" y="136" width="14" height="14" stroke="#FF0000" stroke-width="0.025" fill="none" />
  <rect x="154" y="136" width="14" height="14" stroke="#FF0000" stroke-width="0.025" fill="none" />
  <rect x="172" y="136" width="14" height="14" stroke="#FF0000" stroke-width="0.025" fill="none" />
  <rect x="190" y="136" width="14" height="14" stroke="#FF0000" stroke-width="0.025" fill="none" />
  <rect x="10" y="154" width="14" height="14" stroke="#FF0000" stroke-width="0.025" fill="none" />
  <rect x="28" y="154" width="14" height="14" stroke="#FF0000" stroke-width="0.025" fill="none" />
  <rect x="46" y="154" width="14" height="14" stroke="#FF0000" stroke-width="0.025" fill="none" />
  <rect x="64" y="154" width="14" height="14" stroke="#FF0000" stroke-width="0.025" fill="none" />
  <rect x="82" y="154" width="14" height="14" stroke="#FF0000" stroke-width="0.025" fill="none" />
  <rect x="100" y="154" width="14" height="14" stroke="#FF0000" stroke-width="0.025" fill="none" />
  <rect x="118" y="154" width="14" height="14" stroke="#FF0000" stroke-width="0.025" fill="none" />
  <rect x="136" y="154" width="14" height="14" stroke="#FF0000" stroke-width="0.025" fill="none" />
  <rect x="154" y="154" width="14" height="14" stroke="#FF0000" stroke-width="0.025" fill="none" />
  <rect x="172" y="154" width="14" height="14" stroke="#FF0000" stroke-width="0.025" fill="none" />
  <rect x="190" y="154" width="14" height="14" stroke="#FF0000" stroke-width="0.025" fill="none" />
  <rect x="10" y="172" width="14" height="14" stroke="#FF0000" stroke-width="0.025" fill="none" />
  <rect x="28" y="172" width="14" height="14" stroke="#FF0000" stroke-width="0.025" fill="none" />
  <rect x="46" y="172" width="14" height="14" stroke="#FF0000" stroke-width="0.025" fill="none" />
  <rect x="64" y="172" width="14" height="14" stroke="#FF0000" stroke-width="0.025" fill="none" />
  <rect x="82" y="172" width="14" height="14" stroke="#FF0000" stroke-width="0.025" fill="none" />
  <rect x="100" y="172" width="14" height="14" stroke="#FF0000" stroke-width="0.025" fill="none" />
  <rect x="118" y="172" width="14" height="14" stroke="#FF0000" stroke-width="0.025" fill="none" />
  <rect x="136" y="172" width="14" height="14" stroke="#FF0000" stroke-width="0.025" fill="none" />
  <rect x="154" y="172" width="14" height="14" stroke="#FF0000" stroke-width="0.025" fill="none" />
  <rect x="172" y="172" width="14" height="14" stroke="#FF0000" stroke-width="0.025" fill="none" />
  <rect x="190" y="172" width="14" height="14" stroke="#FF0000" stroke-width="0.025" fill="none" />
  <circle cx="4" cy="4" r="2.5" stroke="#FF0000" stroke-width="0.025" fill="none" />
  <circle cx="210" cy="4" r="2.5" stroke="#FF0000" stroke-width="0.025" fill="none" />
  <circle cx="4" cy="192" r="2.5" stroke="#FF0000" stroke-width="0.025" fill="none" />
  <circle cx="210" cy="192" r="2.5" stroke="#FF0000" stroke-width="0.025" fill="none" />
  <circle cx="5" cy="5" r="1.6" stroke="#FF0000" stroke-width="0.025" fill="none" />
  <circle cx="209" cy="5" r="1.6" stroke="#FF0000" stroke-width="0.025" fill="none" />
  <circle cx="5" cy="191" r="1.6" stroke="#FF0000" stroke-width="0.025" fill="none" />
  <circle cx="209" cy="191" r="1.6" stroke="#FF0000" stroke-width="0.025" fill="none" />
  </g>
  <g id="engrave-labels" inkscape:label="Engrave" xmlns:inkscape="http://www.inkscape.org/namespaces/inkscape">
  <text x="17" y="17" font-family="sans-serif" font-size="8.4" fill="#0000FF" text-anchor="middle" dominant-baseline="central">K</text>
  <text x="35" y="17" font-family="sans-serif" font-size="8.4" fill="#0000FF" text-anchor="middle" dominant-baseline="central">L</text>
  <text x="53" y="17" font-family="sans-serif" font-size="8.4" fill="#0000FF" text-anchor="middle" dominant-baseline="central">O</text>
  <text x="71" y="17" font-family="sans-serif" font-size="8.4" fill="#0000FF" text-anchor="middle" dominant-baseline="central">C</text>
  <text x="89" y="17" font-family="sans-serif" font-size="8.4" fill="#0000FF" text-anchor="middle" dominant-baseline="central">K</text>
  <text x="107" y="17" font-family="sans-serif" font-size="8.4" fill="#0000FF" text-anchor="middle" dominant-baseline="central">A</text>
  <text x="125" y="17" font-family="sans-serif" font-size="8.4" fill="#0000FF" text-anchor="middle" dominant-baseline="central">N</text>
  <text x="143" y="17" font-family="sans-serif" font-size="8.4" fill="#0000FF" text-anchor="middle" dominant-baseline="central">V</text>
  <text x="161" y="17" font-family="sans-serif" font-size="8.4" fill="#0000FF" text-anchor="middle" dominant-baseline="central">H</text>
  <text x="179" y="17" font-family="sans-serif" font-size="8.4" fill="#0000FF" text-anchor="middle" dominant-baseline="central">Ä</text>
  <text x="197" y="17" font-family="sans-serif" font-size="8.4" fill="#0000FF" text-anchor="middle" dominant-baseline="central">R</text>
  <text x="17" y="35" font-family="sans-serif" font-size="8.4" fill="#0000FF" text-anchor="middle" dominant-baseline="central">S</text>
  <text x="35" y="35" font-family="sans-serif" font-size="8.4" fill="#0000FF" text-anchor="middle" dominant-baseline="central">F</text>
  <text x="53" y="35" font-family="sans-serif" font-size="8.4" fill="#0000FF" text-anchor="middle" dominant-baseline="central">E</text>
  <text x="71" y="35" font-family="sans-serif" font-size="8.4" fill="#0000FF" text-anchor="middle" dominant-baseline="central">M</text>
  <text x="89" y="35" font-family="sans-serif" font-size="8.4" fill="#0000FF" text-anchor="middle" dominant-baseline="central">I</text>
  <text x="107" y="35" font-family="sans-serif" font-size="8.4" fill="#0000FF" text-anchor="middle" dominant-baseline="central">S</text>
  <text x="125" y="35" font-family="sans-serif" font-size="8.4" fill="#0000FF" text-anchor="middle" dominant-baseline="central">T</text>
  <text x="143" y="35" font-family="sans-serif" font-size="8.4" fill="#0000FF" text-anchor="middle" dominant-baseline="central">I</text>
  <text x="161" y="35" font-family="sans-serif" font-size="8.4" fill="#0000FF" text-anchor="middle" dominant-baseline="central">O</text>
  <text x="179" y="35" font-family="sans-serif" font-size="8.4" fill="#0000FF" text-anchor="middle" dominant-baseline="central">N</text>
  <text x="197" y="35" font-family="sans-serif" font-size="8.4" fill="#0000FF" text-anchor="middle" dominant-baseline="central">A</text>
  <text x="17" y="53" font-family="sans-serif" font-size="8.4" fill="#0000FF" text-anchor="middle" dominant-baseline="central">T</text>
  <text x="35" y="53" font-family="sans-serif" font-size="8.4" fill="#0000FF" text-anchor="middle" dominant-baseline="central">J</text>
  <text x="53" y="53" font-family="sans-serif" font-size="8.4" fill="#0000FF" text-anchor="middle" dominant-baseline="central">U</text>
  <text x="71" y="53" font-family="sans-serif" font-size="8.4" fill="#0000FF" text-anchor="middle" dominant-baseline="central">G</text>
  <text x="89" y="53" font-family="sans-serif" font-size="8.4" fill="#0000FF" text-anchor="middle" dominant-baseline="central">O</text>
  <text x="107" y="53" font-family="sans-serif" font-size="8.4" fill="#0000FF" text-anchor="middle" dominant-baseline="central">M</text>
  <text x="125" y="53" font-family="sans-serif" font-size="8.4" fill="#0000FF" text-anchor="middle" dominant-baseline="central">I</text>
  <text x="143" y="53" font-family="sans-serif" font-size="8.4" fill="#0000FF" text-anchor="middle" dominant-baseline="central">E</text>
  <text x="161" y="53" font-family="sans-serif" font-size="8.4" fill="#0000FF" text-anchor="middle" dominant-baseline="central">S</text>
  <text x="179" y="53" font-family="sans-serif" font-size="8.4" fill="#0000FF" text-anchor="middle" dominant-baseline="central">N</text>
  <text x="197" y="53" font-family="sans-serif" font-size="8.4" fill="#0000FF" text-anchor="middle" dominant-baseline="central">D</text>
  <text x="17" y="71" font-family="sans-serif" font-size="8.4" fill="#0000FF" text-anchor="middle" dominant-baseline="central">K</text>
  <text x="35" y="71" font-family="sans-serif" font-size="8.4" fill="#0000FF" text-anchor="middle" dominant-baseline="central">V</text>
  <text x="53" y="71" font-family="sans-serif" font-size="8.4" fill="#0000FF" text-anchor="middle" dominant-baseline="central">A</text>
  <text x="71" y="71" font-family="sans-serif" font-size="8.4" fill="#0000FF" text-anchor="middle" dominant-baseline="central">R</text>
  <text x="89" y="71" font-family="sans-serif" font-size="8.4" fill="#0000FF" text-anchor="middle" dominant-baseline="central">T</text>
  <text x="107" y="71" font-family="sans-serif" font-size="8.4" fill="#0000FF" text-anchor="middle" dominant-baseline="central">B</text>
  <text x="125" y="71" font-family="sans-serif" font-size="8.4" fill="#0000FF" text-anchor="middle" dominant-baseline="central">Ö</text>
  <text x="143" y="71" font-family="sans-serif" font-size="8.4" fill="#0000FF" text-anchor="middle" dominant-baseline="central">V</text>
  <text x="161" y="71" font-family="sans-serif" font-size="8.4" fill="#0000FF" text-anchor="middle" dominant-baseline="central">E</text>
  <text x="179" y="71" font-family="sans-serif" font-size="8.4" fill="#0000FF" text-anchor="middle" dominant-baseline="central">R</text>
  <text x="197" y="71" font-family="sans-serif" font-size="8.4" fill="#0000FF" text-anchor="middle" dominant-baseline="central">G</text>
  <text x="17" y="89" font-family="sans-serif" font-size="8.4" fill="#0000FF" text-anchor="middle" dominant-baseline="central">L</text>
  <text x="35" y="89" font-family="sans-serif" font-size="8.4" fill="#0000FF" text-anchor="middle" dominant-baseline="central">I</text>
  <text x="53" y="89" font-family="sans-serif" font-size="8.4" fill="#0000FF" text-anchor="middle" dominant-baseline="central">A</text>
  <text x="71" y="89" font-family="sans-serif" font-size="8.4" fill="#0000FF" text-anchor="middle" dominant-baseline="central">H</text>
  <text x="89" y="89" font-family="sans-serif" font-size="8.4" fill="#0000FF" text-anchor="middle" dominant-baseline="central">H</text>
  <text x="107" y="89" font-family="sans-serif" font-size="8.4" fill="#0000FF" text-anchor="middle" dominant-baseline="central">A</text>
  <text x="125" y="89" font-family="sans-serif" font-size="8.4" fill="#0000FF" text-anchor="middle" dominant-baseline="central">L</text>
  <text x="143" y="89" font-family="sans-serif" font-size="8.4" fill="#0000FF" text-anchor="middle" dominant-baseline="central">V</text>
  <text x="161" y="89" font-family="sans-serif" font-size="8.4" fill="#0000FF" text-anchor="middle" dominant-baseline="central">Ö</text>
  <text x="179" y="89" font-family="sans-serif" font-size="8.4" fill="#0000FF" text-anchor="middle" dominant-baseline="central">T</text>
  <text x="197" y="89" font-family="sans-serif" font-size="8.4" fill="#0000FF" text-anchor="middle" dominant-baseline="central">P</text>
  <text x="17" y="107" font-family="sans-serif" font-size="8.4" fill="#0000FF" text-anchor="middle" dominant-baseline="central">E</text>
  <text x="35" y="107" font-family="sans-serif" font-size="8.4" fill="#0000FF" text-anchor="middle" dominant-baseline="central">T</text>
  <text x="53" y="107" font-family="sans-serif" font-size="8.4" fill="#0000FF" text-anchor="middle" dominant-baseline="central">T</text>
  <text x="71" y="107" font-family="sans-serif" font-size="8.4" fill="#0000FF" text-anchor="middle" dominant-baseline="central">R</text>
  <text x="89" y="107" font-family="sans-serif" font-size="8.4" fill="#0000FF" text-anchor="middle" dominant-baseline="central">T</text>
  <text x="107" y="107" font-family="sans-serif" font-size="8.4" fill="#0000FF" text-anchor="middle" dominant-baseline="central">V</text>
  <text x="125" y="107" font-family="sans-serif" font-size="8.4" fill="#0000FF" text-anchor="middle" dominant-baseline="central">Å</text>
  <text x="143" y="107" font-family="sans-serif" font-size="8.4" fill="#0000FF" text-anchor="middle" dominant-baseline="central">L</text>
  <text x="161" y="107" font-family="sans-serif" font-size="8.4" fill="#0000FF" text-anchor="middle" dominant-baseline="central">S</text>
  <text x="179" y="107" font-family="sans-serif" font-size="8.4" fill="#0000FF" text-anchor="middle" dominant-baseline="central">N</text>
  <text x="197" y="107" font-family="sans-serif" font-size="8.4" fill="#0000FF" text-anchor="middle" dominant-baseline="central">D</text>
  <text x="17" y="125" font-family="sans-serif" font-size="8.4" fill="#0000FF" text-anchor="middle" dominant-baseline="central">T</text>
  <text x="35" y="125" font-family="sans-serif" font-size="8.4" fill="#0000FF" text-anchor="middle" dominant-baseline="central">R</text>
  <text x="53" y="125" font-family="sans-serif" font-size="8.4" fill="#0000FF" text-anchor="middle" dominant-baseline="central">E</text>
  <text x="71" y="125" font-family="sans-serif" font-size="8.4" fill="#0000FF" text-anchor="middle" dominant-baseline="central">N</text>
  <text x="89" y="125" font-family="sans-serif" font-size="8.4" fill="#0000FF" text-anchor="middle" dominant-baseline="central">F</text>
  <text x="107" y="125" font-family="sans-serif" font-size="8.4" fill="#0000FF" text-anchor="middle" dominant-baseline="central">Y</text>
  <text x="125" y="125" font-family="sans-serif" font-size="8.4" fill="#0000FF" text-anchor="middle" dominant-baseline="central">R</text>
  <text x="143" y="125" font-family="sans-serif" font-size="8.4" fill="#0000FF" text-anchor="middle" dominant-baseline="central">A</text>
  <text x="161" y="125" font-family="sans-serif" font-size="8.4" fill="#0000FF" text-anchor="middle" dominant-baseline="central">O</text>
  <text x="179" y="125" font-family="sans-serif" font-size="8.4" fill="#0000FF" text-anchor="middle" dominant-baseline="central">S</text>
  <text x="197" y="125" font-family="sans-serif" font-size="8.4" fill="#0000FF" text-anchor="middle" dominant-baseline="central">T</text>
  <text x="17" y="143" font-family="sans-serif" font-size="8.4" fill="#0000FF" text-anchor="middle" dominant-baseline="central">F</text>
  <text x="35" y="143" font-family="sans-serif" font-size="8.4" fill="#0000FF" text-anchor="middle" dominant-baseline="central">E</text>
  <text x="53" y="143" font-family="sans-serif" font-size="8.4" fill="#0000FF" text-anchor="middle" dominant-baseline="central">M</text>
  <text x="71" y="143" font-family="sans-serif" font-size="8.4" fill="#0000FF" text-anchor="middle" dominant-baseline="central">B</text>
  <text x="89" y="143" font-family="sans-serif" font-size="8.4" fill="#0000FF" text-anchor="middle" dominant-baseline="central">S</text>
  <text x="107" y="143" font-family="sans-serif" font-size="8.4" fill="#0000FF" text-anchor="middle" dominant-baseline="central">E</text>
  <text x="125" y="143" font-family="sans-serif" font-size="8.4" fill="#0000FF" text-anchor="middle" dominant-baseline="central">X</text>
  <text x="143" y="143" font-family="sans-serif" font-size="8.4" fill="#0000FF" text-anchor="middle" dominant-baseline="central">O</text>
  <text x="161" y="143" font-family="sans-serif" font-size="8.4" fill="#0000FF" text-anchor="middle" dominant-baseline="central">S</text>
  <text x="179" y="143" font-family="sans-serif" font-size="8.4" fill="#0000FF" text-anchor="middle" dominant-baseline="central">J</text>
  <text x="197" y="143" font-family="sans-serif" font-size="8.4" fill="#0000FF" text-anchor="middle" dominant-baseline="central">U</text>
  <text x="17" y="161" font-family="sans-serif" font-size="8.4" fill="#0000FF" text-anchor="middle" dominant-baseline="central">Å</text>
  <text x="35" y="161" font-family="sans-serif" font-size="8.4" fill="#0000FF" text-anchor="middle" dominant-baseline="central">T</text>
  <text x="53" y="161" font-family="sans-serif" font-size="8.4" fill="#0000FF" text-anchor="middle" dominant-baseline="central">T</text>
  <text x="71" y="161" font-family="sans-serif" font-size="8.4" fill="#0000FF" text-anchor="middle" dominant-baseline="central">A</text>
  <text x="89" y="161" font-family="sans-serif" font-size="8.4" fill="#0000FF" text-anchor="middle" dominant-baseline="central">M</text>
  <text x="107" y="161" font-family="sans-serif" font-size="8.4" fill="#0000FF" text-anchor="middle" dominant-baseline="central">N</text>
  <text x="125" y="161" font-family="sans-serif" font-size="8.4" fill="#0000FF" text-anchor="middle" dominant-baseline="central">I</text>
  <text x="143" y="161" font-family="sans-serif" font-size="8.4" fill="#0000FF" text-anchor="middle" dominant-baseline="central">O</text>
  <text x="161" y="161" font-family="sans-serif" font-size="8.4" fill="#0000FF" text-anchor="middle" dominant-baseline="central">D</text>
  <text x="179" y="161" font-family="sans-serif" font-size="8.4" fill="#0000FF" text-anchor="middle" dominant-baseline="central">E</text>
  <text x="197" y="161" font-family="sans-serif" font-size="8.4" fill="#0000FF" text-anchor="middle" dominant-baseline="central">K</text>
  <text x="17" y="179" font-family="sans-serif" font-size="8.4" fill="#0000FF" text-anchor="middle" dominant-baseline="central">E</text>
  <text x="35" y="179" font-family="sans-serif" font-size="8.4" fill="#0000FF" text-anchor="middle" dominant-baseline="central">L</text>
  <text x="53" y="179" font-family="sans-serif" font-size="8.4" fill="#0000FF" text-anchor="middle" dominant-baseline="central">V</text>
  <text x="71" y="179" font-family="sans-serif" font-size="8.4" fill="#0000FF" text-anchor="middle" dominant-baseline="central">A</text>
  <text x="89" y="179" font-family="sans-serif" font-size="8.4" fill="#0000FF" text-anchor="middle" dominant-baseline="central">T</text>
  <text x="107" y="179" font-family="sans-serif" font-size="8.4" fill="#0000FF" text-anchor="middle" dominant-baseline="central">O</text>
  <text x="125" y="179" font-family="sans-serif" font-size="8.4" fill="#0000FF" text-anchor="middle" dominant-baseline="central">L</text>
  <text x="143" y="179" font-family="sans-serif" font-size="8.4" fill="#0000FF" text-anchor="middle" dominant-baseline="central">V</text>
  <text x="161" y="179" font-family="sans-serif" font-size="8.4" fill="#0000FF" text-anchor="middle" dominant-baseline="central">T</text>
  <text x="179" y="179" font-family="sans-serif" font-size="8.4" fill="#0000FF" text-anchor="middle" dominant-baseline="central">I</text>
  <text x="197" y="179" font-family="sans-serif" font-size="8.4" fill="#0000FF" text-anchor="middle" dominant-baseline="central">O</text>
  </g>
</svg>
