0
SECTION
2
HEADER
0
ENDSEC
0
SECTION
2
TABLES
0
TABLE
2
LAYER
70
2
0
LAYER
2
CUT
70
0
62
1
6
CONTINUOUS
0
LAYER
2
ENGRAVE
70
0
62
5
6
CONTINUOUS
0
ENDTAB
0
ENDSEC
0
SECTION
2
ENTITIES
0
LINE
8
CUT
10
0
20
0
30
0
11
214
21
0
31
0
0
LINE
8
CUT
10
214
20
0
30
0
11
214
21
196
31
0
0
LINE
8
CUT
10
214
20
196
30
0
11
0
21
196
31
0
0
LINE
8
CUT
10
0
20
196
30
0
11
0
21
0
31
0
0
LINE
8
CUT
10
10
20
10
30
0
11
24
21
10
31
0
0
LINE
8
CUT
10
24
20
10
30
0
11
24
21
24
31
0
0
LINE
8
CUT
10
24
20
24
30
0
11
10
21
24
31
0
0
LINE
8
CUT
10
10
20
24
30
0
11
10
21
10
31
0
0
LINE
8
CUT
10
28
20
10
30
0
11
42
21
10
31
0
0
LINE
8
CUT
10
42
20
10
30
0
11
42
21
24
31
0
0
LINE
8
CUT
10
42
20
24
30
0
11
28
21
24
31
0
0
LINE
8
CUT
10
28
20
24
30
0
11
28
21
10
31
0
0
LINE
8
CUT
10
46
20
10
30
0
11
60
21
10
31
0
0
LINE
8
CUT
10
60
20
10
30
0
11
60
21
24
31
0
0
LINE
8
CUT
10
60
20
24
30
0
11
46
21
24
31
0
0
LINE
8
CUT
10
46
20
24
30
0
11
46
21
10
31
0
0
LINE
8
CUT
10
64
20
10
30
0
11
78
21
10
31
0
0
LINE
8
CUT
10
78
20
10
30
0
11
78
21
24
31
0
0
LINE
8
CUT
10
78
20
24
30
0
11
64
21
24
31
0
0
LINE
8
CUT
10
64
20
24
30
0
11
64
21
10
31
0
0
LINE
8
CUT
10
82
20
10
30
0
11
96
21
10
31
0
0
LINE
8
CUT
10
96
20
10
30
0
11
96
21
24
31
0
0
LINE
8
CUT
10
96
20
24
30
0
11
82
21
24
31
0
0
LINE
8
CUT
10
82
20
24
30
0
11
82
21
10
31
0
0
LINE
8
CUT
10
100
20
10
30
0
11
114
21
10
31
0
0
LINE
8
CUT
10
114
20
10
30
0
11
114
21
24
31
0
0
LINE
8
CUT
10
114
20
24
30
0
11
100
21
24
31
0
0
LINE
8
CUT
10
100
20
24
30
0
11
100
21
10
31
0
0
LINE
8
CUT
10
118
20
10
30
0
11
132
21
10
31
0
0
LINE
8
CUT
10
132
20
10
30
0
11
132
21
24
31
0
0
LINE
8
CUT
10
132
20
24
30
0
11
118
21
24
31
0
0
LINE
8
CUT
10
118
20
24
30
0
11
118
21
10
31
0
0
LINE
8
CUT
10
136
20
10
30
0
11
150
21
10
31
0
0
LINE
8
CUT
10
150
20
10
30
0
11
150
21
24
31
0
0
LINE
8
CUT
10
150
20
24
30
0
11
136
21
24
31
0
0
LINE
8
CUT
10
136
20
24
30
0
11
136
21
10
31
0
0
LINE
8
CUT
10
154
20
10
30
0
11
168
21
10
31
0
0
LINE
8
CUT
10
168
20
10
30
0
11
168
21
24
31
0
0
LINE
8
CUT
10
168
20
24
30
0
11
154
21
24
31
0
0
LINE
8
CUT
10
154
20
24
30
0
11
154
21
10
31
0
0
LINE
8
CUT
10
172
20
10
30
0
11
186
21
10
31
0
0
LINE
8
CUT
10
186
20
10
30
0
11
186
21
24
31
0
0
LINE
8
CUT
10
186
20
24
30
0
11
172
21
24
31
0
0
LINE
8
CUT
10
172
20
24
30
0
11
172
21
10
31
0
0
LINE
8
CUT
10
190
20
10
30
0
11
204
21
10
31
0
0
LINE
8
CUT
10
204
20
10
30
0
11
204
21
24
31
0
0
LINE
8
CUT
10
204
20
24
30
0
11
190
21
24
31
0
0
LINE
8
CUT
10
190
20
24
30
0
11
190
21
10
31
0
0
LINE
8
CUT
10
10
20
28
30
0
11
24
21
28
31
0
0
LINE
8
CUT
10
24
20
28
30
0
11
24
21
42
31
0
0
LINE
8
CUT
10
24
20
42
30
0
11
10
21
42
31
0
0
LINE
8
CUT
10
10
20
42
30
0
11
10
21
28
31
0
0
LINE
8
CUT
10
28
20
28
30
0
11
42
21
28
31
0
0
LINE
8
CUT
10
42
20
28
30
0
11
42
21
42
31
0
0
LINE
8
CUT
10
42
20
42
30
0
11
28
21
42
31
0
0
LINE
8
CUT
10
28
20
42
30
0
11
28
21
28
31
0
0
LINE
8
CUT
10
46
20
28
30
0
11
60
21
28
31
0
0
LINE
8
CUT
10
60
20
28
30
0
11
60
21
42
31
0
0
LINE
8
CUT
10
60
20
42
30
0
11
46
21
42
31
0
0
LINE
8
CUT
10
46
20
42
30
0
11
46
21
28
31
0
0
LINE
8
CUT
10
64
20
28
30
0
11
78
21
28
31
0
0
LINE
8
CUT
10
78
20
28
30
0
11
78
21
42
31
0
0
LINE
8
CUT
10
78
20
42
30
0
11
64
21
42
31
0
0
LINE
8
CUT
10
64
20
42
30
0
11
64
21
28
31
0
0
LINE
8
CUT
10
82
20
28
30
0
11
96
21
28
31
0
0
LINE
8
CUT
10
96
20
28
30
0
11
96
21
42
31
0
0
LINE
8
CUT
10
96
20
42
30
0
11
82
21
42
31
0
0
LINE
8
CUT
10
82
20
42
30
0
11
82
21
28
31
0
0
LINE
8
CUT
10
100
20
28
30
0
11
114
21
28
31
0
0
LINE
8
CUT
10
114
20
28
30
0
11
114
21
42
31
0
0
LINE
8
CUT
10
114
20
42
30
0
11
100
21
42
31
0
0
LINE
8
CUT
10
100
20
42
30
0
11
100
21
28
31
0
0
LINE
8
CUT
10
118
20
28
30
0
11
132
21
28
31
0
0
LINE
8
CUT
10
132
20
28
30
0
11
132
21
42
31
0
0
LINE
8
CUT
10
132
20
42
30
0
11
118
21
42
31
0
0
LINE
8
CUT
10
118
20
42
30
0
11
118
21
28
31
0
0
LINE
8
CUT
10
136
20
28
30
0
11
150
21
28
31
0
0
LINE
8
CUT
10
150
20
28
30
0
11
150
21
42
31
0
0
LINE
8
CUT
10
150
20
42
30
0
11
136
21
42
31
0
0
LINE
8
CUT
10
136
20
42
30
0
11
136
21
28
31
0
0
LINE
8
CUT
10
154
20
28
30
0
11
168
21
28
31
0
0
LINE
8
CUT
10
168
20
28
30
0
11
168
21
42
31
0
0
LINE
8
CUT
10
168
20
42
30
0
11
154
21
42
31
0
0
LINE
8
CUT
10
154
20
42
30
0
11
154
21
28
31
0
0
LINE
8
CUT
10
172
20
28
30
0
11
186
21
28
31
0
0
LINE
8
CUT
10
186
20
28
30
0
11
186
21
42
31
0
0
LINE
8
CUT
10
186
20
42
30
0
11
172
21
42
31
0
0
LINE
8
CUT
10
172
20
42
30
0
11
172
21
28
31
0
0
LINE
8
CUT
10
190
20
28
30
0
11
204
21
28
31
0
0
LINE
8
CUT
10
204
20
28
30
0
11
204
21
42
31
0
0
LINE
8
CUT
10
204
20
42
30
0
11
190
21
42
31
0
0
LINE
8
CUT
10
190
20
42
30
0
11
190
21
28
31
0
0
LINE
8
CUT
10
10
20
46
30
0
11
24
21
46
31
0
0
LINE
8
CUT
10
24
20
46
30
0
11
24
21
60
31
0
0
LINE
8
CUT
10
24
20
60
30
0
11
10
21
60
31
0
0
LINE
8
CUT
10
10
20
60
30
0
11
10
21
46
31
0
0
LINE
8
CUT
10
28
20
46
30
0
11
42
21
46
31
0
0
LINE
8
CUT
10
42
20
46
30
0
11
42
21
60
31
0
0
LINE
8
CUT
10
42
20
60
30
0
11
28
21
60
31
0
0
LINE
8
CUT
10
28
20
60
30
0
11
28
21
46
31
0
0
LINE
8
CUT
10
46
20
46
30
0
11
60
21
46
31
0
0
LINE
8
CUT
10
60
20
46
30
0
11
60
21
60
31
0
0
LINE
8
CUT
10
60
20
60
30
0
11
46
21
60
31
0
0
LINE
8
CUT
10
46
20
60
30
0
11
46
21
46
31
0
0
LINE
8
CUT
10
64
20
46
30
0
11
78
21
46
31
0
0
LINE
8
CUT
10
78
20
46
30
0
11
78
21
60
31
0
0
LINE
8
CUT
10
78
20
60
30
0
11
64
21
60
31
0
0
LINE
8
CUT
10
64
20
60
30
0
11
64
21
46
31
0
0
LINE
8
CUT
10
82
20
46
30
0
11
96
21
46
31
0
0
LINE
8
CUT
10
96
20
46
30
0
11
96
21
60
31
0
0
LINE
8
CUT
10
96
20
60
30
0
11
82
21
60
31
0
0
LINE
8
CUT
10
82
20
60
30
0
11
82
21
46
31
0
0
LINE
8
CUT
10
100
20
46
30
0
11
114
21
46
31
0
0
LINE
8
CUT
10
114
20
46
30
0
11
114
21
60
31
0
0
LINE
8
CUT
10
114
20
60
30
0
11
100
21
60
31
0
0
LINE
8
CUT
10
100
20
60
30
0
11
100
21
46
31
0
0
LINE
8
CUT
10
118
20
46
30
0
11
132
21
46
31
0
0
LINE
8
CUT
10
132
20
46
30
0
11
132
21
60
31
0
0
LINE
8
CUT
10
132
20
60
30
0
11
118
21
60
31
0
0
LINE
8
CUT
10
118
20
60
30
0
11
118
21
46
31
0
0
LINE
8
CUT
10
136
20
46
30
0
11
150
21
46
31
0
0
LINE
8
CUT
10
150
20
46
30
0
11
150
21
60
31
0
0
LINE
8
CUT
10
150
20
60
30
0
11
136
21
60
31
0
0
LINE
8
CUT
10
136
20
60
30
0
11
136
21
46
31
0
0
LINE
8
CUT
10
154
20
46
30
0
11
168
21
46
31
0
0
LINE
8
CUT
10
168
20
46
30
0
11
168
21
60
31
0
0
LINE
8
CUT
10
168
20
60
30
0
11
154
21
60
31
0
0
LINE
8
CUT
10
154
20
60
30
0
11
154
21
46
31
0
0
LINE
8
CUT
10
172
20
46
30
0
11
186
21
46
31
0
0
LINE
8
CUT
10
186
20
46
30
0
11
186
21
60
31
0
0
LINE
8
CUT
10
186
20
60
30
0
11
172
21
60
31
0
0
LINE
8
CUT
10
172
20
60
30
0
11
172
21
46
31
0
0
LINE
8
CUT
10
190
20
46
30
0
11
204
21
46
31
0
0
LINE
8
CUT
10
204
20
46
30
0
11
204
21
60
31
0
0
LINE
8
CUT
10
204
20
60
30
0
11
190
21
60
31
0
0
LINE
8
CUT
10
190
20
60
30
0
11
190
21
46
31
0
0
LINE
8
CUT
10
10
20
64
30
0
11
24
21
64
31
0
0
LINE
8
CUT
10
24
20
64
30
0
11
24
21
78
31
0
0
LINE
8
CUT
10
24
20
78
30
0
11
10
21
78
31
0
0
LINE
8
CUT
10
10
20
78
30
0
11
10
21
64
31
0
0
LINE
8
CUT
10
28
20
64
30
0
11
42
21
64
31
0
0
LINE
8
CUT
10
42
20
64
30
0
11
42
21
78
31
0
0
LINE
8
CUT
10
42
20
78
30
0
11
28
21
78
31
0
0
LINE
8
CUT
10
28
20
78
30
0
11
28
21
64
31
0
0
LINE
8
CUT
10
46
20
64
30
0
11
60
21
64
31
0
0
LINE
8
CUT
10
60
20
64
30
0
11
60
21
78
31
0
0
LINE
8
CUT
10
60
20
78
30
0
11
46
21
78
31
0
0
LINE
8
CUT
10
46
20
78
30
0
11
46
21
64
31
0
0
LINE
8
CUT
10
64
20
64
30
0
11
78
21
64
31
0
0
LINE
8
CUT
10
78
20
64
30
0
11
78
21
78
31
0
0
LINE
8
CUT
10
78
20
78
30
0
11
64
21
78
31
0
0
LINE
8
CUT
10
64
20
78
30
0
11
64
21
64
31
0
0
LINE
8
CUT
10
82
20
64
30
0
11
96
21
64
31
0
0
LINE
8
CUT
10
96
20
64
30
0
11
96
21
78
31
0
0
LINE
8
CUT
10
96
20
78
30
0
11
82
21
78
31
0
0
LINE
8
CUT
10
82
20
78
30
0
11
82
21
64
31
0
0
LINE
8
CUT
10
100
20
64
30
0
11
114
21
64
31
0
0
LINE
8
CUT
10
114
20
64
30
0
11
114
21
78
31
0
0
LINE
8
CUT
10
114
20
78
30
0
11
100
21
78
31
0
0
LINE
8
CUT
10
100
20
78
30
0
11
100
21
64
31
0
0
LINE
8
CUT
10
118
20
64
30
0
11
132
21
64
31
0
0
LINE
8
CUT
10
132
20
64
30
0
11
132
21
78
31
0
0
LINE
8
CUT
10
132
20
78
30
0
11
118
21
78
31
0
0
LINE
8
CUT
10
118
20
78
30
0
11
118
21
64
31
0
0
LINE
8
CUT
10
136
20
64
30
0
11
150
21
64
31
0
0
LINE
8
CUT
10
150
20
64
30
0
11
150
21
78
31
0
0
LINE
8
CUT
10
150
20
78
30
0
11
136
21
78
31
0
0
LINE
8
CUT
10
136
20
78
30
0
11
136
21
64
31
0
0
LINE
8
CUT
10
154
20
64
30
0
11
168
21
64
31
0
0
LINE
8
CUT
10
168
20
64
30
0
11
168
21
78
31
0
0
LINE
8
CUT
10
168
20
78
30
0
11
154
21
78
31
0
0
LINE
8
CUT
10
154
20
78
30
0
11
154
21
64
31
0
0
LINE
8
CUT
10
172
20
64
30
0
11
186
21
64
31
0
0
LINE
8
CUT
10
186
20
64
30
0
11
186
21
78
31
0
0
LINE
8
CUT
10
186
20
78
30
0
11
172
21
78
31
0
0
LINE
8
CUT
10
172
20
78
30
0
11
172
21
64
31
0
0
LINE
8
CUT
10
190
20
64
30
0
11
204
21
64
31
0
0
LINE
8
CUT
10
204
20
64
30
0
11
204
21
78
31
0
0
LINE
8
CUT
10
204
20
78
30
0
11
190
21
78
31
0
0
LINE
8
CUT
10
190
20
78
30
0
11
190
21
64
31
0
0
LINE
8
CUT
10
10
20
82
30
0
11
24
21
82
31
0
0
LINE
8
CUT
10
24
20
82
30
0
11
24
21
96
31
0
0
LINE
8
CUT
10
24
20
96
30
0
11
10
21
96
31
0
0
LINE
8
CUT
10
10
20
96
30
0
11
10
21
82
31
0
0
LINE
8
CUT
10
28
20
82
30
0
11
42
21
82
31
0
0
LINE
8
CUT
10
42
20
82
30
0
11
42
21
96
31
0
0
LINE
8
CUT
10
42
20
96
30
0
11
28
21
96
31
0
0
LINE
8
CUT
10
28
20
96
30
0
11
28
21
82
31
0
0
LINE
8
CUT
10
46
20
82
30
0
11
60
21
82
31
0
0
LINE
8
CUT
10
60
20
82
30
0
11
60
21
96
31
0
0
LINE
8
CUT
10
60
20
96
30
0
11
46
21
96
31
0
0
LINE
8
CUT
10
46
20
96
30
0
11
46
21
82
31
0
0
LINE
8
CUT
10
64
20
82
30
0
11
78
21
82
31
0
0
LINE
8
CUT
10
78
20
82
30
0
11
78
21
96
31
0
0
LINE
8
CUT
10
78
20
96
30
0
11
64
21
96
31
0
0
LINE
8
CUT
10
64
20
96
30
0
11
64
21
82
31
0
0
LINE
8
CUT
10
82
20
82
30
0
11
96
21
82
31
0
0
LINE
8
CUT
10
96
20
82
30
0
11
96
21
96
31
0
0
LINE
8
CUT
10
96
20
96
30
0
11
82
21
96
31
0
0
LINE
8
CUT
10
82
20
96
30
0
11
82
21
82
31
0
0
LINE
8
CUT
10
100
20
82
30
0
11
114
21
82
31
0
0
LINE
8
CUT
10
114
20
82
30
0
11
114
21
96
31
0
0
LINE
8
CUT
10
114
20
96
30
0
11
100
21
96
31
0
0
LINE
8
CUT
10
100
20
96
30
0
11
100
21
82
31
0
0
LINE
8
CUT
10
118
20
82
30
0
11
132
21
82
31
0
0
LINE
8
CUT
10
132
20
82
30
0
11
132
21
96
31
0
0
LINE
8
CUT
10
132
20
96
30
0
11
118
21
96
31
0
0
LINE
8
CUT
10
118
20
96
30
0
11
118
21
82
31
0
0
LINE
8
CUT
10
136
20
82
30
0
11
150
21
82
31
0
0
LINE
8
CUT
10
150
20
82
30
0
11
150
21
96
31
0
0
LINE
8
CUT
10
150
20
96
30
0
11
136
21
96
31
0
0
LINE
8
CUT
10
136
20
96
30
0
11
136
21
82
31
0
0
LINE
8
CUT
10
154
20
82
30
0
11
168
21
82
31
0
0
LINE
8
CUT
10
168
20
82
30
0
11
168
21
96
31
0
0
LINE
8
CUT
10
168
20
96
30
0
11
154
21
96
31
0
0
LINE
8
CUT
10
154
20
96
30
0
11
154
21
82
31
0
0
LINE
8
CUT
10
172
20
82
30
0
11
186
21
82
31
0
0
LINE
8
CUT
10
186
20
82
30
0
11
186
21
96
31
0
0
LINE
8
CUT
10
186
20
96
30
0
11
172
21
96
31
0
0
LINE
8
CUT
10
172
20
96
30
0
11
172
21
82
31
0
0
LINE
8
CUT
10
190
20
82
30
0
11
204
21
82
31
0
0
LINE
8
CUT
10
204
20
82
30
0
11
204
21
96
31
0
0
LINE
8
CUT
10
204
20
96
30
0
11
190
21
96
31
0
0
LINE
8
CUT
10
190
20
96
30
0
11
190
21
82
31
0
0
LINE
8
CUT
10
10
20
100
30
0
11
24
21
100
31
0
0
LINE
8
CUT
10
24
20
100
30
0
11
24
21
114
31
0
0
LINE
8
CUT
10
24
20
114
30
0
11
10
21
114
31
0
0
LINE
8
CUT
10
10
20
114
30
0
11
10
21
100
31
0
0
LINE
8
CUT
10
28
20
100
30
0
11
42
21
100
31
0
0
LINE
8
CUT
10
42
20
100
30
0
11
42
21
114
31
0
0
LINE
8
CUT
10
42
20
114
30
0
11
28
21
114
31
0
0
LINE
8
CUT
10
28
20
114
30
0
11
28
21
100
31
0
0
LINE
8
CUT
10
46
20
100
30
0
11
60
21
100
31
0
0
LINE
8
CUT
10
60
20
100
30
0
11
60
21
114
31
0
0
LINE
8
CUT
10
60
20
114
30
0
11
46
21
114
31
0
0
LINE
8
CUT
10
46
20
114
30
0
11
46
21
100
31
0
0
LINE
8
CUT
10
64
20
100
30
0
11
78
21
100
31
0
0
LINE
8
CUT
10
78
20
100
30
0
11
78
21
114
31
0
0
LINE
8
CUT
10
78
20
114
30
0
11
64
21
114
31
0
0
LINE
8
CUT
10
64
20
114
30
0
11
64
21
100
31
0
0
LINE
8
CUT
10
82
20
100
30
0
11
96
21
100
31
0
0
LINE
8
CUT
10
96
20
100
30
0
11
96
21
114
31
0
0
LINE
8
CUT
10
96
20
114
30
0
11
82
21
114
31
0
0
LINE
8
CUT
10
82
20
114
30
0
11
82
21
100
31
0
0
LINE
8
CUT
10
100
20
100
30
0
11
114
21
100
31
0
0
LINE
8
CUT
10
114
20
100
30
0
11
114
21
114
31
0
0
LINE
8
CUT
10
114
20
114
30
0
11
100
21
114
31
0
0
LINE
8
CUT
10
100
20
114
30
0
11
100
21
100
31
0
0
LINE
8
CUT
10
118
20
100
30
0
11
132
21
100
31
0
0
LINE
8
CUT
10
132
20
100
30
0
11
132
21
114
31
0
0
LINE
8
CUT
10
132
20
114
30
0
11
118
21
114
31
0
0
LINE
8
CUT
10
118
20
114
30
0
11
118
21
100
31
0
0
LINE
8
CUT
10
136
20
100
30
0
11
150
21
100
31
0
0
LINE
8
CUT
10
150
20
100
30
0
11
150
21
114
31
0
0
LINE
8
CUT
10
150
20
114
30
0
11
136
21
114
31
0
0
LINE
8
CUT
10
136
20
114
30
0
11
136
21
100
31
0
0
LINE
8
CUT
10
154
20
100
30
0
11
168
21
100
31
0
0
LINE
8
CUT
10
168
20
100
30
0
11
168
21
114
31
0
0
LINE
8
CUT
10
168
20
114
30
0
11
154
21
114
31
0
0
LINE
8
CUT
10
154
20
114
30
0
11
154
21
100
31
0
0
LINE
8
CUT
10
172
20
100
30
0
11
186
21
100
31
0
0
LINE
8
CUT
10
186
20
100
30
0
11
186
21
114
31
0
0
LINE
8
CUT
10
186
20
114
30
0
11
172
21
114
31
0
0
LINE
8
CUT
10
172
20
114
30
0
11
172
21
100
31
0
0
LINE
8
CUT
10
190
20
100
30
0
11
204
21
100
31
0
0
LINE
8
CUT
10
204
20
100
30
0
11
204
21
114
31
0
0
LINE
8
CUT
10
204
20
114
30
0
11
190
21
114
31
0
0
LINE
8
CUT
10
190
20
114
30
0
11
190
21
100
31
0
0
LINE
8
CUT
10
10
20
118
30
0
11
24
21
118
31
0
0
LINE
8
CUT
10
24
20
118
30
0
11
24
21
132
31
0
0
LINE
8
CUT
10
24
20
132
30
0
11
10
21
132
31
0
0
LINE
8
CUT
10
10
20
132
30
0
11
10
21
118
31
0
0
LINE
8
CUT
10
28
20
118
30
0
11
42
21
118
31
0
0
LINE
8
CUT
10
42
20
118
30
0
11
42
21
132
31
0
0
LINE
8
CUT
10
42
20
132
30
0
11
28
21
132
31
0
0
LINE
8
CUT
10
28
20
132
30
0
11
28
21
118
31
0
0
LINE
8
CUT
10
46
20
118
30
0
11
60
21
118
31
0
0
LINE
8
CUT
10
60
20
118
30
0
11
60
21
132
31
0
0
LINE
8
CUT
10
60
20
132
30
0
11
46
21
132
31
0
0
LINE
8
CUT
10
46
20
132
30
0
11
46
21
118
31
0
0
LINE
8
CUT
10
64
20
118
30
0
11
78
21
118
31
0
0
LINE
8
CUT
10
78
20
118
30
0
11
78
21
132
31
0
0
LINE
8
CUT
10
78
20
132
30
0
11
64
21
132
31
0
0
LINE
8
CUT
10
64
20
132
30
0
11
64
21
118
31
0
0
LINE
8
CUT
10
82
20
118
30
0
11
96
21
118
31
0
0
LINE
8
CUT
10
96
20
118
30
0
11
96
21
132
31
0
0
LINE
8
CUT
10
96
20
132
30
0
11
82
21
132
31
0
0
LINE
8
CUT
10
82
20
132
30
0
11
82
21
118
31
0
0
LINE
8
CUT
10
100
20
118
30
0
11
114
21
118
31
0
0
LINE
8
CUT
10
114
20
118
30
0
11
114
21
132
31
0
0
LINE
8
CUT
10
114
20
132
30
0
11
100
21
132
31
0
0
LINE
8
CUT
10
100
20
132
30
0
11
100
21
118
31
0
0
LINE
8
CUT
10
118
20
118
30
0
11
132
21
118
31
0
0
LINE
8
CUT
10
132
20
118
30
0
11
132
21
132
31
0
0
LINE
8
CUT
10
132
20
132
30
0
11
118
21
132
31
0
0
LINE
8
CUT
10
118
20
132
30
0
11
118
21
118
31
0
0
LINE
8
CUT
10
136
20
118
30
0
11
150
21
118
31
0
0
LINE
8
CUT
10
150
20
118
30
0
11
150
21
132
31
0
0
LINE
8
CUT
10
150
20
132
30
0
11
136
21
132
31
0
0
LINE
8
CUT
10
136
20
132
30
0
11
136
21
118
31
0
0
LINE
8
CUT
10
154
20
118
30
0
11
168
21
118
31
0
0
LINE
8
CUT
10
168
20
118
30
0
11
168
21
132
31
0
0
LINE
8
CUT
10
168
20
132
30
0
11
154
21
132
31
0
0
LINE
8
CUT
10
154
20
132
30
0
11
154
21
118
31
0
0
LINE
8
CUT
10
172
20
118
30
0
11
186
21
118
31
0
0
LINE
8
CUT
10
186
20
118
30
0
11
186
21
132
31
0
0
LINE
8
CUT
10
186
20
132
30
0
11
172
21
132
31
0
0
LINE
8
CUT
10
172
20
132
30
0
11
172
21
118
31
0
0
LINE
8
CUT
10
190
20
118
30
0
11
204
21
118
31
0
0
LINE
8
CUT
10
204
20
118
30
0
11
204
21
132
31
0
0
LINE
8
CUT
10
204
20
132
30
0
11
190
21
132
31
0
0
LINE
8
CUT
10
190
20
132
30
0
11
190
21
118
31
0
0
LINE
8
CUT
10
10
20
136
30
0
11
24
21
136
31
0
0
LINE
8
CUT
10
24
20
136
30
0
11
24
21
150
31
0
0
LINE
8
CUT
10
24
20
150
30
0
11
10
21
150
31
0
0
LINE
8
CUT
10
10
20
150
30
0
11
10
21
136
31
0
0
LINE
8
CUT
10
28
20
136
30
0
11
42
21
136
31
0
0
LINE
8
CUT
10
42
20
136
30
0
11
42
21
150
31
0
0
LINE
8
CUT
10
42
20
150
30
0
11
28
21
150
31
0
0
LINE
8
CUT
10
28
20
150
30
0
11
28
21
136
31
0
0
LINE
8
CUT
10
46
20
136
30
0
11
60
21
136
31
0
0
LINE
8
CUT
10
60
20
136
30
0
11
60
21
150
31
0
0
LINE
8
CUT
10
60
20
150
30
0
11
46
21
150
31
0
0
LINE
8
CUT
10
46
20
150
30
0
11
46
21
136
31
0
0
LINE
8
CUT
10
64
20
136
30
0
11
78
21
136
31
0
0
LINE
8
CUT
10
78
20
136
30
0
11
78
21
150
31
0
0
LINE
8
CUT
10
78
20
150
30
0
11
64
21
150
31
0
0
LINE
8
CUT
10
64
20
150
30
0
11
64
21
136
31
0
0
LINE
8
CUT
10
82
20
136
30
0
11
96
21
136
31
0
0
LINE
8
CUT
10
96
20
136
30
0
11
96
21
150
31
0
0
LINE
8
CUT
10
96
20
150
30
0
11
82
21
150
31
0
0
LINE
8
CUT
10
82
20
150
30
0
11
82
21
136
31
0
0
LINE
8
CUT
10
100
20
136
30
0
11
114
21
136
31
0
0
LINE
8
CUT
10
114
20
136
30
0
11
114
21
150
31
0
0
LINE
8
CUT
10
114
20
150
30
0
11
100
21
150
31
0
0
LINE
8
CUT
10
100
20
150
30
0
11
100
21
136
31
0
0
LINE
8
CUT
10
118
20
136
30
0
11
132
21
136
31
0
0
LINE
8
CUT
10
132
20
136
30
0
11
132
21
150
31
0
0
LINE
8
CUT
10
132
20
150
30
0
11
118
21
150
31
0
0
LINE
8
CUT
10
118
20
150
30
0
11
118
21
136
31
0
0
LINE
8
CUT
10
136
20
136
30
0
11
150
21
136
31
0
0
LINE
8
CUT
10
150
20
136
30
0
11
150
21
150
31
0
0
LINE
8
CUT
10
150
20
150
30
0
11
136
21
150
31
0
0
LINE
8
CUT
10
136
20
150
30
0
11
136
21
136
31
0
0
LINE
8
CUT
10
154
20
136
30
0
11
168
21
136
31
0
0
LINE
8
CUT
10
168
20
136
30
0
11
168
21
150
31
0
0
LINE
8
CUT
10
168
20
150
30
0
11
154
21
150
31
0
0
LINE
8
CUT
10
154
20
150
30
0
11
154
21
136
31
0
0
LINE
8
CUT
10
172
20
136
30
0
11
186
21
136
31
0
0
LINE
8
CUT
10
186
20
136
30
0
11
186
21
150
31
0
0
LINE
8
CUT
10
186
20
150
30
0
11
172
21
150
31
0
0
LINE
8
CUT
10
172
20
150
30
0
11
172
21
136
31
0
0
LINE
8
CUT
10
190
20
136
30
0
11
204
21
136
31
0
0
LINE
8
CUT
10
204
20
136
30
0
11
204
21
150
31
0
0
LINE
8
CUT
10
204
20
150
30
0
11
190
21
150
31
0
0
LINE
8
CUT
10
190
20
150
30
0
11
190
21
136
31
0
0
LINE
8
CUT
10
10
20
154
30
0
11
24
21
154
31
0
0
LINE
8
CUT
10
24
20
154
30
0
11
24
21
168
31
0
0
LINE
8
CUT
10
24
20
168
30
0
11
10
21
168
31
0
0
LINE
8
CUT
10
10
20
168
30
0
11
10
21
154
31
0
0
LINE
8
CUT
10
28
20
154
30
0
11
42
21
154
31
0
0
LINE
8
CUT
10
42
20
154
30
0
11
42
21
168
31
0
0
LINE
8
CUT
10
42
20
168
30
0
11
28
21
168
31
0
0
LINE
8
CUT
10
28
20
168
30
0
11
28
21
154
31
0
0
LINE
8
CUT
10
46
20
154
30
0
11
60
21
154
31
0
0
LINE
8
CUT
10
60
20
154
30
0
11
60
21
168
31
0
0
LINE
8
CUT
10
60
20
168
30
0
11
46
21
168
31
0
0
LINE
8
CUT
10
46
20
168
30
0
11
46
21
154
31
0
0
LINE
8
CUT
10
64
20
154
30
0
11
78
21
154
31
0
0
LINE
8
CUT
10
78
20
154
30
0
11
78
21
168
31
0
0
LINE
8
CUT
10
78
20
168
30
0
11
64
21
168
31
0
0
LINE
8
CUT
10
64
20
168
30
0
11
64
21
154
31
0
0
LINE
8
CUT
10
82
20
154
30
0
11
96
21
154
31
0
0
LINE
8
CUT
10
96
20
154
30
0
11
96
21
168
31
0
0
LINE
8
CUT
10
96
20
168
30
0
11
82
21
168
31
0
0
LINE
8
CUT
10
82
20
168
30
0
11
82
21
154
31
0
0
LINE
8
CUT
10
100
20
154
30
0
11
114
21
154
31
0
0
LINE
8
CUT
10
114
20
154
30
0
11
114
21
168
31
0
0
LINE
8
CUT
10
114
20
168
30
0
11
100
21
168
31
0
0
LINE
8
CUT
10
100
20
168
30
0
11
100
21
154
31
0
0
LINE
8
CUT
10
118
20
154
30
0
11
132
21
154
31
0
0
LINE
8
CUT
10
132
20
154
30
0
11
132
21
168
31
0
0
LINE
8
CUT
10
132
20
168
30
0
11
118
21
168
31
0
0
LINE
8
CUT
10
118
20
168
30
0
11
118
21
154
31
0
0
LINE
8
CUT
10
136
20
154
30
0
11
150
21
154
31
0
0
LINE
8
CUT
10
150
20
154
30
0
11
150
21
168
31
0
0
LINE
8
CUT
10
150
20
168
30
0
11
136
21
168
31
0
0
LINE
8
CUT
10
136
20
168
30
0
11
136
21
154
31
0
0
LINE
8
CUT
10
154
20
154
30
0
11
168
21
154
31
0
0
LINE
8
CUT
10
168
20
154
30
0
11
168
21
168
31
0
0
LINE
8
CUT
10
168
20
168
30
0
11
154
21
168
31
0
0
LINE
8
CUT
10
154
20
168
30
0
11
154
21
154
31
0
0
LINE
8
CUT
10
172
20
154
30
0
11
186
21
154
31
0
0
LINE
8
CUT
10
186
20
154
30
0
11
186
21
168
31
0
0
LINE
8
CUT
10
186
20
168
30
0
11
172
21
168
31
0
0
LINE
8
CUT
10
172
20
168
30
0
11
172
21
154
31
0
0
LINE
8
CUT
10
190
20
154
30
0
11
204
21
154
31
0
0
LINE
8
CUT
10
204
20
154
30
0
11
204
21
168
31
0
0
LINE
8
CUT
10
204
20
168
30
0
11
190
21
168
31
0
0
LINE
8
CUT
10
190
20
168
30
0
11
190
21
154
31
0
0
LINE
8
CUT
10
10
20
172
30
0
11
24
21
172
31
0
0
LINE
8
CUT
10
24
20
172
30
0
11
24
21
186
31
0
0
LINE
8
CUT
10
24
20
186
30
0
11
10
21
186
31
0
0
LINE
8
CUT
10
10
20
186
30
0
11
10
21
172
31
0
0
LINE
8
CUT
10
28
20
172
30
0
11
42
21
172
31
0
0
LINE
8
CUT
10
42
20
172
30
0
11
42
21
186
31
0
0
LINE
8
CUT
10
42
20
186
30
0
11
28
21
186
31
0
0
LINE
8
CUT
10
28
20
186
30
0
11
28
21
172
31
0
0
LINE
8
CUT
10
46
20
172
30
0
11
60
21
172
31
0
0
LINE
8
CUT
10
60
20
172
30
0
11
60
21
186
31
0
0
LINE
8
CUT
10
60
20
186
30
0
11
46
21
186
31
0
0
LINE
8
CUT
10
46
20
186
30
0
11
46
21
172
31
0
0
LINE
8
CUT
10
64
20
172
30
0
11
78
21
172
31
0
0
LINE
8
CUT
10
78
20
172
30
0
11
78
21
186
31
0
0
LINE
8
CUT
10
78
20
186
30
0
11
64
21
186
31
0
0
LINE
8
CUT
10
64
20
186
30
0
11
64
21
172
31
0
0
LINE
8
CUT
10
82
20
172
30
0
11
96
21
172
31
0
0
LINE
8
CUT
10
96
20
172
30
0
11
96
21
186
31
0
0
LINE
8
CUT
10
96
20
186
30
0
11
82
21
186
31
0
0
LINE
8
CUT
10
82
20
186
30
0
11
82
21
172
31
0
0
LINE
8
CUT
10
100
20
172
30
0
11
114
21
172
31
0
0
LINE
8
CUT
10
114
20
172
30
0
11
114
21
186
31
0
0
LINE
8
CUT
10
114
20
186
30
0
11
100
21
186
31
0
0
LINE
8
CUT
10
100
20
186
30
0
11
100
21
172
31
0
0
LINE
8
CUT
10
118
20
172
30
0
11
132
21
172
31
0
0
LINE
8
CUT
10
132
20
172
30
0
11
132
21
186
31
0
0
LINE
8
CUT
10
132
20
186
30
0
11
118
21
186
31
0
0
LINE
8
CUT
10
118
20
186
30
0
11
118
21
172
31
0
0
LINE
8
CUT
10
136
20
172
30
0
11
150
21
172
31
0
0
LINE
8
CUT
10
150
20
172
30
0
11
150
21
186
31
0
0
LINE
8
CUT
10
150
20
186
30
0
11
136
21
186
31
0
0
LINE
8
CUT
10
136
20
186
30
0
11
136
21
172
31
0
0
LINE
8
CUT
10
154
20
172
30
0
11
168
21
172
31
0
0
LINE
8
CUT
10
168
20
172
30
0
11
168
21
186
31
0
0
LINE
8
CUT
10
168
20
186
30
0
11
154
21
186
31
0
0
LINE
8
CUT
10
154
20
186
30
0
11
154
21
172
31
0
0
LINE
8
CUT
10
172
20
172
30
0
11
186
21
172
31
0
0
LINE
8
CUT
10
186
20
172
30
0
11
186
21
186
31
0
0
LINE
8
CUT
10
186
20
186
30
0
11
172
21
186
31
0
0
LINE
8
CUT
10
172
20
186
30
0
11
172
21
172
31
0
0
LINE
8
CUT
10
190
20
172
30
0
11
204
21
172
31
0
0
LINE
8
CUT
10
204
20
172
30
0
11
204
21
186
31
0
0
LINE
8
CUT
10
204
20
186
30
0
11
190
21
186
31
0
0
LINE
8
CUT
10
190
20
186
30
0
11
190
21
172
31
0
0
CIRCLE
8
CUT
10
4
20
4
30
0
40
2.5
0
CIRCLE
8
CUT
10
210
20
4
30
0
40
2.5
0
CIRCLE
8
CUT
10
4
20
192
30
0
40
2.5
0
CIRCLE
8
CUT
10
210
20
192
30
0
40
2.5
0
CIRCLE
8
CUT
10
5
20
5
30
0
40
1.6
0
CIRCLE
8
CUT
10
209
20
5
30
0
40
1.6
0
CIRCLE
8
CUT
10
5
20
191
30
0
40
1.6
0
CIRCLE
8
CUT
10
209
20
191
30
0
40
1.6
0
ENDSEC
0
EOF
