999
"DXF R12 Output" (www.mydxf.blogspot.com)
 0 
SECTION
 2 
HEADER
 9 
$ACADVER
 1 
AC1009
 9 
$EXTMIN
 10 
 0 
 20 
 0 
 9 
$EXTMAX
 10 
 8.5 
 20 
 11 
 0 
ENDSEC
 0 
SECTION
 2 
ENTITIES
0
POLYLINE
8
Cut
62
10
70
1
10
0.000000
20
0.000000
66
1
0
VERTEX
8
Cut
10
5.000000
20
480.000000
70
0
0
VERTEX
8
Cut
10
520.000000
20
480.000000
70
0
0
VERTEX
8
Cut
10
521.010137
20
479.898770
70
0
0
VERTEX
8
Cut
10
521.949844
20
479.608281
70
0
0
VERTEX
8
Cut
10
522.799316
20
479.148340
70
0
0
VERTEX
8
Cut
10
523.538750
20
478.538750
70
0
0
VERTEX
8
Cut
10
524.148340
20
477.799316
70
0
0
VERTEX
8
Cut
10
524.608281
20
476.949844
70
0
0
VERTEX
8
Cut
10
524.898770
20
476.010137
70
0
0
VERTEX
8
Cut
10
525.000000
20
475.000000
70
0
0
VERTEX
8
Cut
10
525.000000
20
5.000000
70
0
0
VERTEX
8
Cut
10
524.898770
20
3.989863
70
0
0
VERTEX
8
Cut
10
524.608281
20
3.050156
70
0
0
VERTEX
8
Cut
10
524.148340
20
2.200684
70
0
0
VERTEX
8
Cut
10
523.538750
20
1.461250
70
0
0
VERTEX
8
Cut
10
522.799316
20
0.851660
70
0
0
VERTEX
8
Cut
10
521.949844
20
0.391719
70
0
0
VERTEX
8
Cut
10
521.010137
20
0.101230
70
0
0
VERTEX
8
Cut
10
520.000000
20
0.000000
70
0
0
VERTEX
8
Cut
10
5.000000
20
0.000000
70
0
0
VERTEX
8
Cut
10
3.989863
20
0.101230
70
0
0
VERTEX
8
Cut
10
3.050156
20
0.391719
70
0
0
VERTEX
8
Cut
10
2.200684
20
0.851660
70
0
0
VERTEX
8
Cut
10
1.461250
20
1.461250
70
0
0
VERTEX
8
Cut
10
0.851660
20
2.200684
70
0
0
VERTEX
8
Cut
10
0.391719
20
3.050156
70
0
0
VERTEX
8
Cut
10
0.101230
20
3.989863
70
0
0
VERTEX
8
Cut
10
0.000000
20
5.000000
70
0
0
VERTEX
8
Cut
10
0.000000
20
475.000000
70
0
0
VERTEX
8
Cut
10
0.101230
20
476.010137
70
0
0
VERTEX
8
Cut
10
0.391719
20
476.949844
70
0
0
VERTEX
8
Cut
10
0.851660
20
477.799316
70
0
0
VERTEX
8
Cut
10
1.461250
20
478.538750
70
0
0
VERTEX
8
Cut
10
2.200684
20
479.148340
70
0
0
VERTEX
8
Cut
10
3.050156
20
479.608281
70
0
0
VERTEX
8
Cut
10
3.989863
20
479.898770
70
0
0
VERTEX
8
Cut
10
5.000000
20
480.000000
70
0
0
VERTEX
8
Cut
10
5.000000
20
480.000000
70
0
0
SEQEND
8
Cut
0
POLYLINE
8
Cut
62
10
70
0
10
0.000000
20
0.000000
66
1
0
VERTEX
8
Cut
10
11.500000
20
472.500000
70
0
0
VERTEX
8
Cut
10
11.422431
20
471.715995
70
0
0
VERTEX
8
Cut
10
11.195518
20
470.969266
70
0
0
VERTEX
8
Cut
10
10.827953
20
470.280798
70
0
0
VERTEX
8
Cut
10
10.328427
20
469.671573
70
0
0
VERTEX
8
Cut
10
9.719202
20
469.172047
70
0
0
VERTEX
8
Cut
10
9.030734
20
468.804482
70
0
0
VERTEX
8
Cut
10
8.284005
20
468.577569
70
0
0
VERTEX
8
Cut
10
7.500000
20
468.500000
70
0
0
VERTEX
8
Cut
10
6.715995
20
468.577569
70
0
0
VERTEX
8
Cut
10
5.969266
20
468.804482
70
0
0
VERTEX
8
Cut
10
5.280798
20
469.172047
70
0
0
VERTEX
8
Cut
10
4.671573
20
469.671573
70
0
0
VERTEX
8
Cut
10
4.172047
20
470.280798
70
0
0
VERTEX
8
Cut
10
3.804482
20
470.969266
70
0
0
VERTEX
8
Cut
10
3.577569
20
471.715995
70
0
0
VERTEX
8
Cut
10
3.500000
20
472.500000
70
0
0
VERTEX
8
Cut
10
3.577569
20
473.284005
70
0
0
VERTEX
8
Cut
10
3.804482
20
474.030734
70
0
0
VERTEX
8
Cut
10
4.172047
20
474.719202
70
0
0
VERTEX
8
Cut
10
4.671573
20
475.328427
70
0
0
VERTEX
8
Cut
10
5.280798
20
475.827953
70
0
0
VERTEX
8
Cut
10
5.969266
20
476.195518
70
0
0
VERTEX
8
Cut
10
6.715995
20
476.422431
70
0
0
VERTEX
8
Cut
10
7.500000
20
476.500000
70
0
0
VERTEX
8
Cut
10
8.284005
20
476.422431
70
0
0
VERTEX
8
Cut
10
9.030734
20
476.195518
70
0
0
VERTEX
8
Cut
10
9.719202
20
475.827953
70
0
0
VERTEX
8
Cut
10
10.328427
20
475.328427
70
0
0
VERTEX
8
Cut
10
10.827953
20
474.719202
70
0
0
VERTEX
8
Cut
10
11.195518
20
474.030734
70
0
0
VERTEX
8
Cut
10
11.422431
20
473.284005
70
0
0
VERTEX
8
Cut
10
11.500000
20
472.500000
70
0
0
VERTEX
8
Cut
10
11.500000
20
472.500000
70
0
0
SEQEND
8
Cut
0
POLYLINE
8
Cut
62
10
70
0
10
0.000000
20
0.000000
66
1
0
VERTEX
8
Cut
10
521.500000
20
472.500000
70
0
0
VERTEX
8
Cut
10
521.422431
20
471.715995
70
0
0
VERTEX
8
Cut
10
521.195518
20
470.969266
70
0
0
VERTEX
8
Cut
10
520.827953
20
470.280798
70
0
0
VERTEX
8
Cut
10
520.328427
20
469.671573
70
0
0
VERTEX
8
Cut
10
519.719202
20
469.172047
70
0
0
VERTEX
8
Cut
10
519.030734
20
468.804482
70
0
0
VERTEX
8
Cut
10
518.284005
20
468.577569
70
0
0
VERTEX
8
Cut
10
517.500000
20
468.500000
70
0
0
VERTEX
8
Cut
10
516.715995
20
468.577569
70
0
0
VERTEX
8
Cut
10
515.969266
20
468.804482
70
0
0
VERTEX
8
Cut
10
515.280798
20
469.172047
70
0
0
VERTEX
8
Cut
10
514.671573
20
469.671573
70
0
0
VERTEX
8
Cut
10
514.172047
20
470.280798
70
0
0
VERTEX
8
Cut
10
513.804482
20
470.969266
70
0
0
VERTEX
8
Cut
10
513.577569
20
471.715995
70
0
0
VERTEX
8
Cut
10
513.500000
20
472.500000
70
0
0
VERTEX
8
Cut
10
513.577569
20
473.284005
70
0
0
VERTEX
8
Cut
10
513.804482
20
474.030734
70
0
0
VERTEX
8
Cut
10
514.172047
20
474.719202
70
0
0
VERTEX
8
Cut
10
514.671573
20
475.328427
70
0
0
VERTEX
8
Cut
10
515.280798
20
475.827953
70
0
0
VERTEX
8
Cut
10
515.969266
20
476.195518
70
0
0
VERTEX
8
Cut
10
516.715995
20
476.422431
70
0
0
VERTEX
8
Cut
10
517.500000
20
476.500000
70
0
0
VERTEX
8
Cut
10
518.284005
20
476.422431
70
0
0
VERTEX
8
Cut
10
519.030734
20
476.195518
70
0
0
VERTEX
8
Cut
10
519.719202
20
475.827953
70
0
0
VERTEX
8
Cut
10
520.328427
20
475.328427
70
0
0
VERTEX
8
Cut
10
520.827953
20
474.719202
70
0
0
VERTEX
8
Cut
10
521.195518
20
474.030734
70
0
0
VERTEX
8
Cut
10
521.422431
20
473.284005
70
0
0
VERTEX
8
Cut
10
521.500000
20
472.500000
70
0
0
VERTEX
8
Cut
10
521.500000
20
472.500000
70
0
0
SEQEND
8
Cut
0
POLYLINE
8
Cut
62
10
70
0
10
0.000000
20
0.000000
66
1
0
VERTEX
8
Cut
10
11.500000
20
7.500000
70
0
0
VERTEX
8
Cut
10
11.422431
20
6.715995
70
0
0
VERTEX
8
Cut
10
11.195518
20
5.969266
70
0
0
VERTEX
8
Cut
10
10.827953
20
5.280798
70
0
0
VERTEX
8
Cut
10
10.328427
20
4.671573
70
0
0
VERTEX
8
Cut
10
9.719202
20
4.172047
70
0
0
VERTEX
8
Cut
10
9.030734
20
3.804482
70
0
0
VERTEX
8
Cut
10
8.284005
20
3.577569
70
0
0
VERTEX
8
Cut
10
7.500000
20
3.500000
70
0
0
VERTEX
8
Cut
10
6.715995
20
3.577569
70
0
0
VERTEX
8
Cut
10
5.969266
20
3.804482
70
0
0
VERTEX
8
Cut
10
5.280798
20
4.172047
70
0
0
VERTEX
8
Cut
10
4.671573
20
4.671573
70
0
0
VERTEX
8
Cut
10
4.172047
20
5.280798
70
0
0
VERTEX
8
Cut
10
3.804482
20
5.969266
70
0
0
VERTEX
8
Cut
10
3.577569
20
6.715995
70
0
0
VERTEX
8
Cut
10
3.500000
20
7.500000
70
0
0
VERTEX
8
Cut
10
3.577569
20
8.284005
70
0
0
VERTEX
8
Cut
10
3.804482
20
9.030734
70
0
0
VERTEX
8
Cut
10
4.172047
20
9.719202
70
0
0
VERTEX
8
Cut
10
4.671573
20
10.328427
70
0
0
VERTEX
8
Cut
10
5.280798
20
10.827953
70
0
0
VERTEX
8
Cut
10
5.969266
20
11.195518
70
0
0
VERTEX
8
Cut
10
6.715995
20
11.422431
70
0
0
VERTEX
8
Cut
10
7.500000
20
11.500000
70
0
0
VERTEX
8
Cut
10
8.284005
20
11.422431
70
0
0
VERTEX
8
Cut
10
9.030734
20
11.195518
70
0
0
VERTEX
8
Cut
10
9.719202
20
10.827953
70
0
0
VERTEX
8
Cut
10
10.328427
20
10.328427
70
0
0
VERTEX
8
Cut
10
10.827953
20
9.719202
70
0
0
VERTEX
8
Cut
10
11.195518
20
9.030734
70
0
0
VERTEX
8
Cut
10
11.422431
20
8.284005
70
0
0
VERTEX
8
Cut
10
11.500000
20
7.500000
70
0
0
VERTEX
8
Cut
10
11.500000
20
7.500000
70
0
0
SEQEND
8
Cut
0
POLYLINE
8
Cut
62
10
70
0
10
0.000000
20
0.000000
66
1
0
VERTEX
8
Cut
10
521.500000
20
7.500000
70
0
0
VERTEX
8
Cut
10
521.422431
20
6.715995
70
0
0
VERTEX
8
Cut
10
521.195518
20
5.969266
70
0
0
VERTEX
8
Cut
10
520.827953
20
5.280798
70
0
0
VERTEX
8
Cut
10
520.328427
20
4.671573
70
0
0
VERTEX
8
Cut
10
519.719202
20
4.172047
70
0
0
VERTEX
8
Cut
10
519.030734
20
3.804482
70
0
0
VERTEX
8
Cut
10
518.284005
20
3.577569
70
0
0
VERTEX
8
Cut
10
517.500000
20
3.500000
70
0
0
VERTEX
8
Cut
10
516.715995
20
3.577569
70
0
0
VERTEX
8
Cut
10
515.969266
20
3.804482
70
0
0
VERTEX
8
Cut
10
515.280798
20
4.172047
70
0
0
VERTEX
8
Cut
10
514.671573
20
4.671573
70
0
0
VERTEX
8
Cut
10
514.172047
20
5.280798
70
0
0
VERTEX
8
Cut
10
513.804482
20
5.969266
70
0
0
VERTEX
8
Cut
10
513.577569
20
6.715995
70
0
0
VERTEX
8
Cut
10
513.500000
20
7.500000
70
0
0
VERTEX
8
Cut
10
513.577569
20
8.284005
70
0
0
VERTEX
8
Cut
10
513.804482
20
9.030734
70
0
0
VERTEX
8
Cut
10
514.172047
20
9.719202
70
0
0
VERTEX
8
Cut
10
514.671573
20
10.328427
70
0
0
VERTEX
8
Cut
10
515.280798
20
10.827953
70
0
0
VERTEX
8
Cut
10
515.969266
20
11.195518
70
0
0
VERTEX
8
Cut
10
516.715995
20
11.422431
70
0
0
VERTEX
8
Cut
10
517.500000
20
11.500000
70
0
0
VERTEX
8
Cut
10
518.284005
20
11.422431
70
0
0
VERTEX
8
Cut
10
519.030734
20
11.195518
70
0
0
VERTEX
8
Cut
10
519.719202
20
10.827953
70
0
0
VERTEX
8
Cut
10
520.328427
20
10.328427
70
0
0
VERTEX
8
Cut
10
520.827953
20
9.719202
70
0
0
VERTEX
8
Cut
10
521.195518
20
9.030734
70
0
0
VERTEX
8
Cut
10
521.422431
20
8.284005
70
0
0
VERTEX
8
Cut
10
521.500000
20
7.500000
70
0
0
VERTEX
8
Cut
10
521.500000
20
7.500000
70
0
0
SEQEND
8
Cut
0
POLYLINE
8
Cut
62
10
70
1
10
0.000000
20
0.000000
66
1
0
VERTEX
8
Cut
10
10.000000
20
472.000000
70
0
0
VERTEX
8
Cut
10
9.847759
20
471.234633
70
0
0
VERTEX
8
Cut
10
9.414214
20
470.585786
70
0
0
VERTEX
8
Cut
10
8.765367
20
470.152241
70
0
0
VERTEX
8
Cut
10
8.000000
20
470.000000
70
0
0
VERTEX
8
Cut
10
7.234633
20
470.152241
70
0
0
VERTEX
8
Cut
10
6.585786
20
470.585786
70
0
0
VERTEX
8
Cut
10
6.152241
20
471.234633
70
0
0
VERTEX
8
Cut
10
6.000000
20
472.000000
70
0
0
VERTEX
8
Cut
10
6.152241
20
472.765367
70
0
0
VERTEX
8
Cut
10
6.585786
20
473.414214
70
0
0
VERTEX
8
Cut
10
7.234633
20
473.847759
70
0
0
VERTEX
8
Cut
10
8.000000
20
474.000000
70
0
0
VERTEX
8
Cut
10
8.765367
20
473.847759
70
0
0
VERTEX
8
Cut
10
9.414214
20
473.414214
70
0
0
VERTEX
8
Cut
10
9.847759
20
472.765367
70
0
0
VERTEX
8
Cut
10
10.000000
20
472.000000
70
0
0
VERTEX
8
Cut
10
10.000000
20
472.000000
70
0
0
SEQEND
8
Cut
0
POLYLINE
8
Cut
62
10
70
0
10
0.000000
20
0.000000
66
1
0
VERTEX
8
Cut
10
519.000000
20
472.000000
70
0
0
VERTEX
8
Cut
10
518.847759
20
471.234633
70
0
0
VERTEX
8
Cut
10
518.414214
20
470.585786
70
0
0
VERTEX
8
Cut
10
517.765367
20
470.152241
70
0
0
VERTEX
8
Cut
10
517.000000
20
470.000000
70
0
0
VERTEX
8
Cut
10
516.234633
20
470.152241
70
0
0
VERTEX
8
Cut
10
515.585786
20
470.585786
70
0
0
VERTEX
8
Cut
10
515.152241
20
471.234633
70
0
0
VERTEX
8
Cut
10
515.000000
20
472.000000
70
0
0
VERTEX
8
Cut
10
515.152241
20
472.765367
70
0
0
VERTEX
8
Cut
10
515.585786
20
473.414214
70
0
0
VERTEX
8
Cut
10
516.234633
20
473.847759
70
0
0
VERTEX
8
Cut
10
517.000000
20
474.000000
70
0
0
VERTEX
8
Cut
10
517.765367
20
473.847759
70
0
0
VERTEX
8
Cut
10
518.414214
20
473.414214
70
0
0
VERTEX
8
Cut
10
518.847759
20
472.765367
70
0
0
VERTEX
8
Cut
10
519.000000
20
472.000000
70
0
0
VERTEX
8
Cut
10
519.000000
20
472.000000
70
0
0
SEQEND
8
Cut
0
POLYLINE
8
Cut
62
10
70
0
10
0.000000
20
0.000000
66
1
0
VERTEX
8
Cut
10
10.000000
20
8.000000
70
0
0
VERTEX
8
Cut
10
9.847759
20
7.234633
70
0
0
VERTEX
8
Cut
10
9.414214
20
6.585786
70
0
0
VERTEX
8
Cut
10
8.765367
20
6.152241
70
0
0
VERTEX
8
Cut
10
8.000000
20
6.000000
70
0
0
VERTEX
8
Cut
10
7.234633
20
6.152241
70
0
0
VERTEX
8
Cut
10
6.585786
20
6.585786
70
0
0
VERTEX
8
Cut
10
6.152241
20
7.234633
70
0
0
VERTEX
8
Cut
10
6.000000
20
8.000000
70
0
0
VERTEX
8
Cut
10
6.152241
20
8.765367
70
0
0
VERTEX
8
Cut
10
6.585786
20
9.414214
70
0
0
VERTEX
8
Cut
10
7.234633
20
9.847759
70
0
0
VERTEX
8
Cut
10
8.000000
20
10.000000
70
0
0
VERTEX
8
Cut
10
8.765367
20
9.847759
70
0
0
VERTEX
8
Cut
10
9.414214
20
9.414214
70
0
0
VERTEX
8
Cut
10
9.847759
20
8.765367
70
0
0
VERTEX
8
Cut
10
10.000000
20
8.000000
70
0
0
VERTEX
8
Cut
10
10.000000
20
8.000000
70
0
0
SEQEND
8
Cut
0
POLYLINE
8
Cut
62
10
70
0
10
0.000000
20
0.000000
66
1
0
VERTEX
8
Cut
10
519.000000
20
8.000000
70
0
0
VERTEX
8
Cut
10
518.847759
20
7.234633
70
0
0
VERTEX
8
Cut
10
518.414214
20
6.585786
70
0
0
VERTEX
8
Cut
10
517.765367
20
6.152241
70
0
0
VERTEX
8
Cut
10
517.000000
20
6.000000
70
0
0
VERTEX
8
Cut
10
516.234633
20
6.152241
70
0
0
VERTEX
8
Cut
10
515.585786
20
6.585786
70
0
0
VERTEX
8
Cut
10
515.152241
20
7.234633
70
0
0
VERTEX
8
Cut
10
515.000000
20
8.000000
70
0
0
VERTEX
8
Cut
10
515.152241
20
8.765367
70
0
0
VERTEX
8
Cut
10
515.585786
20
9.414214
70
0
0
VERTEX
8
Cut
10
516.234633
20
9.847759
70
0
0
VERTEX
8
Cut
10
517.000000
20
10.000000
70
0
0
VERTEX
8
Cut
10
517.765367
20
9.847759
70
0
0
VERTEX
8
Cut
10
518.414214
20
9.414214
70
0
0
VERTEX
8
Cut
10
518.847759
20
8.765367
70
0
0
VERTEX
8
Cut
10
519.000000
20
8.000000
70
0
0
VERTEX
8
Cut
10
519.000000
20
8.000000
70
0
0
SEQEND
8
Cut
0
POLYLINE
8
Stencil Cut
62
7
70
0
10
0.000000
20
0.000000
66
1
0
VERTEX
8
Stencil Cut
10
29.553040
20
434.847815
70
0
0
VERTEX
8
Stencil Cut
10
29.553040
20
454.711828
70
0
0
VERTEX
8
Stencil Cut
10
33.563782
20
454.711828
70
0
0
VERTEX
8
Stencil Cut
10
33.563782
20
445.890905
70
0
0
VERTEX
8
Stencil Cut
10
41.666565
20
454.711828
70
0
0
VERTEX
8
Stencil Cut
10
47.059387
20
454.711828
70
0
0
VERTEX
8
Stencil Cut
10
39.579895
20
446.974890
70
0
0
VERTEX
8
Stencil Cut
10
47.465881
20
434.847815
70
0
0
VERTEX
8
Stencil Cut
10
42.276306
20
434.847815
70
0
0
VERTEX
8
Stencil Cut
10
36.815735
20
444.170080
70
0
0
VERTEX
8
Stencil Cut
10
33.563782
20
440.850378
70
0
0
VERTEX
8
Stencil Cut
10
33.563782
20
434.847815
70
0
0
VERTEX
8
Stencil Cut
10
29.553040
20
434.847815
70
0
0
SEQEND
8
Stencil Cut
0
POLYLINE
8
Stencil Cut
62
7
70
0
10
0.000000
20
0.000000
66
1
0
VERTEX
8
Stencil Cut
10
76.151917
20
434.847815
70
0
0
VERTEX
8
Stencil Cut
10
76.151917
20
454.549231
70
0
0
VERTEX
8
Stencil Cut
10
80.162659
20
454.549231
70
0
0
VERTEX
8
Stencil Cut
10
80.162659
20
438.194616
70
0
0
VERTEX
8
Stencil Cut
10
90.135315
20
438.194616
70
0
0
VERTEX
8
Stencil Cut
10
90.135315
20
434.847815
70
0
0
VERTEX
8
Stencil Cut
10
76.151917
20
434.847815
70
0
0
SEQEND
8
Stencil Cut
0
POLYLINE
8
Stencil Cut
62
7
70
0
10
0.000000
20
0.000000
66
1
0
VERTEX
8
Stencil Cut
10
117.913510
20
444.657873
70
0
0
VERTEX
8
Stencil Cut
10
118.140470
20
447.449133
70
0
0
VERTEX
8
Stencil Cut
10
118.821350
20
449.752600
70
0
0
VERTEX
8
Stencil Cut
10
119.620788
20
451.192266
70
0
0
VERTEX
8
Stencil Cut
10
120.664120
20
452.476110
70
0
0
VERTEX
8
Stencil Cut
10
121.897157
20
453.526220
70
0
0
VERTEX
8
Stencil Cut
10
123.238590
20
454.264685
70
0
0
VERTEX
8
Stencil Cut
10
125.237182
20
454.854101
70
0
0
VERTEX
8
Stencil Cut
10
127.520320
20
455.050573
70
0
0
VERTEX
8
Stencil Cut
10
129.605298
20
454.880354
70
0
0
VERTEX
8
Stencil Cut
10
131.470090
20
454.369695
70
0
0
VERTEX
8
Stencil Cut
10
133.114697
20
453.518599
70
0
0
VERTEX
8
Stencil Cut
10
134.539120
20
452.327063
70
0
0
VERTEX
8
Stencil Cut
10
135.695091
20
450.832350
70
0
0
VERTEX
8
Stencil Cut
10
136.520785
20
449.071722
70
0
0
VERTEX
8
Stencil Cut
10
137.016201
20
447.045180
70
0
0
VERTEX
8
Stencil Cut
10
137.181340
20
444.752722
70
0
0
VERTEX
8
Stencil Cut
10
137.017895
20
442.478048
70
0
0
VERTEX
8
Stencil Cut
10
136.527560
20
440.464208
70
0
0
VERTEX
8
Stencil Cut
10
135.710335
20
438.711202
70
0
0
VERTEX
8
Stencil Cut
10
134.566220
20
437.219030
70
0
0
VERTEX
8
Stencil Cut
10
133.148573
20
436.033422
70
0
0
VERTEX
8
Stencil Cut
10
131.510740
20
435.186559
70
0
0
VERTEX
8
Stencil Cut
10
129.652723
20
434.678442
70
0
0
VERTEX
8
Stencil Cut
10
127.574520
20
434.509069
70
0
0
VERTEX
8
Stencil Cut
10
125.472609
20
434.677595
70
0
0
VERTEX
8
Stencil Cut
10
123.597658
20
435.183172
70
0
0
VERTEX
8
Stencil Cut
10
121.949664
20
436.025801
70
0
0
VERTEX
8
Stencil Cut
10
120.528630
20
437.205481
70
0
0
VERTEX
8
Stencil Cut
10
119.384515
20
438.687491
70
0
0
VERTEX
8
Stencil Cut
10
118.567290
20
440.423560
70
0
0
VERTEX
8
Stencil Cut
10
118.076955
20
442.413687
70
0
0
VERTEX
8
Stencil Cut
10
117.913510
20
444.657873
70
0
0
VERTEX
8
Stencil Cut
10
117.913510
20
444.657873
70
0
0
SEQEND
8
Stencil Cut
0
POLYLINE
8
Stencil Cut
62
7
70
0
10
0.000000
20
0.000000
66
1
0
VERTEX
8
Stencil Cut
10
122.046200
20
444.793371
70
0
0
VERTEX
8
Stencil Cut
10
122.143589
20
443.208044
70
0
0
VERTEX
8
Stencil Cut
10
122.435757
20
441.825964
70
0
0
VERTEX
8
Stencil Cut
10
122.922704
20
440.647131
70
0
0
VERTEX
8
Stencil Cut
10
123.604430
20
439.671545
70
0
0
VERTEX
8
Stencil Cut
10
124.436050
20
438.912756
70
0
0
VERTEX
8
Stencil Cut
10
125.372680
20
438.370764
70
0
0
VERTEX
8
Stencil Cut
10
126.414320
20
438.045568
70
0
0
VERTEX
8
Stencil Cut
10
127.560970
20
437.937170
70
0
0
VERTEX
8
Stencil Cut
10
128.705931
20
438.044722
70
0
0
VERTEX
8
Stencil Cut
10
129.742492
20
438.367376
70
0
0
VERTEX
8
Stencil Cut
10
130.670656
20
438.905134
70
0
0
VERTEX
8
Stencil Cut
10
131.490420
20
439.657995
70
0
0
VERTEX
8
Stencil Cut
10
132.166218
20
440.632734
70
0
0
VERTEX
8
Stencil Cut
10
132.648930
20
441.822576
70
0
0
VERTEX
8
Stencil Cut
10
132.938558
20
443.227522
70
0
0
VERTEX
8
Stencil Cut
10
133.035100
20
444.847570
70
0
0
VERTEX
8
Stencil Cut
10
132.941098
20
446.446447
70
0
0
VERTEX
8
Stencil Cut
10
132.659092
20
447.828527
70
0
0
VERTEX
8
Stencil Cut
10
132.189083
20
448.993811
70
0
0
VERTEX
8
Stencil Cut
10
131.531070
20
449.942297
70
0
0
VERTEX
8
Stencil Cut
10
130.724009
20
450.677374
70
0
0
VERTEX
8
Stencil Cut
10
129.793305
20
451.202429
70
0
0
VERTEX
8
Stencil Cut
10
128.738959
20
451.517462
70
0
0
VERTEX
8
Stencil Cut
10
127.560970
20
451.622473
70
0
0
VERTEX
8
Stencil Cut
10
126.381292
20
451.515768
70
0
0
VERTEX
8
Stencil Cut
10
125.321867
20
451.195654
70
0
0
VERTEX
8
Stencil Cut
10
124.382697
20
450.662130
70
0
0
VERTEX
8
Stencil Cut
10
123.563780
20
449.915197
70
0
0
VERTEX
8
Stencil Cut
10
122.899839
20
448.959936
70
0
0
VERTEX
8
Stencil Cut
10
122.425595
20
447.787878
70
0
0
VERTEX
8
Stencil Cut
10
122.141049
20
446.399023
70
0
0
VERTEX
8
Stencil Cut
10
122.046200
20
444.793371
70
0
0
VERTEX
8
Stencil Cut
10
122.046200
20
444.793371
70
0
0
SEQEND
8
Stencil Cut
0
POLYLINE
8
Stencil Cut
62
7
70
0
10
0.000000
20
0.000000
66
1
0
VERTEX
8
Stencil Cut
10
177.208560
20
442.151159
70
0
0
VERTEX
8
Stencil Cut
10
181.097350
20
440.918127
70
0
0
VERTEX
8
Stencil Cut
10
180.575681
20
439.396315
70
0
0
VERTEX
8
Stencil Cut
10
179.904965
20
438.082831
70
0
0
VERTEX
8
Stencil Cut
10
179.085201
20
436.977675
70
0
0
VERTEX
8
Stencil Cut
10
178.116390
20
436.080847
70
0
0
VERTEX
8
Stencil Cut
10
177.009541
20
435.393194
70
0
0
VERTEX
8
Stencil Cut
10
175.762112
20
434.902013
70
0
0
VERTEX
8
Stencil Cut
10
174.374106
20
434.607305
70
0
0
VERTEX
8
Stencil Cut
10
172.845520
20
434.509069
70
0
0
VERTEX
8
Stencil Cut
10
170.955323
20
434.677595
70
0
0
VERTEX
8
Stencil Cut
10
169.241273
20
435.183172
70
0
0
VERTEX
8
Stencil Cut
10
167.703368
20
436.025801
70
0
0
VERTEX
8
Stencil Cut
10
166.341610
20
437.205481
70
0
0
VERTEX
8
Stencil Cut
10
165.227140
20
438.684103
70
0
0
VERTEX
8
Stencil Cut
10
164.431090
20
440.410010
70
0
0
VERTEX
8
Stencil Cut
10
163.953460
20
442.383200
70
0
0
VERTEX
8
Stencil Cut
10
163.794250
20
444.603674
70
0
0
VERTEX
8
Stencil Cut
10
163.954307
20
446.944403
70
0
0
VERTEX
8
Stencil Cut
10
164.434478
20
449.007360
70
0
0
VERTEX
8
Stencil Cut
10
165.234762
20
450.792547
70
0
0
VERTEX
8
Stencil Cut
10
166.355160
20
452.299963
70
0
0
VERTEX
8
Stencil Cut
10
167.736396
20
453.503355
70
0
0
VERTEX
8
Stencil Cut
10
169.319185
20
454.362920
70
0
0
VERTEX
8
Stencil Cut
10
171.103526
20
454.878660
70
0
0
VERTEX
8
Stencil Cut
10
173.089420
20
455.050573
70
0
0
VERTEX
8
Stencil Cut
10
174.826333
20
454.915922
70
0
0
VERTEX
8
Stencil Cut
10
176.392180
20
454.511968
70
0
0
VERTEX
8
Stencil Cut
10
177.786963
20
453.838712
70
0
0
VERTEX
8
Stencil Cut
10
179.010680
20
452.896154
70
0
0
VERTEX
8
Stencil Cut
10
179.645827
20
452.189871
70
0
0
VERTEX
8
Stencil Cut
10
180.196287
20
451.344702
70
0
0
VERTEX
8
Stencil Cut
10
181.043150
20
449.237707
70
0
0
VERTEX
8
Stencil Cut
10
177.073060
20
448.289221
70
0
0
VERTEX
8
Stencil Cut
10
176.527677
20
449.671301
70
0
0
VERTEX
8
Stencil Cut
10
175.596130
20
450.728186
70
0
0
VERTEX
8
Stencil Cut
10
174.363100
20
451.398901
70
0
0
VERTEX
8
Stencil Cut
10
172.886170
20
451.622473
70
0
0
VERTEX
8
Stencil Cut
10
171.833519
20
451.523390
70
0
0
VERTEX
8
Stencil Cut
10
170.884185
20
451.226141
70
0
0
VERTEX
8
Stencil Cut
10
170.038169
20
450.730727
70
0
0
VERTEX
8
Stencil Cut
10
169.295470
20
450.037146
70
0
0
VERTEX
8
Stencil Cut
10
168.696738
20
449.121687
70
0
0
VERTEX
8
Stencil Cut
10
168.269072
20
447.960638
70
0
0
VERTEX
8
Stencil Cut
10
168.012473
20
446.553999
70
0
0
VERTEX
8
Stencil Cut
10
167.926940
20
444.901770
70
0
0
VERTEX
8
Stencil Cut
10
168.011626
20
443.153845
70
0
0
VERTEX
8
Stencil Cut
10
168.265685
20
441.676916
70
0
0
VERTEX
8
Stencil Cut
10
168.689116
20
440.470984
70
0
0
VERTEX
8
Stencil Cut
10
169.281920
20
439.536047
70
0
0
VERTEX
8
Stencil Cut
10
170.010222
20
438.836538
70
0
0
VERTEX
8
Stencil Cut
10
170.840148
20
438.336889
70
0
0
VERTEX
8
Stencil Cut
10
171.771697
20
438.037100
70
0
0
VERTEX
8
Stencil Cut
10
172.804870
20
437.937170
70
0
0
VERTEX
8
Stencil Cut
10
174.291963
20
438.191229
70
0
0
VERTEX
8
Stencil Cut
10
175.555480
20
438.953405
70
0
0
VERTEX
8
Stencil Cut
10
176.090696
20
439.534353
70
0
0
VERTEX
8
Stencil Cut
10
176.544615
20
440.260962
70
0
0
VERTEX
8
Stencil Cut
10
177.208560
20
442.151159
70
0
0
VERTEX
8
Stencil Cut
10
177.208560
20
442.151159
70
0
0
SEQEND
8
Stencil Cut
0
POLYLINE
8
Stencil Cut
62
7
70
0
10
0.000000
20
0.000000
66
1
0
VERTEX
8
Stencil Cut
10
209.553040
20
434.847815
70
0
0
VERTEX
8
Stencil Cut
10
209.553040
20
454.711828
70
0
0
VERTEX
8
Stencil Cut
10
213.563780
20
454.711828
70
0
0
VERTEX
8
Stencil Cut
10
213.563780
20
445.890905
70
0
0
VERTEX
8
Stencil Cut
10
221.666560
20
454.711828
70
0
0
VERTEX
8
Stencil Cut
10
227.059390
20
454.711828
70
0
0
VERTEX
8
Stencil Cut
10
219.579900
20
446.974890
70
0
0
VERTEX
8
Stencil Cut
10
227.465880
20
434.847815
70
0
0
VERTEX
8
Stencil Cut
10
222.276310
20
434.847815
70
0
0
VERTEX
8
Stencil Cut
10
216.815730
20
444.170080
70
0
0
VERTEX
8
Stencil Cut
10
213.563780
20
440.850378
70
0
0
VERTEX
8
Stencil Cut
10
213.563780
20
434.847815
70
0
0
VERTEX
8
Stencil Cut
10
209.553040
20
434.847815
70
0
0
SEQEND
8
Stencil Cut
0
POLYLINE
8
Stencil Cut
62
7
70
0
10
0.000000
20
0.000000
66
1
0
VERTEX
8
Stencil Cut
10
272.411680
20
434.847815
70
0
0
VERTEX
8
Stencil Cut
10
268.048650
20
434.847815
70
0
0
VERTEX
8
Stencil Cut
10
266.314270
20
439.359900
70
0
0
VERTEX
8
Stencil Cut
10
258.374080
20
439.359900
70
0
0
VERTEX
8
Stencil Cut
10
256.734560
20
434.847815
70
0
0
VERTEX
8
Stencil Cut
10
252.479920
20
434.847815
70
0
0
VERTEX
8
Stencil Cut
10
260.216860
20
454.711828
70
0
0
VERTEX
8
Stencil Cut
10
264.457950
20
454.711828
70
0
0
VERTEX
8
Stencil Cut
10
272.411680
20
434.847815
70
0
0
SEQEND
8
Stencil Cut
0
POLYLINE
8
Stencil Cut
62
7
70
0
10
0.000000
20
0.000000
66
1
0
VERTEX
8
Stencil Cut
10
265.027040
20
442.706701
70
0
0
VERTEX
8
Stencil Cut
10
262.289980
20
450.077795
70
0
0
VERTEX
8
Stencil Cut
10
259.607120
20
442.706701
70
0
0
VERTEX
8
Stencil Cut
10
265.027040
20
442.706701
70
0
0
SEQEND
8
Stencil Cut
0
POLYLINE
8
Stencil Cut
62
7
70
0
10
0.000000
20
0.000000
66
1
0
VERTEX
8
Stencil Cut
10
299.539490
20
434.847815
70
0
0
VERTEX
8
Stencil Cut
10
299.539490
20
454.711828
70
0
0
VERTEX
8
Stencil Cut
10
303.441830
20
454.711828
70
0
0
VERTEX
8
Stencil Cut
10
311.571720
20
441.446569
70
0
0
VERTEX
8
Stencil Cut
10
311.571720
20
454.711828
70
0
0
VERTEX
8
Stencil Cut
10
315.297910
20
454.711828
70
0
0
VERTEX
8
Stencil Cut
10
315.297910
20
434.847815
70
0
0
VERTEX
8
Stencil Cut
10
311.273620
20
434.847815
70
0
0
VERTEX
8
Stencil Cut
10
303.265690
20
447.801428
70
0
0
VERTEX
8
Stencil Cut
10
303.265690
20
434.847815
70
0
0
VERTEX
8
Stencil Cut
10
299.539490
20
434.847815
70
0
0
SEQEND
8
Stencil Cut
0
POLYLINE
8
Stencil Cut
62
7
70
0
10
0.000000
20
0.000000
66
1
0
VERTEX
8
Stencil Cut
10
350.332030
20
434.847815
70
0
0
VERTEX
8
Stencil Cut
10
343.231930
20
454.711828
70
0
0
VERTEX
8
Stencil Cut
10
347.581420
20
454.711828
70
0
0
VERTEX
8
Stencil Cut
10
352.608400
20
440.010290
70
0
0
VERTEX
8
Stencil Cut
10
357.472780
20
454.711828
70
0
0
VERTEX
8
Stencil Cut
10
361.727420
20
454.711828
70
0
0
VERTEX
8
Stencil Cut
10
354.613770
20
434.847815
70
0
0
VERTEX
8
Stencil Cut
10
350.332030
20
434.847815
70
0
0
SEQEND
8
Stencil Cut
0
POLYLINE
8
Stencil Cut
62
7
70
0
10
0.000000
20
0.000000
66
1
0
VERTEX
8
Stencil Cut
10
389.512390
20
434.847815
70
0
0
VERTEX
8
Stencil Cut
10
389.512390
20
454.711828
70
0
0
VERTEX
8
Stencil Cut
10
393.523130
20
454.711828
70
0
0
VERTEX
8
Stencil Cut
10
393.523130
20
446.893591
70
0
0
VERTEX
8
Stencil Cut
10
401.382020
20
446.893591
70
0
0
VERTEX
8
Stencil Cut
10
401.382020
20
454.711828
70
0
0
VERTEX
8
Stencil Cut
10
405.392760
20
454.711828
70
0
0
VERTEX
8
Stencil Cut
10
405.392760
20
434.847815
70
0
0
VERTEX
8
Stencil Cut
10
401.382020
20
434.847815
70
0
0
VERTEX
8
Stencil Cut
10
401.382020
20
443.533239
70
0
0
VERTEX
8
Stencil Cut
10
393.523130
20
443.533239
70
0
0
VERTEX
8
Stencil Cut
10
393.523130
20
434.847815
70
0
0
VERTEX
8
Stencil Cut
10
389.512390
20
434.847815
70
0
0
SEQEND
8
Stencil Cut
0
POLYLINE
8
Stencil Cut
62
7
70
0
10
0.000000
20
0.000000
66
1
0
VERTEX
8
Stencil Cut
10
452.411680
20
434.847815
70
0
0
VERTEX
8
Stencil Cut
10
448.048650
20
434.847815
70
0
0
VERTEX
8
Stencil Cut
10
446.314270
20
439.359900
70
0
0
VERTEX
8
Stencil Cut
10
438.374080
20
439.359900
70
0
0
VERTEX
8
Stencil Cut
10
436.734560
20
434.847815
70
0
0
VERTEX
8
Stencil Cut
10
432.479920
20
434.847815
70
0
0
VERTEX
8
Stencil Cut
10
440.216860
20
454.711828
70
0
0
VERTEX
8
Stencil Cut
10
444.457950
20
454.711828
70
0
0
VERTEX
8
Stencil Cut
10
452.411680
20
434.847815
70
0
0
SEQEND
8
Stencil Cut
0
POLYLINE
8
Stencil Cut
62
7
70
0
10
0.000000
20
0.000000
66
1
0
VERTEX
8
Stencil Cut
10
445.027040
20
442.706701
70
0
0
VERTEX
8
Stencil Cut
10
442.289980
20
450.077795
70
0
0
VERTEX
8
Stencil Cut
10
439.607120
20
442.706701
70
0
0
VERTEX
8
Stencil Cut
10
445.027040
20
442.706701
70
0
0
SEQEND
8
Stencil Cut
0
POLYLINE
8
Stencil Cut
62
7
70
0
10
0.000000
20
0.000000
66
1
0
VERTEX
8
Stencil Cut
10
437.669490
20
455.850012
70
0
0
VERTEX
8
Stencil Cut
10
437.669490
20
459.115515
70
0
0
VERTEX
8
Stencil Cut
10
440.935000
20
459.115515
70
0
0
VERTEX
8
Stencil Cut
10
440.935000
20
455.850012
70
0
0
VERTEX
8
Stencil Cut
10
437.669490
20
455.850012
70
0
0
SEQEND
8
Stencil Cut
0
POLYLINE
8
Stencil Cut
62
7
70
0
10
0.000000
20
0.000000
66
1
0
VERTEX
8
Stencil Cut
10
443.495910
20
455.850012
70
0
0
VERTEX
8
Stencil Cut
10
443.495910
20
459.115515
70
0
0
VERTEX
8
Stencil Cut
10
446.774960
20
459.115515
70
0
0
VERTEX
8
Stencil Cut
10
446.774960
20
455.850012
70
0
0
VERTEX
8
Stencil Cut
10
443.495910
20
455.850012
70
0
0
SEQEND
8
Stencil Cut
0
POLYLINE
8
Stencil Cut
62
7
70
0
10
0.000000
20
0.000000
66
1
0
VERTEX
8
Stencil Cut
10
479.512390
20
434.847815
70
0
0
VERTEX
8
Stencil Cut
10
479.512390
20
454.711828
70
0
0
VERTEX
8
Stencil Cut
10
487.953920
20
454.711828
70
0
0
VERTEX
8
Stencil Cut
10
490.701140
20
454.576330
70
0
0
VERTEX
8
Stencil Cut
10
492.574400
20
454.169836
70
0
0
VERTEX
8
Stencil Cut
10
493.878570
20
453.431372
70
0
0
VERTEX
8
Stencil Cut
10
494.891420
20
452.272863
70
0
0
VERTEX
8
Stencil Cut
10
495.541812
20
450.806097
70
0
0
VERTEX
8
Stencil Cut
10
495.758610
20
449.142859
70
0
0
VERTEX
8
Stencil Cut
10
495.676464
20
448.073271
70
0
0
VERTEX
8
Stencil Cut
10
495.430025
20
447.100226
70
0
0
VERTEX
8
Stencil Cut
10
495.019294
20
446.223723
70
0
0
VERTEX
8
Stencil Cut
10
494.444270
20
445.443762
70
0
0
VERTEX
8
Stencil Cut
10
493.705806
20
444.785750
70
0
0
VERTEX
8
Stencil Cut
10
492.804745
20
444.261541
70
0
0
VERTEX
8
Stencil Cut
10
491.741086
20
443.871138
70
0
0
VERTEX
8
Stencil Cut
10
490.514830
20
443.614538
70
0
0
VERTEX
8
Stencil Cut
10
491.700437
20
442.818487
70
0
0
VERTEX
8
Stencil Cut
10
492.655700
20
441.947912
70
0
0
VERTEX
8
Stencil Cut
10
493.655000
20
440.687780
70
0
0
VERTEX
8
Stencil Cut
10
494.945620
20
438.723059
70
0
0
VERTEX
8
Stencil Cut
10
497.371030
20
434.847815
70
0
0
VERTEX
8
Stencil Cut
10
492.574400
20
434.847815
70
0
0
VERTEX
8
Stencil Cut
10
489.674740
20
439.170202
70
0
0
VERTEX
8
Stencil Cut
10
487.560970
20
442.083410
70
0
0
VERTEX
8
Stencil Cut
10
486.974942
20
442.594915
70
0
0
VERTEX
8
Stencil Cut
10
486.355040
20
442.909948
70
0
0
VERTEX
8
Stencil Cut
10
485.531890
20
443.082708
70
0
0
VERTEX
8
Stencil Cut
10
484.336120
20
443.140295
70
0
0
VERTEX
8
Stencil Cut
10
483.523130
20
443.140295
70
0
0
VERTEX
8
Stencil Cut
10
483.523130
20
434.847815
70
0
0
VERTEX
8
Stencil Cut
10
479.512390
20
434.847815
70
0
0
SEQEND
8
Stencil Cut
0
POLYLINE
8
Stencil Cut
62
7
70
0
10
0.000000
20
0.000000
66
1
0
VERTEX
8
Stencil Cut
10
483.523130
20
446.310949
70
0
0
VERTEX
8
Stencil Cut
10
486.490540
20
446.310949
70
0
0
VERTEX
8
Stencil Cut
10
488.834657
20
446.371923
70
0
0
VERTEX
8
Stencil Cut
10
490.094790
20
446.554846
70
0
0
VERTEX
8
Stencil Cut
10
490.735017
20
446.886816
70
0
0
VERTEX
8
Stencil Cut
10
491.219420
20
447.394934
70
0
0
VERTEX
8
Stencil Cut
10
491.524295
20
448.065649
70
0
0
VERTEX
8
Stencil Cut
10
491.625920
20
448.885412
70
0
0
VERTEX
8
Stencil Cut
10
491.490420
20
449.789862
70
0
0
VERTEX
8
Stencil Cut
10
491.083920
20
450.497839
70
0
0
VERTEX
8
Stencil Cut
10
490.443695
20
451.005957
70
0
0
VERTEX
8
Stencil Cut
10
489.579900
20
451.283728
70
0
0
VERTEX
8
Stencil Cut
10
486.653140
20
451.351478
70
0
0
VERTEX
8
Stencil Cut
10
483.523130
20
451.351478
70
0
0
VERTEX
8
Stencil Cut
10
483.523130
20
446.310949
70
0
0
SEQEND
8
Stencil Cut
0
POLYLINE
8
Stencil Cut
62
7
70
0
10
0.000000
20
0.000000
66
1
0
VERTEX
8
Stencil Cut
10
29.248169
20
396.311071
70
0
0
VERTEX
8
Stencil Cut
10
33.150513
20
396.690466
70
0
0
VERTEX
8
Stencil Cut
10
33.682343
20
394.986578
70
0
0
VERTEX
8
Stencil Cut
10
34.082909
20
394.330259
70
0
0
VERTEX
8
Stencil Cut
10
34.573242
20
393.804358
70
0
0
VERTEX
8
Stencil Cut
10
35.843536
20
393.113318
70
0
0
VERTEX
8
Stencil Cut
10
37.486450
20
392.882971
70
0
0
VERTEX
8
Stencil Cut
10
39.183563
20
393.086218
70
0
0
VERTEX
8
Stencil Cut
10
40.399658
20
393.695959
70
0
0
VERTEX
8
Stencil Cut
10
41.141510
20
394.590246
70
0
0
VERTEX
8
Stencil Cut
10
41.388794
20
395.620031
70
0
0
VERTEX
8
Stencil Cut
10
41.283783
20
396.270422
70
0
0
VERTEX
8
Stencil Cut
10
40.968750
20
396.812414
70
0
0
VERTEX
8
Stencil Cut
10
40.406433
20
397.279882
70
0
0
VERTEX
8
Stencil Cut
10
39.532471
20
397.679602
70
0
0
VERTEX
8
Stencil Cut
10
36.321167
20
398.546789
70
0
0
VERTEX
8
Stencil Cut
10
33.577331
20
399.437689
70
0
0
VERTEX
8
Stencil Cut
10
32.566177
20
399.951735
70
0
0
VERTEX
8
Stencil Cut
10
31.795532
20
400.511511
70
0
0
VERTEX
8
Stencil Cut
10
30.995247
20
401.376158
70
0
0
VERTEX
8
Stencil Cut
10
30.423615
20
402.330572
70
0
0
VERTEX
8
Stencil Cut
10
30.080635
20
403.374754
70
0
0
VERTEX
8
Stencil Cut
10
29.966309
20
404.508703
70
0
0
VERTEX
8
Stencil Cut
10
30.179718
20
405.975469
70
0
0
VERTEX
8
Stencil Cut
10
30.819946
20
407.340612
70
0
0
VERTEX
8
Stencil Cut
10
31.873444
20
408.509283
70
0
0
VERTEX
8
Stencil Cut
10
33.299561
20
409.359533
70
0
0
VERTEX
8
Stencil Cut
10
35.091522
20
409.877813
70
0
0
VERTEX
8
Stencil Cut
10
37.215454
20
410.050573
70
0
0
VERTEX
8
Stencil Cut
10
38.969307
20
409.948103
70
0
0
VERTEX
8
Stencil Cut
10
40.491119
20
409.640691
70
0
0
VERTEX
8
Stencil Cut
10
41.780891
20
409.128340
70
0
0
VERTEX
8
Stencil Cut
10
42.838623
20
408.411047
70
0
0
VERTEX
8
Stencil Cut
10
43.674477
20
407.522688
70
0
0
VERTEX
8
Stencil Cut
10
44.285065
20
406.497137
70
0
0
VERTEX
8
Stencil Cut
10
44.670387
20
405.334395
70
0
0
VERTEX
8
Stencil Cut
10
44.830444
20
404.034460
70
0
0
VERTEX
8
Stencil Cut
10
40.819702
20
403.858313
70
0
0
VERTEX
8
Stencil Cut
10
40.413208
20
405.172644
70
0
0
VERTEX
8
Stencil Cut
10
39.708618
20
406.053381
70
0
0
VERTEX
8
Stencil Cut
10
38.655121
20
406.561499
70
0
0
VERTEX
8
Stencil Cut
10
37.174805
20
406.730871
70
0
0
VERTEX
8
Stencil Cut
10
35.616577
20
406.551336
70
0
0
VERTEX
8
Stencil Cut
10
34.437744
20
406.012732
70
0
0
VERTEX
8
Stencil Cut
10
33.960113
20
405.474127
70
0
0
VERTEX
8
Stencil Cut
10
33.800903
20
404.779699
70
0
0
VERTEX
8
Stencil Cut
10
33.949951
20
404.125921
70
0
0
VERTEX
8
Stencil Cut
10
34.397095
20
403.573767
70
0
0
VERTEX
8
Stencil Cut
10
35.697876
20
402.923376
70
0
0
VERTEX
8
Stencil Cut
10
38.082642
20
402.245886
70
0
0
VERTEX
8
Stencil Cut
10
40.626617
20
401.541296
70
0
0
VERTEX
8
Stencil Cut
10
42.405029
20
400.809607
70
0
0
VERTEX
8
Stencil Cut
10
43.658386
20
399.939032
70
0
0
VERTEX
8
Stencil Cut
10
44.600098
20
398.790686
70
0
0
VERTEX
8
Stencil Cut
10
45.199677
20
397.364569
70
0
0
VERTEX
8
Stencil Cut
10
45.399536
20
395.633581
70
0
0
VERTEX
8
Stencil Cut
10
45.162415
20
393.980505
70
0
0
VERTEX
8
Stencil Cut
10
44.451050
20
392.435827
70
0
0
VERTEX
8
Stencil Cut
10
43.306091
20
391.135046
70
0
0
VERTEX
8
Stencil Cut
10
41.768188
20
390.213659
70
0
0
VERTEX
8
Stencil Cut
10
39.820404
20
389.675055
70
0
0
VERTEX
8
Stencil Cut
10
37.445801
20
389.495520
70
0
0
VERTEX
8
Stencil Cut
10
35.671623
20
389.603918
70
0
0
VERTEX
8
Stencil Cut
10
34.115936
20
389.929114
70
0
0
VERTEX
8
Stencil Cut
10
32.778740
20
390.471106
70
0
0
VERTEX
8
Stencil Cut
10
31.660034
20
391.229895
70
0
0
VERTEX
8
Stencil Cut
10
30.752197
20
392.202940
70
0
0
VERTEX
8
Stencil Cut
10
30.047607
20
393.374151
70
0
0
VERTEX
8
Stencil Cut
10
29.546265
20
394.743528
70
0
0
VERTEX
8
Stencil Cut
10
29.248169
20
396.311071
70
0
0
VERTEX
8
Stencil Cut
10
29.248169
20
396.311071
70
0
0
SEQEND
8
Stencil Cut
0
POLYLINE
8
Stencil Cut
62
7
70
0
10
0.000000
20
0.000000
66
1
0
VERTEX
8
Stencil Cut
10
76.070618
20
389.847815
70
0
0
VERTEX
8
Stencil Cut
10
76.070618
20
409.711828
70
0
0
VERTEX
8
Stencil Cut
10
89.688171
20
409.711828
70
0
0
VERTEX
8
Stencil Cut
10
89.688171
20
406.351477
70
0
0
VERTEX
8
Stencil Cut
10
80.081360
20
406.351477
70
0
0
VERTEX
8
Stencil Cut
10
80.081360
20
401.649694
70
0
0
VERTEX
8
Stencil Cut
10
88.373840
20
401.649694
70
0
0
VERTEX
8
Stencil Cut
10
88.373840
20
398.289343
70
0
0
VERTEX
8
Stencil Cut
10
80.081360
20
398.289343
70
0
0
VERTEX
8
Stencil Cut
10
80.081360
20
389.847815
70
0
0
VERTEX
8
Stencil Cut
10
76.070618
20
389.847815
70
0
0
SEQEND
8
Stencil Cut
0
POLYLINE
8
Stencil Cut
62
7
70
0
10
0.000000
20
0.000000
66
1
0
VERTEX
8
Stencil Cut
10
120.264400
20
389.847815
70
0
0
VERTEX
8
Stencil Cut
10
120.264400
20
409.711828
70
0
0
VERTEX
8
Stencil Cut
10
134.993040
20
409.711828
70
0
0
VERTEX
8
Stencil Cut
10
134.993040
20
406.351477
70
0
0
VERTEX
8
Stencil Cut
10
124.275150
20
406.351477
70
0
0
VERTEX
8
Stencil Cut
10
124.275150
20
401.947790
70
0
0
VERTEX
8
Stencil Cut
10
134.247800
20
401.947790
70
0
0
VERTEX
8
Stencil Cut
10
134.247800
20
398.600988
70
0
0
VERTEX
8
Stencil Cut
10
124.275150
20
398.600988
70
0
0
VERTEX
8
Stencil Cut
10
124.275150
20
393.194616
70
0
0
VERTEX
8
Stencil Cut
10
135.372440
20
393.194616
70
0
0
VERTEX
8
Stencil Cut
10
135.372440
20
389.847815
70
0
0
VERTEX
8
Stencil Cut
10
120.264400
20
389.847815
70
0
0
SEQEND
8
Stencil Cut
0
POLYLINE
8
Stencil Cut
62
7
70
0
10
0.000000
20
0.000000
66
1
0
VERTEX
8
Stencil Cut
10
162.906740
20
389.847815
70
0
0
VERTEX
8
Stencil Cut
10
162.906740
20
409.711828
70
0
0
VERTEX
8
Stencil Cut
10
168.909300
20
409.711828
70
0
0
VERTEX
8
Stencil Cut
10
172.513550
20
396.162024
70
0
0
VERTEX
8
Stencil Cut
10
176.077150
20
409.711828
70
0
0
VERTEX
8
Stencil Cut
10
182.093260
20
409.711828
70
0
0
VERTEX
8
Stencil Cut
10
182.093260
20
389.847815
70
0
0
VERTEX
8
Stencil Cut
10
178.367070
20
389.847815
70
0
0
VERTEX
8
Stencil Cut
10
178.367070
20
405.484289
70
0
0
VERTEX
8
Stencil Cut
10
174.424070
20
389.847815
70
0
0
VERTEX
8
Stencil Cut
10
170.562380
20
389.847815
70
0
0
VERTEX
8
Stencil Cut
10
166.632930
20
405.484289
70
0
0
VERTEX
8
Stencil Cut
10
166.632930
20
389.847815
70
0
0
VERTEX
8
Stencil Cut
10
162.906740
20
389.847815
70
0
0
SEQEND
8
Stencil Cut
0
POLYLINE
8
Stencil Cut
62
7
70
0
10
0.000000
20
0.000000
66
1
0
VERTEX
8
Stencil Cut
10
215.542050
20
389.847815
70
0
0
VERTEX
8
Stencil Cut
10
215.542050
20
409.711828
70
0
0
VERTEX
8
Stencil Cut
10
219.552800
20
409.711828
70
0
0
VERTEX
8
Stencil Cut
10
219.552800
20
389.847815
70
0
0
VERTEX
8
Stencil Cut
10
215.542050
20
389.847815
70
0
0
SEQEND
8
Stencil Cut
0
POLYLINE
8
Stencil Cut
62
7
70
0
10
0.000000
20
0.000000
66
1
0
VERTEX
8
Stencil Cut
10
254.248170
20
396.311071
70
0
0
VERTEX
8
Stencil Cut
10
258.150510
20
396.690466
70
0
0
VERTEX
8
Stencil Cut
10
258.682343
20
394.986578
70
0
0
VERTEX
8
Stencil Cut
10
259.082908
20
394.330259
70
0
0
VERTEX
8
Stencil Cut
10
259.573240
20
393.804358
70
0
0
VERTEX
8
Stencil Cut
10
260.843538
20
393.113318
70
0
0
VERTEX
8
Stencil Cut
10
262.486450
20
392.882971
70
0
0
VERTEX
8
Stencil Cut
10
264.183562
20
393.086218
70
0
0
VERTEX
8
Stencil Cut
10
265.399660
20
393.695959
70
0
0
VERTEX
8
Stencil Cut
10
266.141507
20
394.590246
70
0
0
VERTEX
8
Stencil Cut
10
266.388790
20
395.620031
70
0
0
VERTEX
8
Stencil Cut
10
266.283780
20
396.270422
70
0
0
VERTEX
8
Stencil Cut
10
265.968750
20
396.812414
70
0
0
VERTEX
8
Stencil Cut
10
265.406435
20
397.279882
70
0
0
VERTEX
8
Stencil Cut
10
264.532470
20
397.679602
70
0
0
VERTEX
8
Stencil Cut
10
261.321170
20
398.546789
70
0
0
VERTEX
8
Stencil Cut
10
258.577330
20
399.437689
70
0
0
VERTEX
8
Stencil Cut
10
257.566175
20
399.951735
70
0
0
VERTEX
8
Stencil Cut
10
256.795530
20
400.511511
70
0
0
VERTEX
8
Stencil Cut
10
255.995246
20
401.376158
70
0
0
VERTEX
8
Stencil Cut
10
255.423615
20
402.330572
70
0
0
VERTEX
8
Stencil Cut
10
255.080636
20
403.374754
70
0
0
VERTEX
8
Stencil Cut
10
254.966310
20
404.508703
70
0
0
VERTEX
8
Stencil Cut
10
255.179720
20
405.975469
70
0
0
VERTEX
8
Stencil Cut
10
255.819950
20
407.340612
70
0
0
VERTEX
8
Stencil Cut
10
256.873443
20
408.509283
70
0
0
VERTEX
8
Stencil Cut
10
258.299560
20
409.359533
70
0
0
VERTEX
8
Stencil Cut
10
260.091522
20
409.877813
70
0
0
VERTEX
8
Stencil Cut
10
262.215450
20
410.050573
70
0
0
VERTEX
8
Stencil Cut
10
263.969304
20
409.948103
70
0
0
VERTEX
8
Stencil Cut
10
265.491117
20
409.640691
70
0
0
VERTEX
8
Stencil Cut
10
266.780889
20
409.128340
70
0
0
VERTEX
8
Stencil Cut
10
267.838620
20
408.411047
70
0
0
VERTEX
8
Stencil Cut
10
268.674476
20
407.522688
70
0
0
VERTEX
8
Stencil Cut
10
269.285065
20
406.497137
70
0
0
VERTEX
8
Stencil Cut
10
269.670386
20
405.334395
70
0
0
VERTEX
8
Stencil Cut
10
269.830440
20
404.034460
70
0
0
VERTEX
8
Stencil Cut
10
265.819700
20
403.858313
70
0
0
VERTEX
8
Stencil Cut
10
265.413210
20
405.172644
70
0
0
VERTEX
8
Stencil Cut
10
264.708620
20
406.053381
70
0
0
VERTEX
8
Stencil Cut
10
263.655120
20
406.561499
70
0
0
VERTEX
8
Stencil Cut
10
262.174800
20
406.730871
70
0
0
VERTEX
8
Stencil Cut
10
260.616575
20
406.551336
70
0
0
VERTEX
8
Stencil Cut
10
259.437740
20
406.012732
70
0
0
VERTEX
8
Stencil Cut
10
258.960110
20
405.474127
70
0
0
VERTEX
8
Stencil Cut
10
258.800900
20
404.779699
70
0
0
VERTEX
8
Stencil Cut
10
258.949948
20
404.125921
70
0
0
VERTEX
8
Stencil Cut
10
259.397090
20
403.573767
70
0
0
VERTEX
8
Stencil Cut
10
260.697872
20
402.923376
70
0
0
VERTEX
8
Stencil Cut
10
263.082640
20
402.245886
70
0
0
VERTEX
8
Stencil Cut
10
265.626617
20
401.541296
70
0
0
VERTEX
8
Stencil Cut
10
267.405030
20
400.809607
70
0
0
VERTEX
8
Stencil Cut
10
268.658387
20
399.939032
70
0
0
VERTEX
8
Stencil Cut
10
269.600100
20
398.790686
70
0
0
VERTEX
8
Stencil Cut
10
270.199680
20
397.364569
70
0
0
VERTEX
8
Stencil Cut
10
270.399540
20
395.633581
70
0
0
VERTEX
8
Stencil Cut
10
270.162417
20
393.980505
70
0
0
VERTEX
8
Stencil Cut
10
269.451050
20
392.435827
70
0
0
VERTEX
8
Stencil Cut
10
268.306090
20
391.135046
70
0
0
VERTEX
8
Stencil Cut
10
266.768190
20
390.213659
70
0
0
VERTEX
8
Stencil Cut
10
264.820402
20
389.675055
70
0
0
VERTEX
8
Stencil Cut
10
262.445800
20
389.495520
70
0
0
VERTEX
8
Stencil Cut
10
260.671624
20
389.603918
70
0
0
VERTEX
8
Stencil Cut
10
259.115937
20
389.929114
70
0
0
VERTEX
8
Stencil Cut
10
257.778739
20
390.471106
70
0
0
VERTEX
8
Stencil Cut
10
256.660030
20
391.229895
70
0
0
VERTEX
8
Stencil Cut
10
255.752194
20
392.202940
70
0
0
VERTEX
8
Stencil Cut
10
255.047605
20
393.374151
70
0
0
VERTEX
8
Stencil Cut
10
254.546264
20
394.743528
70
0
0
VERTEX
8
Stencil Cut
10
254.248170
20
396.311071
70
0
0
VERTEX
8
Stencil Cut
10
254.248170
20
396.311071
70
0
0
SEQEND
8
Stencil Cut
0
POLYLINE
8
Stencil Cut
62
7
70
0
10
0.000000
20
0.000000
66
1
0
VERTEX
8
Stencil Cut
10
305.514950
20
389.847815
70
0
0
VERTEX
8
Stencil Cut
10
305.514950
20
406.351477
70
0
0
VERTEX
8
Stencil Cut
10
299.620790
20
406.351477
70
0
0
VERTEX
8
Stencil Cut
10
299.620790
20
409.711828
70
0
0
VERTEX
8
Stencil Cut
10
315.406310
20
409.711828
70
0
0
VERTEX
8
Stencil Cut
10
315.406310
20
406.351477
70
0
0
VERTEX
8
Stencil Cut
10
309.525700
20
406.351477
70
0
0
VERTEX
8
Stencil Cut
10
309.525700
20
389.847815
70
0
0
VERTEX
8
Stencil Cut
10
305.514950
20
389.847815
70
0
0
SEQEND
8
Stencil Cut
0
POLYLINE
8
Stencil Cut
62
7
70
0
10
0.000000
20
0.000000
66
1
0
VERTEX
8
Stencil Cut
10
350.542050
20
389.847815
70
0
0
VERTEX
8
Stencil Cut
10
350.542050
20
409.711828
70
0
0
VERTEX
8
Stencil Cut
10
354.552800
20
409.711828
70
0
0
VERTEX
8
Stencil Cut
10
354.552800
20
389.847815
70
0
0
VERTEX
8
Stencil Cut
10
350.542050
20
389.847815
70
0
0
SEQEND
8
Stencil Cut
0
POLYLINE
8
Stencil Cut
62
7
70
0
10
0.000000
20
0.000000
66
1
0
VERTEX
8
Stencil Cut
10
387.913510
20
399.657873
70
0
0
VERTEX
8
Stencil Cut
10
388.140470
20
402.449133
70
0
0
VERTEX
8
Stencil Cut
10
388.821350
20
404.752600
70
0
0
VERTEX
8
Stencil Cut
10
389.620787
20
406.192266
70
0
0
VERTEX
8
Stencil Cut
10
390.664120
20
407.476110
70
0
0
VERTEX
8
Stencil Cut
10
391.897157
20
408.526220
70
0
0
VERTEX
8
Stencil Cut
10
393.238590
20
409.264685
70
0
0
VERTEX
8
Stencil Cut
10
395.237183
20
409.854101
70
0
0
VERTEX
8
Stencil Cut
10
397.520320
20
410.050573
70
0
0
VERTEX
8
Stencil Cut
10
399.605297
20
409.880354
70
0
0
VERTEX
8
Stencil Cut
10
401.470090
20
409.369695
70
0
0
VERTEX
8
Stencil Cut
10
403.114697
20
408.518599
70
0
0
VERTEX
8
Stencil Cut
10
404.539120
20
407.327063
70
0
0
VERTEX
8
Stencil Cut
10
405.695091
20
405.832350
70
0
0
VERTEX
8
Stencil Cut
10
406.520785
20
404.071722
70
0
0
VERTEX
8
Stencil Cut
10
407.016201
20
402.045180
70
0
0
VERTEX
8
Stencil Cut
10
407.181340
20
399.752722
70
0
0
VERTEX
8
Stencil Cut
10
407.017895
20
397.478048
70
0
0
VERTEX
8
Stencil Cut
10
406.527560
20
395.464208
70
0
0
VERTEX
8
Stencil Cut
10
405.710335
20
393.711202
70
0
0
VERTEX
8
Stencil Cut
10
404.566220
20
392.219030
70
0
0
VERTEX
8
Stencil Cut
10
403.148573
20
391.033422
70
0
0
VERTEX
8
Stencil Cut
10
401.510740
20
390.186559
70
0
0
VERTEX
8
Stencil Cut
10
399.652722
20
389.678442
70
0
0
VERTEX
8
Stencil Cut
10
397.574520
20
389.509069
70
0
0
VERTEX
8
Stencil Cut
10
395.472609
20
389.677595
70
0
0
VERTEX
8
Stencil Cut
10
393.597657
20
390.183172
70
0
0
VERTEX
8
Stencil Cut
10
391.949664
20
391.025801
70
0
0
VERTEX
8
Stencil Cut
10
390.528630
20
392.205481
70
0
0
VERTEX
8
Stencil Cut
10
389.384515
20
393.687491
70
0
0
VERTEX
8
Stencil Cut
10
388.567290
20
395.423560
70
0
0
VERTEX
8
Stencil Cut
10
388.076955
20
397.413687
70
0
0
VERTEX
8
Stencil Cut
10
387.913510
20
399.657873
70
0
0
VERTEX
8
Stencil Cut
10
387.913510
20
399.657873
70
0
0
SEQEND
8
Stencil Cut
0
POLYLINE
8
Stencil Cut
62
7
70
0
10
0.000000
20
0.000000
66
1
0
VERTEX
8
Stencil Cut
10
392.046200
20
399.793371
70
0
0
VERTEX
8
Stencil Cut
10
392.143589
20
398.208044
70
0
0
VERTEX
8
Stencil Cut
10
392.435757
20
396.825964
70
0
0
VERTEX
8
Stencil Cut
10
392.922704
20
395.647131
70
0
0
VERTEX
8
Stencil Cut
10
393.604430
20
394.671545
70
0
0
VERTEX
8
Stencil Cut
10
394.436050
20
393.912756
70
0
0
VERTEX
8
Stencil Cut
10
395.372680
20
393.370764
70
0
0
VERTEX
8
Stencil Cut
10
396.414320
20
393.045568
70
0
0
VERTEX
8
Stencil Cut
10
397.560970
20
392.937170
70
0
0
VERTEX
8
Stencil Cut
10
398.705931
20
393.044722
70
0
0
VERTEX
8
Stencil Cut
10
399.742493
20
393.367376
70
0
0
VERTEX
8
Stencil Cut
10
400.670656
20
393.905134
70
0
0
VERTEX
8
Stencil Cut
10
401.490420
20
394.657995
70
0
0
VERTEX
8
Stencil Cut
10
402.166218
20
395.632734
70
0
0
VERTEX
8
Stencil Cut
10
402.648930
20
396.822576
70
0
0
VERTEX
8
Stencil Cut
10
402.938558
20
398.227522
70
0
0
VERTEX
8
Stencil Cut
10
403.035100
20
399.847570
70
0
0
VERTEX
8
Stencil Cut
10
402.941098
20
401.446447
70
0
0
VERTEX
8
Stencil Cut
10
402.659093
20
402.828527
70
0
0
VERTEX
8
Stencil Cut
10
402.189083
20
403.993811
70
0
0
VERTEX
8
Stencil Cut
10
401.531070
20
404.942297
70
0
0
VERTEX
8
Stencil Cut
10
400.724009
20
405.677374
70
0
0
VERTEX
8
Stencil Cut
10
399.793305
20
406.202429
70
0
0
VERTEX
8
Stencil Cut
10
398.738959
20
406.517462
70
0
0
VERTEX
8
Stencil Cut
10
397.560970
20
406.622473
70
0
0
VERTEX
8
Stencil Cut
10
396.381292
20
406.515768
70
0
0
VERTEX
8
Stencil Cut
10
395.321867
20
406.195654
70
0
0
VERTEX
8
Stencil Cut
10
394.382697
20
405.662130
70
0
0
VERTEX
8
Stencil Cut
10
393.563780
20
404.915197
70
0
0
VERTEX
8
Stencil Cut
10
392.899839
20
403.959936
70
0
0
VERTEX
8
Stencil Cut
10
392.425595
20
402.787878
70
0
0
VERTEX
8
Stencil Cut
10
392.141049
20
401.399023
70
0
0
VERTEX
8
Stencil Cut
10
392.046200
20
399.793371
70
0
0
VERTEX
8
Stencil Cut
10
392.046200
20
399.793371
70
0
0
SEQEND
8
Stencil Cut
0
POLYLINE
8
Stencil Cut
62
7
70
0
10
0.000000
20
0.000000
66
1
0
VERTEX
8
Stencil Cut
10
434.539490
20
389.847815
70
0
0
VERTEX
8
Stencil Cut
10
434.539490
20
409.711828
70
0
0
VERTEX
8
Stencil Cut
10
438.441830
20
409.711828
70
0
0
VERTEX
8
Stencil Cut
10
446.571720
20
396.446569
70
0
0
VERTEX
8
Stencil Cut
10
446.571720
20
409.711828
70
0
0
VERTEX
8
Stencil Cut
10
450.297910
20
409.711828
70
0
0
VERTEX
8
Stencil Cut
10
450.297910
20
389.847815
70
0
0
VERTEX
8
Stencil Cut
10
446.273620
20
389.847815
70
0
0
VERTEX
8
Stencil Cut
10
438.265690
20
402.801428
70
0
0
VERTEX
8
Stencil Cut
10
438.265690
20
389.847815
70
0
0
VERTEX
8
Stencil Cut
10
434.539490
20
389.847815
70
0
0
SEQEND
8
Stencil Cut
0
POLYLINE
8
Stencil Cut
62
7
70
0
10
0.000000
20
0.000000
66
1
0
VERTEX
8
Stencil Cut
10
497.411680
20
389.847815
70
0
0
VERTEX
8
Stencil Cut
10
493.048650
20
389.847815
70
0
0
VERTEX
8
Stencil Cut
10
491.314270
20
394.359900
70
0
0
VERTEX
8
Stencil Cut
10
483.374080
20
394.359900
70
0
0
VERTEX
8
Stencil Cut
10
481.734560
20
389.847815
70
0
0
VERTEX
8
Stencil Cut
10
477.479920
20
389.847815
70
0
0
VERTEX
8
Stencil Cut
10
485.216860
20
409.711828
70
0
0
VERTEX
8
Stencil Cut
10
489.457950
20
409.711828
70
0
0
VERTEX
8
Stencil Cut
10
497.411680
20
389.847815
70
0
0
SEQEND
8
Stencil Cut
0
POLYLINE
8
Stencil Cut
62
7
70
0
10
0.000000
20
0.000000
66
1
0
VERTEX
8
Stencil Cut
10
490.027040
20
397.706701
70
0
0
VERTEX
8
Stencil Cut
10
487.289980
20
405.077795
70
0
0
VERTEX
8
Stencil Cut
10
484.607120
20
397.706701
70
0
0
VERTEX
8
Stencil Cut
10
490.027040
20
397.706701
70
0
0
SEQEND
8
Stencil Cut
0
POLYLINE
8
Stencil Cut
62
7
70
0
10
0.000000
20
0.000000
66
1
0
VERTEX
8
Stencil Cut
10
35.514954
20
344.847810
70
0
0
VERTEX
8
Stencil Cut
10
35.514954
20
361.351480
70
0
0
VERTEX
8
Stencil Cut
10
29.620789
20
361.351480
70
0
0
VERTEX
8
Stencil Cut
10
29.620789
20
364.711830
70
0
0
VERTEX
8
Stencil Cut
10
45.406311
20
364.711830
70
0
0
VERTEX
8
Stencil Cut
10
45.406311
20
361.351480
70
0
0
VERTEX
8
Stencil Cut
10
39.525696
20
361.351480
70
0
0
VERTEX
8
Stencil Cut
10
39.525696
20
344.847810
70
0
0
VERTEX
8
Stencil Cut
10
35.514954
20
344.847810
70
0
0
SEQEND
8
Stencil Cut
0
POLYLINE
8
Stencil Cut
62
7
70
0
10
0.000000
20
0.000000
66
1
0
VERTEX
8
Stencil Cut
10
83.970154
20
364.711830
70
0
0
VERTEX
8
Stencil Cut
10
87.967346
20
364.711830
70
0
0
VERTEX
8
Stencil Cut
10
87.967346
20
352.137610
70
0
0
VERTEX
8
Stencil Cut
10
87.858947
20
349.956093
70
0
0
VERTEX
8
Stencil Cut
10
87.533752
20
348.343660
70
0
0
VERTEX
8
Stencil Cut
10
86.713989
20
346.778660
70
0
0
VERTEX
8
Stencil Cut
10
85.419983
20
345.552400
70
0
0
VERTEX
8
Stencil Cut
10
84.593445
20
345.095943
70
0
0
VERTEX
8
Stencil Cut
10
83.644958
20
344.769902
70
0
0
VERTEX
8
Stencil Cut
10
81.382141
20
344.509070
70
0
0
VERTEX
8
Stencil Cut
10
79.996673
20
344.611541
70
0
0
VERTEX
8
Stencil Cut
10
78.780578
20
344.918952
70
0
0
VERTEX
8
Stencil Cut
10
77.733856
20
345.431306
70
0
0
VERTEX
8
Stencil Cut
10
76.856506
20
346.148600
70
0
0
VERTEX
8
Stencil Cut
10
76.162079
20
347.070831
70
0
0
VERTEX
8
Stencil Cut
10
75.664123
20
348.184455
70
0
0
VERTEX
8
Stencil Cut
10
75.362640
20
349.489471
70
0
0
VERTEX
8
Stencil Cut
10
75.257629
20
350.985880
70
0
0
VERTEX
8
Stencil Cut
10
79.038025
20
351.419470
70
0
0
VERTEX
8
Stencil Cut
10
79.197236
20
349.962863
70
0
0
VERTEX
8
Stencil Cut
10
79.539368
20
349.007600
70
0
0
VERTEX
8
Stencil Cut
10
79.906906
20
348.539287
70
0
0
VERTEX
8
Stencil Cut
10
80.359131
20
348.204778
70
0
0
VERTEX
8
Stencil Cut
10
81.517639
20
347.937170
70
0
0
VERTEX
8
Stencil Cut
10
82.662598
20
348.126868
70
0
0
VERTEX
8
Stencil Cut
10
83.414612
20
348.695960
70
0
0
VERTEX
8
Stencil Cut
10
83.831269
20
349.878180
70
0
0
VERTEX
8
Stencil Cut
10
83.970154
20
351.880160
70
0
0
VERTEX
8
Stencil Cut
10
83.970154
20
364.711830
70
0
0
SEQEND
8
Stencil Cut
0
POLYLINE
8
Stencil Cut
62
7
70
0
10
0.000000
20
0.000000
66
1
0
VERTEX
8
Stencil Cut
10
119.471740
20
364.711830
70
0
0
VERTEX
8
Stencil Cut
10
123.482480
20
364.711830
70
0
0
VERTEX
8
Stencil Cut
10
123.482480
20
353.953280
70
0
0
VERTEX
8
Stencil Cut
10
123.631530
20
350.633580
70
0
0
VERTEX
8
Stencil Cut
10
124.065125
20
349.532660
70
0
0
VERTEX
8
Stencil Cut
10
124.851010
20
348.668860
70
0
0
VERTEX
8
Stencil Cut
10
126.002745
20
348.120093
70
0
0
VERTEX
8
Stencil Cut
10
127.506770
20
347.937170
70
0
0
VERTEX
8
Stencil Cut
10
129.004028
20
348.109930
70
0
0
VERTEX
8
Stencil Cut
10
130.081240
20
348.628210
70
0
0
VERTEX
8
Stencil Cut
10
130.775667
20
349.410712
70
0
0
VERTEX
8
Stencil Cut
10
131.124570
20
350.349040
70
0
0
VERTEX
8
Stencil Cut
10
131.300720
20
353.722940
70
0
0
VERTEX
8
Stencil Cut
10
131.300720
20
364.711830
70
0
0
VERTEX
8
Stencil Cut
10
135.311460
20
364.711830
70
0
0
VERTEX
8
Stencil Cut
10
135.311460
20
354.278480
70
0
0
VERTEX
8
Stencil Cut
10
135.230163
20
351.226385
70
0
0
VERTEX
8
Stencil Cut
10
134.986270
20
349.224400
70
0
0
VERTEX
8
Stencil Cut
10
134.522185
20
347.862645
70
0
0
VERTEX
8
Stencil Cut
10
133.780330
20
346.731240
70
0
0
VERTEX
8
Stencil Cut
10
132.764100
20
345.816625
70
0
0
VERTEX
8
Stencil Cut
10
131.449770
20
345.105260
70
0
0
VERTEX
8
Stencil Cut
10
129.762818
20
344.658118
70
0
0
VERTEX
8
Stencil Cut
10
127.628720
20
344.509070
70
0
0
VERTEX
8
Stencil Cut
10
125.125395
20
344.671667
70
0
0
VERTEX
8
Stencil Cut
10
123.306340
20
345.159460
70
0
0
VERTEX
8
Stencil Cut
10
121.995395
20
345.918250
70
0
0
VERTEX
8
Stencil Cut
10
120.989320
20
346.866740
70
0
0
VERTEX
8
Stencil Cut
10
120.281343
20
347.947333
70
0
0
VERTEX
8
Stencil Cut
10
119.864690
20
349.075350
70
0
0
VERTEX
8
Stencil Cut
10
119.569978
20
351.189122
70
0
0
VERTEX
8
Stencil Cut
10
119.471740
20
354.115880
70
0
0
VERTEX
8
Stencil Cut
10
119.471740
20
364.711830
70
0
0
SEQEND
8
Stencil Cut
0
POLYLINE
8
Stencil Cut
62
7
70
0
10
0.000000
20
0.000000
66
1
0
VERTEX
8
Stencil Cut
10
172.967470
20
352.151160
70
0
0
VERTEX
8
Stencil Cut
10
172.967470
20
355.497960
70
0
0
VERTEX
8
Stencil Cut
10
181.612240
20
355.497960
70
0
0
VERTEX
8
Stencil Cut
10
181.612240
20
347.584880
70
0
0
VERTEX
8
Stencil Cut
10
180.067565
20
346.436530
70
0
0
VERTEX
8
Stencil Cut
10
177.953800
20
345.430460
70
0
0
VERTEX
8
Stencil Cut
10
175.552095
20
344.739418
70
0
0
VERTEX
8
Stencil Cut
10
173.116520
20
344.509070
70
0
0
VERTEX
8
Stencil Cut
10
171.608255
20
344.590369
70
0
0
VERTEX
8
Stencil Cut
10
170.199920
20
344.834265
70
0
0
VERTEX
8
Stencil Cut
10
168.891515
20
345.240759
70
0
0
VERTEX
8
Stencil Cut
10
167.683040
20
345.809850
70
0
0
VERTEX
8
Stencil Cut
10
166.596517
20
346.536458
70
0
0
VERTEX
8
Stencil Cut
10
165.653960
20
347.401952
70
0
0
VERTEX
8
Stencil Cut
10
164.855367
20
348.406333
70
0
0
VERTEX
8
Stencil Cut
10
164.200740
20
349.549600
70
0
0
VERTEX
8
Stencil Cut
10
163.690930
20
350.795333
70
0
0
VERTEX
8
Stencil Cut
10
163.326780
20
352.093572
70
0
0
VERTEX
8
Stencil Cut
10
163.108290
20
353.444318
70
0
0
VERTEX
8
Stencil Cut
10
163.035460
20
354.847570
70
0
0
VERTEX
8
Stencil Cut
10
163.116759
20
356.355834
70
0
0
VERTEX
8
Stencil Cut
10
163.360655
20
357.777717
70
0
0
VERTEX
8
Stencil Cut
10
163.767149
20
359.113219
70
0
0
VERTEX
8
Stencil Cut
10
164.336240
20
360.362340
70
0
0
VERTEX
8
Stencil Cut
10
165.062001
20
361.497985
70
0
0
VERTEX
8
Stencil Cut
10
165.938505
20
362.493050
70
0
0
VERTEX
8
Stencil Cut
10
166.965751
20
363.347535
70
0
0
VERTEX
8
Stencil Cut
10
168.143740
20
364.061440
70
0
0
VERTEX
8
Stencil Cut
10
169.157434
20
364.494184
70
0
0
VERTEX
8
Stencil Cut
10
170.287995
20
364.803288
70
0
0
VERTEX
8
Stencil Cut
10
172.899720
20
365.050570
70
0
0
VERTEX
8
Stencil Cut
10
174.647646
20
364.953181
70
0
0
VERTEX
8
Stencil Cut
10
176.192325
20
364.661015
70
0
0
VERTEX
8
Stencil Cut
10
177.533756
20
364.174071
70
0
0
VERTEX
8
Stencil Cut
10
178.671940
20
363.492350
70
0
0
VERTEX
8
Stencil Cut
10
179.622120
20
362.645486
70
0
0
VERTEX
8
Stencil Cut
10
180.385990
20
361.649575
70
0
0
VERTEX
8
Stencil Cut
10
180.963550
20
360.504616
70
0
0
VERTEX
8
Stencil Cut
10
181.354800
20
359.210610
70
0
0
VERTEX
8
Stencil Cut
10
177.371150
20
358.465370
70
0
0
VERTEX
8
Stencil Cut
10
176.764800
20
359.772928
70
0
0
VERTEX
8
Stencil Cut
10
175.785830
20
360.768840
70
0
0
VERTEX
8
Stencil Cut
10
174.488432
20
361.409063
70
0
0
VERTEX
8
Stencil Cut
10
172.899720
20
361.622470
70
0
0
VERTEX
8
Stencil Cut
10
171.652292
20
361.518306
70
0
0
VERTEX
8
Stencil Cut
10
170.538667
20
361.205815
70
0
0
VERTEX
8
Stencil Cut
10
169.558847
20
360.684996
70
0
0
VERTEX
8
Stencil Cut
10
168.712830
20
359.955850
70
0
0
VERTEX
8
Stencil Cut
10
168.037032
20
359.021759
70
0
0
VERTEX
8
Stencil Cut
10
167.554320
20
357.886115
70
0
0
VERTEX
8
Stencil Cut
10
167.264692
20
356.548919
70
0
0
VERTEX
8
Stencil Cut
10
167.168150
20
355.010170
70
0
0
VERTEX
8
Stencil Cut
10
167.266386
20
353.352012
70
0
0
VERTEX
8
Stencil Cut
10
167.561095
20
351.914038
70
0
0
VERTEX
8
Stencil Cut
10
168.052276
20
350.696247
70
0
0
VERTEX
8
Stencil Cut
10
168.739930
20
349.698640
70
0
0
VERTEX
8
Stencil Cut
10
169.586794
20
348.927997
70
0
0
VERTEX
8
Stencil Cut
10
170.555605
20
348.377538
70
0
0
VERTEX
8
Stencil Cut
10
171.646364
20
348.047262
70
0
0
VERTEX
8
Stencil Cut
10
172.859070
20
347.937170
70
0
0
VERTEX
8
Stencil Cut
10
174.119200
20
348.059118
70
0
0
VERTEX
8
Stencil Cut
10
175.379330
20
348.424960
70
0
0
VERTEX
8
Stencil Cut
10
176.561555
20
348.977120
70
0
0
VERTEX
8
Stencil Cut
10
177.560850
20
349.630900
70
0
0
VERTEX
8
Stencil Cut
10
177.560850
20
352.151160
70
0
0
VERTEX
8
Stencil Cut
10
172.967470
20
352.151160
70
0
0
SEQEND
8
Stencil Cut
0
POLYLINE
8
Stencil Cut
62
7
70
0
10
0.000000
20
0.000000
66
1
0
VERTEX
8
Stencil Cut
10
207.913510
20
354.657870
70
0
0
VERTEX
8
Stencil Cut
10
208.140470
20
357.449133
70
0
0
VERTEX
8
Stencil Cut
10
208.821350
20
359.752600
70
0
0
VERTEX
8
Stencil Cut
10
209.620787
20
361.192268
70
0
0
VERTEX
8
Stencil Cut
10
210.664120
20
362.476110
70
0
0
VERTEX
8
Stencil Cut
10
211.897157
20
363.526218
70
0
0
VERTEX
8
Stencil Cut
10
213.238590
20
364.264680
70
0
0
VERTEX
8
Stencil Cut
10
215.237182
20
364.854097
70
0
0
VERTEX
8
Stencil Cut
10
217.520320
20
365.050570
70
0
0
VERTEX
8
Stencil Cut
10
219.605298
20
364.880351
70
0
0
VERTEX
8
Stencil Cut
10
221.470090
20
364.369692
70
0
0
VERTEX
8
Stencil Cut
10
223.114697
20
363.518596
70
0
0
VERTEX
8
Stencil Cut
10
224.539120
20
362.327060
70
0
0
VERTEX
8
Stencil Cut
10
225.695091
20
360.832347
70
0
0
VERTEX
8
Stencil Cut
10
226.520785
20
359.071720
70
0
0
VERTEX
8
Stencil Cut
10
227.016201
20
357.045177
70
0
0
VERTEX
8
Stencil Cut
10
227.181340
20
354.752720
70
0
0
VERTEX
8
Stencil Cut
10
227.017895
20
352.478047
70
0
0
VERTEX
8
Stencil Cut
10
226.527560
20
350.464207
70
0
0
VERTEX
8
Stencil Cut
10
225.710335
20
348.711202
70
0
0
VERTEX
8
Stencil Cut
10
224.566220
20
347.219030
70
0
0
VERTEX
8
Stencil Cut
10
223.148573
20
346.033422
70
0
0
VERTEX
8
Stencil Cut
10
221.510740
20
345.186560
70
0
0
VERTEX
8
Stencil Cut
10
219.652723
20
344.678442
70
0
0
VERTEX
8
Stencil Cut
10
217.574520
20
344.509070
70
0
0
VERTEX
8
Stencil Cut
10
215.472609
20
344.677596
70
0
0
VERTEX
8
Stencil Cut
10
213.597657
20
345.183172
70
0
0
VERTEX
8
Stencil Cut
10
211.949664
20
346.025801
70
0
0
VERTEX
8
Stencil Cut
10
210.528630
20
347.205480
70
0
0
VERTEX
8
Stencil Cut
10
209.384515
20
348.687489
70
0
0
VERTEX
8
Stencil Cut
10
208.567290
20
350.423557
70
0
0
VERTEX
8
Stencil Cut
10
208.076955
20
352.413684
70
0
0
VERTEX
8
Stencil Cut
10
207.913510
20
354.657870
70
0
0
VERTEX
8
Stencil Cut
10
207.913510
20
354.657870
70
0
0
SEQEND
8
Stencil Cut
0
POLYLINE
8
Stencil Cut
62
7
70
0
10
0.000000
20
0.000000
66
1
0
VERTEX
8
Stencil Cut
10
212.046200
20
354.793370
70
0
0
VERTEX
8
Stencil Cut
10
212.143589
20
353.208044
70
0
0
VERTEX
8
Stencil Cut
10
212.435757
20
351.825965
70
0
0
VERTEX
8
Stencil Cut
10
212.922704
20
350.647134
70
0
0
VERTEX
8
Stencil Cut
10
213.604430
20
349.671550
70
0
0
VERTEX
8
Stencil Cut
10
214.436050
20
348.912759
70
0
0
VERTEX
8
Stencil Cut
10
215.372680
20
348.370765
70
0
0
VERTEX
8
Stencil Cut
10
216.414320
20
348.045569
70
0
0
VERTEX
8
Stencil Cut
10
217.560970
20
347.937170
70
0
0
VERTEX
8
Stencil Cut
10
218.705931
20
348.044722
70
0
0
VERTEX
8
Stencil Cut
10
219.742492
20
348.367377
70
0
0
VERTEX
8
Stencil Cut
10
220.670656
20
348.905137
70
0
0
VERTEX
8
Stencil Cut
10
221.490420
20
349.658000
70
0
0
VERTEX
8
Stencil Cut
10
222.166218
20
350.632737
70
0
0
VERTEX
8
Stencil Cut
10
222.648930
20
351.822577
70
0
0
VERTEX
8
Stencil Cut
10
222.938558
20
353.227522
70
0
0
VERTEX
8
Stencil Cut
10
223.035100
20
354.847570
70
0
0
VERTEX
8
Stencil Cut
10
222.941098
20
356.446447
70
0
0
VERTEX
8
Stencil Cut
10
222.659092
20
357.828528
70
0
0
VERTEX
8
Stencil Cut
10
222.189083
20
358.993812
70
0
0
VERTEX
8
Stencil Cut
10
221.531070
20
359.942300
70
0
0
VERTEX
8
Stencil Cut
10
220.724009
20
360.677374
70
0
0
VERTEX
8
Stencil Cut
10
219.793305
20
361.202427
70
0
0
VERTEX
8
Stencil Cut
10
218.738959
20
361.517459
70
0
0
VERTEX
8
Stencil Cut
10
217.560970
20
361.622470
70
0
0
VERTEX
8
Stencil Cut
10
216.381292
20
361.515766
70
0
0
VERTEX
8
Stencil Cut
10
215.321867
20
361.195653
70
0
0
VERTEX
8
Stencil Cut
10
214.382697
20
360.662131
70
0
0
VERTEX
8
Stencil Cut
10
213.563780
20
359.915200
70
0
0
VERTEX
8
Stencil Cut
10
212.899839
20
358.959937
70
0
0
VERTEX
8
Stencil Cut
10
212.425595
20
357.787878
70
0
0
VERTEX
8
Stencil Cut
10
212.141049
20
356.399022
70
0
0
VERTEX
8
Stencil Cut
10
212.046200
20
354.793370
70
0
0
VERTEX
8
Stencil Cut
10
212.046200
20
354.793370
70
0
0
SEQEND
8
Stencil Cut
0
POLYLINE
8
Stencil Cut
62
7
70
0
10
0.000000
20
0.000000
66
1
0
VERTEX
8
Stencil Cut
10
252.906740
20
344.847810
70
0
0
VERTEX
8
Stencil Cut
10
252.906740
20
364.711830
70
0
0
VERTEX
8
Stencil Cut
10
258.909300
20
364.711830
70
0
0
VERTEX
8
Stencil Cut
10
262.513550
20
351.162020
70
0
0
VERTEX
8
Stencil Cut
10
266.077150
20
364.711830
70
0
0
VERTEX
8
Stencil Cut
10
272.093260
20
364.711830
70
0
0
VERTEX
8
Stencil Cut
10
272.093260
20
344.847810
70
0
0
VERTEX
8
Stencil Cut
10
268.367070
20
344.847810
70
0
0
VERTEX
8
Stencil Cut
10
268.367070
20
360.484290
70
0
0
VERTEX
8
Stencil Cut
10
264.424070
20
344.847810
70
0
0
VERTEX
8
Stencil Cut
10
260.562380
20
344.847810
70
0
0
VERTEX
8
Stencil Cut
10
256.632930
20
360.484290
70
0
0
VERTEX
8
Stencil Cut
10
256.632930
20
344.847810
70
0
0
VERTEX
8
Stencil Cut
10
252.906740
20
344.847810
70
0
0
SEQEND
8
Stencil Cut
0
POLYLINE
8
Stencil Cut
62
7
70
0
10
0.000000
20
0.000000
66
1
0
VERTEX
8
Stencil Cut
10
305.542050
20
344.847810
70
0
0
VERTEX
8
Stencil Cut
10
305.542050
20
364.711830
70
0
0
VERTEX
8
Stencil Cut
10
309.552800
20
364.711830
70
0
0
VERTEX
8
Stencil Cut
10
309.552800
20
344.847810
70
0
0
VERTEX
8
Stencil Cut
10
305.542050
20
344.847810
70
0
0
SEQEND
8
Stencil Cut
0
POLYLINE
8
Stencil Cut
62
7
70
0
10
0.000000
20
0.000000
66
1
0
VERTEX
8
Stencil Cut
10
345.264400
20
344.847810
70
0
0
VERTEX
8
Stencil Cut
10
345.264400
20
364.711830
70
0
0
VERTEX
8
Stencil Cut
10
359.993040
20
364.711830
70
0
0
VERTEX
8
Stencil Cut
10
359.993040
20
361.351480
70
0
0
VERTEX
8
Stencil Cut
10
349.275150
20
361.351480
70
0
0
VERTEX
8
Stencil Cut
10
349.275150
20
356.947790
70
0
0
VERTEX
8
Stencil Cut
10
359.247800
20
356.947790
70
0
0
VERTEX
8
Stencil Cut
10
359.247800
20
353.600990
70
0
0
VERTEX
8
Stencil Cut
10
349.275150
20
353.600990
70
0
0
VERTEX
8
Stencil Cut
10
349.275150
20
348.194620
70
0
0
VERTEX
8
Stencil Cut
10
360.372440
20
348.194620
70
0
0
VERTEX
8
Stencil Cut
10
360.372440
20
344.847810
70
0
0
VERTEX
8
Stencil Cut
10
345.264400
20
344.847810
70
0
0
SEQEND
8
Stencil Cut
0
POLYLINE
8
Stencil Cut
62
7
70
0
10
0.000000
20
0.000000
66
1
0
VERTEX
8
Stencil Cut
10
389.248170
20
351.311070
70
0
0
VERTEX
8
Stencil Cut
10
393.150510
20
351.690470
70
0
0
VERTEX
8
Stencil Cut
10
393.682342
20
349.986577
70
0
0
VERTEX
8
Stencil Cut
10
394.082908
20
349.330259
70
0
0
VERTEX
8
Stencil Cut
10
394.573240
20
348.804360
70
0
0
VERTEX
8
Stencil Cut
10
395.843538
20
348.113317
70
0
0
VERTEX
8
Stencil Cut
10
397.486450
20
347.882970
70
0
0
VERTEX
8
Stencil Cut
10
399.183562
20
348.086217
70
0
0
VERTEX
8
Stencil Cut
10
400.399660
20
348.695960
70
0
0
VERTEX
8
Stencil Cut
10
401.141507
20
349.590248
70
0
0
VERTEX
8
Stencil Cut
10
401.388790
20
350.620030
70
0
0
VERTEX
8
Stencil Cut
10
401.283780
20
351.270420
70
0
0
VERTEX
8
Stencil Cut
10
400.968750
20
351.812410
70
0
0
VERTEX
8
Stencil Cut
10
400.406435
20
352.279882
70
0
0
VERTEX
8
Stencil Cut
10
399.532470
20
352.679600
70
0
0
VERTEX
8
Stencil Cut
10
396.321170
20
353.546790
70
0
0
VERTEX
8
Stencil Cut
10
393.577330
20
354.437690
70
0
0
VERTEX
8
Stencil Cut
10
392.566175
20
354.951735
70
0
0
VERTEX
8
Stencil Cut
10
391.795530
20
355.511510
70
0
0
VERTEX
8
Stencil Cut
10
390.995246
20
356.376158
70
0
0
VERTEX
8
Stencil Cut
10
390.423615
20
357.330572
70
0
0
VERTEX
8
Stencil Cut
10
390.080636
20
358.374753
70
0
0
VERTEX
8
Stencil Cut
10
389.966310
20
359.508700
70
0
0
VERTEX
8
Stencil Cut
10
390.179720
20
360.975467
70
0
0
VERTEX
8
Stencil Cut
10
390.819950
20
362.340610
70
0
0
VERTEX
8
Stencil Cut
10
391.873442
20
363.509280
70
0
0
VERTEX
8
Stencil Cut
10
393.299560
20
364.359530
70
0
0
VERTEX
8
Stencil Cut
10
395.091522
20
364.877810
70
0
0
VERTEX
8
Stencil Cut
10
397.215450
20
365.050570
70
0
0
VERTEX
8
Stencil Cut
10
398.969304
20
364.948100
70
0
0
VERTEX
8
Stencil Cut
10
400.491117
20
364.640690
70
0
0
VERTEX
8
Stencil Cut
10
401.780889
20
364.128340
70
0
0
VERTEX
8
Stencil Cut
10
402.838620
20
363.411050
70
0
0
VERTEX
8
Stencil Cut
10
403.674476
20
362.522689
70
0
0
VERTEX
8
Stencil Cut
10
404.285065
20
361.497138
70
0
0
VERTEX
8
Stencil Cut
10
404.670386
20
360.334394
70
0
0
VERTEX
8
Stencil Cut
10
404.830440
20
359.034460
70
0
0
VERTEX
8
Stencil Cut
10
400.819700
20
358.858310
70
0
0
VERTEX
8
Stencil Cut
10
400.413210
20
360.172642
70
0
0
VERTEX
8
Stencil Cut
10
399.708620
20
361.053380
70
0
0
VERTEX
8
Stencil Cut
10
398.655120
20
361.561497
70
0
0
VERTEX
8
Stencil Cut
10
397.174800
20
361.730870
70
0
0
VERTEX
8
Stencil Cut
10
395.616575
20
361.551335
70
0
0
VERTEX
8
Stencil Cut
10
394.437740
20
361.012730
70
0
0
VERTEX
8
Stencil Cut
10
393.960110
20
360.474128
70
0
0
VERTEX
8
Stencil Cut
10
393.800900
20
359.779700
70
0
0
VERTEX
8
Stencil Cut
10
393.949947
20
359.125922
70
0
0
VERTEX
8
Stencil Cut
10
394.397090
20
358.573770
70
0
0
VERTEX
8
Stencil Cut
10
395.697872
20
357.923380
70
0
0
VERTEX
8
Stencil Cut
10
398.082640
20
357.245890
70
0
0
VERTEX
8
Stencil Cut
10
400.626617
20
356.541300
70
0
0
VERTEX
8
Stencil Cut
10
402.405030
20
355.809610
70
0
0
VERTEX
8
Stencil Cut
10
403.658387
20
354.939035
70
0
0
VERTEX
8
Stencil Cut
10
404.600100
20
353.790690
70
0
0
VERTEX
8
Stencil Cut
10
405.199680
20
352.364567
70
0
0
VERTEX
8
Stencil Cut
10
405.399540
20
350.633580
70
0
0
VERTEX
8
Stencil Cut
10
405.162417
20
348.980508
70
0
0
VERTEX
8
Stencil Cut
10
404.451050
20
347.435830
70
0
0
VERTEX
8
Stencil Cut
10
403.306090
20
346.135047
70
0
0
VERTEX
8
Stencil Cut
10
401.768190
20
345.213660
70
0
0
VERTEX
8
Stencil Cut
10
399.820402
20
344.675055
70
0
0
VERTEX
8
Stencil Cut
10
397.445800
20
344.495520
70
0
0
VERTEX
8
Stencil Cut
10
395.671624
20
344.603918
70
0
0
VERTEX
8
Stencil Cut
10
394.115937
20
344.929112
70
0
0
VERTEX
8
Stencil Cut
10
392.778739
20
345.471103
70
0
0
VERTEX
8
Stencil Cut
10
391.660030
20
346.229890
70
0
0
VERTEX
8
Stencil Cut
10
390.752194
20
347.202937
70
0
0
VERTEX
8
Stencil Cut
10
390.047605
20
348.374150
70
0
0
VERTEX
8
Stencil Cut
10
389.546264
20
349.743527
70
0
0
VERTEX
8
Stencil Cut
10
389.248170
20
351.311070
70
0
0
VERTEX
8
Stencil Cut
10
389.248170
20
351.311070
70
0
0
SEQEND
8
Stencil Cut
0
POLYLINE
8
Stencil Cut
62
7
70
0
10
0.000000
20
0.000000
66
1
0
VERTEX
8
Stencil Cut
10
434.539490
20
344.847810
70
0
0
VERTEX
8
Stencil Cut
10
434.539490
20
364.711830
70
0
0
VERTEX
8
Stencil Cut
10
438.441830
20
364.711830
70
0
0
VERTEX
8
Stencil Cut
10
446.571720
20
351.446570
70
0
0
VERTEX
8
Stencil Cut
10
446.571720
20
364.711830
70
0
0
VERTEX
8
Stencil Cut
10
450.297910
20
364.711830
70
0
0
VERTEX
8
Stencil Cut
10
450.297910
20
344.847810
70
0
0
VERTEX
8
Stencil Cut
10
446.273620
20
344.847810
70
0
0
VERTEX
8
Stencil Cut
10
438.265690
20
357.801430
70
0
0
VERTEX
8
Stencil Cut
10
438.265690
20
344.847810
70
0
0
VERTEX
8
Stencil Cut
10
434.539490
20
344.847810
70
0
0
SEQEND
8
Stencil Cut
0
POLYLINE
8
Stencil Cut
62
7
70
0
10
0.000000
20
0.000000
66
1
0
VERTEX
8
Stencil Cut
10
479.485290
20
364.711830
70
0
0
VERTEX
8
Stencil Cut
10
486.815730
20
364.711830
70
0
0
VERTEX
8
Stencil Cut
10
489.000640
20
364.616980
70
0
0
VERTEX
8
Stencil Cut
10
490.596130
20
364.332430
70
0
0
VERTEX
8
Stencil Cut
10
492.218723
20
363.617680
70
0
0
VERTEX
8
Stencil Cut
10
493.590640
20
362.503210
70
0
0
VERTEX
8
Stencil Cut
10
494.688172
20
361.039832
70
0
0
VERTEX
8
Stencil Cut
10
495.487610
20
359.278360
70
0
0
VERTEX
8
Stencil Cut
10
495.975403
20
357.157810
70
0
0
VERTEX
8
Stencil Cut
10
496.138000
20
354.590120
70
0
0
VERTEX
8
Stencil Cut
10
495.985565
20
352.306982
70
0
0
VERTEX
8
Stencil Cut
10
495.528260
20
350.362590
70
0
0
VERTEX
8
Stencil Cut
10
494.623810
20
348.401255
70
0
0
VERTEX
8
Stencil Cut
10
493.400940
20
346.853190
70
0
0
VERTEX
8
Stencil Cut
10
492.174680
20
345.948737
70
0
0
VERTEX
8
Stencil Cut
10
490.582580
20
345.267860
70
0
0
VERTEX
8
Stencil Cut
10
489.031128
20
344.952822
70
0
0
VERTEX
8
Stencil Cut
10
487.032530
20
344.847810
70
0
0
VERTEX
8
Stencil Cut
10
479.485290
20
344.847810
70
0
0
VERTEX
8
Stencil Cut
10
479.485290
20
364.711830
70
0
0
SEQEND
8
Stencil Cut
0
POLYLINE
8
Stencil Cut
62
7
70
0
10
0.000000
20
0.000000
66
1
0
VERTEX
8
Stencil Cut
10
483.496030
20
361.351480
70
0
0
VERTEX
8
Stencil Cut
10
483.496030
20
348.194620
70
0
0
VERTEX
8
Stencil Cut
10
486.490540
20
348.194620
70
0
0
VERTEX
8
Stencil Cut
10
488.915950
20
348.384310
70
0
0
VERTEX
8
Stencil Cut
10
489.806852
20
348.712895
70
0
0
VERTEX
8
Stencil Cut
10
490.528380
20
349.210850
70
0
0
VERTEX
8
Stencil Cut
10
491.117798
20
349.979800
70
0
0
VERTEX
8
Stencil Cut
10
491.585270
20
351.121370
70
0
0
VERTEX
8
Stencil Cut
10
491.890137
20
352.703310
70
0
0
VERTEX
8
Stencil Cut
10
491.991760
20
354.766270
70
0
0
VERTEX
8
Stencil Cut
10
491.890137
20
356.802130
70
0
0
VERTEX
8
Stencil Cut
10
491.585270
20
358.302770
70
0
0
VERTEX
8
Stencil Cut
10
491.097473
20
359.400303
70
0
0
VERTEX
8
Stencil Cut
10
490.447080
20
360.226840
70
0
0
VERTEX
8
Stencil Cut
10
489.617155
20
360.806095
70
0
0
VERTEX
8
Stencil Cut
10
488.590760
20
361.161780
70
0
0
VERTEX
8
Stencil Cut
10
485.298160
20
361.351480
70
0
0
VERTEX
8
Stencil Cut
10
483.496030
20
361.351480
70
0
0
SEQEND
8
Stencil Cut
0
POLYLINE
8
Stencil Cut
62
7
70
0
10
0.000000
20
0.000000
66
1
0
VERTEX
8
Stencil Cut
10
29.553040
20
299.847810
70
0
0
VERTEX
8
Stencil Cut
10
29.553040
20
319.711830
70
0
0
VERTEX
8
Stencil Cut
10
33.563782
20
319.711830
70
0
0
VERTEX
8
Stencil Cut
10
33.563782
20
310.890910
70
0
0
VERTEX
8
Stencil Cut
10
41.666565
20
319.711830
70
0
0
VERTEX
8
Stencil Cut
10
47.059387
20
319.711830
70
0
0
VERTEX
8
Stencil Cut
10
39.579895
20
311.974890
70
0
0
VERTEX
8
Stencil Cut
10
47.465881
20
299.847810
70
0
0
VERTEX
8
Stencil Cut
10
42.276306
20
299.847810
70
0
0
VERTEX
8
Stencil Cut
10
36.815735
20
309.170080
70
0
0
VERTEX
8
Stencil Cut
10
33.563782
20
305.850380
70
0
0
VERTEX
8
Stencil Cut
10
33.563782
20
299.847810
70
0
0
VERTEX
8
Stencil Cut
10
29.553040
20
299.847810
70
0
0
SEQEND
8
Stencil Cut
0
POLYLINE
8
Stencil Cut
62
7
70
0
10
0.000000
20
0.000000
66
1
0
VERTEX
8
Stencil Cut
10
80.332031
20
299.847810
70
0
0
VERTEX
8
Stencil Cut
10
73.231934
20
319.711830
70
0
0
VERTEX
8
Stencil Cut
10
77.581421
20
319.711830
70
0
0
VERTEX
8
Stencil Cut
10
82.608398
20
305.010290
70
0
0
VERTEX
8
Stencil Cut
10
87.472778
20
319.711830
70
0
0
VERTEX
8
Stencil Cut
10
91.727417
20
319.711830
70
0
0
VERTEX
8
Stencil Cut
10
84.613770
20
299.847810
70
0
0
VERTEX
8
Stencil Cut
10
80.332031
20
299.847810
70
0
0
SEQEND
8
Stencil Cut
0
POLYLINE
8
Stencil Cut
62
7
70
0
10
0.000000
20
0.000000
66
1
0
VERTEX
8
Stencil Cut
10
137.411680
20
299.847810
70
0
0
VERTEX
8
Stencil Cut
10
133.048650
20
299.847810
70
0
0
VERTEX
8
Stencil Cut
10
131.314270
20
304.359900
70
0
0
VERTEX
8
Stencil Cut
10
123.374080
20
304.359900
70
0
0
VERTEX
8
Stencil Cut
10
121.734560
20
299.847810
70
0
0
VERTEX
8
Stencil Cut
10
117.479920
20
299.847810
70
0
0
VERTEX
8
Stencil Cut
10
125.216860
20
319.711830
70
0
0
VERTEX
8
Stencil Cut
10
129.457950
20
319.711830
70
0
0
VERTEX
8
Stencil Cut
10
137.411680
20
299.847810
70
0
0
SEQEND
8
Stencil Cut
0
POLYLINE
8
Stencil Cut
62
7
70
0
10
0.000000
20
0.000000
66
1
0
VERTEX
8
Stencil Cut
10
130.027040
20
307.706700
70
0
0
VERTEX
8
Stencil Cut
10
127.289980
20
315.077800
70
0
0
VERTEX
8
Stencil Cut
10
124.607120
20
307.706700
70
0
0
VERTEX
8
Stencil Cut
10
130.027040
20
307.706700
70
0
0
SEQEND
8
Stencil Cut
0
POLYLINE
8
Stencil Cut
62
7
70
0
10
0.000000
20
0.000000
66
1
0
VERTEX
8
Stencil Cut
10
164.512390
20
299.847810
70
0
0
VERTEX
8
Stencil Cut
10
164.512390
20
319.711830
70
0
0
VERTEX
8
Stencil Cut
10
172.953920
20
319.711830
70
0
0
VERTEX
8
Stencil Cut
10
175.701140
20
319.576333
70
0
0
VERTEX
8
Stencil Cut
10
177.574400
20
319.169840
70
0
0
VERTEX
8
Stencil Cut
10
178.878570
20
318.431370
70
0
0
VERTEX
8
Stencil Cut
10
179.891420
20
317.272860
70
0
0
VERTEX
8
Stencil Cut
10
180.541813
20
315.806095
70
0
0
VERTEX
8
Stencil Cut
10
180.758610
20
314.142860
70
0
0
VERTEX
8
Stencil Cut
10
180.676464
20
313.073271
70
0
0
VERTEX
8
Stencil Cut
10
180.430025
20
312.100225
70
0
0
VERTEX
8
Stencil Cut
10
180.019294
20
311.223721
70
0
0
VERTEX
8
Stencil Cut
10
179.444270
20
310.443760
70
0
0
VERTEX
8
Stencil Cut
10
178.705806
20
309.785748
70
0
0
VERTEX
8
Stencil Cut
10
177.804745
20
309.261540
70
0
0
VERTEX
8
Stencil Cut
10
176.741086
20
308.871138
70
0
0
VERTEX
8
Stencil Cut
10
175.514830
20
308.614540
70
0
0
VERTEX
8
Stencil Cut
10
176.700438
20
307.818488
70
0
0
VERTEX
8
Stencil Cut
10
177.655700
20
306.947910
70
0
0
VERTEX
8
Stencil Cut
10
178.655000
20
305.687783
70
0
0
VERTEX
8
Stencil Cut
10
179.945620
20
303.723060
70
0
0
VERTEX
8
Stencil Cut
10
182.371030
20
299.847810
70
0
0
VERTEX
8
Stencil Cut
10
177.574400
20
299.847810
70
0
0
VERTEX
8
Stencil Cut
10
174.674740
20
304.170200
70
0
0
VERTEX
8
Stencil Cut
10
172.560970
20
307.083410
70
0
0
VERTEX
8
Stencil Cut
10
171.974942
20
307.594915
70
0
0
VERTEX
8
Stencil Cut
10
171.355040
20
307.909950
70
0
0
VERTEX
8
Stencil Cut
10
170.531890
20
308.082713
70
0
0
VERTEX
8
Stencil Cut
10
169.336120
20
308.140300
70
0
0
VERTEX
8
Stencil Cut
10
168.523130
20
308.140300
70
0
0
VERTEX
8
Stencil Cut
10
168.523130
20
299.847810
70
0
0
VERTEX
8
Stencil Cut
10
164.512390
20
299.847810
70
0
0
SEQEND
8
Stencil Cut
0
POLYLINE
8
Stencil Cut
62
7
70
0
10
0.000000
20
0.000000
66
1
0
VERTEX
8
Stencil Cut
10
168.523130
20
311.310950
70
0
0
VERTEX
8
Stencil Cut
10
171.490540
20
311.310950
70
0
0
VERTEX
8
Stencil Cut
10
173.834658
20
311.371925
70
0
0
VERTEX
8
Stencil Cut
10
175.094790
20
311.554850
70
0
0
VERTEX
8
Stencil Cut
10
175.735018
20
311.886815
70
0
0
VERTEX
8
Stencil Cut
10
176.219420
20
312.394930
70
0
0
VERTEX
8
Stencil Cut
10
176.524295
20
313.065650
70
0
0
VERTEX
8
Stencil Cut
10
176.625920
20
313.885410
70
0
0
VERTEX
8
Stencil Cut
10
176.490420
20
314.789862
70
0
0
VERTEX
8
Stencil Cut
10
176.083920
20
315.497840
70
0
0
VERTEX
8
Stencil Cut
10
175.443695
20
316.005958
70
0
0
VERTEX
8
Stencil Cut
10
174.579900
20
316.283730
70
0
0
VERTEX
8
Stencil Cut
10
171.653140
20
316.351530
70
0
0
VERTEX
8
Stencil Cut
10
168.523130
20
316.351530
70
0
0
VERTEX
8
Stencil Cut
10
168.523130
20
311.310950
70
0
0
SEQEND
8
Stencil Cut
0
POLYLINE
8
Stencil Cut
62
7
70
0
10
0.000000
20
0.000000
66
1
0
VERTEX
8
Stencil Cut
10
215.514950
20
299.847810
70
0
0
VERTEX
8
Stencil Cut
10
215.514950
20
316.351480
70
0
0
VERTEX
8
Stencil Cut
10
209.620790
20
316.351480
70
0
0
VERTEX
8
Stencil Cut
10
209.620790
20
319.711830
70
0
0
VERTEX
8
Stencil Cut
10
225.406310
20
319.711830
70
0
0
VERTEX
8
Stencil Cut
10
225.406310
20
316.351480
70
0
0
VERTEX
8
Stencil Cut
10
219.525700
20
316.351480
70
0
0
VERTEX
8
Stencil Cut
10
219.525700
20
299.847810
70
0
0
VERTEX
8
Stencil Cut
10
215.514950
20
299.847810
70
0
0
SEQEND
8
Stencil Cut
0
POLYLINE
8
Stencil Cut
62
7
70
0
10
0.000000
20
0.000000
66
1
0
VERTEX
8
Stencil Cut
10
254.512390
20
319.711830
70
0
0
VERTEX
8
Stencil Cut
10
262.452580
20
319.711830
70
0
0
VERTEX
8
Stencil Cut
10
265.961980
20
319.508580
70
0
0
VERTEX
8
Stencil Cut
10
267.062900
20
319.210483
70
0
0
VERTEX
8
Stencil Cut
10
268.035100
20
318.695590
70
0
0
VERTEX
8
Stencil Cut
10
268.878570
20
317.967290
70
0
0
VERTEX
8
Stencil Cut
10
269.566220
20
317.028970
70
0
0
VERTEX
8
Stencil Cut
10
270.023525
20
315.934820
70
0
0
VERTEX
8
Stencil Cut
10
270.175960
20
314.711950
70
0
0
VERTEX
8
Stencil Cut
10
269.986265
20
313.373907
70
0
0
VERTEX
8
Stencil Cut
10
269.417180
20
312.151040
70
0
0
VERTEX
8
Stencil Cut
10
268.536440
20
311.131412
70
0
0
VERTEX
8
Stencil Cut
10
267.384700
20
310.403110
70
0
0
VERTEX
8
Stencil Cut
10
268.990355
20
309.688360
70
0
0
VERTEX
8
Stencil Cut
10
270.175960
20
308.600990
70
0
0
VERTEX
8
Stencil Cut
10
270.907653
20
307.215522
70
0
0
VERTEX
8
Stencil Cut
10
271.151550
20
305.606480
70
0
0
VERTEX
8
Stencil Cut
10
270.992340
20
304.268437
70
0
0
VERTEX
8
Stencil Cut
10
270.514710
20
302.964270
70
0
0
VERTEX
8
Stencil Cut
10
269.772858
20
301.815925
70
0
0
VERTEX
8
Stencil Cut
10
268.793880
20
300.918250
70
0
0
VERTEX
8
Stencil Cut
10
267.581175
20
300.305120
70
0
0
VERTEX
8
Stencil Cut
10
266.111020
20
299.983310
70
0
0
VERTEX
8
Stencil Cut
10
261.273740
20
299.847810
70
0
0
VERTEX
8
Stencil Cut
10
254.512390
20
299.847810
70
0
0
VERTEX
8
Stencil Cut
10
254.512390
20
319.711830
70
0
0
SEQEND
8
Stencil Cut
0
POLYLINE
8
Stencil Cut
62
7
70
0
10
0.000000
20
0.000000
66
1
0
VERTEX
8
Stencil Cut
10
258.523130
20
316.405680
70
0
0
VERTEX
8
Stencil Cut
10
258.523130
20
311.812290
70
0
0
VERTEX
8
Stencil Cut
10
261.151790
20
311.812290
70
0
0
VERTEX
8
Stencil Cut
10
264.065000
20
311.880090
70
0
0
VERTEX
8
Stencil Cut
10
264.983002
20
312.117212
70
0
0
VERTEX
8
Stencil Cut
10
265.677430
20
312.584680
70
0
0
VERTEX
8
Stencil Cut
10
266.124572
20
313.272333
70
0
0
VERTEX
8
Stencil Cut
10
266.273620
20
314.142910
70
0
0
VERTEX
8
Stencil Cut
10
266.144898
20
314.976225
70
0
0
VERTEX
8
Stencil Cut
10
265.758730
20
315.633390
70
0
0
VERTEX
8
Stencil Cut
10
265.132053
20
316.100857
70
0
0
VERTEX
8
Stencil Cut
10
264.254700
20
316.337980
70
0
0
VERTEX
8
Stencil Cut
10
260.826600
20
316.405680
70
0
0
VERTEX
8
Stencil Cut
10
258.523130
20
316.405680
70
0
0
SEQEND
8
Stencil Cut
0
POLYLINE
8
Stencil Cut
62
7
70
0
10
0.000000
20
0.000000
66
1
0
VERTEX
8
Stencil Cut
10
258.523130
20
308.506140
70
0
0
VERTEX
8
Stencil Cut
10
258.523130
20
303.194620
70
0
0
VERTEX
8
Stencil Cut
10
262.235780
20
303.194620
70
0
0
VERTEX
8
Stencil Cut
10
264.986390
20
303.316560
70
0
0
VERTEX
8
Stencil Cut
10
265.795993
20
303.594332
70
0
0
VERTEX
8
Stencil Cut
10
266.436220
20
304.102450
70
0
0
VERTEX
8
Stencil Cut
10
266.863038
20
304.844302
70
0
0
VERTEX
8
Stencil Cut
10
267.005310
20
305.796180
70
0
0
VERTEX
8
Stencil Cut
10
266.896913
20
306.622720
70
0
0
VERTEX
8
Stencil Cut
10
266.571720
20
307.313760
70
0
0
VERTEX
8
Stencil Cut
10
266.039885
20
307.852363
70
0
0
VERTEX
8
Stencil Cut
10
265.311580
20
308.221590
70
0
0
VERTEX
8
Stencil Cut
10
264.017580
20
308.435002
70
0
0
VERTEX
8
Stencil Cut
10
261.761540
20
308.506140
70
0
0
VERTEX
8
Stencil Cut
10
258.523130
20
308.506140
70
0
0
SEQEND
8
Stencil Cut
0
POLYLINE
8
Stencil Cut
62
7
70
0
10
0.000000
20
0.000000
66
1
0
VERTEX
8
Stencil Cut
10
297.913510
20
309.657870
70
0
0
VERTEX
8
Stencil Cut
10
298.140470
20
312.449133
70
0
0
VERTEX
8
Stencil Cut
10
298.821350
20
314.752600
70
0
0
VERTEX
8
Stencil Cut
10
299.620787
20
316.192268
70
0
0
VERTEX
8
Stencil Cut
10
300.664120
20
317.476110
70
0
0
VERTEX
8
Stencil Cut
10
301.897157
20
318.526218
70
0
0
VERTEX
8
Stencil Cut
10
303.238590
20
319.264680
70
0
0
VERTEX
8
Stencil Cut
10
305.237183
20
319.854097
70
0
0
VERTEX
8
Stencil Cut
10
307.520320
20
320.050570
70
0
0
VERTEX
8
Stencil Cut
10
309.605297
20
319.880351
70
0
0
VERTEX
8
Stencil Cut
10
311.470090
20
319.369692
70
0
0
VERTEX
8
Stencil Cut
10
313.114697
20
318.518596
70
0
0
VERTEX
8
Stencil Cut
10
314.539120
20
317.327060
70
0
0
VERTEX
8
Stencil Cut
10
315.695091
20
315.832347
70
0
0
VERTEX
8
Stencil Cut
10
316.520785
20
314.071720
70
0
0
VERTEX
8
Stencil Cut
10
317.016201
20
312.045177
70
0
0
VERTEX
8
Stencil Cut
10
317.181340
20
309.752720
70
0
0
VERTEX
8
Stencil Cut
10
317.017895
20
307.478047
70
0
0
VERTEX
8
Stencil Cut
10
316.527560
20
305.464207
70
0
0
VERTEX
8
Stencil Cut
10
315.710335
20
303.711202
70
0
0
VERTEX
8
Stencil Cut
10
314.566220
20
302.219030
70
0
0
VERTEX
8
Stencil Cut
10
313.148573
20
301.033422
70
0
0
VERTEX
8
Stencil Cut
10
311.510740
20
300.186560
70
0
0
VERTEX
8
Stencil Cut
10
309.652722
20
299.678442
70
0
0
VERTEX
8
Stencil Cut
10
307.574520
20
299.509070
70
0
0
VERTEX
8
Stencil Cut
10
305.472609
20
299.677596
70
0
0
VERTEX
8
Stencil Cut
10
303.597657
20
300.183172
70
0
0
VERTEX
8
Stencil Cut
10
301.949664
20
301.025801
70
0
0
VERTEX
8
Stencil Cut
10
300.528630
20
302.205480
70
0
0
VERTEX
8
Stencil Cut
10
299.384515
20
303.687489
70
0
0
VERTEX
8
Stencil Cut
10
298.567290
20
305.423558
70
0
0
VERTEX
8
Stencil Cut
10
298.076955
20
307.413684
70
0
0
VERTEX
8
Stencil Cut
10
297.913510
20
309.657870
70
0
0
VERTEX
8
Stencil Cut
10
297.913510
20
309.657870
70
0
0
SEQEND
8
Stencil Cut
0
POLYLINE
8
Stencil Cut
62
7
70
0
10
0.000000
20
0.000000
66
1
0
VERTEX
8
Stencil Cut
10
302.046200
20
309.793370
70
0
0
VERTEX
8
Stencil Cut
10
302.143589
20
308.208044
70
0
0
VERTEX
8
Stencil Cut
10
302.435757
20
306.825965
70
0
0
VERTEX
8
Stencil Cut
10
302.922704
20
305.647134
70
0
0
VERTEX
8
Stencil Cut
10
303.604430
20
304.671550
70
0
0
VERTEX
8
Stencil Cut
10
304.436050
20
303.912759
70
0
0
VERTEX
8
Stencil Cut
10
305.372680
20
303.370765
70
0
0
VERTEX
8
Stencil Cut
10
306.414320
20
303.045569
70
0
0
VERTEX
8
Stencil Cut
10
307.560970
20
302.937170
70
0
0
VERTEX
8
Stencil Cut
10
308.705931
20
303.044722
70
0
0
VERTEX
8
Stencil Cut
10
309.742493
20
303.367377
70
0
0
VERTEX
8
Stencil Cut
10
310.670656
20
303.905137
70
0
0
VERTEX
8
Stencil Cut
10
311.490420
20
304.658000
70
0
0
VERTEX
8
Stencil Cut
10
312.166218
20
305.632737
70
0
0
VERTEX
8
Stencil Cut
10
312.648930
20
306.822577
70
0
0
VERTEX
8
Stencil Cut
10
312.938558
20
308.227522
70
0
0
VERTEX
8
Stencil Cut
10
313.035100
20
309.847570
70
0
0
VERTEX
8
Stencil Cut
10
312.941098
20
311.446447
70
0
0
VERTEX
8
Stencil Cut
10
312.659093
20
312.828528
70
0
0
VERTEX
8
Stencil Cut
10
312.189083
20
313.993812
70
0
0
VERTEX
8
Stencil Cut
10
311.531070
20
314.942300
70
0
0
VERTEX
8
Stencil Cut
10
310.724009
20
315.677374
70
0
0
VERTEX
8
Stencil Cut
10
309.793305
20
316.202427
70
0
0
VERTEX
8
Stencil Cut
10
308.738959
20
316.517459
70
0
0
VERTEX
8
Stencil Cut
10
307.560970
20
316.622470
70
0
0
VERTEX
8
Stencil Cut
10
306.381292
20
316.515766
70
0
0
VERTEX
8
Stencil Cut
10
305.321868
20
316.195653
70
0
0
VERTEX
8
Stencil Cut
10
304.382697
20
315.662131
70
0
0
VERTEX
8
Stencil Cut
10
303.563780
20
314.915200
70
0
0
VERTEX
8
Stencil Cut
10
302.899839
20
313.959937
70
0
0
VERTEX
8
Stencil Cut
10
302.425595
20
312.787878
70
0
0
VERTEX
8
Stencil Cut
10
302.141049
20
311.399022
70
0
0
VERTEX
8
Stencil Cut
10
302.046200
20
309.793370
70
0
0
VERTEX
8
Stencil Cut
10
302.046200
20
309.793370
70
0
0
SEQEND
8
Stencil Cut
0
POLYLINE
8
Stencil Cut
62
7
70
0
10
0.000000
20
0.000000
66
1
0
VERTEX
8
Stencil Cut
10
302.764340
20
320.850010
70
0
0
VERTEX
8
Stencil Cut
10
302.764340
20
324.115510
70
0
0
VERTEX
8
Stencil Cut
10
306.029850
20
324.115510
70
0
0
VERTEX
8
Stencil Cut
10
306.029850
20
320.850010
70
0
0
VERTEX
8
Stencil Cut
10
302.764340
20
320.850010
70
0
0
SEQEND
8
Stencil Cut
0
POLYLINE
8
Stencil Cut
62
7
70
0
10
0.000000
20
0.000000
66
1
0
VERTEX
8
Stencil Cut
10
308.590760
20
320.850010
70
0
0
VERTEX
8
Stencil Cut
10
308.590760
20
324.115510
70
0
0
VERTEX
8
Stencil Cut
10
311.869810
20
324.115510
70
0
0
VERTEX
8
Stencil Cut
10
311.869810
20
320.850010
70
0
0
VERTEX
8
Stencil Cut
10
308.590760
20
320.850010
70
0
0
SEQEND
8
Stencil Cut
0
POLYLINE
8
Stencil Cut
62
7
70
0
10
0.000000
20
0.000000
66
1
0
VERTEX
8
Stencil Cut
10
350.332030
20
299.847810
70
0
0
VERTEX
8
Stencil Cut
10
343.231930
20
319.711830
70
0
0
VERTEX
8
Stencil Cut
10
347.581420
20
319.711830
70
0
0
VERTEX
8
Stencil Cut
10
352.608400
20
305.010290
70
0
0
VERTEX
8
Stencil Cut
10
357.472780
20
319.711830
70
0
0
VERTEX
8
Stencil Cut
10
361.727420
20
319.711830
70
0
0
VERTEX
8
Stencil Cut
10
354.613770
20
299.847810
70
0
0
VERTEX
8
Stencil Cut
10
350.332030
20
299.847810
70
0
0
SEQEND
8
Stencil Cut
0
POLYLINE
8
Stencil Cut
62
7
70
0
10
0.000000
20
0.000000
66
1
0
VERTEX
8
Stencil Cut
10
390.264400
20
299.847810
70
0
0
VERTEX
8
Stencil Cut
10
390.264400
20
319.711830
70
0
0
VERTEX
8
Stencil Cut
10
404.993040
20
319.711830
70
0
0
VERTEX
8
Stencil Cut
10
404.993040
20
316.351480
70
0
0
VERTEX
8
Stencil Cut
10
394.275150
20
316.351480
70
0
0
VERTEX
8
Stencil Cut
10
394.275150
20
311.947790
70
0
0
VERTEX
8
Stencil Cut
10
404.247800
20
311.947790
70
0
0
VERTEX
8
Stencil Cut
10
404.247800
20
308.600990
70
0
0
VERTEX
8
Stencil Cut
10
394.275150
20
308.600990
70
0
0
VERTEX
8
Stencil Cut
10
394.275150
20
303.194620
70
0
0
VERTEX
8
Stencil Cut
10
405.372440
20
303.194620
70
0
0
VERTEX
8
Stencil Cut
10
405.372440
20
299.847810
70
0
0
VERTEX
8
Stencil Cut
10
390.264400
20
299.847810
70
0
0
SEQEND
8
Stencil Cut
0
POLYLINE
8
Stencil Cut
62
7
70
0
10
0.000000
20
0.000000
66
1
0
VERTEX
8
Stencil Cut
10
434.512390
20
299.847810
70
0
0
VERTEX
8
Stencil Cut
10
434.512390
20
319.711830
70
0
0
VERTEX
8
Stencil Cut
10
442.953920
20
319.711830
70
0
0
VERTEX
8
Stencil Cut
10
445.701140
20
319.576333
70
0
0
VERTEX
8
Stencil Cut
10
447.574400
20
319.169840
70
0
0
VERTEX
8
Stencil Cut
10
448.878570
20
318.431370
70
0
0
VERTEX
8
Stencil Cut
10
449.891420
20
317.272860
70
0
0
VERTEX
8
Stencil Cut
10
450.541812
20
315.806095
70
0
0
VERTEX
8
Stencil Cut
10
450.758610
20
314.142860
70
0
0
VERTEX
8
Stencil Cut
10
450.676464
20
313.073271
70
0
0
VERTEX
8
Stencil Cut
10
450.430025
20
312.100225
70
0
0
VERTEX
8
Stencil Cut
10
450.019294
20
311.223721
70
0
0
VERTEX
8
Stencil Cut
10
449.444270
20
310.443760
70
0
0
VERTEX
8
Stencil Cut
10
448.705806
20
309.785748
70
0
0
VERTEX
8
Stencil Cut
10
447.804745
20
309.261540
70
0
0
VERTEX
8
Stencil Cut
10
446.741086
20
308.871138
70
0
0
VERTEX
8
Stencil Cut
10
445.514830
20
308.614540
70
0
0
VERTEX
8
Stencil Cut
10
446.700437
20
307.818488
70
0
0
VERTEX
8
Stencil Cut
10
447.655700
20
306.947910
70
0
0
VERTEX
8
Stencil Cut
10
448.655000
20
305.687783
70
0
0
VERTEX
8
Stencil Cut
10
449.945620
20
303.723060
70
0
0
VERTEX
8
Stencil Cut
10
452.371030
20
299.847810
70
0
0
VERTEX
8
Stencil Cut
10
447.574400
20
299.847810
70
0
0
VERTEX
8
Stencil Cut
10
444.674740
20
304.170200
70
0
0
VERTEX
8
Stencil Cut
10
442.560970
20
307.083410
70
0
0
VERTEX
8
Stencil Cut
10
441.974942
20
307.594915
70
0
0
VERTEX
8
Stencil Cut
10
441.355040
20
307.909950
70
0
0
VERTEX
8
Stencil Cut
10
440.531890
20
308.082713
70
0
0
VERTEX
8
Stencil Cut
10
439.336120
20
308.140300
70
0
0
VERTEX
8
Stencil Cut
10
438.523130
20
308.140300
70
0
0
VERTEX
8
Stencil Cut
10
438.523130
20
299.847810
70
0
0
VERTEX
8
Stencil Cut
10
434.512390
20
299.847810
70
0
0
SEQEND
8
Stencil Cut
0
POLYLINE
8
Stencil Cut
62
7
70
0
10
0.000000
20
0.000000
66
1
0
VERTEX
8
Stencil Cut
10
438.523130
20
311.310950
70
0
0
VERTEX
8
Stencil Cut
10
441.490540
20
311.310950
70
0
0
VERTEX
8
Stencil Cut
10
443.834657
20
311.371925
70
0
0
VERTEX
8
Stencil Cut
10
445.094790
20
311.554850
70
0
0
VERTEX
8
Stencil Cut
10
445.735017
20
311.886815
70
0
0
VERTEX
8
Stencil Cut
10
446.219420
20
312.394930
70
0
0
VERTEX
8
Stencil Cut
10
446.524295
20
313.065650
70
0
0
VERTEX
8
Stencil Cut
10
446.625920
20
313.885410
70
0
0
VERTEX
8
Stencil Cut
10
446.490420
20
314.789862
70
0
0
VERTEX
8
Stencil Cut
10
446.083920
20
315.497840
70
0
0
VERTEX
8
Stencil Cut
10
445.443695
20
316.005958
70
0
0
VERTEX
8
Stencil Cut
10
444.579900
20
316.283730
70
0
0
VERTEX
8
Stencil Cut
10
441.653140
20
316.351530
70
0
0
VERTEX
8
Stencil Cut
10
438.523130
20
316.351530
70
0
0
VERTEX
8
Stencil Cut
10
438.523130
20
311.310950
70
0
0
SEQEND
8
Stencil Cut
0
POLYLINE
8
Stencil Cut
62
7
70
0
10
0.000000
20
0.000000
66
1
0
VERTEX
8
Stencil Cut
10
487.967470
20
307.151160
70
0
0
VERTEX
8
Stencil Cut
10
487.967470
20
310.497960
70
0
0
VERTEX
8
Stencil Cut
10
496.612240
20
310.497960
70
0
0
VERTEX
8
Stencil Cut
10
496.612240
20
302.584880
70
0
0
VERTEX
8
Stencil Cut
10
495.067565
20
301.436530
70
0
0
VERTEX
8
Stencil Cut
10
492.953800
20
300.430460
70
0
0
VERTEX
8
Stencil Cut
10
490.552095
20
299.739418
70
0
0
VERTEX
8
Stencil Cut
10
488.116520
20
299.509070
70
0
0
VERTEX
8
Stencil Cut
10
486.608255
20
299.590369
70
0
0
VERTEX
8
Stencil Cut
10
485.199920
20
299.834265
70
0
0
VERTEX
8
Stencil Cut
10
483.891515
20
300.240759
70
0
0
VERTEX
8
Stencil Cut
10
482.683040
20
300.809850
70
0
0
VERTEX
8
Stencil Cut
10
481.596518
20
301.536458
70
0
0
VERTEX
8
Stencil Cut
10
480.653960
20
302.401952
70
0
0
VERTEX
8
Stencil Cut
10
479.855367
20
303.406333
70
0
0
VERTEX
8
Stencil Cut
10
479.200740
20
304.549600
70
0
0
VERTEX
8
Stencil Cut
10
478.690930
20
305.795333
70
0
0
VERTEX
8
Stencil Cut
10
478.326780
20
307.093572
70
0
0
VERTEX
8
Stencil Cut
10
478.108290
20
308.444318
70
0
0
VERTEX
8
Stencil Cut
10
478.035460
20
309.847570
70
0
0
VERTEX
8
Stencil Cut
10
478.116759
20
311.355834
70
0
0
VERTEX
8
Stencil Cut
10
478.360655
20
312.777717
70
0
0
VERTEX
8
Stencil Cut
10
478.767149
20
314.113219
70
0
0
VERTEX
8
Stencil Cut
10
479.336240
20
315.362340
70
0
0
VERTEX
8
Stencil Cut
10
480.062001
20
316.497985
70
0
0
VERTEX
8
Stencil Cut
10
480.938505
20
317.493050
70
0
0
VERTEX
8
Stencil Cut
10
481.965751
20
318.347535
70
0
0
VERTEX
8
Stencil Cut
10
483.143740
20
319.061440
70
0
0
VERTEX
8
Stencil Cut
10
484.157434
20
319.494184
70
0
0
VERTEX
8
Stencil Cut
10
485.287995
20
319.803288
70
0
0
VERTEX
8
Stencil Cut
10
487.899720
20
320.050570
70
0
0
VERTEX
8
Stencil Cut
10
489.647646
20
319.953181
70
0
0
VERTEX
8
Stencil Cut
10
491.192325
20
319.661015
70
0
0
VERTEX
8
Stencil Cut
10
492.533756
20
319.174071
70
0
0
VERTEX
8
Stencil Cut
10
493.671940
20
318.492350
70
0
0
VERTEX
8
Stencil Cut
10
494.622120
20
317.645486
70
0
0
VERTEX
8
Stencil Cut
10
495.385990
20
316.649575
70
0
0
VERTEX
8
Stencil Cut
10
495.963550
20
315.504616
70
0
0
VERTEX
8
Stencil Cut
10
496.354800
20
314.210610
70
0
0
VERTEX
8
Stencil Cut
10
492.371150
20
313.465370
70
0
0
VERTEX
8
Stencil Cut
10
491.764800
20
314.772927
70
0
0
VERTEX
8
Stencil Cut
10
490.785830
20
315.768840
70
0
0
VERTEX
8
Stencil Cut
10
489.488432
20
316.409062
70
0
0
VERTEX
8
Stencil Cut
10
487.899720
20
316.622470
70
0
0
VERTEX
8
Stencil Cut
10
486.652292
20
316.518306
70
0
0
VERTEX
8
Stencil Cut
10
485.538667
20
316.205815
70
0
0
VERTEX
8
Stencil Cut
10
484.558847
20
315.684996
70
0
0
VERTEX
8
Stencil Cut
10
483.712830
20
314.955850
70
0
0
VERTEX
8
Stencil Cut
10
483.037033
20
314.021759
70
0
0
VERTEX
8
Stencil Cut
10
482.554320
20
312.886115
70
0
0
VERTEX
8
Stencil Cut
10
482.264692
20
311.548919
70
0
0
VERTEX
8
Stencil Cut
10
482.168150
20
310.010170
70
0
0
VERTEX
8
Stencil Cut
10
482.266386
20
308.352012
70
0
0
VERTEX
8
Stencil Cut
10
482.561095
20
306.914037
70
0
0
VERTEX
8
Stencil Cut
10
483.052276
20
305.696247
70
0
0
VERTEX
8
Stencil Cut
10
483.739930
20
304.698640
70
0
0
VERTEX
8
Stencil Cut
10
484.586794
20
303.927997
70
0
0
VERTEX
8
Stencil Cut
10
485.555605
20
303.377537
70
0
0
VERTEX
8
Stencil Cut
10
486.646364
20
303.047262
70
0
0
VERTEX
8
Stencil Cut
10
487.859070
20
302.937170
70
0
0
VERTEX
8
Stencil Cut
10
489.119200
20
303.059117
70
0
0
VERTEX
8
Stencil Cut
10
490.379330
20
303.424960
70
0
0
VERTEX
8
Stencil Cut
10
491.561555
20
303.977120
70
0
0
VERTEX
8
Stencil Cut
10
492.560850
20
304.630900
70
0
0
VERTEX
8
Stencil Cut
10
492.560850
20
307.151160
70
0
0
VERTEX
8
Stencil Cut
10
487.967470
20
307.151160
70
0
0
SEQEND
8
Stencil Cut
0
POLYLINE
8
Stencil Cut
62
7
70
0
10
0.000000
20
0.000000
66
1
0
VERTEX
8
Stencil Cut
10
31.151917
20
254.847810
70
0
0
VERTEX
8
Stencil Cut
10
31.151917
20
274.549230
70
0
0
VERTEX
8
Stencil Cut
10
35.162659
20
274.549230
70
0
0
VERTEX
8
Stencil Cut
10
35.162659
20
258.194620
70
0
0
VERTEX
8
Stencil Cut
10
45.135315
20
258.194620
70
0
0
VERTEX
8
Stencil Cut
10
45.135315
20
254.847810
70
0
0
VERTEX
8
Stencil Cut
10
31.151917
20
254.847810
70
0
0
SEQEND
8
Stencil Cut
0
POLYLINE
8
Stencil Cut
62
7
70
0
10
0.000000
20
0.000000
66
1
0
VERTEX
8
Stencil Cut
10
80.542053
20
254.847810
70
0
0
VERTEX
8
Stencil Cut
10
80.542053
20
274.711830
70
0
0
VERTEX
8
Stencil Cut
10
84.552795
20
274.711830
70
0
0
VERTEX
8
Stencil Cut
10
84.552795
20
254.847810
70
0
0
VERTEX
8
Stencil Cut
10
80.542053
20
254.847810
70
0
0
SEQEND
8
Stencil Cut
0
POLYLINE
8
Stencil Cut
62
7
70
0
10
0.000000
20
0.000000
66
1
0
VERTEX
8
Stencil Cut
10
119.485290
20
274.711830
70
0
0
VERTEX
8
Stencil Cut
10
126.815730
20
274.711830
70
0
0
VERTEX
8
Stencil Cut
10
129.000640
20
274.616980
70
0
0
VERTEX
8
Stencil Cut
10
130.596130
20
274.332430
70
0
0
VERTEX
8
Stencil Cut
10
132.218723
20
273.617680
70
0
0
VERTEX
8
Stencil Cut
10
133.590640
20
272.503210
70
0
0
VERTEX
8
Stencil Cut
10
134.688173
20
271.039832
70
0
0
VERTEX
8
Stencil Cut
10
135.487610
20
269.278360
70
0
0
VERTEX
8
Stencil Cut
10
135.975403
20
267.157810
70
0
0
VERTEX
8
Stencil Cut
10
136.138000
20
264.590120
70
0
0
VERTEX
8
Stencil Cut
10
135.985565
20
262.306982
70
0
0
VERTEX
8
Stencil Cut
10
135.528260
20
260.362590
70
0
0
VERTEX
8
Stencil Cut
10
134.623810
20
258.401255
70
0
0
VERTEX
8
Stencil Cut
10
133.400940
20
256.853190
70
0
0
VERTEX
8
Stencil Cut
10
132.174680
20
255.948737
70
0
0
VERTEX
8
Stencil Cut
10
130.582580
20
255.267860
70
0
0
VERTEX
8
Stencil Cut
10
129.031128
20
254.952822
70
0
0
VERTEX
8
Stencil Cut
10
127.032530
20
254.847810
70
0
0
VERTEX
8
Stencil Cut
10
119.485290
20
254.847810
70
0
0
VERTEX
8
Stencil Cut
10
119.485290
20
274.711830
70
0
0
SEQEND
8
Stencil Cut
0
POLYLINE
8
Stencil Cut
62
7
70
0
10
0.000000
20
0.000000
66
1
0
VERTEX
8
Stencil Cut
10
123.496030
20
271.351480
70
0
0
VERTEX
8
Stencil Cut
10
123.496030
20
258.194620
70
0
0
VERTEX
8
Stencil Cut
10
126.490540
20
258.194620
70
0
0
VERTEX
8
Stencil Cut
10
128.915950
20
258.384310
70
0
0
VERTEX
8
Stencil Cut
10
129.806852
20
258.712895
70
0
0
VERTEX
8
Stencil Cut
10
130.528380
20
259.210850
70
0
0
VERTEX
8
Stencil Cut
10
131.117797
20
259.979800
70
0
0
VERTEX
8
Stencil Cut
10
131.585270
20
261.121370
70
0
0
VERTEX
8
Stencil Cut
10
131.890138
20
262.703310
70
0
0
VERTEX
8
Stencil Cut
10
131.991760
20
264.766270
70
0
0
VERTEX
8
Stencil Cut
10
131.890138
20
266.802130
70
0
0
VERTEX
8
Stencil Cut
10
131.585270
20
268.302770
70
0
0
VERTEX
8
Stencil Cut
10
131.097473
20
269.400303
70
0
0
VERTEX
8
Stencil Cut
10
130.447080
20
270.226840
70
0
0
VERTEX
8
Stencil Cut
10
129.617155
20
270.806095
70
0
0
VERTEX
8
Stencil Cut
10
128.590760
20
271.161780
70
0
0
VERTEX
8
Stencil Cut
10
125.298160
20
271.351480
70
0
0
VERTEX
8
Stencil Cut
10
123.496030
20
271.351480
70
0
0
SEQEND
8
Stencil Cut
0
POLYLINE
8
Stencil Cut
62
7
70
0
10
0.000000
20
0.000000
66
1
0
VERTEX
8
Stencil Cut
10
164.553040
20
254.847810
70
0
0
VERTEX
8
Stencil Cut
10
164.553040
20
274.711830
70
0
0
VERTEX
8
Stencil Cut
10
168.563780
20
274.711830
70
0
0
VERTEX
8
Stencil Cut
10
168.563780
20
265.890910
70
0
0
VERTEX
8
Stencil Cut
10
176.666560
20
274.711830
70
0
0
VERTEX
8
Stencil Cut
10
182.059390
20
274.711830
70
0
0
VERTEX
8
Stencil Cut
10
174.579900
20
266.974890
70
0
0
VERTEX
8
Stencil Cut
10
182.465880
20
254.847810
70
0
0
VERTEX
8
Stencil Cut
10
177.276310
20
254.847810
70
0
0
VERTEX
8
Stencil Cut
10
171.815730
20
264.170080
70
0
0
VERTEX
8
Stencil Cut
10
168.563780
20
260.850380
70
0
0
VERTEX
8
Stencil Cut
10
168.563780
20
254.847810
70
0
0
VERTEX
8
Stencil Cut
10
164.553040
20
254.847810
70
0
0
SEQEND
8
Stencil Cut
0
POLYLINE
8
Stencil Cut
62
7
70
0
10
0.000000
20
0.000000
66
1
0
VERTEX
8
Stencil Cut
10
209.512390
20
254.847810
70
0
0
VERTEX
8
Stencil Cut
10
209.512390
20
274.711830
70
0
0
VERTEX
8
Stencil Cut
10
213.523130
20
274.711830
70
0
0
VERTEX
8
Stencil Cut
10
213.523130
20
266.893590
70
0
0
VERTEX
8
Stencil Cut
10
221.382020
20
266.893590
70
0
0
VERTEX
8
Stencil Cut
10
221.382020
20
274.711830
70
0
0
VERTEX
8
Stencil Cut
10
225.392760
20
274.711830
70
0
0
VERTEX
8
Stencil Cut
10
225.392760
20
254.847810
70
0
0
VERTEX
8
Stencil Cut
10
221.382020
20
254.847810
70
0
0
VERTEX
8
Stencil Cut
10
221.382020
20
263.533240
70
0
0
VERTEX
8
Stencil Cut
10
213.523130
20
263.533240
70
0
0
VERTEX
8
Stencil Cut
10
213.523130
20
254.847810
70
0
0
VERTEX
8
Stencil Cut
10
209.512390
20
254.847810
70
0
0
SEQEND
8
Stencil Cut
0
POLYLINE
8
Stencil Cut
62
7
70
0
10
0.000000
20
0.000000
66
1
0
VERTEX
8
Stencil Cut
10
272.411680
20
254.847810
70
0
0
VERTEX
8
Stencil Cut
10
268.048650
20
254.847810
70
0
0
VERTEX
8
Stencil Cut
10
266.314270
20
259.359900
70
0
0
VERTEX
8
Stencil Cut
10
258.374080
20
259.359900
70
0
0
VERTEX
8
Stencil Cut
10
256.734560
20
254.847810
70
0
0
VERTEX
8
Stencil Cut
10
252.479920
20
254.847810
70
0
0
VERTEX
8
Stencil Cut
10
260.216860
20
274.711830
70
0
0
VERTEX
8
Stencil Cut
10
264.457950
20
274.711830
70
0
0
VERTEX
8
Stencil Cut
10
272.411680
20
254.847810
70
0
0
SEQEND
8
Stencil Cut
0
POLYLINE
8
Stencil Cut
62
7
70
0
10
0.000000
20
0.000000
66
1
0
VERTEX
8
Stencil Cut
10
265.027040
20
262.706700
70
0
0
VERTEX
8
Stencil Cut
10
262.289980
20
270.077800
70
0
0
VERTEX
8
Stencil Cut
10
259.607120
20
262.706700
70
0
0
VERTEX
8
Stencil Cut
10
265.027040
20
262.706700
70
0
0
SEQEND
8
Stencil Cut
0
POLYLINE
8
Stencil Cut
62
7
70
0
10
0.000000
20
0.000000
66
1
0
VERTEX
8
Stencil Cut
10
301.151920
20
254.847810
70
0
0
VERTEX
8
Stencil Cut
10
301.151920
20
274.549230
70
0
0
VERTEX
8
Stencil Cut
10
305.162660
20
274.549230
70
0
0
VERTEX
8
Stencil Cut
10
305.162660
20
258.194620
70
0
0
VERTEX
8
Stencil Cut
10
315.135310
20
258.194620
70
0
0
VERTEX
8
Stencil Cut
10
315.135310
20
254.847810
70
0
0
VERTEX
8
Stencil Cut
10
301.151920
20
254.847810
70
0
0
SEQEND
8
Stencil Cut
0
POLYLINE
8
Stencil Cut
62
7
70
0
10
0.000000
20
0.000000
66
1
0
VERTEX
8
Stencil Cut
10
350.332030
20
254.847810
70
0
0
VERTEX
8
Stencil Cut
10
343.231930
20
274.711830
70
0
0
VERTEX
8
Stencil Cut
10
347.581420
20
274.711830
70
0
0
VERTEX
8
Stencil Cut
10
352.608400
20
260.010290
70
0
0
VERTEX
8
Stencil Cut
10
357.472780
20
274.711830
70
0
0
VERTEX
8
Stencil Cut
10
361.727420
20
274.711830
70
0
0
VERTEX
8
Stencil Cut
10
354.613770
20
254.847810
70
0
0
VERTEX
8
Stencil Cut
10
350.332030
20
254.847810
70
0
0
SEQEND
8
Stencil Cut
0
POLYLINE
8
Stencil Cut
62
7
70
0
10
0.000000
20
0.000000
66
1
0
VERTEX
8
Stencil Cut
10
387.913510
20
264.657870
70
0
0
VERTEX
8
Stencil Cut
10
388.140470
20
267.449133
70
0
0
VERTEX
8
Stencil Cut
10
388.821350
20
269.752600
70
0
0
VERTEX
8
Stencil Cut
10
389.620787
20
271.192268
70
0
0
VERTEX
8
Stencil Cut
10
390.664120
20
272.476110
70
0
0
VERTEX
8
Stencil Cut
10
391.897157
20
273.526218
70
0
0
VERTEX
8
Stencil Cut
10
393.238590
20
274.264680
70
0
0
VERTEX
8
Stencil Cut
10
395.237183
20
274.854097
70
0
0
VERTEX
8
Stencil Cut
10
397.520320
20
275.050570
70
0
0
VERTEX
8
Stencil Cut
10
399.605297
20
274.880351
70
0
0
VERTEX
8
Stencil Cut
10
401.470090
20
274.369692
70
0
0
VERTEX
8
Stencil Cut
10
403.114697
20
273.518596
70
0
0
VERTEX
8
Stencil Cut
10
404.539120
20
272.327060
70
0
0
VERTEX
8
Stencil Cut
10
405.695091
20
270.832347
70
0
0
VERTEX
8
Stencil Cut
10
406.520785
20
269.071720
70
0
0
VERTEX
8
Stencil Cut
10
407.016201
20
267.045177
70
0
0
VERTEX
8
Stencil Cut
10
407.181340
20
264.752720
70
0
0
VERTEX
8
Stencil Cut
10
407.017895
20
262.478047
70
0
0
VERTEX
8
Stencil Cut
10
406.527560
20
260.464207
70
0
0
VERTEX
8
Stencil Cut
10
405.710335
20
258.711202
70
0
0
VERTEX
8
Stencil Cut
10
404.566220
20
257.219030
70
0
0
VERTEX
8
Stencil Cut
10
403.148573
20
256.033422
70
0
0
VERTEX
8
Stencil Cut
10
401.510740
20
255.186560
70
0
0
VERTEX
8
Stencil Cut
10
399.652722
20
254.678442
70
0
0
VERTEX
8
Stencil Cut
10
397.574520
20
254.509070
70
0
0
VERTEX
8
Stencil Cut
10
395.472609
20
254.677596
70
0
0
VERTEX
8
Stencil Cut
10
393.597657
20
255.183172
70
0
0
VERTEX
8
Stencil Cut
10
391.949664
20
256.025801
70
0
0
VERTEX
8
Stencil Cut
10
390.528630
20
257.205480
70
0
0
VERTEX
8
Stencil Cut
10
389.384515
20
258.687489
70
0
0
VERTEX
8
Stencil Cut
10
388.567290
20
260.423558
70
0
0
VERTEX
8
Stencil Cut
10
388.076955
20
262.413684
70
0
0
VERTEX
8
Stencil Cut
10
387.913510
20
264.657870
70
0
0
VERTEX
8
Stencil Cut
10
387.913510
20
264.657870
70
0
0
SEQEND
8
Stencil Cut
0
POLYLINE
8
Stencil Cut
62
7
70
0
10
0.000000
20
0.000000
66
1
0
VERTEX
8
Stencil Cut
10
392.046200
20
264.793370
70
0
0
VERTEX
8
Stencil Cut
10
392.143589
20
263.208044
70
0
0
VERTEX
8
Stencil Cut
10
392.435757
20
261.825965
70
0
0
VERTEX
8
Stencil Cut
10
392.922704
20
260.647134
70
0
0
VERTEX
8
Stencil Cut
10
393.604430
20
259.671550
70
0
0
VERTEX
8
Stencil Cut
10
394.436050
20
258.912759
70
0
0
VERTEX
8
Stencil Cut
10
395.372680
20
258.370765
70
0
0
VERTEX
8
Stencil Cut
10
396.414320
20
258.045569
70
0
0
VERTEX
8
Stencil Cut
10
397.560970
20
257.937170
70
0
0
VERTEX
8
Stencil Cut
10
398.705931
20
258.044722
70
0
0
VERTEX
8
Stencil Cut
10
399.742493
20
258.367377
70
0
0
VERTEX
8
Stencil Cut
10
400.670656
20
258.905137
70
0
0
VERTEX
8
Stencil Cut
10
401.490420
20
259.658000
70
0
0
VERTEX
8
Stencil Cut
10
402.166218
20
260.632737
70
0
0
VERTEX
8
Stencil Cut
10
402.648930
20
261.822577
70
0
0
VERTEX
8
Stencil Cut
10
402.938558
20
263.227522
70
0
0
VERTEX
8
Stencil Cut
10
403.035100
20
264.847570
70
0
0
VERTEX
8
Stencil Cut
10
402.941098
20
266.446447
70
0
0
VERTEX
8
Stencil Cut
10
402.659093
20
267.828528
70
0
0
VERTEX
8
Stencil Cut
10
402.189083
20
268.993812
70
0
0
VERTEX
8
Stencil Cut
10
401.531070
20
269.942300
70
0
0
VERTEX
8
Stencil Cut
10
400.724009
20
270.677374
70
0
0
VERTEX
8
Stencil Cut
10
399.793305
20
271.202427
70
0
0
VERTEX
8
Stencil Cut
10
398.738959
20
271.517459
70
0
0
VERTEX
8
Stencil Cut
10
397.560970
20
271.622470
70
0
0
VERTEX
8
Stencil Cut
10
396.381292
20
271.515766
70
0
0
VERTEX
8
Stencil Cut
10
395.321867
20
271.195653
70
0
0
VERTEX
8
Stencil Cut
10
394.382697
20
270.662131
70
0
0
VERTEX
8
Stencil Cut
10
393.563780
20
269.915200
70
0
0
VERTEX
8
Stencil Cut
10
392.899839
20
268.959937
70
0
0
VERTEX
8
Stencil Cut
10
392.425595
20
267.787878
70
0
0
VERTEX
8
Stencil Cut
10
392.141049
20
266.399022
70
0
0
VERTEX
8
Stencil Cut
10
392.046200
20
264.793370
70
0
0
VERTEX
8
Stencil Cut
10
392.046200
20
264.793370
70
0
0
SEQEND
8
Stencil Cut
0
POLYLINE
8
Stencil Cut
62
7
70
0
10
0.000000
20
0.000000
66
1
0
VERTEX
8
Stencil Cut
10
392.764340
20
275.850010
70
0
0
VERTEX
8
Stencil Cut
10
392.764340
20
279.115510
70
0
0
VERTEX
8
Stencil Cut
10
396.029850
20
279.115510
70
0
0
VERTEX
8
Stencil Cut
10
396.029850
20
275.850010
70
0
0
VERTEX
8
Stencil Cut
10
392.764340
20
275.850010
70
0
0
SEQEND
8
Stencil Cut
0
POLYLINE
8
Stencil Cut
62
7
70
0
10
0.000000
20
0.000000
66
1
0
VERTEX
8
Stencil Cut
10
398.590760
20
275.850010
70
0
0
VERTEX
8
Stencil Cut
10
398.590760
20
279.115510
70
0
0
VERTEX
8
Stencil Cut
10
401.869810
20
279.115510
70
0
0
VERTEX
8
Stencil Cut
10
401.869810
20
275.850010
70
0
0
VERTEX
8
Stencil Cut
10
398.590760
20
275.850010
70
0
0
SEQEND
8
Stencil Cut
0
POLYLINE
8
Stencil Cut
62
7
70
0
10
0.000000
20
0.000000
66
1
0
VERTEX
8
Stencil Cut
10
440.514950
20
254.847810
70
0
0
VERTEX
8
Stencil Cut
10
440.514950
20
271.351480
70
0
0
VERTEX
8
Stencil Cut
10
434.620790
20
271.351480
70
0
0
VERTEX
8
Stencil Cut
10
434.620790
20
274.711830
70
0
0
VERTEX
8
Stencil Cut
10
450.406310
20
274.711830
70
0
0
VERTEX
8
Stencil Cut
10
450.406310
20
271.351480
70
0
0
VERTEX
8
Stencil Cut
10
444.525700
20
271.351480
70
0
0
VERTEX
8
Stencil Cut
10
444.525700
20
254.847810
70
0
0
VERTEX
8
Stencil Cut
10
440.514950
20
254.847810
70
0
0
SEQEND
8
Stencil Cut
0
POLYLINE
8
Stencil Cut
62
7
70
0
10
0.000000
20
0.000000
66
1
0
VERTEX
8
Stencil Cut
10
480.264400
20
254.847810
70
0
0
VERTEX
8
Stencil Cut
10
480.264400
20
274.711830
70
0
0
VERTEX
8
Stencil Cut
10
486.700560
20
274.711830
70
0
0
VERTEX
8
Stencil Cut
10
489.722167
20
274.637305
70
0
0
VERTEX
8
Stencil Cut
10
491.470090
20
274.413730
70
0
0
VERTEX
8
Stencil Cut
10
493.038482
20
273.702368
70
0
0
VERTEX
8
Stencil Cut
10
494.329100
20
272.462560
70
0
0
VERTEX
8
Stencil Cut
10
494.832982
20
271.662274
70
0
0
VERTEX
8
Stencil Cut
10
495.192897
20
270.751897
70
0
0
VERTEX
8
Stencil Cut
10
495.408847
20
269.731429
70
0
0
VERTEX
8
Stencil Cut
10
495.480830
20
268.600870
70
0
0
VERTEX
8
Stencil Cut
10
495.314845
20
266.917303
70
0
0
VERTEX
8
Stencil Cut
10
494.816890
20
265.525060
70
0
0
VERTEX
8
Stencil Cut
10
494.061490
20
264.410590
70
0
0
VERTEX
8
Stencil Cut
10
493.123170
20
263.560340
70
0
0
VERTEX
8
Stencil Cut
10
492.096770
20
262.974310
70
0
0
VERTEX
8
Stencil Cut
10
491.050050
20
262.625400
70
0
0
VERTEX
8
Stencil Cut
10
489.291962
20
262.411995
70
0
0
VERTEX
8
Stencil Cut
10
486.890260
20
262.340860
70
0
0
VERTEX
8
Stencil Cut
10
484.275150
20
262.340860
70
0
0
VERTEX
8
Stencil Cut
10
484.275150
20
254.847810
70
0
0
VERTEX
8
Stencil Cut
10
480.264400
20
254.847810
70
0
0
SEQEND
8
Stencil Cut
0
POLYLINE
8
Stencil Cut
62
7
70
0
10
0.000000
20
0.000000
66
1
0
VERTEX
8
Stencil Cut
10
484.275150
20
271.351480
70
0
0
VERTEX
8
Stencil Cut
10
484.275150
20
265.714760
70
0
0
VERTEX
8
Stencil Cut
10
486.470210
20
265.714760
70
0
0
VERTEX
8
Stencil Cut
10
488.448485
20
265.792670
70
0
0
VERTEX
8
Stencil Cut
10
489.640870
20
266.026400
70
0
0
VERTEX
8
Stencil Cut
10
490.352235
20
266.426122
70
0
0
VERTEX
8
Stencil Cut
10
490.887450
20
267.001990
70
0
0
VERTEX
8
Stencil Cut
10
491.232967
20
267.720130
70
0
0
VERTEX
8
Stencil Cut
10
491.348140
20
268.546670
70
0
0
VERTEX
8
Stencil Cut
10
491.188930
20
269.535803
70
0
0
VERTEX
8
Stencil Cut
10
490.711300
20
270.335240
70
0
0
VERTEX
8
Stencil Cut
10
489.989775
20
270.907720
70
0
0
VERTEX
8
Stencil Cut
10
489.098880
20
271.215980
70
0
0
VERTEX
8
Stencil Cut
10
486.212770
20
271.351480
70
0
0
VERTEX
8
Stencil Cut
10
484.275150
20
271.351480
70
0
0
SEQEND
8
Stencil Cut
0
POLYLINE
8
Stencil Cut
62
7
70
0
10
0.000000
20
0.000000
66
1
0
VERTEX
8
Stencil Cut
10
30.264404
20
209.847810
70
0
0
VERTEX
8
Stencil Cut
10
30.264404
20
229.711830
70
0
0
VERTEX
8
Stencil Cut
10
44.993042
20
229.711830
70
0
0
VERTEX
8
Stencil Cut
10
44.993042
20
226.351480
70
0
0
VERTEX
8
Stencil Cut
10
34.275146
20
226.351480
70
0
0
VERTEX
8
Stencil Cut
10
34.275146
20
221.947790
70
0
0
VERTEX
8
Stencil Cut
10
44.247803
20
221.947790
70
0
0
VERTEX
8
Stencil Cut
10
44.247803
20
218.600990
70
0
0
VERTEX
8
Stencil Cut
10
34.275146
20
218.600990
70
0
0
VERTEX
8
Stencil Cut
10
34.275146
20
213.194620
70
0
0
VERTEX
8
Stencil Cut
10
45.372437
20
213.194620
70
0
0
VERTEX
8
Stencil Cut
10
45.372437
20
209.847810
70
0
0
VERTEX
8
Stencil Cut
10
30.264404
20
209.847810
70
0
0
SEQEND
8
Stencil Cut
0
POLYLINE
8
Stencil Cut
62
7
70
0
10
0.000000
20
0.000000
66
1
0
VERTEX
8
Stencil Cut
10
80.514954
20
209.847810
70
0
0
VERTEX
8
Stencil Cut
10
80.514954
20
226.351480
70
0
0
VERTEX
8
Stencil Cut
10
74.620789
20
226.351480
70
0
0
VERTEX
8
Stencil Cut
10
74.620789
20
229.711830
70
0
0
VERTEX
8
Stencil Cut
10
90.406311
20
229.711830
70
0
0
VERTEX
8
Stencil Cut
10
90.406311
20
226.351480
70
0
0
VERTEX
8
Stencil Cut
10
84.525696
20
226.351480
70
0
0
VERTEX
8
Stencil Cut
10
84.525696
20
209.847810
70
0
0
VERTEX
8
Stencil Cut
10
80.514954
20
209.847810
70
0
0
SEQEND
8
Stencil Cut
0
POLYLINE
8
Stencil Cut
62
7
70
0
10
0.000000
20
0.000000
66
1
0
VERTEX
8
Stencil Cut
10
125.514950
20
209.847810
70
0
0
VERTEX
8
Stencil Cut
10
125.514950
20
226.351480
70
0
0
VERTEX
8
Stencil Cut
10
119.620790
20
226.351480
70
0
0
VERTEX
8
Stencil Cut
10
119.620790
20
229.711830
70
0
0
VERTEX
8
Stencil Cut
10
135.406310
20
229.711830
70
0
0
VERTEX
8
Stencil Cut
10
135.406310
20
226.351480
70
0
0
VERTEX
8
Stencil Cut
10
129.525700
20
226.351480
70
0
0
VERTEX
8
Stencil Cut
10
129.525700
20
209.847810
70
0
0
VERTEX
8
Stencil Cut
10
125.514950
20
209.847810
70
0
0
SEQEND
8
Stencil Cut
0
POLYLINE
8
Stencil Cut
62
7
70
0
10
0.000000
20
0.000000
66
1
0
VERTEX
8
Stencil Cut
10
164.512390
20
209.847810
70
0
0
VERTEX
8
Stencil Cut
10
164.512390
20
229.711830
70
0
0
VERTEX
8
Stencil Cut
10
172.953920
20
229.711830
70
0
0
VERTEX
8
Stencil Cut
10
175.701140
20
229.576332
70
0
0
VERTEX
8
Stencil Cut
10
177.574400
20
229.169840
70
0
0
VERTEX
8
Stencil Cut
10
178.878570
20
228.431370
70
0
0
VERTEX
8
Stencil Cut
10
179.891420
20
227.272860
70
0
0
VERTEX
8
Stencil Cut
10
180.541813
20
225.806095
70
0
0
VERTEX
8
Stencil Cut
10
180.758610
20
224.142860
70
0
0
VERTEX
8
Stencil Cut
10
180.676464
20
223.073271
70
0
0
VERTEX
8
Stencil Cut
10
180.430025
20
222.100225
70
0
0
VERTEX
8
Stencil Cut
10
180.019294
20
221.223721
70
0
0
VERTEX
8
Stencil Cut
10
179.444270
20
220.443760
70
0
0
VERTEX
8
Stencil Cut
10
178.705806
20
219.785747
70
0
0
VERTEX
8
Stencil Cut
10
177.804745
20
219.261540
70
0
0
VERTEX
8
Stencil Cut
10
176.741086
20
218.871137
70
0
0
VERTEX
8
Stencil Cut
10
175.514830
20
218.614540
70
0
0
VERTEX
8
Stencil Cut
10
176.700438
20
217.818487
70
0
0
VERTEX
8
Stencil Cut
10
177.655700
20
216.947910
70
0
0
VERTEX
8
Stencil Cut
10
178.655000
20
215.687782
70
0
0
VERTEX
8
Stencil Cut
10
179.945620
20
213.723060
70
0
0
VERTEX
8
Stencil Cut
10
182.371030
20
209.847810
70
0
0
VERTEX
8
Stencil Cut
10
177.574400
20
209.847810
70
0
0
VERTEX
8
Stencil Cut
10
174.674740
20
214.170200
70
0
0
VERTEX
8
Stencil Cut
10
172.560970
20
217.083410
70
0
0
VERTEX
8
Stencil Cut
10
171.974942
20
217.594915
70
0
0
VERTEX
8
Stencil Cut
10
171.355040
20
217.909950
70
0
0
VERTEX
8
Stencil Cut
10
170.531890
20
218.082712
70
0
0
VERTEX
8
Stencil Cut
10
169.336120
20
218.140300
70
0
0
VERTEX
8
Stencil Cut
10
168.523130
20
218.140300
70
0
0
VERTEX
8
Stencil Cut
10
168.523130
20
209.847810
70
0
0
VERTEX
8
Stencil Cut
10
164.512390
20
209.847810
70
0
0
SEQEND
8
Stencil Cut
0
POLYLINE
8
Stencil Cut
62
7
70
0
10
0.000000
20
0.000000
66
1
0
VERTEX
8
Stencil Cut
10
168.523130
20
221.310950
70
0
0
VERTEX
8
Stencil Cut
10
171.490540
20
221.310950
70
0
0
VERTEX
8
Stencil Cut
10
173.834658
20
221.371925
70
0
0
VERTEX
8
Stencil Cut
10
175.094790
20
221.554850
70
0
0
VERTEX
8
Stencil Cut
10
175.735018
20
221.886815
70
0
0
VERTEX
8
Stencil Cut
10
176.219420
20
222.394930
70
0
0
VERTEX
8
Stencil Cut
10
176.524295
20
223.065650
70
0
0
VERTEX
8
Stencil Cut
10
176.625920
20
223.885410
70
0
0
VERTEX
8
Stencil Cut
10
176.490420
20
224.789862
70
0
0
VERTEX
8
Stencil Cut
10
176.083920
20
225.497840
70
0
0
VERTEX
8
Stencil Cut
10
175.443695
20
226.005957
70
0
0
VERTEX
8
Stencil Cut
10
174.579900
20
226.283730
70
0
0
VERTEX
8
Stencil Cut
10
171.653140
20
226.351530
70
0
0
VERTEX
8
Stencil Cut
10
168.523130
20
226.351530
70
0
0
VERTEX
8
Stencil Cut
10
168.523130
20
221.310950
70
0
0
SEQEND
8
Stencil Cut
0
POLYLINE
8
Stencil Cut
62
7
70
0
10
0.000000
20
0.000000
66
1
0
VERTEX
8
Stencil Cut
10
215.514950
20
209.847810
70
0
0
VERTEX
8
Stencil Cut
10
215.514950
20
226.351480
70
0
0
VERTEX
8
Stencil Cut
10
209.620790
20
226.351480
70
0
0
VERTEX
8
Stencil Cut
10
209.620790
20
229.711830
70
0
0
VERTEX
8
Stencil Cut
10
225.406310
20
229.711830
70
0
0
VERTEX
8
Stencil Cut
10
225.406310
20
226.351480
70
0
0
VERTEX
8
Stencil Cut
10
219.525700
20
226.351480
70
0
0
VERTEX
8
Stencil Cut
10
219.525700
20
209.847810
70
0
0
VERTEX
8
Stencil Cut
10
215.514950
20
209.847810
70
0
0
SEQEND
8
Stencil Cut
0
POLYLINE
8
Stencil Cut
62
7
70
0
10
0.000000
20
0.000000
66
1
0
VERTEX
8
Stencil Cut
10
260.332030
20
209.847810
70
0
0
VERTEX
8
Stencil Cut
10
253.231930
20
229.711830
70
0
0
VERTEX
8
Stencil Cut
10
257.581420
20
229.711830
70
0
0
VERTEX
8
Stencil Cut
10
262.608400
20
215.010290
70
0
0
VERTEX
8
Stencil Cut
10
267.472780
20
229.711830
70
0
0
VERTEX
8
Stencil Cut
10
271.727420
20
229.711830
70
0
0
VERTEX
8
Stencil Cut
10
264.613770
20
209.847810
70
0
0
VERTEX
8
Stencil Cut
10
260.332030
20
209.847810
70
0
0
SEQEND
8
Stencil Cut
0
POLYLINE
8
Stencil Cut
62
7
70
0
10
0.000000
20
0.000000
66
1
0
VERTEX
8
Stencil Cut
10
317.411680
20
209.847810
70
0
0
VERTEX
8
Stencil Cut
10
313.048650
20
209.847810
70
0
0
VERTEX
8
Stencil Cut
10
311.314270
20
214.359900
70
0
0
VERTEX
8
Stencil Cut
10
303.374080
20
214.359900
70
0
0
VERTEX
8
Stencil Cut
10
301.734560
20
209.847810
70
0
0
VERTEX
8
Stencil Cut
10
297.479920
20
209.847810
70
0
0
VERTEX
8
Stencil Cut
10
305.216860
20
229.711830
70
0
0
VERTEX
8
Stencil Cut
10
309.457950
20
229.711830
70
0
0
VERTEX
8
Stencil Cut
10
317.411680
20
209.847810
70
0
0
SEQEND
8
Stencil Cut
0
POLYLINE
8
Stencil Cut
62
7
70
0
10
0.000000
20
0.000000
66
1
0
VERTEX
8
Stencil Cut
10
310.027040
20
217.706700
70
0
0
VERTEX
8
Stencil Cut
10
307.289980
20
225.077800
70
0
0
VERTEX
8
Stencil Cut
10
304.607120
20
217.706700
70
0
0
VERTEX
8
Stencil Cut
10
310.027040
20
217.706700
70
0
0
SEQEND
8
Stencil Cut
0
POLYLINE
8
Stencil Cut
62
7
70
0
10
0.000000
20
0.000000
66
1
0
VERTEX
8
Stencil Cut
10
309.959340
20
231.012610
70
0
0
VERTEX
8
Stencil Cut
10
309.762867
20
229.992990
70
0
0
VERTEX
8
Stencil Cut
10
309.173450
20
229.129190
70
0
0
VERTEX
8
Stencil Cut
10
308.319813
20
228.549935
70
0
0
VERTEX
8
Stencil Cut
10
307.303580
20
228.356850
70
0
0
VERTEX
8
Stencil Cut
10
306.283952
20
228.549935
70
0
0
VERTEX
8
Stencil Cut
10
305.420150
20
229.129190
70
0
0
VERTEX
8
Stencil Cut
10
304.840903
20
229.992990
70
0
0
VERTEX
8
Stencil Cut
10
304.647820
20
231.012610
70
0
0
VERTEX
8
Stencil Cut
10
304.840903
20
232.028842
70
0
0
VERTEX
8
Stencil Cut
10
305.420150
20
232.882480
70
0
0
VERTEX
8
Stencil Cut
10
306.283952
20
233.471897
70
0
0
VERTEX
8
Stencil Cut
10
307.303580
20
233.668370
70
0
0
VERTEX
8
Stencil Cut
10
308.319813
20
233.475285
70
0
0
VERTEX
8
Stencil Cut
10
309.173450
20
232.896030
70
0
0
VERTEX
8
Stencil Cut
10
309.762867
20
232.039005
70
0
0
VERTEX
8
Stencil Cut
10
309.959340
20
231.012610
70
0
0
VERTEX
8
Stencil Cut
10
309.959340
20
231.012610
70
0
0
SEQEND
8
Stencil Cut
0
POLYLINE
8
Stencil Cut
62
7
70
0
10
0.000000
20
0.000000
66
1
0
VERTEX
8
Stencil Cut
10
308.509510
20
231.012610
70
0
0
VERTEX
8
Stencil Cut
10
308.421437
20
231.476690
70
0
0
VERTEX
8
Stencil Cut
10
308.157220
20
231.866250
70
0
0
VERTEX
8
Stencil Cut
10
307.767660
20
232.130467
70
0
0
VERTEX
8
Stencil Cut
10
307.303580
20
232.218540
70
0
0
VERTEX
8
Stencil Cut
10
306.839500
20
232.130467
70
0
0
VERTEX
8
Stencil Cut
10
306.449940
20
231.866250
70
0
0
VERTEX
8
Stencil Cut
10
306.185723
20
231.476690
70
0
0
VERTEX
8
Stencil Cut
10
306.097650
20
231.012610
70
0
0
VERTEX
8
Stencil Cut
10
306.185723
20
230.548530
70
0
0
VERTEX
8
Stencil Cut
10
306.449940
20
230.158970
70
0
0
VERTEX
8
Stencil Cut
10
306.839500
20
229.894752
70
0
0
VERTEX
8
Stencil Cut
10
307.303580
20
229.806680
70
0
0
VERTEX
8
Stencil Cut
10
307.767660
20
229.894752
70
0
0
VERTEX
8
Stencil Cut
10
308.157220
20
230.158970
70
0
0
VERTEX
8
Stencil Cut
10
308.421437
20
230.548530
70
0
0
VERTEX
8
Stencil Cut
10
308.509510
20
231.012610
70
0
0
VERTEX
8
Stencil Cut
10
308.509510
20
231.012610
70
0
0
SEQEND
8
Stencil Cut
0
POLYLINE
8
Stencil Cut
62
7
70
0
10
0.000000
20
0.000000
66
1
0
VERTEX
8
Stencil Cut
10
346.151920
20
209.847810
70
0
0
VERTEX
8
Stencil Cut
10
346.151920
20
229.549230
70
0
0
VERTEX
8
Stencil Cut
10
350.162660
20
229.549230
70
0
0
VERTEX
8
Stencil Cut
10
350.162660
20
213.194620
70
0
0
VERTEX
8
Stencil Cut
10
360.135310
20
213.194620
70
0
0
VERTEX
8
Stencil Cut
10
360.135310
20
209.847810
70
0
0
VERTEX
8
Stencil Cut
10
346.151920
20
209.847810
70
0
0
SEQEND
8
Stencil Cut
0
POLYLINE
8
Stencil Cut
62
7
70
0
10
0.000000
20
0.000000
66
1
0
VERTEX
8
Stencil Cut
10
389.248170
20
216.311070
70
0
0
VERTEX
8
Stencil Cut
10
393.150510
20
216.690470
70
0
0
VERTEX
8
Stencil Cut
10
393.682342
20
214.986577
70
0
0
VERTEX
8
Stencil Cut
10
394.082908
20
214.330259
70
0
0
VERTEX
8
Stencil Cut
10
394.573240
20
213.804360
70
0
0
VERTEX
8
Stencil Cut
10
395.843538
20
213.113317
70
0
0
VERTEX
8
Stencil Cut
10
397.486450
20
212.882970
70
0
0
VERTEX
8
Stencil Cut
10
399.183562
20
213.086217
70
0
0
VERTEX
8
Stencil Cut
10
400.399660
20
213.695960
70
0
0
VERTEX
8
Stencil Cut
10
401.141507
20
214.590248
70
0
0
VERTEX
8
Stencil Cut
10
401.388790
20
215.620030
70
0
0
VERTEX
8
Stencil Cut
10
401.283780
20
216.270420
70
0
0
VERTEX
8
Stencil Cut
10
400.968750
20
216.812410
70
0
0
VERTEX
8
Stencil Cut
10
400.406435
20
217.279882
70
0
0
VERTEX
8
Stencil Cut
10
399.532470
20
217.679600
70
0
0
VERTEX
8
Stencil Cut
10
396.321170
20
218.546790
70
0
0
VERTEX
8
Stencil Cut
10
393.577330
20
219.437690
70
0
0
VERTEX
8
Stencil Cut
10
392.566175
20
219.951735
70
0
0
VERTEX
8
Stencil Cut
10
391.795530
20
220.511510
70
0
0
VERTEX
8
Stencil Cut
10
390.995246
20
221.376158
70
0
0
VERTEX
8
Stencil Cut
10
390.423615
20
222.330572
70
0
0
VERTEX
8
Stencil Cut
10
390.080636
20
223.374753
70
0
0
VERTEX
8
Stencil Cut
10
389.966310
20
224.508700
70
0
0
VERTEX
8
Stencil Cut
10
390.179720
20
225.975467
70
0
0
VERTEX
8
Stencil Cut
10
390.819950
20
227.340610
70
0
0
VERTEX
8
Stencil Cut
10
391.873442
20
228.509280
70
0
0
VERTEX
8
Stencil Cut
10
393.299560
20
229.359530
70
0
0
VERTEX
8
Stencil Cut
10
395.091522
20
229.877810
70
0
0
VERTEX
8
Stencil Cut
10
397.215450
20
230.050570
70
0
0
VERTEX
8
Stencil Cut
10
398.969304
20
229.948100
70
0
0
VERTEX
8
Stencil Cut
10
400.491117
20
229.640690
70
0
0
VERTEX
8
Stencil Cut
10
401.780889
20
229.128340
70
0
0
VERTEX
8
Stencil Cut
10
402.838620
20
228.411050
70
0
0
VERTEX
8
Stencil Cut
10
403.674476
20
227.522689
70
0
0
VERTEX
8
Stencil Cut
10
404.285065
20
226.497137
70
0
0
VERTEX
8
Stencil Cut
10
404.670386
20
225.334394
70
0
0
VERTEX
8
Stencil Cut
10
404.830440
20
224.034460
70
0
0
VERTEX
8
Stencil Cut
10
400.819700
20
223.858310
70
0
0
VERTEX
8
Stencil Cut
10
400.413210
20
225.172642
70
0
0
VERTEX
8
Stencil Cut
10
399.708620
20
226.053380
70
0
0
VERTEX
8
Stencil Cut
10
398.655120
20
226.561497
70
0
0
VERTEX
8
Stencil Cut
10
397.174800
20
226.730870
70
0
0
VERTEX
8
Stencil Cut
10
395.616575
20
226.551335
70
0
0
VERTEX
8
Stencil Cut
10
394.437740
20
226.012730
70
0
0
VERTEX
8
Stencil Cut
10
393.960110
20
225.474127
70
0
0
VERTEX
8
Stencil Cut
10
393.800900
20
224.779700
70
0
0
VERTEX
8
Stencil Cut
10
393.949947
20
224.125922
70
0
0
VERTEX
8
Stencil Cut
10
394.397090
20
223.573770
70
0
0
VERTEX
8
Stencil Cut
10
395.697872
20
222.923380
70
0
0
VERTEX
8
Stencil Cut
10
398.082640
20
222.245890
70
0
0
VERTEX
8
Stencil Cut
10
400.626617
20
221.541300
70
0
0
VERTEX
8
Stencil Cut
10
402.405030
20
220.809610
70
0
0
VERTEX
8
Stencil Cut
10
403.658387
20
219.939035
70
0
0
VERTEX
8
Stencil Cut
10
404.600100
20
218.790690
70
0
0
VERTEX
8
Stencil Cut
10
405.199680
20
217.364567
70
0
0
VERTEX
8
Stencil Cut
10
405.399540
20
215.633580
70
0
0
VERTEX
8
Stencil Cut
10
405.162417
20
213.980507
70
0
0
VERTEX
8
Stencil Cut
10
404.451050
20
212.435830
70
0
0
VERTEX
8
Stencil Cut
10
403.306090
20
211.135047
70
0
0
VERTEX
8
Stencil Cut
10
401.768190
20
210.213660
70
0
0
VERTEX
8
Stencil Cut
10
399.820402
20
209.675055
70
0
0
VERTEX
8
Stencil Cut
10
397.445800
20
209.495520
70
0
0
VERTEX
8
Stencil Cut
10
395.671624
20
209.603918
70
0
0
VERTEX
8
Stencil Cut
10
394.115937
20
209.929112
70
0
0
VERTEX
8
Stencil Cut
10
392.778739
20
210.471103
70
0
0
VERTEX
8
Stencil Cut
10
391.660030
20
211.229890
70
0
0
VERTEX
8
Stencil Cut
10
390.752194
20
212.202937
70
0
0
VERTEX
8
Stencil Cut
10
390.047605
20
213.374150
70
0
0
VERTEX
8
Stencil Cut
10
389.546264
20
214.743527
70
0
0
VERTEX
8
Stencil Cut
10
389.248170
20
216.311070
70
0
0
VERTEX
8
Stencil Cut
10
389.248170
20
216.311070
70
0
0
SEQEND
8
Stencil Cut
0
POLYLINE
8
Stencil Cut
62
7
70
0
10
0.000000
20
0.000000
66
1
0
VERTEX
8
Stencil Cut
10
434.539490
20
209.847810
70
0
0
VERTEX
8
Stencil Cut
10
434.539490
20
229.711830
70
0
0
VERTEX
8
Stencil Cut
10
438.441830
20
229.711830
70
0
0
VERTEX
8
Stencil Cut
10
446.571720
20
216.446570
70
0
0
VERTEX
8
Stencil Cut
10
446.571720
20
229.711830
70
0
0
VERTEX
8
Stencil Cut
10
450.297910
20
229.711830
70
0
0
VERTEX
8
Stencil Cut
10
450.297910
20
209.847810
70
0
0
VERTEX
8
Stencil Cut
10
446.273620
20
209.847810
70
0
0
VERTEX
8
Stencil Cut
10
438.265690
20
222.801430
70
0
0
VERTEX
8
Stencil Cut
10
438.265690
20
209.847810
70
0
0
VERTEX
8
Stencil Cut
10
434.539490
20
209.847810
70
0
0
SEQEND
8
Stencil Cut
0
POLYLINE
8
Stencil Cut
62
7
70
0
10
0.000000
20
0.000000
66
1
0
VERTEX
8
Stencil Cut
10
479.485290
20
229.711830
70
0
0
VERTEX
8
Stencil Cut
10
486.815730
20
229.711830
70
0
0
VERTEX
8
Stencil Cut
10
489.000640
20
229.616980
70
0
0
VERTEX
8
Stencil Cut
10
490.596130
20
229.332430
70
0
0
VERTEX
8
Stencil Cut
10
492.218723
20
228.617680
70
0
0
VERTEX
8
Stencil Cut
10
493.590640
20
227.503210
70
0
0
VERTEX
8
Stencil Cut
10
494.688172
20
226.039832
70
0
0
VERTEX
8
Stencil Cut
10
495.487610
20
224.278360
70
0
0
VERTEX
8
Stencil Cut
10
495.975403
20
222.157810
70
0
0
VERTEX
8
Stencil Cut
10
496.138000
20
219.590120
70
0
0
VERTEX
8
Stencil Cut
10
495.985565
20
217.306983
70
0
0
VERTEX
8
Stencil Cut
10
495.528260
20
215.362590
70
0
0
VERTEX
8
Stencil Cut
10
494.623810
20
213.401255
70
0
0
VERTEX
8
Stencil Cut
10
493.400940
20
211.853190
70
0
0
VERTEX
8
Stencil Cut
10
492.174680
20
210.948737
70
0
0
VERTEX
8
Stencil Cut
10
490.582580
20
210.267860
70
0
0
VERTEX
8
Stencil Cut
10
489.031128
20
209.952822
70
0
0
VERTEX
8
Stencil Cut
10
487.032530
20
209.847810
70
0
0
VERTEX
8
Stencil Cut
10
479.485290
20
209.847810
70
0
0
VERTEX
8
Stencil Cut
10
479.485290
20
229.711830
70
0
0
SEQEND
8
Stencil Cut
0
POLYLINE
8
Stencil Cut
62
7
70
0
10
0.000000
20
0.000000
66
1
0
VERTEX
8
Stencil Cut
10
483.496030
20
226.351480
70
0
0
VERTEX
8
Stencil Cut
10
483.496030
20
213.194620
70
0
0
VERTEX
8
Stencil Cut
10
486.490540
20
213.194620
70
0
0
VERTEX
8
Stencil Cut
10
488.915950
20
213.384310
70
0
0
VERTEX
8
Stencil Cut
10
489.806852
20
213.712895
70
0
0
VERTEX
8
Stencil Cut
10
490.528380
20
214.210850
70
0
0
VERTEX
8
Stencil Cut
10
491.117798
20
214.979800
70
0
0
VERTEX
8
Stencil Cut
10
491.585270
20
216.121370
70
0
0
VERTEX
8
Stencil Cut
10
491.890137
20
217.703310
70
0
0
VERTEX
8
Stencil Cut
10
491.991760
20
219.766270
70
0
0
VERTEX
8
Stencil Cut
10
491.890137
20
221.802130
70
0
0
VERTEX
8
Stencil Cut
10
491.585270
20
223.302770
70
0
0
VERTEX
8
Stencil Cut
10
491.097473
20
224.400303
70
0
0
VERTEX
8
Stencil Cut
10
490.447080
20
225.226840
70
0
0
VERTEX
8
Stencil Cut
10
489.617155
20
225.806095
70
0
0
VERTEX
8
Stencil Cut
10
488.590760
20
226.161780
70
0
0
VERTEX
8
Stencil Cut
10
485.298160
20
226.351480
70
0
0
VERTEX
8
Stencil Cut
10
483.496030
20
226.351480
70
0
0
SEQEND
8
Stencil Cut
0
POLYLINE
8
Stencil Cut
62
7
70
0
10
0.000000
20
0.000000
66
1
0
VERTEX
8
Stencil Cut
10
35.514954
20
164.847810
70
0
0
VERTEX
8
Stencil Cut
10
35.514954
20
181.351480
70
0
0
VERTEX
8
Stencil Cut
10
29.620789
20
181.351480
70
0
0
VERTEX
8
Stencil Cut
10
29.620789
20
184.711830
70
0
0
VERTEX
8
Stencil Cut
10
45.406311
20
184.711830
70
0
0
VERTEX
8
Stencil Cut
10
45.406311
20
181.351480
70
0
0
VERTEX
8
Stencil Cut
10
39.525696
20
181.351480
70
0
0
VERTEX
8
Stencil Cut
10
39.525696
20
164.847810
70
0
0
VERTEX
8
Stencil Cut
10
35.514954
20
164.847810
70
0
0
SEQEND
8
Stencil Cut
0
POLYLINE
8
Stencil Cut
62
7
70
0
10
0.000000
20
0.000000
66
1
0
VERTEX
8
Stencil Cut
10
74.512390
20
164.847810
70
0
0
VERTEX
8
Stencil Cut
10
74.512390
20
184.711830
70
0
0
VERTEX
8
Stencil Cut
10
82.953918
20
184.711830
70
0
0
VERTEX
8
Stencil Cut
10
85.701142
20
184.576332
70
0
0
VERTEX
8
Stencil Cut
10
87.574402
20
184.169840
70
0
0
VERTEX
8
Stencil Cut
10
88.878570
20
183.431370
70
0
0
VERTEX
8
Stencil Cut
10
89.891418
20
182.272860
70
0
0
VERTEX
8
Stencil Cut
10
90.541809
20
180.806095
70
0
0
VERTEX
8
Stencil Cut
10
90.758606
20
179.142860
70
0
0
VERTEX
8
Stencil Cut
10
90.676460
20
178.073271
70
0
0
VERTEX
8
Stencil Cut
10
90.430023
20
177.100225
70
0
0
VERTEX
8
Stencil Cut
10
90.019295
20
176.223721
70
0
0
VERTEX
8
Stencil Cut
10
89.444275
20
175.443760
70
0
0
VERTEX
8
Stencil Cut
10
88.705811
20
174.785747
70
0
0
VERTEX
8
Stencil Cut
10
87.804749
20
174.261540
70
0
0
VERTEX
8
Stencil Cut
10
86.741089
20
173.871137
70
0
0
VERTEX
8
Stencil Cut
10
85.514832
20
173.614540
70
0
0
VERTEX
8
Stencil Cut
10
86.700440
20
172.818487
70
0
0
VERTEX
8
Stencil Cut
10
87.655701
20
171.947910
70
0
0
VERTEX
8
Stencil Cut
10
88.654999
20
170.687782
70
0
0
VERTEX
8
Stencil Cut
10
89.945618
20
168.723060
70
0
0
VERTEX
8
Stencil Cut
10
92.371033
20
164.847810
70
0
0
VERTEX
8
Stencil Cut
10
87.574402
20
164.847810
70
0
0
VERTEX
8
Stencil Cut
10
84.674744
20
169.170200
70
0
0
VERTEX
8
Stencil Cut
10
82.560974
20
172.083410
70
0
0
VERTEX
8
Stencil Cut
10
81.974945
20
172.594915
70
0
0
VERTEX
8
Stencil Cut
10
81.355042
20
172.909950
70
0
0
VERTEX
8
Stencil Cut
10
80.531891
20
173.082712
70
0
0
VERTEX
8
Stencil Cut
10
79.336121
20
173.140300
70
0
0
VERTEX
8
Stencil Cut
10
78.523132
20
173.140300
70
0
0
VERTEX
8
Stencil Cut
10
78.523132
20
164.847810
70
0
0
VERTEX
8
Stencil Cut
10
74.512390
20
164.847810
70
0
0
SEQEND
8
Stencil Cut
0
POLYLINE
8
Stencil Cut
62
7
70
0
10
0.000000
20
0.000000
66
1
0
VERTEX
8
Stencil Cut
10
78.523132
20
176.310950
70
0
0
VERTEX
8
Stencil Cut
10
81.490540
20
176.310950
70
0
0
VERTEX
8
Stencil Cut
10
83.834656
20
176.371925
70
0
0
VERTEX
8
Stencil Cut
10
85.094788
20
176.554850
70
0
0
VERTEX
8
Stencil Cut
10
85.735016
20
176.886815
70
0
0
VERTEX
8
Stencil Cut
10
86.219421
20
177.394930
70
0
0
VERTEX
8
Stencil Cut
10
86.524292
20
178.065650
70
0
0
VERTEX
8
Stencil Cut
10
86.625916
20
178.885410
70
0
0
VERTEX
8
Stencil Cut
10
86.490418
20
179.789862
70
0
0
VERTEX
8
Stencil Cut
10
86.083923
20
180.497840
70
0
0
VERTEX
8
Stencil Cut
10
85.443695
20
181.005957
70
0
0
VERTEX
8
Stencil Cut
10
84.579895
20
181.283730
70
0
0
VERTEX
8
Stencil Cut
10
81.653137
20
181.351430
70
0
0
VERTEX
8
Stencil Cut
10
78.523132
20
181.351430
70
0
0
VERTEX
8
Stencil Cut
10
78.523132
20
176.310950
70
0
0
SEQEND
8
Stencil Cut
0
POLYLINE
8
Stencil Cut
62
7
70
0
10
0.000000
20
0.000000
66
1
0
VERTEX
8
Stencil Cut
10
120.264400
20
164.847810
70
0
0
VERTEX
8
Stencil Cut
10
120.264400
20
184.711830
70
0
0
VERTEX
8
Stencil Cut
10
134.993040
20
184.711830
70
0
0
VERTEX
8
Stencil Cut
10
134.993040
20
181.351480
70
0
0
VERTEX
8
Stencil Cut
10
124.275150
20
181.351480
70
0
0
VERTEX
8
Stencil Cut
10
124.275150
20
176.947790
70
0
0
VERTEX
8
Stencil Cut
10
134.247800
20
176.947790
70
0
0
VERTEX
8
Stencil Cut
10
134.247800
20
173.600990
70
0
0
VERTEX
8
Stencil Cut
10
124.275150
20
173.600990
70
0
0
VERTEX
8
Stencil Cut
10
124.275150
20
168.194620
70
0
0
VERTEX
8
Stencil Cut
10
135.372440
20
168.194620
70
0
0
VERTEX
8
Stencil Cut
10
135.372440
20
164.847810
70
0
0
VERTEX
8
Stencil Cut
10
120.264400
20
164.847810
70
0
0
SEQEND
8
Stencil Cut
0
POLYLINE
8
Stencil Cut
62
7
70
0
10
0.000000
20
0.000000
66
1
0
VERTEX
8
Stencil Cut
10
164.539490
20
164.847810
70
0
0
VERTEX
8
Stencil Cut
10
164.539490
20
184.711830
70
0
0
VERTEX
8
Stencil Cut
10
168.441830
20
184.711830
70
0
0
VERTEX
8
Stencil Cut
10
176.571720
20
171.446570
70
0
0
VERTEX
8
Stencil Cut
10
176.571720
20
184.711830
70
0
0
VERTEX
8
Stencil Cut
10
180.297910
20
184.711830
70
0
0
VERTEX
8
Stencil Cut
10
180.297910
20
164.847810
70
0
0
VERTEX
8
Stencil Cut
10
176.273620
20
164.847810
70
0
0
VERTEX
8
Stencil Cut
10
168.265690
20
177.801430
70
0
0
VERTEX
8
Stencil Cut
10
168.265690
20
164.847810
70
0
0
VERTEX
8
Stencil Cut
10
164.539490
20
164.847810
70
0
0
SEQEND
8
Stencil Cut
0
POLYLINE
8
Stencil Cut
62
7
70
0
10
0.000000
20
0.000000
66
1
0
VERTEX
8
Stencil Cut
10
211.070620
20
164.847810
70
0
0
VERTEX
8
Stencil Cut
10
211.070620
20
184.711830
70
0
0
VERTEX
8
Stencil Cut
10
224.688170
20
184.711830
70
0
0
VERTEX
8
Stencil Cut
10
224.688170
20
181.351480
70
0
0
VERTEX
8
Stencil Cut
10
215.081360
20
181.351480
70
0
0
VERTEX
8
Stencil Cut
10
215.081360
20
176.649690
70
0
0
VERTEX
8
Stencil Cut
10
223.373840
20
176.649690
70
0
0
VERTEX
8
Stencil Cut
10
223.373840
20
173.289340
70
0
0
VERTEX
8
Stencil Cut
10
215.081360
20
173.289340
70
0
0
VERTEX
8
Stencil Cut
10
215.081360
20
164.847810
70
0
0
VERTEX
8
Stencil Cut
10
211.070620
20
164.847810
70
0
0
SEQEND
8
Stencil Cut
0
POLYLINE
8
Stencil Cut
62
7
70
0
10
0.000000
20
0.000000
66
1
0
VERTEX
8
Stencil Cut
10
260.481080
20
164.847810
70
0
0
VERTEX
8
Stencil Cut
10
260.481080
20
173.208040
70
0
0
VERTEX
8
Stencil Cut
10
253.204830
20
184.711830
70
0
0
VERTEX
8
Stencil Cut
10
257.906620
20
184.711830
70
0
0
VERTEX
8
Stencil Cut
10
262.581300
20
176.852940
70
0
0
VERTEX
8
Stencil Cut
10
267.161130
20
184.711830
70
0
0
VERTEX
8
Stencil Cut
10
271.781620
20
184.711830
70
0
0
VERTEX
8
Stencil Cut
10
264.478270
20
173.180940
70
0
0
VERTEX
8
Stencil Cut
10
264.478270
20
164.847810
70
0
0
VERTEX
8
Stencil Cut
10
260.481080
20
164.847810
70
0
0
SEQEND
8
Stencil Cut
0
POLYLINE
8
Stencil Cut
62
7
70
0
10
0.000000
20
0.000000
66
1
0
VERTEX
8
Stencil Cut
10
299.512390
20
164.847810
70
0
0
VERTEX
8
Stencil Cut
10
299.512390
20
184.711830
70
0
0
VERTEX
8
Stencil Cut
10
307.953920
20
184.711830
70
0
0
VERTEX
8
Stencil Cut
10
310.701140
20
184.576332
70
0
0
VERTEX
8
Stencil Cut
10
312.574400
20
184.169840
70
0
0
VERTEX
8
Stencil Cut
10
313.878570
20
183.431370
70
0
0
VERTEX
8
Stencil Cut
10
314.891420
20
182.272860
70
0
0
VERTEX
8
Stencil Cut
10
315.541812
20
180.806095
70
0
0
VERTEX
8
Stencil Cut
10
315.758610
20
179.142860
70
0
0
VERTEX
8
Stencil Cut
10
315.676464
20
178.073271
70
0
0
VERTEX
8
Stencil Cut
10
315.430025
20
177.100225
70
0
0
VERTEX
8
Stencil Cut
10
315.019294
20
176.223721
70
0
0
VERTEX
8
Stencil Cut
10
314.444270
20
175.443760
70
0
0
VERTEX
8
Stencil Cut
10
313.705806
20
174.785747
70
0
0
VERTEX
8
Stencil Cut
10
312.804745
20
174.261540
70
0
0
VERTEX
8
Stencil Cut
10
311.741086
20
173.871137
70
0
0
VERTEX
8
Stencil Cut
10
310.514830
20
173.614540
70
0
0
VERTEX
8
Stencil Cut
10
311.700437
20
172.818487
70
0
0
VERTEX
8
Stencil Cut
10
312.655700
20
171.947910
70
0
0
VERTEX
8
Stencil Cut
10
313.655000
20
170.687782
70
0
0
VERTEX
8
Stencil Cut
10
314.945620
20
168.723060
70
0
0
VERTEX
8
Stencil Cut
10
317.371030
20
164.847810
70
0
0
VERTEX
8
Stencil Cut
10
312.574400
20
164.847810
70
0
0
VERTEX
8
Stencil Cut
10
309.674740
20
169.170200
70
0
0
VERTEX
8
Stencil Cut
10
307.560970
20
172.083410
70
0
0
VERTEX
8
Stencil Cut
10
306.974942
20
172.594915
70
0
0
VERTEX
8
Stencil Cut
10
306.355040
20
172.909950
70
0
0
VERTEX
8
Stencil Cut
10
305.531890
20
173.082712
70
0
0
VERTEX
8
Stencil Cut
10
304.336120
20
173.140300
70
0
0
VERTEX
8
Stencil Cut
10
303.523130
20
173.140300
70
0
0
VERTEX
8
Stencil Cut
10
303.523130
20
164.847810
70
0
0
VERTEX
8
Stencil Cut
10
299.512390
20
164.847810
70
0
0
SEQEND
8
Stencil Cut
0
POLYLINE
8
Stencil Cut
62
7
70
0
10
0.000000
20
0.000000
66
1
0
VERTEX
8
Stencil Cut
10
303.523130
20
176.310950
70
0
0
VERTEX
8
Stencil Cut
10
306.490540
20
176.310950
70
0
0
VERTEX
8
Stencil Cut
10
308.834657
20
176.371925
70
0
0
VERTEX
8
Stencil Cut
10
310.094790
20
176.554850
70
0
0
VERTEX
8
Stencil Cut
10
310.735017
20
176.886815
70
0
0
VERTEX
8
Stencil Cut
10
311.219420
20
177.394930
70
0
0
VERTEX
8
Stencil Cut
10
311.524295
20
178.065650
70
0
0
VERTEX
8
Stencil Cut
10
311.625920
20
178.885410
70
0
0
VERTEX
8
Stencil Cut
10
311.490420
20
179.789862
70
0
0
VERTEX
8
Stencil Cut
10
311.083920
20
180.497840
70
0
0
VERTEX
8
Stencil Cut
10
310.443695
20
181.005957
70
0
0
VERTEX
8
Stencil Cut
10
309.579900
20
181.283730
70
0
0
VERTEX
8
Stencil Cut
10
306.653140
20
181.351430
70
0
0
VERTEX
8
Stencil Cut
10
303.523130
20
181.351430
70
0
0
VERTEX
8
Stencil Cut
10
303.523130
20
176.310950
70
0
0
SEQEND
8
Stencil Cut
0
POLYLINE
8
Stencil Cut
62
7
70
0
10
0.000000
20
0.000000
66
1
0
VERTEX
8
Stencil Cut
10
362.411680
20
164.847810
70
0
0
VERTEX
8
Stencil Cut
10
358.048650
20
164.847810
70
0
0
VERTEX
8
Stencil Cut
10
356.314270
20
169.359900
70
0
0
VERTEX
8
Stencil Cut
10
348.374080
20
169.359900
70
0
0
VERTEX
8
Stencil Cut
10
346.734560
20
164.847810
70
0
0
VERTEX
8
Stencil Cut
10
342.479920
20
164.847810
70
0
0
VERTEX
8
Stencil Cut
10
350.216860
20
184.711830
70
0
0
VERTEX
8
Stencil Cut
10
354.457950
20
184.711830
70
0
0
VERTEX
8
Stencil Cut
10
362.411680
20
164.847810
70
0
0
SEQEND
8
Stencil Cut
0
POLYLINE
8
Stencil Cut
62
7
70
0
10
0.000000
20
0.000000
66
1
0
VERTEX
8
Stencil Cut
10
355.027040
20
172.706700
70
0
0
VERTEX
8
Stencil Cut
10
352.289980
20
180.077800
70
0
0
VERTEX
8
Stencil Cut
10
349.607120
20
172.706700
70
0
0
VERTEX
8
Stencil Cut
10
355.027040
20
172.706700
70
0
0
SEQEND
8
Stencil Cut
0
POLYLINE
8
Stencil Cut
62
7
70
0
10
0.000000
20
0.000000
66
1
0
VERTEX
8
Stencil Cut
10
387.913510
20
174.657870
70
0
0
VERTEX
8
Stencil Cut
10
388.140470
20
177.449133
70
0
0
VERTEX
8
Stencil Cut
10
388.821350
20
179.752600
70
0
0
VERTEX
8
Stencil Cut
10
389.620787
20
181.192268
70
0
0
VERTEX
8
Stencil Cut
10
390.664120
20
182.476110
70
0
0
VERTEX
8
Stencil Cut
10
391.897157
20
183.526218
70
0
0
VERTEX
8
Stencil Cut
10
393.238590
20
184.264680
70
0
0
VERTEX
8
Stencil Cut
10
395.237183
20
184.854097
70
0
0
VERTEX
8
Stencil Cut
10
397.520320
20
185.050570
70
0
0
VERTEX
8
Stencil Cut
10
399.605297
20
184.880351
70
0
0
VERTEX
8
Stencil Cut
10
401.470090
20
184.369692
70
0
0
VERTEX
8
Stencil Cut
10
403.114697
20
183.518596
70
0
0
VERTEX
8
Stencil Cut
10
404.539120
20
182.327060
70
0
0
VERTEX
8
Stencil Cut
10
405.695091
20
180.832348
70
0
0
VERTEX
8
Stencil Cut
10
406.520785
20
179.071720
70
0
0
VERTEX
8
Stencil Cut
10
407.016201
20
177.045178
70
0
0
VERTEX
8
Stencil Cut
10
407.181340
20
174.752720
70
0
0
VERTEX
8
Stencil Cut
10
407.017895
20
172.478047
70
0
0
VERTEX
8
Stencil Cut
10
406.527560
20
170.464208
70
0
0
VERTEX
8
Stencil Cut
10
405.710335
20
168.711202
70
0
0
VERTEX
8
Stencil Cut
10
404.566220
20
167.219030
70
0
0
VERTEX
8
Stencil Cut
10
403.148573
20
166.033423
70
0
0
VERTEX
8
Stencil Cut
10
401.510740
20
165.186560
70
0
0
VERTEX
8
Stencil Cut
10
399.652722
20
164.678443
70
0
0
VERTEX
8
Stencil Cut
10
397.574520
20
164.509070
70
0
0
VERTEX
8
Stencil Cut
10
395.472609
20
164.677596
70
0
0
VERTEX
8
Stencil Cut
10
393.597657
20
165.183173
70
0
0
VERTEX
8
Stencil Cut
10
391.949664
20
166.025801
70
0
0
VERTEX
8
Stencil Cut
10
390.528630
20
167.205480
70
0
0
VERTEX
8
Stencil Cut
10
389.384515
20
168.687489
70
0
0
VERTEX
8
Stencil Cut
10
388.567290
20
170.423558
70
0
0
VERTEX
8
Stencil Cut
10
388.076955
20
172.413684
70
0
0
VERTEX
8
Stencil Cut
10
387.913510
20
174.657870
70
0
0
VERTEX
8
Stencil Cut
10
387.913510
20
174.657870
70
0
0
SEQEND
8
Stencil Cut
0
POLYLINE
8
Stencil Cut
62
7
70
0
10
0.000000
20
0.000000
66
1
0
VERTEX
8
Stencil Cut
10
392.046200
20
174.793370
70
0
0
VERTEX
8
Stencil Cut
10
392.143589
20
173.208044
70
0
0
VERTEX
8
Stencil Cut
10
392.435757
20
171.825965
70
0
0
VERTEX
8
Stencil Cut
10
392.922704
20
170.647134
70
0
0
VERTEX
8
Stencil Cut
10
393.604430
20
169.671550
70
0
0
VERTEX
8
Stencil Cut
10
394.436050
20
168.912759
70
0
0
VERTEX
8
Stencil Cut
10
395.372680
20
168.370765
70
0
0
VERTEX
8
Stencil Cut
10
396.414320
20
168.045569
70
0
0
VERTEX
8
Stencil Cut
10
397.560970
20
167.937170
70
0
0
VERTEX
8
Stencil Cut
10
398.705931
20
168.044722
70
0
0
VERTEX
8
Stencil Cut
10
399.742493
20
168.367377
70
0
0
VERTEX
8
Stencil Cut
10
400.670656
20
168.905137
70
0
0
VERTEX
8
Stencil Cut
10
401.490420
20
169.658000
70
0
0
VERTEX
8
Stencil Cut
10
402.166218
20
170.632737
70
0
0
VERTEX
8
Stencil Cut
10
402.648930
20
171.822577
70
0
0
VERTEX
8
Stencil Cut
10
402.938558
20
173.227522
70
0
0
VERTEX
8
Stencil Cut
10
403.035100
20
174.847570
70
0
0
VERTEX
8
Stencil Cut
10
402.941098
20
176.446447
70
0
0
VERTEX
8
Stencil Cut
10
402.659093
20
177.828527
70
0
0
VERTEX
8
Stencil Cut
10
402.189083
20
178.993812
70
0
0
VERTEX
8
Stencil Cut
10
401.531070
20
179.942300
70
0
0
VERTEX
8
Stencil Cut
10
400.724009
20
180.677374
70
0
0
VERTEX
8
Stencil Cut
10
399.793305
20
181.202427
70
0
0
VERTEX
8
Stencil Cut
10
398.738959
20
181.517459
70
0
0
VERTEX
8
Stencil Cut
10
397.560970
20
181.622470
70
0
0
VERTEX
8
Stencil Cut
10
396.381292
20
181.515766
70
0
0
VERTEX
8
Stencil Cut
10
395.321867
20
181.195652
70
0
0
VERTEX
8
Stencil Cut
10
394.382697
20
180.662131
70
0
0
VERTEX
8
Stencil Cut
10
393.563780
20
179.915200
70
0
0
VERTEX
8
Stencil Cut
10
392.899839
20
178.959937
70
0
0
VERTEX
8
Stencil Cut
10
392.425595
20
177.787877
70
0
0
VERTEX
8
Stencil Cut
10
392.141049
20
176.399022
70
0
0
VERTEX
8
Stencil Cut
10
392.046200
20
174.793370
70
0
0
VERTEX
8
Stencil Cut
10
392.046200
20
174.793370
70
0
0
SEQEND
8
Stencil Cut
0
POLYLINE
8
Stencil Cut
62
7
70
0
10
0.000000
20
0.000000
66
1
0
VERTEX
8
Stencil Cut
10
434.248170
20
171.311070
70
0
0
VERTEX
8
Stencil Cut
10
438.150510
20
171.690470
70
0
0
VERTEX
8
Stencil Cut
10
438.682342
20
169.986577
70
0
0
VERTEX
8
Stencil Cut
10
439.082908
20
169.330259
70
0
0
VERTEX
8
Stencil Cut
10
439.573240
20
168.804360
70
0
0
VERTEX
8
Stencil Cut
10
440.843538
20
168.113317
70
0
0
VERTEX
8
Stencil Cut
10
442.486450
20
167.882970
70
0
0
VERTEX
8
Stencil Cut
10
444.183562
20
168.086217
70
0
0
VERTEX
8
Stencil Cut
10
445.399660
20
168.695960
70
0
0
VERTEX
8
Stencil Cut
10
446.141507
20
169.590248
70
0
0
VERTEX
8
Stencil Cut
10
446.388790
20
170.620030
70
0
0
VERTEX
8
Stencil Cut
10
446.283780
20
171.270420
70
0
0
VERTEX
8
Stencil Cut
10
445.968750
20
171.812410
70
0
0
VERTEX
8
Stencil Cut
10
445.406435
20
172.279882
70
0
0
VERTEX
8
Stencil Cut
10
444.532470
20
172.679600
70
0
0
VERTEX
8
Stencil Cut
10
441.321170
20
173.546790
70
0
0
VERTEX
8
Stencil Cut
10
438.577330
20
174.437690
70
0
0
VERTEX
8
Stencil Cut
10
437.566175
20
174.951735
70
0
0
VERTEX
8
Stencil Cut
10
436.795530
20
175.511510
70
0
0
VERTEX
8
Stencil Cut
10
435.995246
20
176.376158
70
0
0
VERTEX
8
Stencil Cut
10
435.423615
20
177.330572
70
0
0
VERTEX
8
Stencil Cut
10
435.080636
20
178.374753
70
0
0
VERTEX
8
Stencil Cut
10
434.966310
20
179.508700
70
0
0
VERTEX
8
Stencil Cut
10
435.179720
20
180.975467
70
0
0
VERTEX
8
Stencil Cut
10
435.819950
20
182.340610
70
0
0
VERTEX
8
Stencil Cut
10
436.873442
20
183.509280
70
0
0
VERTEX
8
Stencil Cut
10
438.299560
20
184.359530
70
0
0
VERTEX
8
Stencil Cut
10
440.091522
20
184.877810
70
0
0
VERTEX
8
Stencil Cut
10
442.215450
20
185.050570
70
0
0
VERTEX
8
Stencil Cut
10
443.969304
20
184.948100
70
0
0
VERTEX
8
Stencil Cut
10
445.491117
20
184.640690
70
0
0
VERTEX
8
Stencil Cut
10
446.780889
20
184.128340
70
0
0
VERTEX
8
Stencil Cut
10
447.838620
20
183.411050
70
0
0
VERTEX
8
Stencil Cut
10
448.674476
20
182.522689
70
0
0
VERTEX
8
Stencil Cut
10
449.285065
20
181.497137
70
0
0
VERTEX
8
Stencil Cut
10
449.670386
20
180.334394
70
0
0
VERTEX
8
Stencil Cut
10
449.830440
20
179.034460
70
0
0
VERTEX
8
Stencil Cut
10
445.819700
20
178.858310
70
0
0
VERTEX
8
Stencil Cut
10
445.413210
20
180.172642
70
0
0
VERTEX
8
Stencil Cut
10
444.708620
20
181.053380
70
0
0
VERTEX
8
Stencil Cut
10
443.655120
20
181.561497
70
0
0
VERTEX
8
Stencil Cut
10
442.174800
20
181.730870
70
0
0
VERTEX
8
Stencil Cut
10
440.616575
20
181.551335
70
0
0
VERTEX
8
Stencil Cut
10
439.437740
20
181.012730
70
0
0
VERTEX
8
Stencil Cut
10
438.960110
20
180.474127
70
0
0
VERTEX
8
Stencil Cut
10
438.800900
20
179.779700
70
0
0
VERTEX
8
Stencil Cut
10
438.949947
20
179.125922
70
0
0
VERTEX
8
Stencil Cut
10
439.397090
20
178.573770
70
0
0
VERTEX
8
Stencil Cut
10
440.697872
20
177.923380
70
0
0
VERTEX
8
Stencil Cut
10
443.082640
20
177.245890
70
0
0
VERTEX
8
Stencil Cut
10
445.626617
20
176.541300
70
0
0
VERTEX
8
Stencil Cut
10
447.405030
20
175.809610
70
0
0
VERTEX
8
Stencil Cut
10
448.658387
20
174.939035
70
0
0
VERTEX
8
Stencil Cut
10
449.600100
20
173.790690
70
0
0
VERTEX
8
Stencil Cut
10
450.199680
20
172.364567
70
0
0
VERTEX
8
Stencil Cut
10
450.399540
20
170.633580
70
0
0
VERTEX
8
Stencil Cut
10
450.162417
20
168.980507
70
0
0
VERTEX
8
Stencil Cut
10
449.451050
20
167.435830
70
0
0
VERTEX
8
Stencil Cut
10
448.306090
20
166.135047
70
0
0
VERTEX
8
Stencil Cut
10
446.768190
20
165.213660
70
0
0
VERTEX
8
Stencil Cut
10
444.820402
20
164.675055
70
0
0
VERTEX
8
Stencil Cut
10
442.445800
20
164.495520
70
0
0
VERTEX
8
Stencil Cut
10
440.671624
20
164.603918
70
0
0
VERTEX
8
Stencil Cut
10
439.115937
20
164.929112
70
0
0
VERTEX
8
Stencil Cut
10
437.778739
20
165.471103
70
0
0
VERTEX
8
Stencil Cut
10
436.660030
20
166.229890
70
0
0
VERTEX
8
Stencil Cut
10
435.752194
20
167.202937
70
0
0
VERTEX
8
Stencil Cut
10
435.047605
20
168.374150
70
0
0
VERTEX
8
Stencil Cut
10
434.546264
20
169.743527
70
0
0
VERTEX
8
Stencil Cut
10
434.248170
20
171.311070
70
0
0
VERTEX
8
Stencil Cut
10
434.248170
20
171.311070
70
0
0
SEQEND
8
Stencil Cut
0
POLYLINE
8
Stencil Cut
62
7
70
0
10
0.000000
20
0.000000
66
1
0
VERTEX
8
Stencil Cut
10
485.514950
20
164.847810
70
0
0
VERTEX
8
Stencil Cut
10
485.514950
20
181.351480
70
0
0
VERTEX
8
Stencil Cut
10
479.620790
20
181.351480
70
0
0
VERTEX
8
Stencil Cut
10
479.620790
20
184.711830
70
0
0
VERTEX
8
Stencil Cut
10
495.406310
20
184.711830
70
0
0
VERTEX
8
Stencil Cut
10
495.406310
20
181.351480
70
0
0
VERTEX
8
Stencil Cut
10
489.525700
20
181.351480
70
0
0
VERTEX
8
Stencil Cut
10
489.525700
20
164.847810
70
0
0
VERTEX
8
Stencil Cut
10
485.514950
20
164.847810
70
0
0
SEQEND
8
Stencil Cut
0
POLYLINE
8
Stencil Cut
62
7
70
0
10
0.000000
20
0.000000
66
1
0
VERTEX
8
Stencil Cut
10
31.070618
20
119.847810
70
0
0
VERTEX
8
Stencil Cut
10
31.070618
20
139.711830
70
0
0
VERTEX
8
Stencil Cut
10
44.688171
20
139.711830
70
0
0
VERTEX
8
Stencil Cut
10
44.688171
20
136.351480
70
0
0
VERTEX
8
Stencil Cut
10
35.081360
20
136.351480
70
0
0
VERTEX
8
Stencil Cut
10
35.081360
20
131.649690
70
0
0
VERTEX
8
Stencil Cut
10
43.373840
20
131.649690
70
0
0
VERTEX
8
Stencil Cut
10
43.373840
20
128.289340
70
0
0
VERTEX
8
Stencil Cut
10
35.081360
20
128.289340
70
0
0
VERTEX
8
Stencil Cut
10
35.081360
20
119.847810
70
0
0
VERTEX
8
Stencil Cut
10
31.070618
20
119.847810
70
0
0
SEQEND
8
Stencil Cut
0
POLYLINE
8
Stencil Cut
62
7
70
0
10
0.000000
20
0.000000
66
1
0
VERTEX
8
Stencil Cut
10
75.264404
20
119.847810
70
0
0
VERTEX
8
Stencil Cut
10
75.264404
20
139.711830
70
0
0
VERTEX
8
Stencil Cut
10
89.993042
20
139.711830
70
0
0
VERTEX
8
Stencil Cut
10
89.993042
20
136.351480
70
0
0
VERTEX
8
Stencil Cut
10
79.275146
20
136.351480
70
0
0
VERTEX
8
Stencil Cut
10
79.275146
20
131.947790
70
0
0
VERTEX
8
Stencil Cut
10
89.247803
20
131.947790
70
0
0
VERTEX
8
Stencil Cut
10
89.247803
20
128.600990
70
0
0
VERTEX
8
Stencil Cut
10
79.275146
20
128.600990
70
0
0
VERTEX
8
Stencil Cut
10
79.275146
20
123.194620
70
0
0
VERTEX
8
Stencil Cut
10
90.372437
20
123.194620
70
0
0
VERTEX
8
Stencil Cut
10
90.372437
20
119.847810
70
0
0
VERTEX
8
Stencil Cut
10
75.264404
20
119.847810
70
0
0
SEQEND
8
Stencil Cut
0
POLYLINE
8
Stencil Cut
62
7
70
0
10
0.000000
20
0.000000
66
1
0
VERTEX
8
Stencil Cut
10
117.906740
20
119.847810
70
0
0
VERTEX
8
Stencil Cut
10
117.906740
20
139.711830
70
0
0
VERTEX
8
Stencil Cut
10
123.909300
20
139.711830
70
0
0
VERTEX
8
Stencil Cut
10
127.513550
20
126.162020
70
0
0
VERTEX
8
Stencil Cut
10
131.077150
20
139.711830
70
0
0
VERTEX
8
Stencil Cut
10
137.093260
20
139.711830
70
0
0
VERTEX
8
Stencil Cut
10
137.093260
20
119.847810
70
0
0
VERTEX
8
Stencil Cut
10
133.367070
20
119.847810
70
0
0
VERTEX
8
Stencil Cut
10
133.367070
20
135.484290
70
0
0
VERTEX
8
Stencil Cut
10
129.424070
20
119.847810
70
0
0
VERTEX
8
Stencil Cut
10
125.562380
20
119.847810
70
0
0
VERTEX
8
Stencil Cut
10
121.632930
20
135.484290
70
0
0
VERTEX
8
Stencil Cut
10
121.632930
20
119.847810
70
0
0
VERTEX
8
Stencil Cut
10
117.906740
20
119.847810
70
0
0
SEQEND
8
Stencil Cut
0
POLYLINE
8
Stencil Cut
62
7
70
0
10
0.000000
20
0.000000
66
1
0
VERTEX
8
Stencil Cut
10
164.512390
20
139.711830
70
0
0
VERTEX
8
Stencil Cut
10
172.452580
20
139.711830
70
0
0
VERTEX
8
Stencil Cut
10
175.961980
20
139.508580
70
0
0
VERTEX
8
Stencil Cut
10
177.062900
20
139.210482
70
0
0
VERTEX
8
Stencil Cut
10
178.035100
20
138.695590
70
0
0
VERTEX
8
Stencil Cut
10
178.878570
20
137.967290
70
0
0
VERTEX
8
Stencil Cut
10
179.566220
20
137.028970
70
0
0
VERTEX
8
Stencil Cut
10
180.023525
20
135.934820
70
0
0
VERTEX
8
Stencil Cut
10
180.175960
20
134.711950
70
0
0
VERTEX
8
Stencil Cut
10
179.986265
20
133.373907
70
0
0
VERTEX
8
Stencil Cut
10
179.417180
20
132.151040
70
0
0
VERTEX
8
Stencil Cut
10
178.536440
20
131.131412
70
0
0
VERTEX
8
Stencil Cut
10
177.384700
20
130.403110
70
0
0
VERTEX
8
Stencil Cut
10
178.990355
20
129.688360
70
0
0
VERTEX
8
Stencil Cut
10
180.175960
20
128.600990
70
0
0
VERTEX
8
Stencil Cut
10
180.907652
20
127.215522
70
0
0
VERTEX
8
Stencil Cut
10
181.151550
20
125.606480
70
0
0
VERTEX
8
Stencil Cut
10
180.992340
20
124.268437
70
0
0
VERTEX
8
Stencil Cut
10
180.514710
20
122.964270
70
0
0
VERTEX
8
Stencil Cut
10
179.772857
20
121.815925
70
0
0
VERTEX
8
Stencil Cut
10
178.793880
20
120.918250
70
0
0
VERTEX
8
Stencil Cut
10
177.581175
20
120.305120
70
0
0
VERTEX
8
Stencil Cut
10
176.111020
20
119.983310
70
0
0
VERTEX
8
Stencil Cut
10
171.273740
20
119.847810
70
0
0
VERTEX
8
Stencil Cut
10
164.512390
20
119.847810
70
0
0
VERTEX
8
Stencil Cut
10
164.512390
20
139.711830
70
0
0
SEQEND
8
Stencil Cut
0
POLYLINE
8
Stencil Cut
62
7
70
0
10
0.000000
20
0.000000
66
1
0
VERTEX
8
Stencil Cut
10
168.523130
20
136.405680
70
0
0
VERTEX
8
Stencil Cut
10
168.523130
20
131.812290
70
0
0
VERTEX
8
Stencil Cut
10
171.151790
20
131.812290
70
0
0
VERTEX
8
Stencil Cut
10
174.065000
20
131.879990
70
0
0
VERTEX
8
Stencil Cut
10
174.983002
20
132.117113
70
0
0
VERTEX
8
Stencil Cut
10
175.677430
20
132.584580
70
0
0
VERTEX
8
Stencil Cut
10
176.124572
20
133.272232
70
0
0
VERTEX
8
Stencil Cut
10
176.273620
20
134.142810
70
0
0
VERTEX
8
Stencil Cut
10
176.144897
20
134.976125
70
0
0
VERTEX
8
Stencil Cut
10
175.758730
20
135.633290
70
0
0
VERTEX
8
Stencil Cut
10
175.132052
20
136.100757
70
0
0
VERTEX
8
Stencil Cut
10
174.254700
20
136.337880
70
0
0
VERTEX
8
Stencil Cut
10
170.826600
20
136.405680
70
0
0
VERTEX
8
Stencil Cut
10
168.523130
20
136.405680
70
0
0
SEQEND
8
Stencil Cut
0
POLYLINE
8
Stencil Cut
62
7
70
0
10
0.000000
20
0.000000
66
1
0
VERTEX
8
Stencil Cut
10
168.523130
20
128.506140
70
0
0
VERTEX
8
Stencil Cut
10
168.523130
20
123.194620
70
0
0
VERTEX
8
Stencil Cut
10
172.235780
20
123.194620
70
0
0
VERTEX
8
Stencil Cut
10
174.986390
20
123.316560
70
0
0
VERTEX
8
Stencil Cut
10
175.795992
20
123.594333
70
0
0
VERTEX
8
Stencil Cut
10
176.436220
20
124.102450
70
0
0
VERTEX
8
Stencil Cut
10
176.863037
20
124.844303
70
0
0
VERTEX
8
Stencil Cut
10
177.005310
20
125.796180
70
0
0
VERTEX
8
Stencil Cut
10
176.896912
20
126.622720
70
0
0
VERTEX
8
Stencil Cut
10
176.571720
20
127.313760
70
0
0
VERTEX
8
Stencil Cut
10
176.039885
20
127.852363
70
0
0
VERTEX
8
Stencil Cut
10
175.311580
20
128.221590
70
0
0
VERTEX
8
Stencil Cut
10
174.017580
20
128.435003
70
0
0
VERTEX
8
Stencil Cut
10
171.761540
20
128.506140
70
0
0
VERTEX
8
Stencil Cut
10
168.523130
20
128.506140
70
0
0
SEQEND
8
Stencil Cut
0
POLYLINE
8
Stencil Cut
62
7
70
0
10
0.000000
20
0.000000
66
1
0
VERTEX
8
Stencil Cut
10
209.248170
20
126.311070
70
0
0
VERTEX
8
Stencil Cut
10
213.150510
20
126.690470
70
0
0
VERTEX
8
Stencil Cut
10
213.682343
20
124.986577
70
0
0
VERTEX
8
Stencil Cut
10
214.082908
20
124.330259
70
0
0
VERTEX
8
Stencil Cut
10
214.573240
20
123.804360
70
0
0
VERTEX
8
Stencil Cut
10
215.843537
20
123.113317
70
0
0
VERTEX
8
Stencil Cut
10
217.486450
20
122.882970
70
0
0
VERTEX
8
Stencil Cut
10
219.183562
20
123.086217
70
0
0
VERTEX
8
Stencil Cut
10
220.399660
20
123.695960
70
0
0
VERTEX
8
Stencil Cut
10
221.141507
20
124.590248
70
0
0
VERTEX
8
Stencil Cut
10
221.388790
20
125.620030
70
0
0
VERTEX
8
Stencil Cut
10
221.283780
20
126.270420
70
0
0
VERTEX
8
Stencil Cut
10
220.968750
20
126.812410
70
0
0
VERTEX
8
Stencil Cut
10
220.406435
20
127.279882
70
0
0
VERTEX
8
Stencil Cut
10
219.532470
20
127.679600
70
0
0
VERTEX
8
Stencil Cut
10
216.321170
20
128.546790
70
0
0
VERTEX
8
Stencil Cut
10
213.577330
20
129.437690
70
0
0
VERTEX
8
Stencil Cut
10
212.566175
20
129.951735
70
0
0
VERTEX
8
Stencil Cut
10
211.795530
20
130.511510
70
0
0
VERTEX
8
Stencil Cut
10
210.995246
20
131.376158
70
0
0
VERTEX
8
Stencil Cut
10
210.423615
20
132.330572
70
0
0
VERTEX
8
Stencil Cut
10
210.080636
20
133.374753
70
0
0
VERTEX
8
Stencil Cut
10
209.966310
20
134.508700
70
0
0
VERTEX
8
Stencil Cut
10
210.179720
20
135.975467
70
0
0
VERTEX
8
Stencil Cut
10
210.819950
20
137.340610
70
0
0
VERTEX
8
Stencil Cut
10
211.873442
20
138.509280
70
0
0
VERTEX
8
Stencil Cut
10
213.299560
20
139.359530
70
0
0
VERTEX
8
Stencil Cut
10
215.091522
20
139.877810
70
0
0
VERTEX
8
Stencil Cut
10
217.215450
20
140.050570
70
0
0
VERTEX
8
Stencil Cut
10
218.969304
20
139.948100
70
0
0
VERTEX
8
Stencil Cut
10
220.491117
20
139.640690
70
0
0
VERTEX
8
Stencil Cut
10
221.780889
20
139.128340
70
0
0
VERTEX
8
Stencil Cut
10
222.838620
20
138.411050
70
0
0
VERTEX
8
Stencil Cut
10
223.674476
20
137.522689
70
0
0
VERTEX
8
Stencil Cut
10
224.285065
20
136.497137
70
0
0
VERTEX
8
Stencil Cut
10
224.670386
20
135.334394
70
0
0
VERTEX
8
Stencil Cut
10
224.830440
20
134.034460
70
0
0
VERTEX
8
Stencil Cut
10
220.819700
20
133.858310
70
0
0
VERTEX
8
Stencil Cut
10
220.413210
20
135.172642
70
0
0
VERTEX
8
Stencil Cut
10
219.708620
20
136.053380
70
0
0
VERTEX
8
Stencil Cut
10
218.655120
20
136.561497
70
0
0
VERTEX
8
Stencil Cut
10
217.174800
20
136.730870
70
0
0
VERTEX
8
Stencil Cut
10
215.616575
20
136.551335
70
0
0
VERTEX
8
Stencil Cut
10
214.437740
20
136.012730
70
0
0
VERTEX
8
Stencil Cut
10
213.960110
20
135.474127
70
0
0
VERTEX
8
Stencil Cut
10
213.800900
20
134.779700
70
0
0
VERTEX
8
Stencil Cut
10
213.949947
20
134.125922
70
0
0
VERTEX
8
Stencil Cut
10
214.397090
20
133.573770
70
0
0
VERTEX
8
Stencil Cut
10
215.697872
20
132.923380
70
0
0
VERTEX
8
Stencil Cut
10
218.082640
20
132.245890
70
0
0
VERTEX
8
Stencil Cut
10
220.626617
20
131.541300
70
0
0
VERTEX
8
Stencil Cut
10
222.405030
20
130.809610
70
0
0
VERTEX
8
Stencil Cut
10
223.658387
20
129.939035
70
0
0
VERTEX
8
Stencil Cut
10
224.600100
20
128.790690
70
0
0
VERTEX
8
Stencil Cut
10
225.199680
20
127.364567
70
0
0
VERTEX
8
Stencil Cut
10
225.399540
20
125.633580
70
0
0
VERTEX
8
Stencil Cut
10
225.162417
20
123.980507
70
0
0
VERTEX
8
Stencil Cut
10
224.451050
20
122.435830
70
0
0
VERTEX
8
Stencil Cut
10
223.306090
20
121.135047
70
0
0
VERTEX
8
Stencil Cut
10
221.768190
20
120.213660
70
0
0
VERTEX
8
Stencil Cut
10
219.820402
20
119.675055
70
0
0
VERTEX
8
Stencil Cut
10
217.445800
20
119.495520
70
0
0
VERTEX
8
Stencil Cut
10
215.671624
20
119.603918
70
0
0
VERTEX
8
Stencil Cut
10
214.115937
20
119.929112
70
0
0
VERTEX
8
Stencil Cut
10
212.778739
20
120.471103
70
0
0
VERTEX
8
Stencil Cut
10
211.660030
20
121.229890
70
0
0
VERTEX
8
Stencil Cut
10
210.752194
20
122.202937
70
0
0
VERTEX
8
Stencil Cut
10
210.047605
20
123.374150
70
0
0
VERTEX
8
Stencil Cut
10
209.546264
20
124.743527
70
0
0
VERTEX
8
Stencil Cut
10
209.248170
20
126.311070
70
0
0
VERTEX
8
Stencil Cut
10
209.248170
20
126.311070
70
0
0
SEQEND
8
Stencil Cut
0
POLYLINE
8
Stencil Cut
62
7
70
0
10
0.000000
20
0.000000
66
1
0
VERTEX
8
Stencil Cut
10
255.264400
20
119.847810
70
0
0
VERTEX
8
Stencil Cut
10
255.264400
20
139.711830
70
0
0
VERTEX
8
Stencil Cut
10
269.993040
20
139.711830
70
0
0
VERTEX
8
Stencil Cut
10
269.993040
20
136.351480
70
0
0
VERTEX
8
Stencil Cut
10
259.275150
20
136.351480
70
0
0
VERTEX
8
Stencil Cut
10
259.275150
20
131.947790
70
0
0
VERTEX
8
Stencil Cut
10
269.247800
20
131.947790
70
0
0
VERTEX
8
Stencil Cut
10
269.247800
20
128.600990
70
0
0
VERTEX
8
Stencil Cut
10
259.275150
20
128.600990
70
0
0
VERTEX
8
Stencil Cut
10
259.275150
20
123.194620
70
0
0
VERTEX
8
Stencil Cut
10
270.372440
20
123.194620
70
0
0
VERTEX
8
Stencil Cut
10
270.372440
20
119.847810
70
0
0
VERTEX
8
Stencil Cut
10
255.264400
20
119.847810
70
0
0
SEQEND
8
Stencil Cut
0
POLYLINE
8
Stencil Cut
62
7
70
0
10
0.000000
20
0.000000
66
1
0
VERTEX
8
Stencil Cut
10
298.245480
20
119.847810
70
0
0
VERTEX
8
Stencil Cut
10
305.033940
20
130.213420
70
0
0
VERTEX
8
Stencil Cut
10
298.882320
20
139.711830
70
0
0
VERTEX
8
Stencil Cut
10
303.570560
20
139.711830
70
0
0
VERTEX
8
Stencil Cut
10
307.554200
20
133.329870
70
0
0
VERTEX
8
Stencil Cut
10
311.456540
20
139.711830
70
0
0
VERTEX
8
Stencil Cut
10
316.104130
20
139.711830
70
0
0
VERTEX
8
Stencil Cut
10
309.925420
20
130.064370
70
0
0
VERTEX
8
Stencil Cut
10
316.713870
20
119.847810
70
0
0
VERTEX
8
Stencil Cut
10
311.876590
20
119.847810
70
0
0
VERTEX
8
Stencil Cut
10
307.472900
20
126.717570
70
0
0
VERTEX
8
Stencil Cut
10
303.055660
20
119.847810
70
0
0
VERTEX
8
Stencil Cut
10
298.245480
20
119.847810
70
0
0
SEQEND
8
Stencil Cut
0
POLYLINE
8
Stencil Cut
62
7
70
0
10
0.000000
20
0.000000
66
1
0
VERTEX
8
Stencil Cut
10
342.913510
20
129.657870
70
0
0
VERTEX
8
Stencil Cut
10
343.140470
20
132.449133
70
0
0
VERTEX
8
Stencil Cut
10
343.821350
20
134.752600
70
0
0
VERTEX
8
Stencil Cut
10
344.620787
20
136.192268
70
0
0
VERTEX
8
Stencil Cut
10
345.664120
20
137.476110
70
0
0
VERTEX
8
Stencil Cut
10
346.897157
20
138.526218
70
0
0
VERTEX
8
Stencil Cut
10
348.238590
20
139.264680
70
0
0
VERTEX
8
Stencil Cut
10
350.237183
20
139.854097
70
0
0
VERTEX
8
Stencil Cut
10
352.520320
20
140.050570
70
0
0
VERTEX
8
Stencil Cut
10
354.605297
20
139.880351
70
0
0
VERTEX
8
Stencil Cut
10
356.470090
20
139.369692
70
0
0
VERTEX
8
Stencil Cut
10
358.114697
20
138.518596
70
0
0
VERTEX
8
Stencil Cut
10
359.539120
20
137.327060
70
0
0
VERTEX
8
Stencil Cut
10
360.695091
20
135.832348
70
0
0
VERTEX
8
Stencil Cut
10
361.520785
20
134.071720
70
0
0
VERTEX
8
Stencil Cut
10
362.016201
20
132.045178
70
0
0
VERTEX
8
Stencil Cut
10
362.181340
20
129.752720
70
0
0
VERTEX
8
Stencil Cut
10
362.017895
20
127.478047
70
0
0
VERTEX
8
Stencil Cut
10
361.527560
20
125.464208
70
0
0
VERTEX
8
Stencil Cut
10
360.710335
20
123.711202
70
0
0
VERTEX
8
Stencil Cut
10
359.566220
20
122.219030
70
0
0
VERTEX
8
Stencil Cut
10
358.148573
20
121.033423
70
0
0
VERTEX
8
Stencil Cut
10
356.510740
20
120.186560
70
0
0
VERTEX
8
Stencil Cut
10
354.652722
20
119.678443
70
0
0
VERTEX
8
Stencil Cut
10
352.574520
20
119.509070
70
0
0
VERTEX
8
Stencil Cut
10
350.472609
20
119.677596
70
0
0
VERTEX
8
Stencil Cut
10
348.597657
20
120.183173
70
0
0
VERTEX
8
Stencil Cut
10
346.949664
20
121.025801
70
0
0
VERTEX
8
Stencil Cut
10
345.528630
20
122.205480
70
0
0
VERTEX
8
Stencil Cut
10
344.384515
20
123.687489
70
0
0
VERTEX
8
Stencil Cut
10
343.567290
20
125.423558
70
0
0
VERTEX
8
Stencil Cut
10
343.076955
20
127.413684
70
0
0
VERTEX
8
Stencil Cut
10
342.913510
20
129.657870
70
0
0
VERTEX
8
Stencil Cut
10
342.913510
20
129.657870
70
0
0
SEQEND
8
Stencil Cut
0
POLYLINE
8
Stencil Cut
62
7
70
0
10
0.000000
20
0.000000
66
1
0
VERTEX
8
Stencil Cut
10
347.046200
20
129.793370
70
0
0
VERTEX
8
Stencil Cut
10
347.143589
20
128.208044
70
0
0
VERTEX
8
Stencil Cut
10
347.435757
20
126.825965
70
0
0
VERTEX
8
Stencil Cut
10
347.922704
20
125.647134
70
0
0
VERTEX
8
Stencil Cut
10
348.604430
20
124.671550
70
0
0
VERTEX
8
Stencil Cut
10
349.436050
20
123.912759
70
0
0
VERTEX
8
Stencil Cut
10
350.372680
20
123.370765
70
0
0
VERTEX
8
Stencil Cut
10
351.414320
20
123.045569
70
0
0
VERTEX
8
Stencil Cut
10
352.560970
20
122.937170
70
0
0
VERTEX
8
Stencil Cut
10
353.705931
20
123.044722
70
0
0
VERTEX
8
Stencil Cut
10
354.742493
20
123.367377
70
0
0
VERTEX
8
Stencil Cut
10
355.670656
20
123.905137
70
0
0
VERTEX
8
Stencil Cut
10
356.490420
20
124.658000
70
0
0
VERTEX
8
Stencil Cut
10
357.166218
20
125.632737
70
0
0
VERTEX
8
Stencil Cut
10
357.648930
20
126.822577
70
0
0
VERTEX
8
Stencil Cut
10
357.938558
20
128.227522
70
0
0
VERTEX
8
Stencil Cut
10
358.035100
20
129.847570
70
0
0
VERTEX
8
Stencil Cut
10
357.941098
20
131.446447
70
0
0
VERTEX
8
Stencil Cut
10
357.659093
20
132.828527
70
0
0
VERTEX
8
Stencil Cut
10
357.189083
20
133.993812
70
0
0
VERTEX
8
Stencil Cut
10
356.531070
20
134.942300
70
0
0
VERTEX
8
Stencil Cut
10
355.724009
20
135.677374
70
0
0
VERTEX
8
Stencil Cut
10
354.793305
20
136.202427
70
0
0
VERTEX
8
Stencil Cut
10
353.738959
20
136.517459
70
0
0
VERTEX
8
Stencil Cut
10
352.560970
20
136.622470
70
0
0
VERTEX
8
Stencil Cut
10
351.381292
20
136.515766
70
0
0
VERTEX
8
Stencil Cut
10
350.321868
20
136.195652
70
0
0
VERTEX
8
Stencil Cut
10
349.382697
20
135.662131
70
0
0
VERTEX
8
Stencil Cut
10
348.563780
20
134.915200
70
0
0
VERTEX
8
Stencil Cut
10
347.899839
20
133.959937
70
0
0
VERTEX
8
Stencil Cut
10
347.425595
20
132.787877
70
0
0
VERTEX
8
Stencil Cut
10
347.141049
20
131.399022
70
0
0
VERTEX
8
Stencil Cut
10
347.046200
20
129.793370
70
0
0
VERTEX
8
Stencil Cut
10
347.046200
20
129.793370
70
0
0
SEQEND
8
Stencil Cut
0
POLYLINE
8
Stencil Cut
62
7
70
0
10
0.000000
20
0.000000
66
1
0
VERTEX
8
Stencil Cut
10
389.248170
20
126.311070
70
0
0
VERTEX
8
Stencil Cut
10
393.150510
20
126.690470
70
0
0
VERTEX
8
Stencil Cut
10
393.682342
20
124.986577
70
0
0
VERTEX
8
Stencil Cut
10
394.082908
20
124.330259
70
0
0
VERTEX
8
Stencil Cut
10
394.573240
20
123.804360
70
0
0
VERTEX
8
Stencil Cut
10
395.843538
20
123.113317
70
0
0
VERTEX
8
Stencil Cut
10
397.486450
20
122.882970
70
0
0
VERTEX
8
Stencil Cut
10
399.183562
20
123.086217
70
0
0
VERTEX
8
Stencil Cut
10
400.399660
20
123.695960
70
0
0
VERTEX
8
Stencil Cut
10
401.141507
20
124.590248
70
0
0
VERTEX
8
Stencil Cut
10
401.388790
20
125.620030
70
0
0
VERTEX
8
Stencil Cut
10
401.283780
20
126.270420
70
0
0
VERTEX
8
Stencil Cut
10
400.968750
20
126.812410
70
0
0
VERTEX
8
Stencil Cut
10
400.406435
20
127.279882
70
0
0
VERTEX
8
Stencil Cut
10
399.532470
20
127.679600
70
0
0
VERTEX
8
Stencil Cut
10
396.321170
20
128.546790
70
0
0
VERTEX
8
Stencil Cut
10
393.577330
20
129.437690
70
0
0
VERTEX
8
Stencil Cut
10
392.566175
20
129.951735
70
0
0
VERTEX
8
Stencil Cut
10
391.795530
20
130.511510
70
0
0
VERTEX
8
Stencil Cut
10
390.995246
20
131.376158
70
0
0
VERTEX
8
Stencil Cut
10
390.423615
20
132.330572
70
0
0
VERTEX
8
Stencil Cut
10
390.080636
20
133.374753
70
0
0
VERTEX
8
Stencil Cut
10
389.966310
20
134.508700
70
0
0
VERTEX
8
Stencil Cut
10
390.179720
20
135.975467
70
0
0
VERTEX
8
Stencil Cut
10
390.819950
20
137.340610
70
0
0
VERTEX
8
Stencil Cut
10
391.873442
20
138.509280
70
0
0
VERTEX
8
Stencil Cut
10
393.299560
20
139.359530
70
0
0
VERTEX
8
Stencil Cut
10
395.091522
20
139.877810
70
0
0
VERTEX
8
Stencil Cut
10
397.215450
20
140.050570
70
0
0
VERTEX
8
Stencil Cut
10
398.969304
20
139.948100
70
0
0
VERTEX
8
Stencil Cut
10
400.491117
20
139.640690
70
0
0
VERTEX
8
Stencil Cut
10
401.780889
20
139.128340
70
0
0
VERTEX
8
Stencil Cut
10
402.838620
20
138.411050
70
0
0
VERTEX
8
Stencil Cut
10
403.674476
20
137.522689
70
0
0
VERTEX
8
Stencil Cut
10
404.285065
20
136.497137
70
0
0
VERTEX
8
Stencil Cut
10
404.670386
20
135.334394
70
0
0
VERTEX
8
Stencil Cut
10
404.830440
20
134.034460
70
0
0
VERTEX
8
Stencil Cut
10
400.819700
20
133.858310
70
0
0
VERTEX
8
Stencil Cut
10
400.413210
20
135.172642
70
0
0
VERTEX
8
Stencil Cut
10
399.708620
20
136.053380
70
0
0
VERTEX
8
Stencil Cut
10
398.655120
20
136.561497
70
0
0
VERTEX
8
Stencil Cut
10
397.174800
20
136.730870
70
0
0
VERTEX
8
Stencil Cut
10
395.616575
20
136.551335
70
0
0
VERTEX
8
Stencil Cut
10
394.437740
20
136.012730
70
0
0
VERTEX
8
Stencil Cut
10
393.960110
20
135.474127
70
0
0
VERTEX
8
Stencil Cut
10
393.800900
20
134.779700
70
0
0
VERTEX
8
Stencil Cut
10
393.949947
20
134.125922
70
0
0
VERTEX
8
Stencil Cut
10
394.397090
20
133.573770
70
0
0
VERTEX
8
Stencil Cut
10
395.697872
20
132.923380
70
0
0
VERTEX
8
Stencil Cut
10
398.082640
20
132.245890
70
0
0
VERTEX
8
Stencil Cut
10
400.626617
20
131.541300
70
0
0
VERTEX
8
Stencil Cut
10
402.405030
20
130.809610
70
0
0
VERTEX
8
Stencil Cut
10
403.658387
20
129.939035
70
0
0
VERTEX
8
Stencil Cut
10
404.600100
20
128.790690
70
0
0
VERTEX
8
Stencil Cut
10
405.199680
20
127.364567
70
0
0
VERTEX
8
Stencil Cut
10
405.399540
20
125.633580
70
0
0
VERTEX
8
Stencil Cut
10
405.162417
20
123.980507
70
0
0
VERTEX
8
Stencil Cut
10
404.451050
20
122.435830
70
0
0
VERTEX
8
Stencil Cut
10
403.306090
20
121.135047
70
0
0
VERTEX
8
Stencil Cut
10
401.768190
20
120.213660
70
0
0
VERTEX
8
Stencil Cut
10
399.820402
20
119.675055
70
0
0
VERTEX
8
Stencil Cut
10
397.445800
20
119.495520
70
0
0
VERTEX
8
Stencil Cut
10
395.671624
20
119.603918
70
0
0
VERTEX
8
Stencil Cut
10
394.115937
20
119.929112
70
0
0
VERTEX
8
Stencil Cut
10
392.778739
20
120.471103
70
0
0
VERTEX
8
Stencil Cut
10
391.660030
20
121.229890
70
0
0
VERTEX
8
Stencil Cut
10
390.752194
20
122.202937
70
0
0
VERTEX
8
Stencil Cut
10
390.047605
20
123.374150
70
0
0
VERTEX
8
Stencil Cut
10
389.546264
20
124.743527
70
0
0
VERTEX
8
Stencil Cut
10
389.248170
20
126.311070
70
0
0
VERTEX
8
Stencil Cut
10
389.248170
20
126.311070
70
0
0
SEQEND
8
Stencil Cut
0
POLYLINE
8
Stencil Cut
62
7
70
0
10
0.000000
20
0.000000
66
1
0
VERTEX
8
Stencil Cut
10
443.970150
20
139.711830
70
0
0
VERTEX
8
Stencil Cut
10
447.967350
20
139.711830
70
0
0
VERTEX
8
Stencil Cut
10
447.967350
20
127.137610
70
0
0
VERTEX
8
Stencil Cut
10
447.858950
20
124.956092
70
0
0
VERTEX
8
Stencil Cut
10
447.533750
20
123.343660
70
0
0
VERTEX
8
Stencil Cut
10
446.713987
20
121.778660
70
0
0
VERTEX
8
Stencil Cut
10
445.419980
20
120.552400
70
0
0
VERTEX
8
Stencil Cut
10
444.593441
20
120.095943
70
0
0
VERTEX
8
Stencil Cut
10
443.644955
20
119.769902
70
0
0
VERTEX
8
Stencil Cut
10
441.382140
20
119.509070
70
0
0
VERTEX
8
Stencil Cut
10
439.996672
20
119.611541
70
0
0
VERTEX
8
Stencil Cut
10
438.780577
20
119.918952
70
0
0
VERTEX
8
Stencil Cut
10
437.733857
20
120.431306
70
0
0
VERTEX
8
Stencil Cut
10
436.856510
20
121.148600
70
0
0
VERTEX
8
Stencil Cut
10
436.162081
20
122.070831
70
0
0
VERTEX
8
Stencil Cut
10
435.664125
20
123.184455
70
0
0
VERTEX
8
Stencil Cut
10
435.362641
20
124.489471
70
0
0
VERTEX
8
Stencil Cut
10
435.257630
20
125.985880
70
0
0
VERTEX
8
Stencil Cut
10
439.038020
20
126.419470
70
0
0
VERTEX
8
Stencil Cut
10
439.197207
20
124.962862
70
0
0
VERTEX
8
Stencil Cut
10
439.539370
20
124.007600
70
0
0
VERTEX
8
Stencil Cut
10
439.906908
20
123.539287
70
0
0
VERTEX
8
Stencil Cut
10
440.359132
20
123.204777
70
0
0
VERTEX
8
Stencil Cut
10
441.517640
20
122.937170
70
0
0
VERTEX
8
Stencil Cut
10
442.662597
20
123.126867
70
0
0
VERTEX
8
Stencil Cut
10
443.414610
20
123.695960
70
0
0
VERTEX
8
Stencil Cut
10
443.831265
20
124.878180
70
0
0
VERTEX
8
Stencil Cut
10
443.970150
20
126.880160
70
0
0
VERTEX
8
Stencil Cut
10
443.970150
20
139.711830
70
0
0
SEQEND
8
Stencil Cut
0
POLYLINE
8
Stencil Cut
62
7
70
0
10
0.000000
20
0.000000
66
1
0
VERTEX
8
Stencil Cut
10
479.471740
20
139.711830
70
0
0
VERTEX
8
Stencil Cut
10
483.482480
20
139.711830
70
0
0
VERTEX
8
Stencil Cut
10
483.482480
20
128.953280
70
0
0
VERTEX
8
Stencil Cut
10
483.631530
20
125.633580
70
0
0
VERTEX
8
Stencil Cut
10
484.065125
20
124.532660
70
0
0
VERTEX
8
Stencil Cut
10
484.851010
20
123.668860
70
0
0
VERTEX
8
Stencil Cut
10
486.002745
20
123.120092
70
0
0
VERTEX
8
Stencil Cut
10
487.506770
20
122.937170
70
0
0
VERTEX
8
Stencil Cut
10
489.004028
20
123.109930
70
0
0
VERTEX
8
Stencil Cut
10
490.081240
20
123.628210
70
0
0
VERTEX
8
Stencil Cut
10
490.775667
20
124.410712
70
0
0
VERTEX
8
Stencil Cut
10
491.124570
20
125.349040
70
0
0
VERTEX
8
Stencil Cut
10
491.300720
20
128.722940
70
0
0
VERTEX
8
Stencil Cut
10
491.300720
20
139.711830
70
0
0
VERTEX
8
Stencil Cut
10
495.311460
20
139.711830
70
0
0
VERTEX
8
Stencil Cut
10
495.311460
20
129.278480
70
0
0
VERTEX
8
Stencil Cut
10
495.230163
20
126.226385
70
0
0
VERTEX
8
Stencil Cut
10
494.986270
20
124.224400
70
0
0
VERTEX
8
Stencil Cut
10
494.522185
20
122.862645
70
0
0
VERTEX
8
Stencil Cut
10
493.780330
20
121.731240
70
0
0
VERTEX
8
Stencil Cut
10
492.764100
20
120.816625
70
0
0
VERTEX
8
Stencil Cut
10
491.449770
20
120.105260
70
0
0
VERTEX
8
Stencil Cut
10
489.762818
20
119.658117
70
0
0
VERTEX
8
Stencil Cut
10
487.628720
20
119.509070
70
0
0
VERTEX
8
Stencil Cut
10
485.125395
20
119.671667
70
0
0
VERTEX
8
Stencil Cut
10
483.306340
20
120.159460
70
0
0
VERTEX
8
Stencil Cut
10
481.995395
20
120.918250
70
0
0
VERTEX
8
Stencil Cut
10
480.989320
20
121.866740
70
0
0
VERTEX
8
Stencil Cut
10
480.281342
20
122.947332
70
0
0
VERTEX
8
Stencil Cut
10
479.864690
20
124.075350
70
0
0
VERTEX
8
Stencil Cut
10
479.569977
20
126.189123
70
0
0
VERTEX
8
Stencil Cut
10
479.471740
20
129.115880
70
0
0
VERTEX
8
Stencil Cut
10
479.471740
20
139.711830
70
0
0
SEQEND
8
Stencil Cut
0
POLYLINE
8
Stencil Cut
62
7
70
0
10
0.000000
20
0.000000
66
1
0
VERTEX
8
Stencil Cut
10
47.411682
20
74.847810
70
0
0
VERTEX
8
Stencil Cut
10
43.048645
20
74.847810
70
0
0
VERTEX
8
Stencil Cut
10
41.314270
20
79.359900
70
0
0
VERTEX
8
Stencil Cut
10
33.374084
20
79.359900
70
0
0
VERTEX
8
Stencil Cut
10
31.734558
20
74.847810
70
0
0
VERTEX
8
Stencil Cut
10
27.479919
20
74.847810
70
0
0
VERTEX
8
Stencil Cut
10
35.216858
20
94.711830
70
0
0
VERTEX
8
Stencil Cut
10
39.457947
20
94.711830
70
0
0
VERTEX
8
Stencil Cut
10
47.411682
20
74.847810
70
0
0
SEQEND
8
Stencil Cut
0
POLYLINE
8
Stencil Cut
62
7
70
0
10
0.000000
20
0.000000
66
1
0
VERTEX
8
Stencil Cut
10
40.027039
20
82.706700
70
0
0
VERTEX
8
Stencil Cut
10
37.289978
20
90.077800
70
0
0
VERTEX
8
Stencil Cut
10
34.607117
20
82.706700
70
0
0
VERTEX
8
Stencil Cut
10
40.027039
20
82.706700
70
0
0
SEQEND
8
Stencil Cut
0
POLYLINE
8
Stencil Cut
62
7
70
0
10
0.000000
20
0.000000
66
1
0
VERTEX
8
Stencil Cut
10
39.959289
20
96.012610
70
0
0
VERTEX
8
Stencil Cut
10
39.762817
20
94.992990
70
0
0
VERTEX
8
Stencil Cut
10
39.173400
20
94.129190
70
0
0
VERTEX
8
Stencil Cut
10
38.319762
20
93.549935
70
0
0
VERTEX
8
Stencil Cut
10
37.303527
20
93.356850
70
0
0
VERTEX
8
Stencil Cut
10
36.283904
20
93.549935
70
0
0
VERTEX
8
Stencil Cut
10
35.420104
20
94.129190
70
0
0
VERTEX
8
Stencil Cut
10
34.840850
20
94.992990
70
0
0
VERTEX
8
Stencil Cut
10
34.647765
20
96.012610
70
0
0
VERTEX
8
Stencil Cut
10
34.840850
20
97.028842
70
0
0
VERTEX
8
Stencil Cut
10
35.420104
20
97.882480
70
0
0
VERTEX
8
Stencil Cut
10
36.283904
20
98.471897
70
0
0
VERTEX
8
Stencil Cut
10
37.303527
20
98.668370
70
0
0
VERTEX
8
Stencil Cut
10
38.319762
20
98.475285
70
0
0
VERTEX
8
Stencil Cut
10
39.173400
20
97.896030
70
0
0
VERTEX
8
Stencil Cut
10
39.762817
20
97.039005
70
0
0
VERTEX
8
Stencil Cut
10
39.959289
20
96.012610
70
0
0
VERTEX
8
Stencil Cut
10
39.959289
20
96.012610
70
0
0
SEQEND
8
Stencil Cut
0
POLYLINE
8
Stencil Cut
62
7
70
0
10
0.000000
20
0.000000
66
1
0
VERTEX
8
Stencil Cut
10
38.509459
20
96.012610
70
0
0
VERTEX
8
Stencil Cut
10
38.421385
20
96.476690
70
0
0
VERTEX
8
Stencil Cut
10
38.157165
20
96.866250
70
0
0
VERTEX
8
Stencil Cut
10
37.767608
20
97.130467
70
0
0
VERTEX
8
Stencil Cut
10
37.303527
20
97.218540
70
0
0
VERTEX
8
Stencil Cut
10
36.839446
20
97.130467
70
0
0
VERTEX
8
Stencil Cut
10
36.449889
20
96.866250
70
0
0
VERTEX
8
Stencil Cut
10
36.185668
20
96.476690
70
0
0
VERTEX
8
Stencil Cut
10
36.097594
20
96.012610
70
0
0
VERTEX
8
Stencil Cut
10
36.185668
20
95.548530
70
0
0
VERTEX
8
Stencil Cut
10
36.449889
20
95.158970
70
0
0
VERTEX
8
Stencil Cut
10
36.839446
20
94.894752
70
0
0
VERTEX
8
Stencil Cut
10
37.303527
20
94.806680
70
0
0
VERTEX
8
Stencil Cut
10
37.767608
20
94.894752
70
0
0
VERTEX
8
Stencil Cut
10
38.157165
20
95.158970
70
0
0
VERTEX
8
Stencil Cut
10
38.421385
20
95.548530
70
0
0
VERTEX
8
Stencil Cut
10
38.509459
20
96.012610
70
0
0
VERTEX
8
Stencil Cut
10
38.509459
20
96.012610
70
0
0
SEQEND
8
Stencil Cut
0
POLYLINE
8
Stencil Cut
62
7
70
0
10
0.000000
20
0.000000
66
1
0
VERTEX
8
Stencil Cut
10
80.514954
20
74.847810
70
0
0
VERTEX
8
Stencil Cut
10
80.514954
20
91.351480
70
0
0
VERTEX
8
Stencil Cut
10
74.620789
20
91.351480
70
0
0
VERTEX
8
Stencil Cut
10
74.620789
20
94.711830
70
0
0
VERTEX
8
Stencil Cut
10
90.406311
20
94.711830
70
0
0
VERTEX
8
Stencil Cut
10
90.406311
20
91.351480
70
0
0
VERTEX
8
Stencil Cut
10
84.525696
20
91.351480
70
0
0
VERTEX
8
Stencil Cut
10
84.525696
20
74.847810
70
0
0
VERTEX
8
Stencil Cut
10
80.514954
20
74.847810
70
0
0
SEQEND
8
Stencil Cut
0
POLYLINE
8
Stencil Cut
62
7
70
0
10
0.000000
20
0.000000
66
1
0
VERTEX
8
Stencil Cut
10
125.514950
20
74.847810
70
0
0
VERTEX
8
Stencil Cut
10
125.514950
20
91.351480
70
0
0
VERTEX
8
Stencil Cut
10
119.620790
20
91.351480
70
0
0
VERTEX
8
Stencil Cut
10
119.620790
20
94.711830
70
0
0
VERTEX
8
Stencil Cut
10
135.406310
20
94.711830
70
0
0
VERTEX
8
Stencil Cut
10
135.406310
20
91.351480
70
0
0
VERTEX
8
Stencil Cut
10
129.525700
20
91.351480
70
0
0
VERTEX
8
Stencil Cut
10
129.525700
20
74.847810
70
0
0
VERTEX
8
Stencil Cut
10
125.514950
20
74.847810
70
0
0
SEQEND
8
Stencil Cut
0
POLYLINE
8
Stencil Cut
62
7
70
0
10
0.000000
20
0.000000
66
1
0
VERTEX
8
Stencil Cut
10
182.411680
20
74.847810
70
0
0
VERTEX
8
Stencil Cut
10
178.048650
20
74.847810
70
0
0
VERTEX
8
Stencil Cut
10
176.314270
20
79.359900
70
0
0
VERTEX
8
Stencil Cut
10
168.374080
20
79.359900
70
0
0
VERTEX
8
Stencil Cut
10
166.734560
20
74.847810
70
0
0
VERTEX
8
Stencil Cut
10
162.479920
20
74.847810
70
0
0
VERTEX
8
Stencil Cut
10
170.216860
20
94.711830
70
0
0
VERTEX
8
Stencil Cut
10
174.457950
20
94.711830
70
0
0
VERTEX
8
Stencil Cut
10
182.411680
20
74.847810
70
0
0
SEQEND
8
Stencil Cut
0
POLYLINE
8
Stencil Cut
62
7
70
0
10
0.000000
20
0.000000
66
1
0
VERTEX
8
Stencil Cut
10
175.027040
20
82.706700
70
0
0
VERTEX
8
Stencil Cut
10
172.289980
20
90.077800
70
0
0
VERTEX
8
Stencil Cut
10
169.607120
20
82.706700
70
0
0
VERTEX
8
Stencil Cut
10
175.027040
20
82.706700
70
0
0
SEQEND
8
Stencil Cut
0
POLYLINE
8
Stencil Cut
62
7
70
0
10
0.000000
20
0.000000
66
1
0
VERTEX
8
Stencil Cut
10
207.906740
20
74.847810
70
0
0
VERTEX
8
Stencil Cut
10
207.906740
20
94.711830
70
0
0
VERTEX
8
Stencil Cut
10
213.909300
20
94.711830
70
0
0
VERTEX
8
Stencil Cut
10
217.513550
20
81.162020
70
0
0
VERTEX
8
Stencil Cut
10
221.077150
20
94.711830
70
0
0
VERTEX
8
Stencil Cut
10
227.093260
20
94.711830
70
0
0
VERTEX
8
Stencil Cut
10
227.093260
20
74.847810
70
0
0
VERTEX
8
Stencil Cut
10
223.367070
20
74.847810
70
0
0
VERTEX
8
Stencil Cut
10
223.367070
20
90.484290
70
0
0
VERTEX
8
Stencil Cut
10
219.424070
20
74.847810
70
0
0
VERTEX
8
Stencil Cut
10
215.562380
20
74.847810
70
0
0
VERTEX
8
Stencil Cut
10
211.632930
20
90.484290
70
0
0
VERTEX
8
Stencil Cut
10
211.632930
20
74.847810
70
0
0
VERTEX
8
Stencil Cut
10
207.906740
20
74.847810
70
0
0
SEQEND
8
Stencil Cut
0
POLYLINE
8
Stencil Cut
62
7
70
0
10
0.000000
20
0.000000
66
1
0
VERTEX
8
Stencil Cut
10
254.539490
20
74.847810
70
0
0
VERTEX
8
Stencil Cut
10
254.539490
20
94.711830
70
0
0
VERTEX
8
Stencil Cut
10
258.441830
20
94.711830
70
0
0
VERTEX
8
Stencil Cut
10
266.571720
20
81.446570
70
0
0
VERTEX
8
Stencil Cut
10
266.571720
20
94.711830
70
0
0
VERTEX
8
Stencil Cut
10
270.297910
20
94.711830
70
0
0
VERTEX
8
Stencil Cut
10
270.297910
20
74.847810
70
0
0
VERTEX
8
Stencil Cut
10
266.273620
20
74.847810
70
0
0
VERTEX
8
Stencil Cut
10
258.265690
20
87.801430
70
0
0
VERTEX
8
Stencil Cut
10
258.265690
20
74.847810
70
0
0
VERTEX
8
Stencil Cut
10
254.539490
20
74.847810
70
0
0
SEQEND
8
Stencil Cut
0
POLYLINE
8
Stencil Cut
62
7
70
0
10
0.000000
20
0.000000
66
1
0
VERTEX
8
Stencil Cut
10
305.542050
20
74.847810
70
0
0
VERTEX
8
Stencil Cut
10
305.542050
20
94.711830
70
0
0
VERTEX
8
Stencil Cut
10
309.552800
20
94.711830
70
0
0
VERTEX
8
Stencil Cut
10
309.552800
20
74.847810
70
0
0
VERTEX
8
Stencil Cut
10
305.542050
20
74.847810
70
0
0
SEQEND
8
Stencil Cut
0
POLYLINE
8
Stencil Cut
62
7
70
0
10
0.000000
20
0.000000
66
1
0
VERTEX
8
Stencil Cut
10
342.913510
20
84.657870
70
0
0
VERTEX
8
Stencil Cut
10
343.140470
20
87.449133
70
0
0
VERTEX
8
Stencil Cut
10
343.821350
20
89.752600
70
0
0
VERTEX
8
Stencil Cut
10
344.620787
20
91.192268
70
0
0
VERTEX
8
Stencil Cut
10
345.664120
20
92.476110
70
0
0
VERTEX
8
Stencil Cut
10
346.897157
20
93.526218
70
0
0
VERTEX
8
Stencil Cut
10
348.238590
20
94.264680
70
0
0
VERTEX
8
Stencil Cut
10
350.237183
20
94.854097
70
0
0
VERTEX
8
Stencil Cut
10
352.520320
20
95.050570
70
0
0
VERTEX
8
Stencil Cut
10
354.605297
20
94.880351
70
0
0
VERTEX
8
Stencil Cut
10
356.470090
20
94.369692
70
0
0
VERTEX
8
Stencil Cut
10
358.114697
20
93.518596
70
0
0
VERTEX
8
Stencil Cut
10
359.539120
20
92.327060
70
0
0
VERTEX
8
Stencil Cut
10
360.695091
20
90.832348
70
0
0
VERTEX
8
Stencil Cut
10
361.520785
20
89.071720
70
0
0
VERTEX
8
Stencil Cut
10
362.016201
20
87.045178
70
0
0
VERTEX
8
Stencil Cut
10
362.181340
20
84.752720
70
0
0
VERTEX
8
Stencil Cut
10
362.017895
20
82.478047
70
0
0
VERTEX
8
Stencil Cut
10
361.527560
20
80.464208
70
0
0
VERTEX
8
Stencil Cut
10
360.710335
20
78.711202
70
0
0
VERTEX
8
Stencil Cut
10
359.566220
20
77.219030
70
0
0
VERTEX
8
Stencil Cut
10
358.148573
20
76.033423
70
0
0
VERTEX
8
Stencil Cut
10
356.510740
20
75.186560
70
0
0
VERTEX
8
Stencil Cut
10
354.652722
20
74.678443
70
0
0
VERTEX
8
Stencil Cut
10
352.574520
20
74.509070
70
0
0
VERTEX
8
Stencil Cut
10
350.472609
20
74.677596
70
0
0
VERTEX
8
Stencil Cut
10
348.597657
20
75.183173
70
0
0
VERTEX
8
Stencil Cut
10
346.949664
20
76.025801
70
0
0
VERTEX
8
Stencil Cut
10
345.528630
20
77.205480
70
0
0
VERTEX
8
Stencil Cut
10
344.384515
20
78.687489
70
0
0
VERTEX
8
Stencil Cut
10
343.567290
20
80.423558
70
0
0
VERTEX
8
Stencil Cut
10
343.076955
20
82.413684
70
0
0
VERTEX
8
Stencil Cut
10
342.913510
20
84.657870
70
0
0
VERTEX
8
Stencil Cut
10
342.913510
20
84.657870
70
0
0
SEQEND
8
Stencil Cut
0
POLYLINE
8
Stencil Cut
62
7
70
0
10
0.000000
20
0.000000
66
1
0
VERTEX
8
Stencil Cut
10
347.046200
20
84.793370
70
0
0
VERTEX
8
Stencil Cut
10
347.143589
20
83.208044
70
0
0
VERTEX
8
Stencil Cut
10
347.435757
20
81.825965
70
0
0
VERTEX
8
Stencil Cut
10
347.922704
20
80.647134
70
0
0
VERTEX
8
Stencil Cut
10
348.604430
20
79.671550
70
0
0
VERTEX
8
Stencil Cut
10
349.436050
20
78.912759
70
0
0
VERTEX
8
Stencil Cut
10
350.372680
20
78.370765
70
0
0
VERTEX
8
Stencil Cut
10
351.414320
20
78.045569
70
0
0
VERTEX
8
Stencil Cut
10
352.560970
20
77.937170
70
0
0
VERTEX
8
Stencil Cut
10
353.705931
20
78.044722
70
0
0
VERTEX
8
Stencil Cut
10
354.742493
20
78.367377
70
0
0
VERTEX
8
Stencil Cut
10
355.670656
20
78.905137
70
0
0
VERTEX
8
Stencil Cut
10
356.490420
20
79.658000
70
0
0
VERTEX
8
Stencil Cut
10
357.166218
20
80.632737
70
0
0
VERTEX
8
Stencil Cut
10
357.648930
20
81.822577
70
0
0
VERTEX
8
Stencil Cut
10
357.938558
20
83.227522
70
0
0
VERTEX
8
Stencil Cut
10
358.035100
20
84.847570
70
0
0
VERTEX
8
Stencil Cut
10
357.941098
20
86.446447
70
0
0
VERTEX
8
Stencil Cut
10
357.659093
20
87.828527
70
0
0
VERTEX
8
Stencil Cut
10
357.189083
20
88.993812
70
0
0
VERTEX
8
Stencil Cut
10
356.531070
20
89.942300
70
0
0
VERTEX
8
Stencil Cut
10
355.724009
20
90.677374
70
0
0
VERTEX
8
Stencil Cut
10
354.793305
20
91.202427
70
0
0
VERTEX
8
Stencil Cut
10
353.738959
20
91.517459
70
0
0
VERTEX
8
Stencil Cut
10
352.560970
20
91.622470
70
0
0
VERTEX
8
Stencil Cut
10
351.381292
20
91.515766
70
0
0
VERTEX
8
Stencil Cut
10
350.321868
20
91.195652
70
0
0
VERTEX
8
Stencil Cut
10
349.382697
20
90.662131
70
0
0
VERTEX
8
Stencil Cut
10
348.563780
20
89.915200
70
0
0
VERTEX
8
Stencil Cut
10
347.899839
20
88.959937
70
0
0
VERTEX
8
Stencil Cut
10
347.425595
20
87.787877
70
0
0
VERTEX
8
Stencil Cut
10
347.141049
20
86.399022
70
0
0
VERTEX
8
Stencil Cut
10
347.046200
20
84.793370
70
0
0
VERTEX
8
Stencil Cut
10
347.046200
20
84.793370
70
0
0
SEQEND
8
Stencil Cut
0
POLYLINE
8
Stencil Cut
62
7
70
0
10
0.000000
20
0.000000
66
1
0
VERTEX
8
Stencil Cut
10
389.485290
20
94.711830
70
0
0
VERTEX
8
Stencil Cut
10
396.815730
20
94.711830
70
0
0
VERTEX
8
Stencil Cut
10
399.000640
20
94.616980
70
0
0
VERTEX
8
Stencil Cut
10
400.596130
20
94.332430
70
0
0
VERTEX
8
Stencil Cut
10
402.218723
20
93.617680
70
0
0
VERTEX
8
Stencil Cut
10
403.590640
20
92.503210
70
0
0
VERTEX
8
Stencil Cut
10
404.688172
20
91.039833
70
0
0
VERTEX
8
Stencil Cut
10
405.487610
20
89.278360
70
0
0
VERTEX
8
Stencil Cut
10
405.975403
20
87.157810
70
0
0
VERTEX
8
Stencil Cut
10
406.138000
20
84.590120
70
0
0
VERTEX
8
Stencil Cut
10
405.985565
20
82.306983
70
0
0
VERTEX
8
Stencil Cut
10
405.528260
20
80.362590
70
0
0
VERTEX
8
Stencil Cut
10
404.623810
20
78.401255
70
0
0
VERTEX
8
Stencil Cut
10
403.400940
20
76.853190
70
0
0
VERTEX
8
Stencil Cut
10
402.174680
20
75.948737
70
0
0
VERTEX
8
Stencil Cut
10
400.582580
20
75.267860
70
0
0
VERTEX
8
Stencil Cut
10
399.031128
20
74.952822
70
0
0
VERTEX
8
Stencil Cut
10
397.032530
20
74.847810
70
0
0
VERTEX
8
Stencil Cut
10
389.485290
20
74.847810
70
0
0
VERTEX
8
Stencil Cut
10
389.485290
20
94.711830
70
0
0
SEQEND
8
Stencil Cut
0
POLYLINE
8
Stencil Cut
62
7
70
0
10
0.000000
20
0.000000
66
1
0
VERTEX
8
Stencil Cut
10
393.496030
20
91.351480
70
0
0
VERTEX
8
Stencil Cut
10
393.496030
20
78.194620
70
0
0
VERTEX
8
Stencil Cut
10
396.490540
20
78.194620
70
0
0
VERTEX
8
Stencil Cut
10
398.915950
20
78.384310
70
0
0
VERTEX
8
Stencil Cut
10
399.806852
20
78.712895
70
0
0
VERTEX
8
Stencil Cut
10
400.528380
20
79.210850
70
0
0
VERTEX
8
Stencil Cut
10
401.117798
20
79.979800
70
0
0
VERTEX
8
Stencil Cut
10
401.585270
20
81.121370
70
0
0
VERTEX
8
Stencil Cut
10
401.890137
20
82.703310
70
0
0
VERTEX
8
Stencil Cut
10
401.991760
20
84.766270
70
0
0
VERTEX
8
Stencil Cut
10
401.890137
20
86.802130
70
0
0
VERTEX
8
Stencil Cut
10
401.585270
20
88.302770
70
0
0
VERTEX
8
Stencil Cut
10
401.097473
20
89.400303
70
0
0
VERTEX
8
Stencil Cut
10
400.447080
20
90.226840
70
0
0
VERTEX
8
Stencil Cut
10
399.617155
20
90.806095
70
0
0
VERTEX
8
Stencil Cut
10
398.590760
20
91.161780
70
0
0
VERTEX
8
Stencil Cut
10
395.298160
20
91.351480
70
0
0
VERTEX
8
Stencil Cut
10
393.496030
20
91.351480
70
0
0
SEQEND
8
Stencil Cut
0
POLYLINE
8
Stencil Cut
62
7
70
0
10
0.000000
20
0.000000
66
1
0
VERTEX
8
Stencil Cut
10
435.264400
20
74.847810
70
0
0
VERTEX
8
Stencil Cut
10
435.264400
20
94.711830
70
0
0
VERTEX
8
Stencil Cut
10
449.993040
20
94.711830
70
0
0
VERTEX
8
Stencil Cut
10
449.993040
20
91.351480
70
0
0
VERTEX
8
Stencil Cut
10
439.275150
20
91.351480
70
0
0
VERTEX
8
Stencil Cut
10
439.275150
20
86.947790
70
0
0
VERTEX
8
Stencil Cut
10
449.247800
20
86.947790
70
0
0
VERTEX
8
Stencil Cut
10
449.247800
20
83.600990
70
0
0
VERTEX
8
Stencil Cut
10
439.275150
20
83.600990
70
0
0
VERTEX
8
Stencil Cut
10
439.275150
20
78.194620
70
0
0
VERTEX
8
Stencil Cut
10
450.372440
20
78.194620
70
0
0
VERTEX
8
Stencil Cut
10
450.372440
20
74.847810
70
0
0
VERTEX
8
Stencil Cut
10
435.264400
20
74.847810
70
0
0
SEQEND
8
Stencil Cut
0
POLYLINE
8
Stencil Cut
62
7
70
0
10
0.000000
20
0.000000
66
1
0
VERTEX
8
Stencil Cut
10
479.553040
20
74.847810
70
0
0
VERTEX
8
Stencil Cut
10
479.553040
20
94.711830
70
0
0
VERTEX
8
Stencil Cut
10
483.563780
20
94.711830
70
0
0
VERTEX
8
Stencil Cut
10
483.563780
20
85.890910
70
0
0
VERTEX
8
Stencil Cut
10
491.666560
20
94.711830
70
0
0
VERTEX
8
Stencil Cut
10
497.059390
20
94.711830
70
0
0
VERTEX
8
Stencil Cut
10
489.579900
20
86.974890
70
0
0
VERTEX
8
Stencil Cut
10
497.465880
20
74.847810
70
0
0
VERTEX
8
Stencil Cut
10
492.276310
20
74.847810
70
0
0
VERTEX
8
Stencil Cut
10
486.815730
20
84.170080
70
0
0
VERTEX
8
Stencil Cut
10
483.563780
20
80.850380
70
0
0
VERTEX
8
Stencil Cut
10
483.563780
20
74.847810
70
0
0
VERTEX
8
Stencil Cut
10
479.553040
20
74.847810
70
0
0
SEQEND
8
Stencil Cut
0
POLYLINE
8
Stencil Cut
62
7
70
0
10
0.000000
20
0.000000
66
1
0
VERTEX
8
Stencil Cut
10
30.264404
20
29.847810
70
0
0
VERTEX
8
Stencil Cut
10
30.264404
20
49.711830
70
0
0
VERTEX
8
Stencil Cut
10
44.993042
20
49.711830
70
0
0
VERTEX
8
Stencil Cut
10
44.993042
20
46.351480
70
0
0
VERTEX
8
Stencil Cut
10
34.275146
20
46.351480
70
0
0
VERTEX
8
Stencil Cut
10
34.275146
20
41.947790
70
0
0
VERTEX
8
Stencil Cut
10
44.247803
20
41.947790
70
0
0
VERTEX
8
Stencil Cut
10
44.247803
20
38.600990
70
0
0
VERTEX
8
Stencil Cut
10
34.275146
20
38.600990
70
0
0
VERTEX
8
Stencil Cut
10
34.275146
20
33.194620
70
0
0
VERTEX
8
Stencil Cut
10
45.372437
20
33.194620
70
0
0
VERTEX
8
Stencil Cut
10
45.372437
20
29.847810
70
0
0
VERTEX
8
Stencil Cut
10
30.264404
20
29.847810
70
0
0
SEQEND
8
Stencil Cut
0
POLYLINE
8
Stencil Cut
62
7
70
0
10
0.000000
20
0.000000
66
1
0
VERTEX
8
Stencil Cut
10
76.151917
20
29.847810
70
0
0
VERTEX
8
Stencil Cut
10
76.151917
20
49.549230
70
0
0
VERTEX
8
Stencil Cut
10
80.162659
20
49.549230
70
0
0
VERTEX
8
Stencil Cut
10
80.162659
20
33.194620
70
0
0
VERTEX
8
Stencil Cut
10
90.135315
20
33.194620
70
0
0
VERTEX
8
Stencil Cut
10
90.135315
20
29.847810
70
0
0
VERTEX
8
Stencil Cut
10
76.151917
20
29.847810
70
0
0
SEQEND
8
Stencil Cut
0
POLYLINE
8
Stencil Cut
62
7
70
0
10
0.000000
20
0.000000
66
1
0
VERTEX
8
Stencil Cut
10
125.332030
20
29.847810
70
0
0
VERTEX
8
Stencil Cut
10
118.231930
20
49.711830
70
0
0
VERTEX
8
Stencil Cut
10
122.581420
20
49.711830
70
0
0
VERTEX
8
Stencil Cut
10
127.608400
20
35.010290
70
0
0
VERTEX
8
Stencil Cut
10
132.472780
20
49.711830
70
0
0
VERTEX
8
Stencil Cut
10
136.727420
20
49.711830
70
0
0
VERTEX
8
Stencil Cut
10
129.613770
20
29.847810
70
0
0
VERTEX
8
Stencil Cut
10
125.332030
20
29.847810
70
0
0
SEQEND
8
Stencil Cut
0
POLYLINE
8
Stencil Cut
62
7
70
0
10
0.000000
20
0.000000
66
1
0
VERTEX
8
Stencil Cut
10
182.411680
20
29.847810
70
0
0
VERTEX
8
Stencil Cut
10
178.048650
20
29.847810
70
0
0
VERTEX
8
Stencil Cut
10
176.314270
20
34.359900
70
0
0
VERTEX
8
Stencil Cut
10
168.374080
20
34.359900
70
0
0
VERTEX
8
Stencil Cut
10
166.734560
20
29.847810
70
0
0
VERTEX
8
Stencil Cut
10
162.479920
20
29.847810
70
0
0
VERTEX
8
Stencil Cut
10
170.216860
20
49.711830
70
0
0
VERTEX
8
Stencil Cut
10
174.457950
20
49.711830
70
0
0
VERTEX
8
Stencil Cut
10
182.411680
20
29.847810
70
0
0
SEQEND
8
Stencil Cut
0
POLYLINE
8
Stencil Cut
62
7
70
0
10
0.000000
20
0.000000
66
1
0
VERTEX
8
Stencil Cut
10
175.027040
20
37.706700
70
0
0
VERTEX
8
Stencil Cut
10
172.289980
20
45.077800
70
0
0
VERTEX
8
Stencil Cut
10
169.607120
20
37.706700
70
0
0
VERTEX
8
Stencil Cut
10
175.027040
20
37.706700
70
0
0
SEQEND
8
Stencil Cut
0
POLYLINE
8
Stencil Cut
62
7
70
0
10
0.000000
20
0.000000
66
1
0
VERTEX
8
Stencil Cut
10
215.514950
20
29.847810
70
0
0
VERTEX
8
Stencil Cut
10
215.514950
20
46.351480
70
0
0
VERTEX
8
Stencil Cut
10
209.620790
20
46.351480
70
0
0
VERTEX
8
Stencil Cut
10
209.620790
20
49.711830
70
0
0
VERTEX
8
Stencil Cut
10
225.406310
20
49.711830
70
0
0
VERTEX
8
Stencil Cut
10
225.406310
20
46.351480
70
0
0
VERTEX
8
Stencil Cut
10
219.525700
20
46.351480
70
0
0
VERTEX
8
Stencil Cut
10
219.525700
20
29.847810
70
0
0
VERTEX
8
Stencil Cut
10
215.514950
20
29.847810
70
0
0
SEQEND
8
Stencil Cut
0
POLYLINE
8
Stencil Cut
62
7
70
0
10
0.000000
20
0.000000
66
1
0
VERTEX
8
Stencil Cut
10
252.913510
20
39.657870
70
0
0
VERTEX
8
Stencil Cut
10
253.140470
20
42.449133
70
0
0
VERTEX
8
Stencil Cut
10
253.821350
20
44.752600
70
0
0
VERTEX
8
Stencil Cut
10
254.620787
20
46.192268
70
0
0
VERTEX
8
Stencil Cut
10
255.664120
20
47.476110
70
0
0
VERTEX
8
Stencil Cut
10
256.897158
20
48.526218
70
0
0
VERTEX
8
Stencil Cut
10
258.238590
20
49.264680
70
0
0
VERTEX
8
Stencil Cut
10
260.237183
20
49.854097
70
0
0
VERTEX
8
Stencil Cut
10
262.520320
20
50.050570
70
0
0
VERTEX
8
Stencil Cut
10
264.605297
20
49.880351
70
0
0
VERTEX
8
Stencil Cut
10
266.470090
20
49.369692
70
0
0
VERTEX
8
Stencil Cut
10
268.114697
20
48.518596
70
0
0
VERTEX
8
Stencil Cut
10
269.539120
20
47.327060
70
0
0
VERTEX
8
Stencil Cut
10
270.695091
20
45.832348
70
0
0
VERTEX
8
Stencil Cut
10
271.520785
20
44.071720
70
0
0
VERTEX
8
Stencil Cut
10
272.016201
20
42.045178
70
0
0
VERTEX
8
Stencil Cut
10
272.181340
20
39.752720
70
0
0
VERTEX
8
Stencil Cut
10
272.017895
20
37.478047
70
0
0
VERTEX
8
Stencil Cut
10
271.527560
20
35.464208
70
0
0
VERTEX
8
Stencil Cut
10
270.710335
20
33.711202
70
0
0
VERTEX
8
Stencil Cut
10
269.566220
20
32.219030
70
0
0
VERTEX
8
Stencil Cut
10
268.148573
20
31.033423
70
0
0
VERTEX
8
Stencil Cut
10
266.510740
20
30.186560
70
0
0
VERTEX
8
Stencil Cut
10
264.652722
20
29.678443
70
0
0
VERTEX
8
Stencil Cut
10
262.574520
20
29.509070
70
0
0
VERTEX
8
Stencil Cut
10
260.472609
20
29.677596
70
0
0
VERTEX
8
Stencil Cut
10
258.597657
20
30.183173
70
0
0
VERTEX
8
Stencil Cut
10
256.949664
20
31.025801
70
0
0
VERTEX
8
Stencil Cut
10
255.528630
20
32.205480
70
0
0
VERTEX
8
Stencil Cut
10
254.384515
20
33.687489
70
0
0
VERTEX
8
Stencil Cut
10
253.567290
20
35.423558
70
0
0
VERTEX
8
Stencil Cut
10
253.076955
20
37.413684
70
0
0
VERTEX
8
Stencil Cut
10
252.913510
20
39.657870
70
0
0
VERTEX
8
Stencil Cut
10
252.913510
20
39.657870
70
0
0
SEQEND
8
Stencil Cut
0
POLYLINE
8
Stencil Cut
62
7
70
0
10
0.000000
20
0.000000
66
1
0
VERTEX
8
Stencil Cut
10
257.046200
20
39.793370
70
0
0
VERTEX
8
Stencil Cut
10
257.143589
20
38.208044
70
0
0
VERTEX
8
Stencil Cut
10
257.435757
20
36.825965
70
0
0
VERTEX
8
Stencil Cut
10
257.922704
20
35.647134
70
0
0
VERTEX
8
Stencil Cut
10
258.604430
20
34.671550
70
0
0
VERTEX
8
Stencil Cut
10
259.436050
20
33.912759
70
0
0
VERTEX
8
Stencil Cut
10
260.372680
20
33.370765
70
0
0
VERTEX
8
Stencil Cut
10
261.414320
20
33.045569
70
0
0
VERTEX
8
Stencil Cut
10
262.560970
20
32.937170
70
0
0
VERTEX
8
Stencil Cut
10
263.705931
20
33.044722
70
0
0
VERTEX
8
Stencil Cut
10
264.742493
20
33.367377
70
0
0
VERTEX
8
Stencil Cut
10
265.670656
20
33.905137
70
0
0
VERTEX
8
Stencil Cut
10
266.490420
20
34.658000
70
0
0
VERTEX
8
Stencil Cut
10
267.166218
20
35.632737
70
0
0
VERTEX
8
Stencil Cut
10
267.648930
20
36.822577
70
0
0
VERTEX
8
Stencil Cut
10
267.938558
20
38.227522
70
0
0
VERTEX
8
Stencil Cut
10
268.035100
20
39.847570
70
0
0
VERTEX
8
Stencil Cut
10
267.941098
20
41.446447
70
0
0
VERTEX
8
Stencil Cut
10
267.659093
20
42.828527
70
0
0
VERTEX
8
Stencil Cut
10
267.189083
20
43.993812
70
0
0
VERTEX
8
Stencil Cut
10
266.531070
20
44.942300
70
0
0
VERTEX
8
Stencil Cut
10
265.724009
20
45.677374
70
0
0
VERTEX
8
Stencil Cut
10
264.793305
20
46.202427
70
0
0
VERTEX
8
Stencil Cut
10
263.738959
20
46.517459
70
0
0
VERTEX
8
Stencil Cut
10
262.560970
20
46.622470
70
0
0
VERTEX
8
Stencil Cut
10
261.381292
20
46.515766
70
0
0
VERTEX
8
Stencil Cut
10
260.321868
20
46.195652
70
0
0
VERTEX
8
Stencil Cut
10
259.382697
20
45.662131
70
0
0
VERTEX
8
Stencil Cut
10
258.563780
20
44.915200
70
0
0
VERTEX
8
Stencil Cut
10
257.899839
20
43.959937
70
0
0
VERTEX
8
Stencil Cut
10
257.425595
20
42.787877
70
0
0
VERTEX
8
Stencil Cut
10
257.141049
20
41.399022
70
0
0
VERTEX
8
Stencil Cut
10
257.046200
20
39.793370
70
0
0
VERTEX
8
Stencil Cut
10
257.046200
20
39.793370
70
0
0
SEQEND
8
Stencil Cut
0
POLYLINE
8
Stencil Cut
62
7
70
0
10
0.000000
20
0.000000
66
1
0
VERTEX
8
Stencil Cut
10
301.151920
20
29.847810
70
0
0
VERTEX
8
Stencil Cut
10
301.151920
20
49.549230
70
0
0
VERTEX
8
Stencil Cut
10
305.162660
20
49.549230
70
0
0
VERTEX
8
Stencil Cut
10
305.162660
20
33.194620
70
0
0
VERTEX
8
Stencil Cut
10
315.135310
20
33.194620
70
0
0
VERTEX
8
Stencil Cut
10
315.135310
20
29.847810
70
0
0
VERTEX
8
Stencil Cut
10
301.151920
20
29.847810
70
0
0
SEQEND
8
Stencil Cut
0
POLYLINE
8
Stencil Cut
62
7
70
0
10
0.000000
20
0.000000
66
1
0
VERTEX
8
Stencil Cut
10
350.332030
20
29.847810
70
0
0
VERTEX
8
Stencil Cut
10
343.231930
20
49.711830
70
0
0
VERTEX
8
Stencil Cut
10
347.581420
20
49.711830
70
0
0
VERTEX
8
Stencil Cut
10
352.608400
20
35.010290
70
0
0
VERTEX
8
Stencil Cut
10
357.472780
20
49.711830
70
0
0
VERTEX
8
Stencil Cut
10
361.727420
20
49.711830
70
0
0
VERTEX
8
Stencil Cut
10
354.613770
20
29.847810
70
0
0
VERTEX
8
Stencil Cut
10
350.332030
20
29.847810
70
0
0
SEQEND
8
Stencil Cut
0
POLYLINE
8
Stencil Cut
62
7
70
0
10
0.000000
20
0.000000
66
1
0
VERTEX
8
Stencil Cut
10
395.514950
20
29.847810
70
0
0
VERTEX
8
Stencil Cut
10
395.514950
20
46.351480
70
0
0
VERTEX
8
Stencil Cut
10
389.620790
20
46.351480
70
0
0
VERTEX
8
Stencil Cut
10
389.620790
20
49.711830
70
0
0
VERTEX
8
Stencil Cut
10
405.406310
20
49.711830
70
0
0
VERTEX
8
Stencil Cut
10
405.406310
20
46.351480
70
0
0
VERTEX
8
Stencil Cut
10
399.525700
20
46.351480
70
0
0
VERTEX
8
Stencil Cut
10
399.525700
20
29.847810
70
0
0
VERTEX
8
Stencil Cut
10
395.514950
20
29.847810
70
0
0
SEQEND
8
Stencil Cut
0
POLYLINE
8
Stencil Cut
62
7
70
0
10
0.000000
20
0.000000
66
1
0
VERTEX
8
Stencil Cut
10
440.542050
20
29.847810
70
0
0
VERTEX
8
Stencil Cut
10
440.542050
20
49.711830
70
0
0
VERTEX
8
Stencil Cut
10
444.552800
20
49.711830
70
0
0
VERTEX
8
Stencil Cut
10
444.552800
20
29.847810
70
0
0
VERTEX
8
Stencil Cut
10
440.542050
20
29.847810
70
0
0
SEQEND
8
Stencil Cut
0
POLYLINE
8
Stencil Cut
62
7
70
0
10
0.000000
20
0.000000
66
1
0
VERTEX
8
Stencil Cut
10
477.913510
20
39.657870
70
0
0
VERTEX
8
Stencil Cut
10
478.140470
20
42.449133
70
0
0
VERTEX
8
Stencil Cut
10
478.821350
20
44.752600
70
0
0
VERTEX
8
Stencil Cut
10
479.620787
20
46.192268
70
0
0
VERTEX
8
Stencil Cut
10
480.664120
20
47.476110
70
0
0
VERTEX
8
Stencil Cut
10
481.897157
20
48.526218
70
0
0
VERTEX
8
Stencil Cut
10
483.238590
20
49.264680
70
0
0
VERTEX
8
Stencil Cut
10
485.237183
20
49.854097
70
0
0
VERTEX
8
Stencil Cut
10
487.520320
20
50.050570
70
0
0
VERTEX
8
Stencil Cut
10
489.605297
20
49.880351
70
0
0
VERTEX
8
Stencil Cut
10
491.470090
20
49.369692
70
0
0
VERTEX
8
Stencil Cut
10
493.114697
20
48.518596
70
0
0
VERTEX
8
Stencil Cut
10
494.539120
20
47.327060
70
0
0
VERTEX
8
Stencil Cut
10
495.695091
20
45.832348
70
0
0
VERTEX
8
Stencil Cut
10
496.520785
20
44.071720
70
0
0
VERTEX
8
Stencil Cut
10
497.016201
20
42.045178
70
0
0
VERTEX
8
Stencil Cut
10
497.181340
20
39.752720
70
0
0
VERTEX
8
Stencil Cut
10
497.017895
20
37.478047
70
0
0
VERTEX
8
Stencil Cut
10
496.527560
20
35.464208
70
0
0
VERTEX
8
Stencil Cut
10
495.710335
20
33.711202
70
0
0
VERTEX
8
Stencil Cut
10
494.566220
20
32.219030
70
0
0
VERTEX
8
Stencil Cut
10
493.148573
20
31.033423
70
0
0
VERTEX
8
Stencil Cut
10
491.510740
20
30.186560
70
0
0
VERTEX
8
Stencil Cut
10
489.652722
20
29.678443
70
0
0
VERTEX
8
Stencil Cut
10
487.574520
20
29.509070
70
0
0
VERTEX
8
Stencil Cut
10
485.472609
20
29.677596
70
0
0
VERTEX
8
Stencil Cut
10
483.597657
20
30.183173
70
0
0
VERTEX
8
Stencil Cut
10
481.949664
20
31.025801
70
0
0
VERTEX
8
Stencil Cut
10
480.528630
20
32.205480
70
0
0
VERTEX
8
Stencil Cut
10
479.384515
20
33.687489
70
0
0
VERTEX
8
Stencil Cut
10
478.567290
20
35.423558
70
0
0
VERTEX
8
Stencil Cut
10
478.076955
20
37.413684
70
0
0
VERTEX
8
Stencil Cut
10
477.913510
20
39.657870
70
0
0
VERTEX
8
Stencil Cut
10
477.913510
20
39.657870
70
0
0
SEQEND
8
Stencil Cut
0
POLYLINE
8
Stencil Cut
62
7
70
0
10
0.000000
20
0.000000
66
1
0
VERTEX
8
Stencil Cut
10
482.046200
20
39.793370
70
0
0
VERTEX
8
Stencil Cut
10
482.143589
20
38.208044
70
0
0
VERTEX
8
Stencil Cut
10
482.435757
20
36.825965
70
0
0
VERTEX
8
Stencil Cut
10
482.922704
20
35.647134
70
0
0
VERTEX
8
Stencil Cut
10
483.604430
20
34.671550
70
0
0
VERTEX
8
Stencil Cut
10
484.436050
20
33.912759
70
0
0
VERTEX
8
Stencil Cut
10
485.372680
20
33.370765
70
0
0
VERTEX
8
Stencil Cut
10
486.414320
20
33.045569
70
0
0
VERTEX
8
Stencil Cut
10
487.560970
20
32.937170
70
0
0
VERTEX
8
Stencil Cut
10
488.705931
20
33.044722
70
0
0
VERTEX
8
Stencil Cut
10
489.742493
20
33.367377
70
0
0
VERTEX
8
Stencil Cut
10
490.670656
20
33.905137
70
0
0
VERTEX
8
Stencil Cut
10
491.490420
20
34.658000
70
0
0
VERTEX
8
Stencil Cut
10
492.166218
20
35.632737
70
0
0
VERTEX
8
Stencil Cut
10
492.648930
20
36.822577
70
0
0
VERTEX
8
Stencil Cut
10
492.938558
20
38.227522
70
0
0
VERTEX
8
Stencil Cut
10
493.035100
20
39.847570
70
0
0
VERTEX
8
Stencil Cut
10
492.941098
20
41.446447
70
0
0
VERTEX
8
Stencil Cut
10
492.659093
20
42.828527
70
0
0
VERTEX
8
Stencil Cut
10
492.189083
20
43.993812
70
0
0
VERTEX
8
Stencil Cut
10
491.531070
20
44.942300
70
0
0
VERTEX
8
Stencil Cut
10
490.724009
20
45.677374
70
0
0
VERTEX
8
Stencil Cut
10
489.793305
20
46.202427
70
0
0
VERTEX
8
Stencil Cut
10
488.738959
20
46.517459
70
0
0
VERTEX
8
Stencil Cut
10
487.560970
20
46.622470
70
0
0
VERTEX
8
Stencil Cut
10
486.381292
20
46.515766
70
0
0
VERTEX
8
Stencil Cut
10
485.321867
20
46.195652
70
0
0
VERTEX
8
Stencil Cut
10
484.382697
20
45.662131
70
0
0
VERTEX
8
Stencil Cut
10
483.563780
20
44.915200
70
0
0
VERTEX
8
Stencil Cut
10
482.899839
20
43.959937
70
0
0
VERTEX
8
Stencil Cut
10
482.425595
20
42.787877
70
0
0
VERTEX
8
Stencil Cut
10
482.141049
20
41.399022
70
0
0
VERTEX
8
Stencil Cut
10
482.046200
20
39.793370
70
0
0
VERTEX
8
Stencil Cut
10
482.046200
20
39.793370
70
0
0
SEQEND
8
Stencil Cut
 0 
ENDSEC
 0 
EOF